<svg width="61" height="61" viewBox="0 0 61 61" fill="none" xmlns="http://www.w3.org/2000/svg">
<path d="M32.1023 2.1255C32.0581 1.79651 31.9673 1.53381 31.8298 1.33741C31.6972 1.141 31.5254 1.04279 31.3142 1.04279C31.0147 1.04279 30.7766 1.18519 30.5998 1.46998C30.423 1.74986 30.3346 2.18442 30.3346 2.77364C30.3346 3.48563 30.4721 4.00611 30.7471 4.3351C31.0221 4.66408 31.3781 4.82857 31.8151 4.82857C32.0262 4.82857 32.2128 4.78929 32.3748 4.71073C32.5369 4.63216 32.6523 4.53887 32.721 4.43084C32.7799 4.47504 32.829 4.54132 32.8683 4.62971C32.9076 4.71809 32.9272 4.79911 32.9272 4.87276C32.9272 4.99552 32.8634 5.12319 32.7357 5.25576C32.613 5.38834 32.4338 5.50127 32.1981 5.59457C31.9624 5.68295 31.6899 5.72714 31.3805 5.72714C30.9484 5.72714 30.5531 5.62648 30.1947 5.42516C29.8412 5.22385 29.5588 4.91941 29.3477 4.51186C29.1365 4.10431 29.031 3.61084 29.031 3.03143C29.031 2.46676 29.1267 1.98801 29.3182 1.59519C29.5097 1.19746 29.7773 0.900396 30.121 0.703987C30.4697 0.502668 30.8748 0.402008 31.3363 0.402008C31.4444 0.402008 31.5671 0.416739 31.7046 0.4462C31.8421 0.475662 31.9624 0.514943 32.0655 0.564045C32.1391 0.529674 32.2472 0.495303 32.3896 0.460931C32.532 0.426559 32.6424 0.406919 32.721 0.402008C32.8634 0.750634 32.9346 1.32513 32.9346 2.1255H32.1023Z" fill="#5E9ABA"/>
<path d="M40.3416 2.49795C40.3835 2.3826 40.38 2.28464 40.3309 2.20408C40.2882 2.12059 40.1768 2.04609 39.9969 1.9806L40.0976 1.70375C40.2973 1.67193 40.5358 1.6699 40.8131 1.69767C41.0904 1.72544 41.3075 1.76787 41.4644 1.82497C41.5751 1.86528 41.6451 1.9169 41.6745 1.97983C41.7038 2.04277 41.6975 2.13191 41.6555 2.24726L40.0836 6.56606C40.0316 6.7091 40.0231 6.81838 40.0584 6.8939C40.0982 6.9711 40.1873 7.03489 40.3257 7.08527C40.2787 7.21447 40.178 7.3189 40.0236 7.39856L38.5079 6.84688C38.4437 6.6929 38.436 6.549 38.4847 6.4152C38.6185 6.4639 38.7255 6.47148 38.8056 6.43794C38.8874 6.39979 38.9535 6.31151 39.0039 6.17308L40.3416 2.49795Z" fill="#5E9ABA"/>
<path d="M50.7453 8.01326C50.6096 8.175 50.4499 8.26216 50.2663 8.27474C50.0896 8.28671 49.9185 8.22326 49.753 8.08439C49.5912 7.94867 49.5009 7.79276 49.482 7.61667C49.4701 7.43996 49.5319 7.27074 49.6677 7.109C49.8002 6.95102 49.9564 6.86416 50.1363 6.84842C50.3199 6.83584 50.4926 6.89741 50.6543 7.03313C50.8161 7.16885 50.9048 7.32664 50.9205 7.5065C50.9363 7.68636 50.8779 7.85528 50.7453 8.01326ZM47.8022 11.303C47.7107 11.412 47.6708 11.5131 47.6824 11.6062C47.7009 11.6987 47.7666 11.7923 47.8795 11.887C47.7816 12.0036 47.6532 12.0688 47.494 12.0828L46.2189 11.0128C46.205 10.8537 46.247 10.7158 46.3448 10.5992C46.4576 10.6939 46.5575 10.7392 46.6442 10.7351C46.7379 10.7304 46.8321 10.6716 46.9268 10.5588L48.2998 8.92254C48.3881 8.81722 48.4249 8.71989 48.4101 8.63057C48.3991 8.5444 48.3203 8.43977 48.1736 8.31668L48.3819 8.06842C48.5195 8.08775 48.7207 8.15727 48.9856 8.277C49.2575 8.39611 49.4686 8.51879 49.6191 8.64504C49.7056 8.71764 49.7503 8.7904 49.7532 8.86334C49.7592 8.93252 49.7228 9.01412 49.6439 9.10816L47.8022 11.303Z" fill="#5E9ABA"/>
<path d="M53.8322 18.907C53.8136 18.9631 53.7785 19.0202 53.727 19.0783C53.678 19.1407 53.63 19.1853 53.5833 19.2123C53.4897 19.2664 53.37 19.2702 53.2243 19.224C53.0785 19.1777 52.928 19.0889 52.7727 18.9574C52.6199 18.8302 52.4882 18.6709 52.3777 18.4796C52.1985 18.1691 52.1103 17.8543 52.1132 17.5352C52.116 17.216 52.2112 16.9144 52.3987 16.6304C52.5863 16.3464 52.8608 16.1 53.2222 15.8913C53.5922 15.6777 53.9538 15.5625 54.3069 15.5457C54.6625 15.5332 54.9851 15.6106 55.2745 15.778C55.5664 15.9497 55.8032 16.1929 55.9849 16.5075C56.1665 16.8222 56.2312 17.1109 56.1787 17.3737C56.133 17.6382 55.9932 17.838 55.7593 17.973C55.5595 18.0884 55.3727 18.1282 55.1989 18.0924C55.0295 18.0542 54.8981 17.9543 54.8048 17.7927C54.7287 17.6609 54.7137 17.5221 54.76 17.3763C54.8062 17.2306 54.8995 17.1172 55.0398 17.0361C55.1334 16.9821 55.2219 16.9537 55.3053 16.9509C55.3887 16.9481 55.4732 16.9617 55.5586 16.9918C55.5575 16.9017 55.5411 16.829 55.5092 16.7737C55.4257 16.6291 55.2649 16.5519 55.0267 16.542C54.7928 16.5296 54.4781 16.6376 54.0826 16.8659C53.6318 17.1262 53.3446 17.3799 53.2208 17.6271C53.1013 17.8719 53.1152 18.1218 53.2625 18.377C53.3313 18.496 53.4158 18.6031 53.5161 18.6983C53.6189 18.7977 53.7242 18.8673 53.8322 18.907Z" fill="#5E9ABA"/>
<path d="M55.8249 28.3249C55.7208 28.3283 55.6291 28.2747 55.5497 28.1641C55.4761 28.0574 55.423 27.9122 55.3906 27.7284C55.3472 27.4818 55.3641 27.2669 55.4415 27.0837C55.5198 26.9054 55.6257 26.7571 55.7594 26.6388C55.8931 26.5205 56.0715 26.3868 56.2945 26.2378C56.5127 26.0896 56.6774 25.9633 56.7887 25.859C56.9007 25.7594 56.9699 25.6425 56.9961 25.5083L55.8863 25.704C55.746 25.7287 55.6496 25.7756 55.597 25.8447C55.55 25.9178 55.5398 26.0293 55.5662 26.1792C55.4163 26.2057 55.2779 26.1702 55.1511 26.0729L54.8697 24.4772C54.9508 24.3432 55.0687 24.2626 55.2235 24.2353C55.249 24.3804 55.296 24.4768 55.3642 24.5246C55.4382 24.5764 55.5452 24.5899 55.6855 24.5652L59.6168 23.872C59.7377 23.8507 59.8212 23.801 59.8673 23.7231C59.9182 23.6443 59.9271 23.5106 59.8938 23.322L60.184 23.2709C60.3065 23.4288 60.4275 23.6343 60.547 23.8875C60.6672 24.1455 60.741 24.3518 60.7683 24.5066C60.7888 24.6226 60.7767 24.7095 60.732 24.7673C60.6882 24.8298 60.6058 24.8718 60.485 24.8931L57.2572 25.4622L58.2248 26.1143C58.3328 26.19 58.4135 26.2231 58.4667 26.2138C58.5344 26.2018 58.5878 26.1375 58.6271 26.0209C58.6672 25.9091 58.6788 25.8049 58.6617 25.7082C58.7439 25.6937 58.8263 25.6941 58.9088 25.7095C58.9912 25.7249 59.0662 25.754 59.1336 25.797L59.4214 27.429C59.3457 27.5371 59.2063 27.609 59.0032 27.6449C58.9827 27.5288 58.9496 27.4399 58.9038 27.3782C58.8589 27.3213 58.799 27.2645 58.7242 27.2079L57.4418 26.2972C57.4443 26.4813 57.4103 26.6418 57.3398 26.7789C57.2749 26.92 57.1595 27.0575 56.9937 27.1915C56.7974 27.3507 56.6948 27.4336 56.686 27.4402C56.4192 27.6518 56.2418 27.8052 56.1539 27.9005C56.0717 27.9997 56.0196 28.1286 55.9977 28.287L55.8249 28.3249Z" fill="#5E9ABA"/>
<path d="M54.8075 44.8257L53.0088 43.7872C52.8812 43.7136 52.7772 43.6875 52.6967 43.7091C52.6205 43.7331 52.5553 43.7919 52.5013 43.8855C52.4547 43.9662 52.4268 44.0636 52.4178 44.1774C52.4088 44.2913 52.4214 44.3921 52.4557 44.48C52.3972 44.5029 52.329 44.5032 52.2511 44.4809C52.1708 44.4629 52.103 44.4379 52.0477 44.406C51.9499 44.3495 51.8739 44.2603 51.8196 44.1382C51.7653 44.0162 51.7477 43.8699 51.7667 43.6995C51.7858 43.529 51.8505 43.3481 51.961 43.1568C52.1329 42.8591 52.3566 42.6679 52.6323 42.5833C52.9055 42.5029 53.2398 42.5769 53.6353 42.8052L55.3894 43.8179L55.6214 43.4161L56.0105 43.6407C55.9637 43.7611 55.9725 43.9079 56.0369 44.0812C56.1031 44.2611 56.2088 44.4413 56.3542 44.6216C56.5014 44.8086 56.6624 44.9668 56.8372 45.096C56.8058 45.18 56.7716 45.2538 56.7348 45.3176C56.6464 45.4707 56.5367 45.5576 56.4057 45.5783C56.2764 45.6058 56.1587 45.5888 56.0524 45.5274L55.3826 45.1407L54.9554 45.8806C54.8278 45.807 54.721 45.7368 54.6348 45.67C54.5528 45.6057 54.4901 45.5326 54.4466 45.4508L54.8075 44.8257Z" fill="#5E9ABA"/>
<path d="M46.5425 49.3874C46.9563 49.0402 47.3962 48.8922 47.8622 48.9434C48.3314 48.9984 48.7696 49.2685 49.1767 49.7538C49.4671 50.0998 49.6565 50.444 49.7451 50.7863C49.8299 51.1318 49.8171 51.4566 49.7069 51.7606C49.5967 52.0647 49.4005 52.335 49.1184 52.5717C48.8475 52.799 48.5601 52.9377 48.256 52.9877C47.9512 53.0447 47.6462 53.0058 47.3408 52.8711C47.0317 52.7395 46.7398 52.51 46.4652 52.1828C46.178 51.8405 45.9936 51.4985 45.912 51.1568C45.8266 50.8182 45.839 50.4969 45.9492 50.1928C46.0626 49.8926 46.2604 49.6241 46.5425 49.3874ZM46.8382 49.8315C46.7066 49.9419 46.6719 50.0992 46.7342 50.3033C46.7965 50.5075 46.9981 50.8126 47.339 51.2189C47.6262 51.5612 47.8641 51.8103 48.0526 51.9662C48.2411 52.1221 48.3938 52.2086 48.5108 52.2258C48.6278 52.243 48.7333 52.2122 48.8274 52.1333C48.959 52.0228 48.9956 51.8639 48.937 51.6567C48.8747 51.4526 48.67 51.1436 48.3228 50.7299C48.0387 50.3913 47.8024 50.1441 47.6139 49.9882C47.4286 49.8361 47.2774 49.7514 47.1604 49.7342C47.0397 49.7201 46.9323 49.7526 46.8382 49.8315Z" fill="#5E9ABA"/>
<path d="M30.9216 55.0916C31.0345 55.0916 31.172 55.099 31.334 55.1137C31.8594 55.153 32.321 55.1726 32.7187 55.1726C32.8267 55.3101 32.8807 55.4672 32.8807 55.644C32.7187 55.644 32.6033 55.671 32.5346 55.725C32.4609 55.7839 32.4241 55.8821 32.4241 56.0196V59.4813C32.4241 59.6139 32.4609 59.7072 32.5346 59.7612C32.6033 59.8201 32.7187 59.8496 32.8807 59.8496C32.8807 60.0362 32.8267 60.1909 32.7187 60.3136C32.3455 60.3136 32.0092 60.3234 31.7096 60.3431C31.4101 60.3627 31.2334 60.375 31.1793 60.3799C31.0124 60.3946 30.8921 60.402 30.8184 60.402C30.2734 60.402 29.8168 60.2891 29.4485 60.0632C29.0753 59.8373 28.8003 59.5304 28.6236 59.1425C28.4419 58.7595 28.3511 58.3299 28.3511 57.8536C28.3511 57.3282 28.4444 56.8568 28.6309 56.4395C28.8126 56.027 29.095 55.698 29.478 55.4525C29.8609 55.2119 30.3421 55.0916 30.9216 55.0916ZM30.9805 55.7029C30.5582 55.7029 30.2341 55.8625 30.0083 56.1817C29.7775 56.5057 29.6621 57.0262 29.6621 57.7431C29.6621 58.4355 29.7848 58.9535 30.0304 59.2972C30.271 59.6409 30.6073 59.8128 31.0394 59.8128C31.1229 59.8128 31.1818 59.8079 31.2162 59.798V55.7177C31.1671 55.7078 31.0885 55.7029 30.9805 55.7029Z" fill="#5E9ABA"/>
<path d="M22.2161 53.5438C22.7237 53.7285 23.0718 54.0355 23.2604 54.4647C23.4474 54.8985 23.4326 55.4131 23.2159 56.0083C23.0614 56.4328 22.8581 56.7689 22.6059 57.0168C22.3491 57.263 22.0614 57.4143 21.743 57.4709C21.4246 57.5274 21.0924 57.4927 20.7463 57.3667C20.4141 57.2458 20.1503 57.0662 19.9548 56.8279C19.7531 56.5925 19.6343 56.3088 19.5983 55.977C19.5577 55.6435 19.6105 55.276 19.7566 54.8746C19.9094 54.4547 20.1134 54.124 20.3685 53.8824C20.619 53.6392 20.9035 53.4893 21.2219 53.4327C21.5387 53.3808 21.8701 53.4178 22.2161 53.5438ZM21.9794 54.0219C21.8179 53.9632 21.6643 54.0118 21.5187 54.1678C21.3731 54.3238 21.2096 54.651 21.0282 55.1493C20.8754 55.5692 20.7786 55.8997 20.7379 56.1409C20.6971 56.3821 20.6985 56.5577 20.7421 56.6676C20.7857 56.7776 20.8652 56.8535 20.9805 56.8955C21.142 56.9543 21.2979 56.9065 21.4481 56.7522C21.5937 56.5961 21.7589 56.2644 21.9436 55.7568C22.0948 55.3415 22.1907 55.0133 22.2315 54.7721C22.2706 54.5355 22.2683 54.3623 22.2247 54.2523C22.1765 54.1407 22.0947 54.0639 21.9794 54.0219Z" fill="#5E9ABA"/>
<path d="M10.0445 50.4454C10.0293 50.3108 10.0864 50.1664 10.2158 50.0122C10.3248 50.1037 10.4253 50.1559 10.517 50.1688C10.605 50.1785 10.7032 50.1456 10.8116 50.0699L12.8429 48.6688C13.0238 48.5449 13.1677 48.4574 13.2748 48.4062C13.3818 48.355 13.4866 48.3371 13.589 48.3526C13.6914 48.368 13.8028 48.4262 13.9232 48.5272L14.3689 48.9012L13.479 51.0389L14.6974 50.2056C14.9274 50.0461 15.1069 49.9468 15.2359 49.9076C15.358 49.869 15.4868 49.8874 15.6224 49.9626L15.6271 49.957L16.2026 50.4399L14.9531 53.4873C14.8992 53.628 14.8774 53.7379 14.8879 53.8172C14.8914 53.897 14.9401 53.9764 15.0342 54.0553C14.9111 54.202 14.7769 54.2817 14.6316 54.2944L13.3621 53.2292C13.3555 53.1531 13.3677 53.0736 13.3988 52.9907C13.4267 52.9116 13.4659 52.842 13.5164 52.7818C13.5954 52.8481 13.6783 52.8792 13.7651 52.875C13.8487 52.8747 13.9252 52.8332 13.9947 52.7504C14.0073 52.7354 14.0228 52.7131 14.0411 52.6836C14.0525 52.6547 14.0626 52.6312 14.0715 52.613L14.5687 51.7226L15.067 50.785L14.1512 51.3722L13.4952 51.8217C13.2525 51.9963 13.062 52.1088 12.9235 52.1593C12.7818 52.2135 12.6508 52.1901 12.5305 52.0891L12.1008 51.7189L12.8205 50.2653L13.2256 49.2784L12.4481 49.9528L11.5944 50.5921C11.532 50.6359 11.4819 50.6804 11.444 50.7255C11.3872 50.7932 11.3665 50.856 11.3821 50.9139C11.3944 50.9756 11.4382 51.038 11.5135 51.1011C11.3841 51.2553 11.2536 51.3382 11.1222 51.3497L10.0445 50.4454Z" fill="#5E9ABA"/>
<path d="M8.09785 41.0585C8.19847 41.0854 8.31578 41.1708 8.4498 41.3145C8.58137 41.454 8.69012 41.5982 8.77604 41.747C8.88161 41.9299 8.92616 42.0856 8.90968 42.2142C8.89074 42.3385 8.80686 42.4436 8.65802 42.5296L6.66791 43.6786C6.50207 43.7743 6.40387 43.8792 6.37332 43.9932C6.34276 44.1073 6.36186 44.2238 6.4306 44.3429C6.53126 44.5172 6.68613 44.6234 6.8952 44.6615L8.84066 43.5383C8.96398 43.4671 9.03855 43.39 9.06437 43.307C9.08773 43.2198 9.06259 43.1125 8.98894 42.9849C9.11651 42.9112 9.25743 42.8951 9.4117 42.9364L10.2477 44.3843C10.2045 44.5453 10.1213 44.6614 9.99799 44.7326C9.92433 44.605 9.84391 44.5296 9.75671 44.5062C9.66951 44.4828 9.56425 44.5068 9.44094 44.578L7.5784 45.6533C7.46358 45.7196 7.4012 45.7981 7.39125 45.8889C7.37705 45.9822 7.41537 46.1075 7.5062 46.2648L7.21917 46.4305C7.06406 46.3386 6.88342 46.1878 6.67724 45.978C6.4686 45.7639 6.32745 45.5931 6.2538 45.4655C6.19733 45.3677 6.18626 45.2749 6.22059 45.187C6.2482 45.0974 6.3446 44.9992 6.50979 44.8925C6.30988 44.8605 6.12378 44.7837 5.95149 44.662C5.77494 44.5428 5.62652 44.379 5.50622 44.1707C5.32945 43.8645 5.278 43.5937 5.35186 43.3583C5.41902 43.1211 5.62907 42.9006 5.98202 42.6968L7.72337 41.6914C7.93173 41.5711 7.99613 41.3979 7.91656 41.1717L8.09785 41.0585Z" fill="#5E9ABA"/>
<path d="M1.8364 36.0677C1.71551 36.0891 1.63245 36.1411 1.58721 36.2239C1.53628 36.3026 1.52745 36.4363 1.5607 36.6249L1.27056 36.6761C1.14315 36.519 1.02215 36.3135 0.907558 36.0595C0.792963 35.8055 0.721171 35.5963 0.692181 35.4318C0.671717 35.3158 0.6814 35.2293 0.72123 35.1724C0.76106 35.1156 0.84142 35.0765 0.96231 35.0551L5.48845 34.2571C5.63836 34.2306 5.73721 34.1833 5.785 34.115C5.83195 34.0419 5.84263 33.9328 5.81705 33.7878C5.95245 33.7639 6.09324 33.7989 6.23943 33.8928L6.51953 35.4813C6.41825 35.6138 6.29749 35.6925 6.15726 35.7172C6.13253 35.577 6.08561 35.4805 6.0165 35.4279C5.94255 35.3761 5.83304 35.363 5.68797 35.3886L1.8364 36.0677Z" fill="#5E9ABA"/>
<path d="M6.49885 25.984C6.40506 26.5159 6.16319 26.912 5.77326 27.1723C5.37849 27.4318 4.86921 27.5065 4.24541 27.3966C3.80054 27.3181 3.43416 27.1762 3.14627 26.9709C2.85924 26.7607 2.66024 26.5038 2.54927 26.2C2.43829 25.8962 2.41478 25.563 2.47873 25.2003C2.54012 24.8522 2.6712 24.5612 2.87199 24.3273C3.06879 24.0878 3.32746 23.9215 3.64802 23.8285C3.96942 23.7306 4.34047 23.7187 4.76117 23.7929C5.20122 23.8705 5.56233 24.0139 5.84453 24.2232C6.12758 24.4277 6.32459 24.6818 6.43556 24.9856C6.5417 25.2885 6.5628 25.6213 6.49885 25.984ZM5.98683 25.8339C6.01667 25.6646 5.94213 25.5218 5.7632 25.4055C5.58427 25.2892 5.23368 25.185 4.71144 25.0929C4.27139 25.0153 3.92906 24.9774 3.68444 24.9792C3.43982 24.9809 3.26717 25.0128 3.16649 25.0748C3.06581 25.1368 3.00481 25.2283 2.98349 25.3492C2.95365 25.5184 3.02776 25.6636 3.20584 25.7848C3.38477 25.9011 3.7402 26.0061 4.27211 26.0999C4.70732 26.1767 5.04723 26.2142 5.29185 26.2124C5.53164 26.2098 5.70187 26.1775 5.80255 26.1155C5.90409 26.0486 5.96552 25.9548 5.98683 25.8339Z" fill="#5E9ABA"/>
<path d="M7.5172 19.0646C7.23229 18.9001 7.06093 18.6764 7.00311 18.3936C6.94529 18.1107 7.02195 17.7864 7.23309 17.4207C7.30674 17.2932 7.39438 17.1708 7.496 17.0537C7.60008 16.9324 7.69793 16.8415 7.78956 16.781L6.94121 16.2912C6.77112 16.193 6.62537 16.1655 6.50398 16.2088C6.37834 16.2497 6.27378 16.3424 6.1903 16.487C6.10928 16.6273 6.07701 16.7618 6.09349 16.8904C6.16566 16.8243 6.24468 16.7905 6.33056 16.7891C6.41464 16.7809 6.49496 16.799 6.5715 16.8432C6.70758 16.9217 6.7899 17.0345 6.81848 17.1814C6.84706 17.3283 6.81839 17.4761 6.73246 17.625C6.63917 17.7866 6.51751 17.8892 6.36749 17.933C6.21747 17.9768 6.06804 17.9558 5.91921 17.8698C5.77038 17.7839 5.65951 17.6519 5.58661 17.4737C5.51371 17.2955 5.49701 17.0789 5.53652 16.8239C5.57848 16.5647 5.68907 16.2798 5.86829 15.9694C6.11135 15.5484 6.38265 15.2798 6.68221 15.1636C6.97752 15.0449 7.29101 15.0813 7.6227 15.2728L9.31302 16.2487C9.51713 16.3666 9.69692 16.34 9.85238 16.1689L10.0565 16.2868C10.1011 16.3862 10.1079 16.512 10.0767 16.6642C10.0456 16.8163 9.99199 16.9583 9.91588 17.0901C9.74893 17.3792 9.53116 17.5257 9.26255 17.5293C9.29113 17.6763 9.29468 17.8371 9.27319 18.0118C9.24745 18.184 9.18303 18.3594 9.07991 18.538C8.89578 18.857 8.65885 19.066 8.36911 19.1652C8.07757 19.2577 7.7936 19.2242 7.5172 19.0646ZM8.28071 17.0645C8.22394 17.0941 8.16528 17.1368 8.10474 17.1926C8.04665 17.2441 8.00042 17.2996 7.96605 17.3591C7.8973 17.4782 7.87911 17.5981 7.91146 17.7188C7.93956 17.8371 8.02377 17.9368 8.1641 18.0178C8.27891 18.0841 8.39669 18.101 8.51742 18.0687C8.6339 18.0339 8.72897 17.9527 8.80262 17.8251C8.83945 17.7613 8.86654 17.6948 8.88391 17.6254C8.89947 17.5493 8.90465 17.4815 8.89943 17.4218L8.28071 17.0645Z" fill="#5E9ABA"/>
<path d="M16.4042 9.87994C16.4083 9.99183 16.3735 10.1108 16.2997 10.2368C16.226 10.3628 16.1289 10.4762 16.0086 10.5772C15.8995 10.6688 15.7718 10.7343 15.6254 10.7738C15.4822 10.817 15.3552 10.8146 15.2444 10.7666C15.2512 10.9275 15.214 11.0741 15.1327 11.2064C15.0584 11.3393 14.9384 11.4752 14.7729 11.6141C14.5623 11.7908 14.3244 11.9007 14.0592 11.9437C13.7909 11.983 13.5138 11.9431 13.228 11.824C12.9428 11.6979 12.6707 11.4807 12.4119 11.1723C12.1058 10.8074 11.9131 10.4403 11.8339 10.0709C11.7584 9.6983 11.7799 9.35339 11.8983 9.03612C12.0167 8.71886 12.2113 8.4466 12.4821 8.21936C12.546 8.1657 12.6671 8.07696 12.8452 7.95313L12.5442 7.6288L12.3075 7.34669C12.2286 7.25266 12.1439 7.20516 12.0533 7.20421C11.9628 7.20326 11.8442 7.26433 11.6975 7.38743L11.5034 7.1561C11.575 6.97416 11.6925 6.76661 11.8558 6.53344C12.0191 6.30027 12.161 6.13318 12.2813 6.03219C12.3678 5.95959 12.4473 5.9282 12.5196 5.93802C12.5925 5.94091 12.6685 5.98938 12.7474 6.08341L15.7205 9.6267C15.8752 9.81101 16.057 9.84434 16.2659 9.7267L16.4042 9.87994ZM14.7598 10.8078C14.8764 10.71 14.9364 10.6019 14.9398 10.4837L13.2828 8.50898C13.1122 8.46618 12.9611 8.50001 12.8295 8.61048C12.664 8.74936 12.6031 8.94791 12.6467 9.20616C12.6941 9.46125 12.8803 9.78251 13.2054 10.1699C13.5179 10.5423 13.8107 10.7805 14.0839 10.8846C14.3577 10.9818 14.583 10.9562 14.7598 10.8078Z" fill="#5E9ABA"/>
</svg>
