<svg width="390" height="844" viewBox="0 0 390 844" fill="none" xmlns="http://www.w3.org/2000/svg">
<rect width="390" height="844" fill="url(#paint0_radial_294_198)" fill-opacity="0.5"/>
<path fill-rule="evenodd" clip-rule="evenodd" d="M390 634.174V704.751C386.192 711.606 381.834 717.655 377.041 722.244C352.753 745.503 293.557 735.888 279.486 721.534C275.935 717.912 283.77 716.92 295.913 715.382C313.26 713.185 339.398 709.875 353.685 696.193C365.621 684.763 375.036 665.003 382.655 649.012C385.312 643.437 387.75 638.32 390 634.174ZM390 117.005V145.346C380.034 135.256 368.208 124.729 356.049 117.881C337.697 107.545 312.437 100.55 294.869 95.6855C282.483 92.2559 273.921 89.8849 274.297 88.1479C275.553 82.3588 337.721 81.0213 369.011 98.6451C376.86 103.066 383.891 109.599 390 117.005ZM361.215 171.135C362.56 164.923 342.222 136.864 319.948 124.317C297.674 111.771 260.983 103.159 259.728 108.949C259.278 111.022 267.143 113.771 277.901 117.531C288.944 121.391 303.036 126.317 314.318 132.672C327.354 140.015 340.913 153.242 350.082 162.187C356.58 168.525 360.874 172.713 361.215 171.135ZM59.5274 261.023C38.9992 283.406 33.037 299.124 34.7767 300.72C37.6123 303.322 39.5212 299.621 43.1842 292.519C46.9551 285.208 52.5847 274.292 62.9977 262.939C74.8518 250.014 90.3353 244.536 100.154 241.159L98.0965 239.271L96.522 237.827L94.7497 236.201L94.354 235.838C94.2581 235.75 94.1233 235.626 93.1824 234.762C83.5932 238.678 71.5346 247.932 59.5274 261.023ZM36.2956 332.136C36.0405 328.925 45.548 298.817 67.6012 274.781C79.7019 261.593 92.6955 252.393 106.332 247.003C108.073 248.601 108.764 249.225 109.277 249.688L109.278 249.689L109.278 249.689C109.988 250.33 110.357 250.663 112.692 252.84C114.589 254.607 114.71 254.715 115.01 254.982L115.011 254.982L115.011 254.982C115.247 255.193 115.596 255.503 117.013 256.804C101.825 260.391 84.8227 265.46 75.2035 275.943C63.2911 288.926 53.1232 307.144 46.168 319.605C40.2471 330.213 36.6544 336.65 36.2956 332.136ZM300.383 585.112C304.035 590.407 332.421 587.631 351.046 573.069C369.67 558.508 392.085 526.883 388.682 521.947C387.661 520.466 384.131 526.093 379.024 534.233C371.782 545.778 361.368 562.379 350.445 570.919C338.171 580.515 319.362 582.218 308.601 583.193C303.032 583.697 299.619 584.006 300.383 585.112ZM342.576 558.798C327.807 570.582 303.266 570.399 299.518 565.095C298.572 563.756 302.212 562.793 307.852 561.301C315.91 559.168 328.052 555.955 336.74 549.023C343.998 543.232 351.58 533.981 357.716 526.494C364.065 518.746 368.866 512.888 370.155 514.713C373.648 519.658 357.346 547.014 342.576 558.798Z" fill="url(#paint1_linear_294_198)" fill-opacity="0.14"/>
<defs>
<radialGradient id="paint0_radial_294_198" cx="0" cy="0" r="1" gradientUnits="userSpaceOnUse" gradientTransform="translate(195 422) rotate(90) scale(575.5 265.93)">
<stop offset="0.0750177" stop-color="#C0D8EC"/>
<stop offset="0.580031" stop-color="#589EDD"/>
<stop offset="0.747074" stop-color="#5BA2E2"/>
<stop offset="1" stop-color="#598FBC"/>
</radialGradient>
<linearGradient id="paint1_linear_294_198" x1="333.794" y1="539.582" x2="345.289" y2="553.961" gradientUnits="userSpaceOnUse">
<stop stop-color="#EDF8FF" stop-opacity="0.73"/>
<stop offset="1" stop-color="#EDF8FF"/>
</linearGradient>
</defs>
</svg>
