<svg width="390" height="293" viewBox="0 0 390 293" fill="none" xmlns="http://www.w3.org/2000/svg">
<path d="M48.5 112C48.5 52.0771 97.0771 3.5 157 3.5H233C292.923 3.5 341.5 52.0771 341.5 112V177C341.5 236.923 292.923 285.5 233 285.5H157C97.0771 285.5 48.5 236.923 48.5 177V112Z" fill="#F8EAD1" stroke="#F0F8FF" stroke-width="7"/>
<path fill-rule="evenodd" clip-rule="evenodd" d="M299.935 272.975C328.617 282.974 359.975 267.827 369.974 239.145C379.973 210.462 364.827 179.104 336.144 169.105C307.461 159.106 276.103 174.252 266.104 202.935C256.105 231.618 271.252 262.976 299.935 272.975ZM310.797 241.814C322.27 245.813 334.814 239.755 338.813 228.282C342.813 216.809 336.754 204.266 325.281 200.266C313.808 196.266 301.265 202.325 297.265 213.798C293.266 225.271 299.324 237.814 310.797 241.814Z" fill="#FEA1A1"/>
<path fill-rule="evenodd" clip-rule="evenodd" d="M325.072 275.601C316.861 276.665 308.285 275.886 299.935 272.975C291.54 270.048 284.304 265.292 278.52 259.309L303.11 237.207C305.263 239.197 307.852 240.787 310.797 241.814C313.698 242.825 316.667 243.193 319.549 242.994L325.072 275.601ZM355.6 261.232C361.916 255.339 366.933 247.868 369.974 239.145C373.126 230.102 373.779 220.794 372.297 211.973L339.916 218.668C340.26 221.818 339.925 225.091 338.813 228.282C337.812 231.153 336.276 233.685 334.356 235.805L355.6 261.232ZM357.093 182.295L332.47 204.426C330.42 202.644 328.003 201.215 325.281 200.266C322.514 199.302 319.686 198.922 316.929 199.062L311.402 166.429C319.492 165.44 327.928 166.241 336.144 169.105C344.315 171.954 351.387 176.535 357.093 182.295ZM281.118 180.26C274.501 186.241 269.247 193.919 266.104 202.935C263.073 211.632 262.353 220.575 263.621 229.094L296.075 222.383C295.9 219.554 296.274 216.643 297.265 213.798C298.368 210.634 300.121 207.881 302.322 205.638L281.118 180.26Z" fill="#FFEBEB"/>
<path fill-rule="evenodd" clip-rule="evenodd" d="M128.077 222.465C130.979 217.16 126.925 210.732 120.887 211.065L109.165 211.712C106.774 211.844 104.457 210.857 102.895 209.042L96.5687 201.691C92.2031 196.618 83.8906 199.134 83.0708 205.776L82.1135 213.532C81.7618 216.382 79.8561 218.8 77.1677 219.808L68.0045 223.244C61.8585 225.548 61.2184 233.988 66.9465 237.193L76.2751 242.413C78.5786 243.702 80.0628 246.08 80.2091 248.715L80.819 259.704C81.1797 266.205 88.9362 269.36 93.7325 264.958L101.205 258.099C103.27 256.204 106.2 255.578 108.859 256.465L116.306 258.949C122.615 261.053 128.451 254.718 125.836 248.603L122.02 239.675C121.09 237.5 121.21 235.018 122.345 232.943L128.077 222.465ZM123.889 219.035C117.992 220.983 112.638 224.294 108.262 228.698L108.165 228.796C107.565 229.4 106.588 229.404 105.983 228.803C105.379 228.203 105.375 227.227 105.976 226.623L106.073 226.525C110.791 221.776 116.563 218.207 122.92 216.107L123.889 219.035ZM104.305 242.587C110.297 245.41 115.704 249.492 120.19 254.581L122.361 252.443C117.592 247.034 111.846 242.695 105.477 239.694L105.344 239.631C104.582 239.272 103.703 239.629 103.379 240.428C103.056 241.227 103.41 242.165 104.172 242.524L104.305 242.587ZM88.5168 235.721C82.4976 233.068 76.0872 231.762 69.739 231.896L69.5976 231.899C68.7612 231.916 68.0151 231.231 67.9313 230.369C67.8475 229.506 68.4576 228.793 69.2941 228.775L69.4354 228.772C76.2274 228.629 83.0859 230.026 89.5259 232.865L88.5168 235.721ZM87.7177 260.695C90.6259 255.051 92.2678 248.718 92.5273 242.145L95.5363 242.493C95.2587 249.525 93.502 256.301 90.3904 262.34L90.3257 262.465C89.9425 263.209 89.0335 263.444 88.2954 262.99C87.5574 262.536 87.2697 261.565 87.6529 260.821L87.7177 260.695ZM88.4555 204.282C91.057 210.548 92.3501 217.197 92.2549 223.82L92.2528 223.968C92.2407 224.81 92.9278 225.54 93.7875 225.6C94.6472 225.66 95.3539 225.027 95.366 224.185L95.3681 224.038C95.4693 216.998 94.0949 209.93 91.3298 203.271L88.4555 204.282Z" fill="#FDBF7C"/>
<path d="M129.236 45.7149C129.041 46.5189 129.299 47.3651 129.91 47.9233L144.334 61.1087L160.762 74.2734L159.621 75.3148L129.21 49.7315C128.87 49.4456 128.371 49.4556 128.043 49.755L127.682 50.0846C125.354 52.2085 123.949 55.1578 123.765 58.3034C123.712 59.2092 124.171 60.0683 124.954 60.5278L141.033 69.969L157.846 76.9346L156.747 77.9373L141.432 71.292C140.444 70.8635 139.488 70.3655 138.571 69.8018L125.161 61.5585C124.471 61.1342 123.57 61.5419 123.434 62.3406L122.689 66.6967C122.675 66.7791 122.668 66.8626 122.668 66.9462C122.656 69.2945 123.993 71.4412 126.106 72.4667L133.977 76.2878C136.05 77.2941 138.282 77.9346 140.573 78.1811L154.803 79.7114L153.788 80.637L141.643 79.1172C139.548 78.855 137.5 78.3043 135.556 77.4807L126.958 73.8375C125.643 73.2805 124.16 74.1307 123.976 75.5465C123.563 78.7196 125.296 81.7837 128.228 83.0654L130.595 84.1C135.035 86.041 140.004 86.4077 144.681 85.1396L150.619 83.5296L155.995 81.1024L156.935 81.7999C157.575 82.2755 158.334 82.5674 159.128 82.6442C159.87 82.7161 160.607 82.4704 161.158 81.9681L161.646 81.5229L166.111 81.2548C166.698 81.2196 167.266 81.0341 167.761 80.7162L168.473 80.2587C169.021 79.9065 169.505 79.4633 169.904 78.9481L170.376 78.3381C170.744 77.8639 170.98 77.3017 171.063 76.7076L171.662 72.3825L172.144 71.9424C172.574 71.5504 172.878 71.0399 173.018 70.4755C173.266 69.4761 173.193 68.4241 172.81 67.4683L172.309 66.2155L174.244 61.9705L176.39 56.2044C178.08 51.663 178.168 46.6808 176.64 42.0824L175.826 39.6311C174.817 36.5945 171.924 34.5891 168.727 34.7102C167.3 34.7642 166.318 36.1639 166.753 37.5238L169.596 46.4188C170.239 48.4297 170.6 50.5198 170.67 52.6298L171.075 64.8631L170.06 65.7887L169.835 51.4785C169.799 49.1743 169.365 46.8938 168.552 44.7375L165.465 36.5498C164.637 34.3524 162.621 32.8252 160.282 32.6223C160.198 32.6151 160.115 32.6147 160.031 32.6213L155.626 32.9649C154.818 33.0279 154.329 33.8874 154.689 34.6135L161.674 48.7203C162.151 49.6851 162.56 50.6825 162.897 51.7051L168.116 67.5628L167.017 68.5655L161.616 51.1868L153.681 34.3129C153.295 33.4918 152.482 32.9562 151.575 32.9262C148.426 32.8221 145.36 33.9525 143.033 36.0765L142.672 36.4061C142.344 36.7054 142.288 37.2014 142.542 37.5659L165.242 70.1853L164.27 71.0724L152.618 53.5495L140.784 38.0439C140.271 37.3715 139.43 37.0348 138.595 37.167L138.485 37.1843C133.963 37.9 130.314 41.265 129.236 45.7149Z" fill="#ED9898"/>
<path d="M329.753 276.697C328.142 278.565 325.176 276.547 326.372 274.396C326.799 273.629 326.681 272.677 326.078 272.034L325.676 271.604C323.585 269.371 326.015 265.89 328.874 267.024L329.425 267.243C330.248 267.569 331.191 267.34 331.766 266.673C333.377 264.805 336.343 266.823 335.147 268.973C334.72 269.741 334.838 270.692 335.441 271.336L335.844 271.766C337.935 273.999 335.504 277.479 332.645 276.345L332.095 276.127C331.271 275.8 330.328 276.03 329.753 276.697Z" fill="#FCFFF4"/>
<path d="M340.388 270.232C341.168 269.567 342.343 269.651 343.011 270.42C343.68 271.188 343.589 272.35 342.808 273.015C342.028 273.68 340.853 273.595 340.185 272.827C339.516 272.058 339.607 270.896 340.388 270.232Z" fill="#FCFFF4"/>
<path d="M313.424 281.093C314.204 280.428 315.379 280.513 316.048 281.281C316.716 282.05 316.625 283.212 315.845 283.876C315.064 284.541 313.89 284.457 313.221 283.688C312.553 282.92 312.643 281.758 313.424 281.093Z" fill="#FCFFF4"/>
<path d="M315.854 272.29C317.025 271.293 318.786 271.419 319.789 272.572C320.792 273.725 320.656 275.468 319.485 276.465C318.314 277.462 316.552 277.336 315.549 276.183C314.547 275.03 314.683 273.287 315.854 272.29Z" fill="#FCFFF4"/>
<path d="M334.513 259.47C335.137 258.938 336.077 259.006 336.612 259.621C337.147 260.235 337.074 261.165 336.45 261.697C335.825 262.229 334.885 262.161 334.351 261.546C333.816 260.932 333.889 260.002 334.513 259.47Z" fill="#FCFFF4"/>
<path d="M42.7315 99.7456C43.7569 101.989 40.6879 103.832 39.2344 101.846C38.7158 101.138 37.8035 100.846 36.9686 101.121L36.4052 101.308C33.5004 102.267 31.3505 98.599 33.5743 96.4777L34.0056 96.0662C34.6448 95.4565 34.8289 94.5061 34.463 93.7056C33.4377 91.4624 36.5066 89.619 37.9601 91.605C38.4788 92.3137 39.3911 92.6055 40.2259 92.3298L40.7894 92.1437C43.6942 91.1843 45.8441 94.8523 43.6203 96.9735L43.1889 97.385C42.5498 97.9947 42.3656 98.9451 42.7315 99.7456Z" fill="#FCFFF4" fill-opacity="0.4"/>
<path d="M41.2795 87.3746C40.9999 86.3862 41.5648 85.3555 42.5412 85.0724C43.5175 84.7894 44.5357 85.3612 44.8153 86.3496C45.0949 87.3381 44.53 88.3688 43.5537 88.6519C42.5773 88.9349 41.5591 88.3631 41.2795 87.3746Z" fill="#FCFFF4" fill-opacity="0.4"/>
<path d="M39.9362 116.423C39.6566 115.435 40.2215 114.404 41.1979 114.121C42.1743 113.838 43.1924 114.41 43.472 115.398C43.7516 116.386 43.1868 117.417 42.2104 117.7C41.234 117.983 40.2158 117.411 39.9362 116.423Z" fill="#FCFFF4" fill-opacity="0.4"/>
<path d="M32.9479 110.51C32.5285 109.027 33.3758 107.481 34.8403 107.056C36.3049 106.632 37.8322 107.49 38.2516 108.972C38.671 110.455 37.8237 112.001 36.3591 112.426C34.8945 112.85 33.3673 111.992 32.9479 110.51Z" fill="#FCFFF4" fill-opacity="0.4"/>
<path d="M29.0572 88.1743C28.8335 87.3835 29.2854 86.5589 30.0665 86.3325C30.8476 86.1061 31.6622 86.5635 31.8859 87.3543C32.1095 88.145 31.6576 88.9696 30.8765 89.196C30.0954 89.4225 29.2809 88.965 29.0572 88.1743Z" fill="#FCFFF4" fill-opacity="0.4"/>
<path d="M347.029 153.746C346.004 155.989 349.073 157.832 350.526 155.846C351.045 155.138 351.957 154.846 352.792 155.121L353.356 155.308C356.26 156.267 358.41 152.599 356.186 150.478L355.755 150.066C355.116 149.457 354.932 148.506 355.298 147.706C356.323 145.462 353.254 143.619 351.801 145.605C351.282 146.314 350.37 146.606 349.535 146.33L348.971 146.144C346.067 145.184 343.917 148.852 346.14 150.974L346.572 151.385C347.211 151.995 347.395 152.945 347.029 153.746Z" fill="#FCFFF4" fill-opacity="0.4"/>
<path d="M348.481 141.375C348.761 140.386 348.196 139.355 347.22 139.072C346.243 138.789 345.225 139.361 344.945 140.35C344.666 141.338 345.231 142.369 346.207 142.652C347.183 142.935 348.202 142.363 348.481 141.375Z" fill="#FCFFF4" fill-opacity="0.4"/>
<path d="M349.825 170.423C350.104 169.435 349.539 168.404 348.563 168.121C347.586 167.838 346.568 168.41 346.289 169.398C346.009 170.386 346.574 171.417 347.55 171.7C348.527 171.983 349.545 171.411 349.825 170.423Z" fill="#FCFFF4" fill-opacity="0.4"/>
<path d="M339.411 159.3C339.831 157.817 338.983 156.271 337.519 155.846C336.054 155.422 334.527 156.279 334.108 157.762C333.688 159.245 334.535 160.791 336 161.215C337.465 161.64 338.992 160.782 339.411 159.3Z" fill="#FCFFF4" fill-opacity="0.4"/>
<path d="M360.704 142.174C360.927 141.384 360.475 140.559 359.694 140.332C358.913 140.106 358.099 140.564 357.875 141.354C357.651 142.145 358.103 142.97 358.884 143.196C359.665 143.422 360.48 142.965 360.704 142.174Z" fill="#FCFFF4" fill-opacity="0.4"/>
<path d="M84.8784 282.552C82.5523 281.849 83.2049 278.373 85.6234 278.584C86.4889 278.659 87.3039 278.168 87.6465 277.366L87.8678 276.848C89.0472 274.085 93.1349 274.872 93.231 277.88L93.249 278.444C93.2769 279.318 93.8573 280.077 94.6897 280.328C97.0158 281.031 96.3632 284.507 93.9447 284.296C93.0792 284.221 92.2642 284.712 91.9215 285.514L91.7003 286.032C90.5208 288.794 86.4332 288.008 86.3371 285L86.3191 284.436C86.2912 283.562 85.7108 282.803 84.8784 282.552Z" fill="#FCFFF4" fill-opacity="0.2"/>
<path d="M94.8384 289.52C95.7391 289.954 96.1215 291.045 95.6926 291.957C95.2636 292.869 94.1857 293.256 93.285 292.822C92.3843 292.388 92.0018 291.296 92.4308 290.385C92.8598 289.473 93.9377 289.086 94.8384 289.52Z" fill="#FCFFF4" fill-opacity="0.2"/>
<path d="M74.5835 269.634C75.4842 270.068 75.8667 271.159 75.4377 272.071C75.0087 272.983 73.9308 273.37 73.0301 272.936C72.1294 272.501 71.747 271.41 72.1759 270.498C72.6049 269.587 73.6828 269.199 74.5835 269.634Z" fill="#FCFFF4" fill-opacity="0.2"/>
<path d="M83.4294 268.267C84.7805 268.919 85.3542 270.555 84.7107 271.923C84.0673 273.291 82.4504 273.872 81.0993 273.22C79.7483 272.569 79.1746 270.932 79.8181 269.564C80.4615 268.196 82.0784 267.616 83.4294 268.267Z" fill="#FCFFF4" fill-opacity="0.2"/>
<path d="M102.207 279.889C102.927 280.236 103.233 281.109 102.89 281.839C102.547 282.568 101.685 282.878 100.964 282.531C100.244 282.183 99.9376 281.31 100.281 280.581C100.624 279.851 101.486 279.542 102.207 279.889Z" fill="#FCFFF4" fill-opacity="0.2"/>
<path d="M98.9995 190.673C97.743 189.296 95.6002 190.918 96.5555 192.523C96.8969 193.097 96.8379 193.826 96.4091 194.334L96.126 194.669C94.6421 196.425 96.5539 199.003 98.6388 198.057L99.0366 197.877C99.6391 197.603 100.348 197.751 100.797 198.243C102.054 199.62 104.196 197.997 103.241 196.392C102.9 195.819 102.959 195.089 103.387 194.582L103.671 194.247C105.154 192.49 103.243 189.912 101.158 190.859L100.76 191.039C100.158 191.312 99.4485 191.165 98.9995 190.673Z" fill="#FCFFF4"/>
<path d="M107.095 195.272C107.694 195.754 108.565 195.655 109.039 195.05C109.513 194.446 109.411 193.565 108.811 193.083C108.212 192.601 107.341 192.7 106.867 193.305C106.393 193.909 106.495 194.79 107.095 195.272Z" fill="#FCFFF4"/>
<path d="M86.7376 187.825C87.3372 188.307 88.2076 188.208 88.6817 187.603C89.1558 186.998 89.0541 186.117 88.4545 185.635C87.8549 185.153 86.9845 185.253 86.5104 185.857C86.0363 186.462 86.138 187.343 86.7376 187.825Z" fill="#FCFFF4"/>
<path d="M88.803 194.448C89.7024 195.171 91.008 195.022 91.7191 194.115C92.4303 193.208 92.2777 191.886 91.3783 191.163C90.4789 190.44 89.1733 190.589 88.4621 191.496C87.751 192.403 87.9036 193.724 88.803 194.448Z" fill="#FCFFF4"/>
<path d="M103.047 203.634C103.527 204.02 104.223 203.94 104.602 203.457C104.982 202.973 104.9 202.268 104.421 201.882C103.941 201.497 103.245 201.576 102.865 202.06C102.486 202.544 102.568 203.249 103.047 203.634Z" fill="#FCFFF4"/>
</svg>
