<svg width="35" height="25" viewBox="0 0 35 25" fill="none" xmlns="http://www.w3.org/2000/svg">
<path fill-rule="evenodd" clip-rule="evenodd" d="M0 2.5C0 1.11929 1.11929 0 2.5 0H32.4892C33.8699 0 34.9892 1.11929 34.9892 2.5C34.9892 3.88071 33.8699 5 32.4892 5H2.5C1.11929 5 0 3.88071 0 2.5ZM0 12.5C0 11.1193 1.11929 10 2.5 10H32.4892C33.8699 10 34.9892 11.1193 34.9892 12.5C34.9892 13.8807 33.8699 15 32.4892 15H2.5C1.11929 15 0 13.8807 0 12.5ZM13.605 20C12.2243 20 11.105 21.1193 11.105 22.5C11.105 23.8807 12.2243 25 13.605 25H32.5C33.8807 25 35 23.8807 35 22.5C35 21.1193 33.8807 20 32.5 20H13.605Z" fill="#5E9ABA"/>
</svg>
