<svg width="78" height="60" viewBox="0 0 78 60" fill="none" xmlns="http://www.w3.org/2000/svg">
<circle cx="44.4153" cy="52.2079" r="7.79221" fill="#CBBF82"/>
<circle cx="44.4124" cy="52.2079" r="6.62338" fill="#FEEFA1"/>
<rect x="43.5986" y="56.1429" width="7.79221" height="1.63636" rx="0.818182" transform="rotate(-90 43.5986 56.1429)" fill="#CBBF82"/>
<path d="M45.105 49.6588C45.2732 49.2326 45.8969 49.303 45.9658 49.756V49.756C45.9835 49.8721 46.0459 49.9766 46.1397 50.0472L46.2102 50.1002C46.6152 50.4047 46.5443 51.0322 46.0816 51.2386L46.001 51.2746C45.8938 51.3224 45.8097 51.4104 45.7666 51.5196V51.5196C45.5983 51.9458 44.9746 51.8753 44.9057 51.4223V51.4223C44.8881 51.3063 44.8257 51.2018 44.7318 51.1312L44.6613 51.0782C44.2564 50.7737 44.3272 50.1462 44.7899 49.9397L44.8705 49.9038C44.9777 49.8559 45.0619 49.768 45.105 49.6588V49.6588Z" fill="#FCFFF4"/>
<circle cx="43.671" cy="51.9326" r="0.389611" transform="rotate(21.1501 43.671 51.9326)" fill="#FCFFF4"/>
<circle cx="47.8087" cy="50.4073" r="0.389611" transform="rotate(21.1501 47.8087 50.4073)" fill="#FCFFF4"/>
<circle cx="46.9972" cy="49.259" r="0.389611" transform="rotate(21.1501 46.9972 49.259)" fill="#FCFFF4"/>
<path fill-rule="evenodd" clip-rule="evenodd" d="M33.43 42.86C45.2655 42.86 54.86 33.2655 54.86 21.43C54.86 9.59454 45.2655 0 33.43 0C21.5945 0 12 9.59454 12 21.43C12 33.2655 21.5945 42.86 33.43 42.86ZM33.4299 30.002C38.1641 30.002 42.0019 26.1642 42.0019 21.43C42.0019 16.6958 38.1641 12.858 33.4299 12.858C28.6957 12.858 24.8579 16.6958 24.8579 21.43C24.8579 26.1642 28.6957 30.002 33.4299 30.002Z" fill="#FEA1A1"/>
<path fill-rule="evenodd" clip-rule="evenodd" d="M43.0153 40.6021C40.1311 42.0469 36.8755 42.86 33.43 42.86C29.966 42.86 26.694 42.0381 23.7982 40.5787L30.0108 29.293C31.0582 29.7491 32.2145 30.002 33.4299 30.002C34.6268 30.002 35.7665 29.7567 36.8013 29.3136L43.0153 40.6021ZM52.4045 31.3999C53.9726 28.4218 54.86 25.0295 54.86 21.43C54.86 17.6988 53.9064 14.1903 52.2297 11.135L41.1747 17.7516C41.7051 18.8662 42.0019 20.1135 42.0019 21.43C42.0019 22.6148 41.7615 23.7434 41.3269 24.7698L52.4045 31.3999ZM42.8294 2.16594L36.6086 13.4667C35.6257 13.074 34.553 12.858 33.4299 12.858C32.2884 12.858 31.1989 13.0812 30.2029 13.4862L23.9839 2.18882C26.8335 0.787216 30.0398 0 33.43 0C36.8017 0 39.9915 0.778649 42.8294 2.16594ZM14.6157 11.1617C12.948 14.2108 12 17.7097 12 21.43C12 25.0187 12.8821 28.4013 14.4413 31.3729L25.521 24.7415C25.0939 23.7227 24.8579 22.6039 24.8579 21.43C24.8579 20.1243 25.1498 18.8868 25.672 17.7791L14.6157 11.1617Z" fill="#FFEBEB"/>
<path d="M21.8932 28.8696C21.3993 28.8929 20.9572 29.1833 20.7397 29.6274L15.6001 40.1173L10.8092 51.7534L10.0201 51.2738L19.5848 29.5298C19.6917 29.2868 19.602 29.0022 19.3752 28.8643L19.1255 28.7125C17.5159 27.7343 15.5879 27.4237 13.7526 27.8469C13.2241 27.9688 12.8085 28.3765 12.6764 28.9025L9.96277 39.7127L8.79261 50.5278L8.03273 50.066L9.27093 40.164C9.35078 39.5255 9.47581 38.8934 9.64506 38.2726L12.12 29.1947C12.2474 28.7275 11.8622 28.2794 11.3811 28.3354L8.75721 28.6404C8.70756 28.6462 8.65846 28.656 8.61042 28.6698C7.26141 29.0579 6.25468 30.1855 6.02145 31.5697L5.1524 36.7273C4.92352 38.0856 4.93111 39.4732 5.17481 40.829L6.68834 49.2489L5.98691 48.8226L4.81768 41.6003C4.61602 40.3546 4.58767 39.087 4.73346 37.8335L5.37833 32.289C5.47693 31.4413 4.73995 30.7332 3.89684 30.8656C2.00736 31.1622 0.540924 32.6712 0.29841 34.5684L0.102638 36.0999C-0.264616 38.9729 0.360132 41.8852 1.87348 44.3548L3.79496 47.4904L6.0907 50.1663L5.84856 50.8227C5.68347 51.2702 5.64346 51.7543 5.73283 52.2228C5.81629 52.6604 6.08115 53.0421 6.46179 53.2734L6.79915 53.4785L7.70335 55.9949C7.82223 56.3258 8.02409 56.6205 8.2896 56.8509L8.67172 57.1825C8.96585 57.4377 9.30144 57.6408 9.66397 57.7831L10.0933 57.9516C10.4271 58.0825 10.7893 58.1238 11.1439 58.0712L13.7257 57.6883L14.0592 57.8909C14.3563 58.0715 14.7002 58.1601 15.0475 58.1455C15.6624 58.1197 16.2537 57.9013 16.7376 57.5211L17.3719 57.0228L20.1323 57.4197L23.8005 57.6814C26.6895 57.8875 29.5623 57.1009 31.9434 55.4519L33.2127 54.5728C34.7851 53.4839 35.4492 51.4873 34.8425 49.6735C34.5717 48.8641 33.6038 48.536 32.8967 49.0139L28.272 52.1396C27.2265 52.8463 26.0883 53.4048 24.8897 53.7995L17.9403 56.0875L17.2389 55.6612L25.4099 53.1273C26.7255 52.7193 27.9608 52.087 29.0611 51.2583L33.2391 48.1118C34.3604 47.2673 34.8977 45.8544 34.6209 44.4783C34.611 44.4293 34.5971 44.3812 34.5794 44.3344L33.6419 41.8648C33.47 41.4121 32.8949 41.2764 32.5388 41.6047L25.6205 47.982C25.1473 48.4182 24.6439 48.8202 24.1138 49.1851L15.8945 54.8441L15.1347 54.3823L24.1958 48.3632L32.5419 40.9762C32.9481 40.6168 33.1185 40.06 32.9833 39.5348C32.5138 37.7108 31.3502 36.1424 29.7407 35.1642L29.491 35.0124C29.2641 34.8745 28.9702 34.926 28.8038 35.1328L13.9072 53.6363L13.235 53.2277L21.3284 43.5988L28.2342 34.2048C28.5337 33.7975 28.5856 33.2586 28.3693 32.8016L28.341 32.7417C27.1704 30.2677 24.627 28.7404 21.8932 28.8696Z" fill="#ED9898"/>
<path fill-rule="evenodd" clip-rule="evenodd" d="M76.7236 32.199C78.1899 29.5188 76.1413 26.2706 73.0909 26.4389L67.1679 26.7658C65.9598 26.8324 64.7893 26.3341 64.0001 25.4169L60.8037 21.7026C58.5979 19.1394 54.398 20.4106 53.9838 23.7667L53.5001 27.6858C53.3224 29.1255 52.3595 30.3473 51.0011 30.8566L46.3714 32.5925C43.266 33.7569 42.9426 38.0213 45.8368 39.6407L50.5501 42.2779C51.714 42.9292 52.4639 44.1305 52.5378 45.4621L52.846 51.0145C53.0283 54.299 56.9473 55.8933 59.3707 53.6689L63.1462 50.2035C64.1895 49.2459 65.6701 48.9297 67.0135 49.3778L70.7762 50.6328C73.964 51.696 76.9123 48.4953 75.5914 45.4054L73.663 40.8944C73.1932 39.7955 73.2539 38.5416 73.8275 37.4931L76.7236 32.199ZM74.6074 30.4662C71.628 31.4502 68.923 33.1229 66.7119 35.3484L66.6627 35.3978C66.3594 35.7031 65.866 35.7047 65.5605 35.4015C65.2551 35.0983 65.2534 34.605 65.5567 34.2997L65.6058 34.2502C67.9896 31.851 70.906 30.0476 74.1181 28.9867L74.6074 30.4662ZM64.7127 42.3656C67.7402 43.792 70.4717 45.8546 72.7385 48.4258L73.8355 47.3455C71.4261 44.6126 68.5228 42.4203 65.3049 40.9042L65.2373 40.8724C64.8527 40.6911 64.4083 40.8713 64.2448 41.2749C64.0812 41.6785 64.2605 42.1525 64.6452 42.3338L64.7127 42.3656ZM56.7354 38.8969C53.6941 37.5561 50.4552 36.8962 47.2477 36.9639L47.1763 36.9654C46.7537 36.9743 46.3767 36.6282 46.3344 36.1924C46.292 35.7566 46.6003 35.3961 47.0229 35.3872L47.0943 35.3857C50.526 35.3133 53.9914 36.0194 57.2452 37.4539L56.7354 38.8969ZM56.3316 51.5151C57.801 48.6632 58.6306 45.4636 58.7617 42.1425L60.2821 42.3181C60.1418 45.8714 59.2542 49.2948 57.682 52.346L57.6493 52.4095C57.4557 52.7853 56.9964 52.9039 56.6235 52.6745C56.2506 52.445 56.1053 51.9544 56.2989 51.5786L56.3316 51.5151ZM56.7044 23.0119C58.0188 26.1776 58.6722 29.5374 58.6241 32.8838L58.623 32.9585C58.6169 33.3836 58.9641 33.7529 59.3984 33.7832C59.8328 33.8135 60.1899 33.4934 60.196 33.0682L60.1971 32.9936C60.2482 29.4367 59.5538 25.8656 58.1567 22.5008L56.7044 23.0119Z" fill="#FDBF7C"/>
</svg>
