<svg width="542" height="188" viewBox="0 0 542 188" fill="none" xmlns="http://www.w3.org/2000/svg">
<path fill-rule="evenodd" clip-rule="evenodd" d="M132.795 132.19C149.967 107.134 143.577 72.9016 118.521 55.7293C93.4651 38.5569 59.2324 44.9477 42.0601 70.0035C24.8877 95.0592 31.2785 129.292 56.3343 146.464C81.39 163.637 115.623 157.246 132.795 132.19ZM105.578 113.534C112.447 103.512 109.891 89.8184 99.8683 82.9495C89.846 76.0806 76.1529 78.6369 69.284 88.6592C62.4151 98.6815 64.9714 112.375 74.9937 119.243C85.016 126.112 98.709 123.556 105.578 113.534Z" fill="#FFEBEB"/>
<mask id="mask0_234_11448" style="mask-type:alpha" maskUnits="userSpaceOnUse" x="30" y="44" width="114" height="114">
<path d="M45.2161 139.96L30.3247 128.226L30.6891 108.615L67.8767 101.882L74.0252 115.328L45.2161 139.96Z" fill="#D9D9D9"/>
<path d="M96.5738 157.213L115.529 156.849L127.079 140.995L101.498 113.176L88.4784 120.184L96.5738 157.213Z" fill="#D9D9D9"/>
<path d="M128.649 61.7336L143.54 73.467L143.176 93.0786L105.988 99.8117L99.8394 86.3648L128.649 61.7336Z" fill="#D9D9D9"/>
<path d="M77.2908 44.4807L58.3358 44.8439L46.786 60.698L72.3663 88.517L85.3862 81.5094L77.2908 44.4807Z" fill="#D9D9D9"/>
</mask>
<g mask="url(#mask0_234_11448)">
<path fill-rule="evenodd" clip-rule="evenodd" d="M139.615 118.464C149.288 89.67 133.787 58.486 104.993 48.813C76.1987 39.14 45.0147 54.6409 35.3417 83.4352C25.6687 112.23 41.1696 143.413 69.9639 153.086C98.7582 162.76 129.942 147.259 139.615 118.464ZM108.335 107.956C112.204 96.4378 106.004 83.9642 94.4858 80.095C82.9681 76.2258 70.4945 82.4261 66.6253 93.9439C62.7561 105.462 68.9564 117.935 80.4741 121.804C91.9919 125.674 104.465 119.473 108.335 107.956Z" fill="#FEA1A1"/>
</g>
<path d="M511.949 79.7546C510.822 79.8078 509.814 80.4703 509.317 81.4834L497.591 105.416L486.661 131.964L484.861 130.869L506.682 81.2607C506.926 80.7064 506.722 80.0571 506.204 79.7426L505.634 79.3963C501.962 77.1645 497.564 76.4558 493.376 77.4213C492.171 77.6993 491.222 78.6295 490.921 79.8297L484.73 104.493L482.06 129.167L480.327 128.114L483.151 105.523C483.334 104.066 483.619 102.624 484.005 101.207L489.652 80.4964C489.942 79.4303 489.063 78.4082 487.966 78.5358L481.979 79.2317C481.866 79.2449 481.754 79.2673 481.645 79.2988C478.567 80.1841 476.27 82.7567 475.738 85.9147L473.755 97.6817C473.233 100.781 473.25 103.947 473.806 107.04L477.259 126.25L475.659 125.277L472.991 108.799C472.531 105.957 472.467 103.065 472.799 100.206L474.271 87.556C474.496 85.6219 472.814 84.0064 470.891 84.3084C466.58 84.9852 463.234 88.4279 462.681 92.7563L462.234 96.2504C461.396 102.805 462.822 109.449 466.274 115.084L470.658 122.237L475.896 128.343L475.343 129.84C474.967 130.861 474.875 131.966 475.079 133.035C475.27 134.033 475.874 134.904 476.742 135.431L477.512 135.899L479.575 141.641C479.846 142.395 480.307 143.068 480.913 143.593L481.784 144.35C482.455 144.932 483.221 145.396 484.048 145.72L485.028 146.105C485.789 146.403 486.616 146.497 487.425 146.377L493.315 145.504L494.076 145.966C494.754 146.378 495.538 146.58 496.331 146.547C497.733 146.488 499.082 145.99 500.187 145.122L501.634 143.985L507.931 144.891L516.3 145.488C522.892 145.958 529.446 144.164 534.878 140.402L537.774 138.396C541.362 135.912 542.877 131.356 541.492 127.218C540.875 125.372 538.666 124.623 537.053 125.713L526.502 132.845C524.117 134.457 521.52 135.731 518.785 136.632L502.931 141.852L501.33 140.879L519.972 135.098C522.974 134.167 525.792 132.725 528.302 130.834L537.834 123.655C540.393 121.729 541.618 118.505 540.987 115.365C540.964 115.254 540.933 115.144 540.892 115.037L538.753 109.403C538.361 108.37 537.049 108.061 536.237 108.809L520.453 123.359C519.373 124.354 518.224 125.272 517.015 126.104L498.263 139.015L496.529 137.961L517.202 124.229L536.244 107.376C537.17 106.556 537.559 105.285 537.251 104.087C536.18 99.9256 533.525 96.3474 529.853 94.1156L529.283 93.7693C528.766 93.4548 528.095 93.5722 527.715 94.044L493.729 136.259L492.195 135.327L510.66 113.359L526.416 91.9268C527.099 90.9974 527.217 89.7681 526.724 88.7254L526.659 88.5887C523.989 82.9444 518.186 79.4597 511.949 79.7546Z" fill="#ED9898"/>
<path fill-rule="evenodd" clip-rule="evenodd" d="M430.812 50.7815C436.597 45.4873 434.315 35.8986 426.766 33.7775L413.391 30.0195C410.401 29.1795 407.971 26.9981 406.815 24.1159L402.653 13.7432C399.421 5.68785 388.165 5.29213 384.376 13.1006L380.542 20.9994C378.917 24.3492 375.564 26.5183 371.843 26.6288L360.565 26.9637C352.056 27.2164 347.734 37.3064 353.421 43.6402L361.727 52.8914C364.014 55.4385 364.839 58.9784 363.914 62.2742L360.444 74.6401C358.163 82.769 366.36 89.892 374.091 86.4989L384.85 81.777C388.178 80.3163 392.037 80.7765 394.928 82.9789L401.962 88.3366C408.823 93.563 418.639 88.2338 417.993 79.633L417.155 68.4599C416.925 65.4008 418.112 62.4056 420.375 60.3345L430.812 50.7815ZM427.703 44.6714C419.942 44.5936 412.273 46.347 405.319 49.789L405.164 49.8656C404.174 50.3556 402.974 49.9503 402.484 48.9604C401.993 47.9706 402.398 46.771 403.388 46.281L403.543 46.2044C411.061 42.4833 419.352 40.5879 427.741 40.672L427.703 44.6714ZM394.938 64.6288C400.886 70.3892 405.633 77.4023 408.885 85.2348L412.445 83.5207C408.981 75.1771 403.925 67.7065 397.588 61.5702L397.455 61.4416C396.671 60.6824 395.443 60.7516 394.711 61.5962C393.979 62.4408 394.021 63.741 394.805 64.5002L394.938 64.6288ZM379.02 50.1134C372.971 44.5433 365.916 40.4092 358.353 38.0036L358.184 37.95C357.151 37.6211 356.522 36.4679 356.78 35.3743C357.039 34.2806 358.087 33.6606 359.121 33.9895L359.289 34.0431C367.401 36.6232 374.968 41.0571 381.455 47.0312L379.02 50.1134ZM367.972 79.2598C373.691 73.7578 378.191 66.9301 381.153 59.2597L384.7 60.9474C381.524 69.1741 376.697 76.497 370.563 82.398L370.435 82.5207C369.653 83.2729 368.439 83.1801 367.724 82.3135C367.008 81.4469 367.062 80.1347 367.844 79.3825L367.972 79.2598ZM391.633 12.7992C392.18 21.2624 391.024 29.6515 388.236 37.4485L388.173 37.6225C387.806 38.6502 388.343 39.835 389.373 40.2689C390.403 40.7028 391.536 40.2215 391.903 39.1938L391.965 39.0198C394.935 30.7141 396.167 21.7776 395.585 12.7623L391.633 12.7992Z" fill="#FDBF7C"/>
</svg>
