<svg width="1283" height="88" viewBox="0 0 1283 88" fill="none" xmlns="http://www.w3.org/2000/svg">
<path d="M0 84V3L1250.1 3C1247.6 13.9996 1250.48 25.5351 1257.88 34.0554L1268.75 46.5852C1276.52 55.534 1275.26 69.1516 1265.99 76.5248C1259.9 81.3651 1252.35 84 1244.57 84H0Z" fill="url(#paint0_radial_241_11621)"/>
<path d="M0 84V3L1198.5 3L1196.46 6.80702C1191.09 16.8157 1192.59 29.1209 1200.22 37.5373L1200.56 37.916C1201.81 39.2904 1203.33 40.3917 1205.02 41.1503C1223.35 49.3639 1222.2 75.756 1203.23 82.3533L1198.5 84H0Z" fill="url(#paint1_radial_241_11621)" fill-opacity="0.5"/>
<path d="M0 84V3L1185.21 3L1184.87 3.25614C1173.27 11.9751 1170.85 28.4169 1179.46 40.1046L1179.67 40.3923C1180.31 41.2575 1181.05 42.0391 1181.89 42.7184C1196.13 54.3391 1189.8 77.3433 1171.62 80.048L1145.06 84H0Z" fill="url(#paint2_radial_241_11621)" fill-opacity="0.45"/>
<path d="M0 84V3L1120 3L1097.42 10.9394C1084.19 15.591 1080.39 32.4795 1090.35 42.3516L1100.03 50.0349C1110.21 58.1076 1114.2 71.7098 1110 84H0Z" fill="url(#paint3_radial_241_11621)" fill-opacity="0.45"/>
<path d="M0 84V3H1029.3L1025.99 6.43964C1017.32 15.4409 1016.36 29.3653 1023.71 39.4729C1024.77 40.9426 1026.1 42.2091 1027.61 43.2122L1052.29 59.5508C1060.92 65.2627 1061.28 77.7989 1053 84H0Z" fill="url(#paint4_radial_241_11621)" fill-opacity="0.45"/>
<path d="M0 84V3H893L890.691 6.59178C883.981 17.03 884.561 30.5607 892.141 40.386C892.713 41.1274 893.344 41.8213 894.028 42.4608L900.069 48.108C910.489 57.8486 918.034 70.2642 921.879 84H0Z" fill="url(#paint5_radial_241_11621)" fill-opacity="0.45"/>
<path d="M0 84V3H757L754.171 11.0782C751.268 19.3673 753.069 28.5779 758.88 35.1635C759.952 36.379 761.223 37.4038 762.638 38.1944L799.973 59.048C810.454 64.9021 819.114 73.5368 825 84H0Z" fill="url(#paint6_radial_241_11621)" fill-opacity="0.5"/>
<path d="M1259.37 58.9977C1259.37 76.4569 1247 84 1237.5 84C1238.25 84 1236.72 84 1237.5 84C1236.04 84 1239.14 80.0814 1241.91 74.0216C1246.21 64.6306 1242.48 53.4246 1245.94 43.6926C1248.22 37.2721 1252.53 33 1254 33C1256.75 33 1259.37 45.1906 1259.37 58.9977Z" fill="#EDF8FF" fill-opacity="0.2"/>
<path d="M1265.89 59C1265.89 76.4592 1248.71 84 1239.21 84C1238.43 84 1240.25 83.9977 1239.5 83.9977C1238 83.9977 1242.97 79.8706 1247.1 73.5368C1252.75 64.8884 1249.36 53.8748 1250.5 43.6097C1251.21 37.2356 1253.53 33 1255 33C1257.47 33 1265.89 45.1929 1265.89 59Z" fill="#EDF8FF" fill-opacity="0.25"/>
<path d="M1272.19 59C1272.19 76.4592 1255 84 1245.5 84C1244.72 84 1241.25 84 1240.5 84C1238.95 84 1246.38 79.6018 1252.13 72.9185C1258.87 65.0931 1256.25 54.0672 1254.91 43.8258C1254.06 37.3315 1254.52 33 1256 33C1260.5 33 1272.19 45.1929 1272.19 59Z" fill="#EDF8FF" fill-opacity="0.6"/>
<path d="M1282.18 59C1282.18 79 1250.66 84 1248.19 84C1246.62 84 1255.19 79.4842 1261.66 72.6511C1268.76 65.1496 1266.99 53.8718 1262.27 44.688C1258.68 37.7177 1255.64 33 1257.19 33C1259.66 33 1282.18 45.1929 1282.18 59Z" fill="#EDF8FF"/>
<path d="M1226.58 68.8225C1229.01 67.2165 1228.95 54.5685 1223.42 46.2219C1217.9 37.8753 1205.18 27.7765 1202.92 29.2731C1201.28 30.359 1216.95 38.1346 1222.48 46.4812C1228 54.8278 1225.1 69.8067 1226.58 68.8225Z" fill="url(#paint7_linear_241_11621)" fill-opacity="0.16"/>
<path d="M1217.93 69.1319C1220.36 67.4834 1221.42 56.5586 1216.94 49.9386C1212.46 43.3187 1201.33 35.9575 1199.06 37.4939C1197.42 38.6088 1208.02 45.88 1212.5 52.5C1216.98 59.12 1216.44 70.1423 1217.93 69.1319Z" fill="url(#paint8_linear_241_11621)" fill-opacity="0.14"/>
<path d="M1264.69 43.032C1264.28 42.5037 1264.98 41.8353 1265.49 42.2697V42.2697C1265.67 42.4249 1265.93 42.4466 1266.14 42.3234L1266.27 42.2424C1266.98 41.8167 1267.77 42.6485 1267.32 43.3354L1267.23 43.4661C1267.1 43.6647 1267.1 43.926 1267.25 44.1149V44.1149C1267.66 44.6432 1266.96 45.3115 1266.45 44.8772V44.8772C1266.27 44.722 1266.01 44.7003 1265.8 44.8234L1265.67 44.9045C1264.96 45.3302 1264.17 44.4984 1264.63 43.8115L1264.71 43.6808C1264.85 43.4822 1264.84 43.2209 1264.69 43.032V43.032Z" fill="#FCFFF4"/>
<circle cx="1265.39" cy="46.4263" r="0.5" transform="rotate(-28.9248 1265.39 46.4263)" fill="#FCFFF4"/>
<circle cx="1263.99" cy="38.7412" r="0.5" transform="rotate(-28.9248 1263.99 38.7412)" fill="#FCFFF4"/>
<circle cx="1265.98" cy="39.9841" r="0.75" transform="rotate(-28.9248 1265.98 39.9841)" fill="#FCFFF4"/>
<circle cx="1268.66" cy="45.4242" r="0.4" transform="rotate(-28.9248 1268.66 45.4242)" fill="#FCFFF4"/>
<path d="M1246.04 9.77991C1246.32 10.3866 1245.48 10.8808 1245.09 10.3437V10.3437C1244.94 10.1518 1244.69 10.0723 1244.47 10.1464L1244.32 10.1951C1243.53 10.4514 1242.95 9.4632 1243.55 8.89661L1243.66 8.78877C1243.84 8.62492 1243.89 8.36821 1243.79 8.15137V8.15137C1243.5 7.54472 1244.34 7.05045 1244.74 7.58755V7.58755C1244.88 7.77953 1245.13 7.85902 1245.35 7.78491L1245.5 7.73614C1246.29 7.4799 1246.88 8.46809 1246.27 9.03467L1246.16 9.14251C1245.99 9.30637 1245.94 9.56308 1246.04 9.77991V9.77991Z" fill="#FCFFF4" fill-opacity="0.4"/>
<circle cx="1246.12" cy="6.31657" r="0.5" transform="rotate(164.021 1246.12 6.31657)" fill="#FCFFF4" fill-opacity="0.4"/>
<circle cx="1245.76" cy="14.1183" r="0.5" transform="rotate(164.021 1245.76 14.1183)" fill="#FCFFF4" fill-opacity="0.4"/>
<circle cx="1244.1" cy="12.4613" r="0.75" transform="rotate(164.021 1244.1 12.4613)" fill="#FCFFF4" fill-opacity="0.4"/>
<circle cx="1242.7" cy="6.55882" r="0.4" transform="rotate(164.021 1242.7 6.55882)" fill="#FCFFF4" fill-opacity="0.4"/>
<path d="M1217.1 31.0355C1216.46 30.8444 1216.64 29.8929 1217.31 29.9501V29.9501C1217.55 29.9705 1217.77 29.8364 1217.87 29.6171L1217.93 29.4728C1218.26 28.7144 1219.39 28.929 1219.41 29.7547L1219.42 29.9119C1219.42 30.1507 1219.58 30.3578 1219.81 30.4261V30.4261C1220.45 30.6172 1220.27 31.5688 1219.61 31.5116V31.5116C1219.37 31.4911 1219.14 31.6252 1219.05 31.8445L1218.99 31.9889C1218.66 32.7472 1217.53 32.5327 1217.5 31.7069L1217.5 31.5498C1217.49 31.311 1217.33 31.1039 1217.1 31.0355V31.0355Z" fill="#FCFFF4" fill-opacity="0.2"/>
<circle cx="1219.64" cy="33.3915" r="0.5" transform="rotate(-64.5342 1219.64 33.3915)" fill="#FCFFF4" fill-opacity="0.2"/>
<circle cx="1214.04" cy="27.9542" r="0.5" transform="rotate(-64.5342 1214.04 27.9542)" fill="#FCFFF4" fill-opacity="0.2"/>
<circle cx="1216.38" cy="27.8063" r="0.75" transform="rotate(-64.5342 1216.38 27.8063)" fill="#FCFFF4" fill-opacity="0.2"/>
<circle cx="1221.72" cy="30.6679" r="0.4" transform="rotate(-64.5342 1221.72 30.6679)" fill="#FCFFF4" fill-opacity="0.2"/>
<path d="M1257.67 76.3072C1258.04 75.7477 1258.9 76.1922 1258.66 76.8143V76.8143C1258.57 77.0366 1258.63 77.29 1258.82 77.4433L1258.94 77.5443C1259.57 78.0746 1259.04 79.0955 1258.24 78.8858L1258.09 78.8459C1257.86 78.7853 1257.62 78.8792 1257.49 79.0792V79.0792C1257.12 79.6388 1256.26 79.1943 1256.5 78.5722V78.5722C1256.59 78.3498 1256.53 78.0965 1256.34 77.9431L1256.22 77.8422C1255.59 77.3119 1256.12 76.291 1256.92 76.5006L1257.07 76.5405C1257.3 76.6012 1257.54 76.5072 1257.67 76.3072V76.3072Z" fill="#FCFFF4"/>
<circle cx="1254.69" cy="78.0706" r="0.5" transform="rotate(42.0207 1254.69 78.0706)" fill="#FCFFF4"/>
<circle cx="1261.5" cy="74.2456" r="0.5" transform="rotate(42.0207 1261.5 74.2456)" fill="#FCFFF4"/>
<circle cx="1260.98" cy="76.5318" r="0.75" transform="rotate(42.0207 1260.98 76.5318)" fill="#FCFFF4"/>
<circle cx="1256.71" cy="80.8421" r="0.4" transform="rotate(42.0207 1256.71 80.8421)" fill="#FCFFF4"/>
<path d="M1207.79 66.7745C1209.83 65.3877 1212.05 58.1577 1209.54 54.4433C1207.03 50.7289 1199.6 47.3975 1197.7 48.69C1196.31 49.6279 1203.35 52.9695 1205.86 56.6839C1208.38 60.3983 1206.53 67.6244 1207.79 66.7745Z" fill="url(#paint9_linear_241_11621)" fill-opacity="0.14"/>
<path d="M1146.79 7.03572C1143.9 7.5536 1128.09 17.1815 1129.5 25.0515C1130.91 32.9216 1148.48 44.0918 1151.18 43.6094C1153.14 43.2594 1142.28 32.9216 1140.87 25.0515C1139.46 17.1815 1148.56 6.71834 1146.79 7.03572Z" fill="url(#paint10_linear_241_11621)" fill-opacity="0.1"/>
<path d="M1157.79 16.0356C1154.9 16.5535 1149.06 23.7088 1150.06 29.3113C1151.06 34.9137 1157.61 42.6612 1160.31 42.1787C1162.27 41.8287 1156 34.9138 1155 29.3114C1154 23.7089 1159.56 15.7182 1157.79 16.0356Z" fill="url(#paint11_linear_241_11621)" fill-opacity="0.11"/>
<path d="M1107.9 57C1110.27 57 1116.5 61.7855 1116.5 71.0947C1116.51 76.5397 1113.88 81.1285 1109.46 84C1106.43 84 1109.56 83.9998 1104.93 84C1101.5 84.0001 1104.43 84.0001 1100 84C1104.95 81.2027 1112.66 76.7568 1112.65 71.3812C1112.65 62.072 1100.09 57 1107.9 57Z" fill="url(#paint12_linear_241_11621)" fill-opacity="0.12"/>
<path d="M1085.55 50.2194C1087.9 50.8917 1101.25 59.6619 1101.25 69.6604C1101.25 75.1466 1097.9 79.9169 1091.5 83.9601C1085.86 83.9601 1088.36 83.9732 1082.86 83.9601C1078.23 83.949 1081.36 83.9602 1077 83.9601C1085.77 80.0026 1094.87 75.3345 1094.87 70.9733C1094.87 60.9749 1078.33 48.1637 1085.55 50.2194Z" fill="url(#paint13_linear_241_11621)" fill-opacity="0.1"/>
<defs>
<radialGradient id="paint0_radial_241_11621" cx="0" cy="0" r="1" gradientUnits="userSpaceOnUse" gradientTransform="translate(-92.2612 66.9375) rotate(-1.07725) scale(1246.65 93.539)">
<stop stop-color="#457098"/>
<stop offset="0.399884" stop-color="#5BA2E2"/>
<stop offset="0.597748" stop-color="#68AAE4"/>
<stop offset="1" stop-color="#BCE1ED"/>
</radialGradient>
<radialGradient id="paint1_radial_241_11621" cx="0" cy="0" r="1" gradientUnits="userSpaceOnUse" gradientTransform="translate(-277.164 -39.9141) rotate(3.39727) scale(1407.62 86.8638)">
<stop stop-color="#457098" stop-opacity="0.26"/>
<stop offset="0.0001" stop-color="#457098" stop-opacity="0.26"/>
<stop offset="0.399884" stop-color="#538FC5" stop-opacity="0.12"/>
<stop offset="1" stop-color="#98D5E8" stop-opacity="0.53"/>
</radialGradient>
<radialGradient id="paint2_radial_241_11621" cx="0" cy="0" r="1" gradientUnits="userSpaceOnUse" gradientTransform="translate(-118.314 17.1562) rotate(1.22683) scale(1230.41 95.5502)">
<stop stop-color="#457098" stop-opacity="0.26"/>
<stop offset="0.0001" stop-color="#457098" stop-opacity="0.26"/>
<stop offset="0.399884" stop-color="#538FC5" stop-opacity="0.12"/>
<stop offset="1" stop-color="#98D5E8" stop-opacity="0.53"/>
</radialGradient>
<radialGradient id="paint3_radial_241_11621" cx="0" cy="0" r="1" gradientUnits="userSpaceOnUse" gradientTransform="translate(-345.7 121.102) rotate(-3.18095) scale(1398.49 118.812)">
<stop stop-color="#457098" stop-opacity="0.26"/>
<stop offset="0.0001" stop-color="#457098" stop-opacity="0.26"/>
<stop offset="0.399884" stop-color="#538FC5" stop-opacity="0.12"/>
<stop offset="1" stop-color="#98D5E8" stop-opacity="0.53"/>
</radialGradient>
<radialGradient id="paint4_radial_241_11621" cx="0" cy="0" r="1" gradientUnits="userSpaceOnUse" gradientTransform="translate(-105.76 13.8516) rotate(1.58525) scale(1071.72 95.2994)">
<stop stop-color="#457098"/>
<stop stop-color="#457098"/>
<stop offset="0.399884" stop-color="#538FC5" stop-opacity="0.12"/>
<stop offset="1" stop-color="#98D5E8" stop-opacity="0.53"/>
</radialGradient>
<radialGradient id="paint5_radial_241_11621" cx="0" cy="0" r="1" gradientUnits="userSpaceOnUse" gradientTransform="translate(-177.886 91.1719) rotate(-2.33121) scale(1171.99 113.541)">
<stop stop-color="#457098"/>
<stop offset="0.515625" stop-color="#5BA2E2" stop-opacity="0.35"/>
<stop offset="0.807292" stop-color="#538FC5" stop-opacity="0.12"/>
</radialGradient>
<radialGradient id="paint6_radial_241_11621" cx="0" cy="0" r="1" gradientUnits="userSpaceOnUse" gradientTransform="translate(-146.641 91.1719) rotate(-2.82719) scale(966.509 113.497)">
<stop stop-color="#457098" stop-opacity="0.26"/>
<stop offset="0.515625" stop-color="#5BA2E2" stop-opacity="0.35"/>
<stop offset="0.807292" stop-color="#538FC5" stop-opacity="0.12"/>
</radialGradient>
<linearGradient id="paint7_linear_241_11621" x1="1214.61" y1="49.5658" x2="1221.49" y2="45.0014" gradientUnits="userSpaceOnUse">
<stop stop-color="#EDF8FF" stop-opacity="0.73"/>
<stop offset="1" stop-color="#EDF8FF"/>
</linearGradient>
<linearGradient id="paint8_linear_241_11621" x1="1208.32" y1="53.7758" x2="1215.22" y2="49.089" gradientUnits="userSpaceOnUse">
<stop stop-color="#EDF8FF" stop-opacity="0.73"/>
<stop offset="1" stop-color="#EDF8FF"/>
</linearGradient>
<linearGradient id="paint9_linear_241_11621" x1="1202.55" y1="58.0562" x2="1208.35" y2="54.1112" gradientUnits="userSpaceOnUse">
<stop stop-color="#EDF8FF" stop-opacity="0.73"/>
<stop offset="1" stop-color="#EDF8FF"/>
</linearGradient>
<linearGradient id="paint10_linear_241_11621" x1="1149.34" y1="24.9723" x2="1141.12" y2="26.4497" gradientUnits="userSpaceOnUse">
<stop stop-color="#EDF8FF" stop-opacity="0.73"/>
<stop offset="1" stop-color="#EDF8FF"/>
</linearGradient>
<linearGradient id="paint11_linear_241_11621" x1="1159.42" y1="28.8372" x2="1151.2" y2="30.3175" gradientUnits="userSpaceOnUse">
<stop stop-color="#EDF8FF" stop-opacity="0.73"/>
<stop offset="1" stop-color="#EDF8FF"/>
</linearGradient>
<linearGradient id="paint12_linear_241_11621" x1="1101.39" y1="70.2924" x2="1114.97" y2="70.3181" gradientUnits="userSpaceOnUse">
<stop stop-color="#EDF8FF" stop-opacity="0.73"/>
<stop offset="1" stop-color="#EDF8FF"/>
</linearGradient>
<linearGradient id="paint13_linear_241_11621" x1="1017.61" y1="73.6402" x2="1093.13" y2="73.7882" gradientUnits="userSpaceOnUse">
<stop stop-color="#EDF8FF" stop-opacity="0.52"/>
<stop offset="1" stop-color="#EDF8FF"/>
</linearGradient>
</defs>
</svg>
