<svg width="130" height="130" viewBox="0 0 130 130" fill="none" xmlns="http://www.w3.org/2000/svg">
<g opacity="0.7">
<g clip-path="url(#clip0_28_841)">
<rect width="130" height="130" rx="10" fill="white"/>
<path d="M0 0H130V130H0V0Z" fill="#D2AA9D"/>
<path fill-rule="evenodd" clip-rule="evenodd" d="M107.611 0H109.056V3.25C109.056 4.59619 110.026 5.6875 111.222 5.6875H128.556C129.11 5.6875 129.617 5.45281 130 5.06684V7.3125H123.5C122.303 7.3125 121.333 8.40381 121.333 9.75V13C121.333 14.3462 122.303 15.4375 123.5 15.4375H130V17.6832C129.617 17.2972 129.11 17.0625 128.556 17.0625H111.222C110.026 17.0625 109.056 18.1538 109.056 19.5V22.75C109.056 24.0962 110.026 25.1875 111.222 25.1875H128.556C129.11 25.1875 129.617 24.9528 130 24.5668V26.8125H123.5C122.303 26.8125 121.333 27.9038 121.333 29.25V32.5C121.333 33.8462 122.303 34.9375 123.5 34.9375H130V37.1832C129.617 36.7972 129.11 36.5625 128.556 36.5625H111.222C110.026 36.5625 109.056 37.6538 109.056 39V42.25C109.056 43.5962 110.026 44.6875 111.222 44.6875H128.556C129.11 44.6875 129.617 44.4528 130 44.0668V46.3125H123.5C122.303 46.3125 121.333 47.4038 121.333 48.75V52C121.333 53.3462 122.303 54.4375 123.5 54.4375H130V56.6832C129.617 56.2972 129.11 56.0625 128.556 56.0625H111.222C110.026 56.0625 109.056 57.1538 109.056 58.5V61.75C109.056 63.0962 110.026 64.1875 111.222 64.1875H128.556C129.11 64.1875 129.617 63.9528 130 63.5668V65.8125H123.5C122.303 65.8125 121.333 66.9038 121.333 68.25V71.5C121.333 72.8462 122.303 73.9375 123.5 73.9375H130V76.1832C129.617 75.7972 129.11 75.5625 128.556 75.5625H111.222C110.026 75.5625 109.056 76.6538 109.056 78V81.25C109.056 82.5962 110.026 83.6875 111.222 83.6875H128.556C129.11 83.6875 129.617 83.4528 130 83.0668V85.3125H123.5C122.303 85.3125 121.333 86.4038 121.333 87.75V91C121.333 92.3462 122.303 93.4375 123.5 93.4375H130V95.6832C129.617 95.2972 129.11 95.0625 128.556 95.0625H111.222C110.026 95.0625 109.056 96.1538 109.056 97.5V100.75C109.056 102.096 110.026 103.188 111.222 103.188H128.556C129.11 103.188 129.617 102.953 130 102.567V104.812H123.5C122.303 104.812 121.333 105.904 121.333 107.25V110.5C121.333 111.846 122.303 112.938 123.5 112.938H130V115.183C129.617 114.797 129.11 114.562 128.556 114.562H111.222C110.026 114.562 109.056 115.654 109.056 117V120.25C109.056 121.596 110.026 122.688 111.222 122.688H128.556C129.11 122.688 129.617 122.453 130 122.067V124.312H123.5C122.303 124.312 121.333 125.404 121.333 126.75V130H119.889V126.75C119.889 125.404 118.919 124.312 117.722 124.312H100.389C99.1923 124.312 98.2222 125.404 98.2222 126.75V130H96.7778V126.75C96.7778 125.404 95.8077 124.312 94.6111 124.312H77.2778C76.0812 124.312 75.1111 125.404 75.1111 126.75V130H73.6667V126.75C73.6667 125.404 72.6966 124.312 71.5 124.312H54.1667C52.97 124.312 52 125.404 52 126.75V130H50.5556V126.75C50.5556 125.404 49.5855 124.312 48.3889 124.312H31.0556C29.8589 124.312 28.8889 125.404 28.8889 126.75V130H27.4444V126.75C27.4444 125.404 26.4744 124.312 25.2778 124.312H7.94444C6.74783 124.312 5.77778 125.404 5.77778 126.75V130H4.33333V126.75C4.33333 125.404 3.36328 124.312 2.16667 124.312H0V122.688H13C14.1966 122.688 15.1667 121.596 15.1667 120.25V117C15.1667 115.654 14.1966 114.562 13 114.562H0V112.938H2.16667C3.36328 112.938 4.33333 111.846 4.33333 110.5V107.25C4.33333 105.904 3.36328 104.812 2.16667 104.812H0V103.188H13C14.1966 103.188 15.1667 102.096 15.1667 100.75V97.5C15.1667 96.1538 14.1966 95.0625 13 95.0625H0V93.4375H2.16667C3.36328 93.4375 4.33333 92.3462 4.33333 91V87.75C4.33333 86.4038 3.36328 85.3125 2.16667 85.3125H0V83.6875H13C14.1966 83.6875 15.1667 82.5962 15.1667 81.25V78C15.1667 76.6538 14.1966 75.5625 13 75.5625H0V73.9375H2.16667C3.36328 73.9375 4.33333 72.8462 4.33333 71.5V68.25C4.33333 66.9038 3.36328 65.8125 2.16667 65.8125H0V64.1875H13C14.1966 64.1875 15.1667 63.0962 15.1667 61.75V58.5C15.1667 57.1538 14.1966 56.0625 13 56.0625H0V54.4375H2.16667C3.36328 54.4375 4.33333 53.3462 4.33333 52V48.75C4.33333 47.4038 3.36328 46.3125 2.16667 46.3125H0V44.6875H13C14.1966 44.6875 15.1667 43.5962 15.1667 42.25V39C15.1667 37.6538 14.1966 36.5625 13 36.5625H0V34.9375H2.16667C3.36328 34.9375 4.33333 33.8462 4.33333 32.5V29.25C4.33333 27.9038 3.36328 26.8125 2.16667 26.8125H0V25.1875H13C14.1966 25.1875 15.1667 24.0962 15.1667 22.75V19.5C15.1667 18.1538 14.1966 17.0625 13 17.0625H0V15.4375H2.16667C3.36328 15.4375 4.33333 14.3462 4.33333 13V9.75C4.33333 8.40381 3.36328 7.3125 2.16667 7.3125H0V5.6875H13C14.1966 5.6875 15.1667 4.59619 15.1667 3.25V0H16.6111V3.25C16.6111 4.59619 17.5812 5.6875 18.7778 5.6875H36.1111C37.3077 5.6875 38.2778 4.59619 38.2778 3.25V0H39.7222V3.25C39.7222 4.59619 40.6923 5.6875 41.8889 5.6875H59.2222C60.4188 5.6875 61.3889 4.59619 61.3889 3.25V0H62.8333V3.25C62.8333 4.59619 63.8034 5.6875 65 5.6875H82.3333C83.5299 5.6875 84.5 4.59619 84.5 3.25V0H85.9444V3.25C85.9444 4.59619 86.9145 5.6875 88.1111 5.6875H105.444C106.641 5.6875 107.611 4.59619 107.611 3.25V0ZM5.77778 107.25C5.77778 105.904 6.74783 104.812 7.94444 104.812H25.2778C26.4744 104.812 27.4444 105.904 27.4444 107.25V110.5C27.4444 111.846 26.4744 112.938 25.2778 112.938H7.94444C6.74783 112.938 5.77778 111.846 5.77778 110.5V107.25ZM31.0556 104.812C29.8589 104.812 28.8889 105.904 28.8889 107.25V110.5C28.8889 111.846 29.8589 112.938 31.0556 112.938H48.3889C49.5855 112.938 50.5556 111.846 50.5556 110.5V107.25C50.5556 105.904 49.5855 104.812 48.3889 104.812H31.0556ZM52 107.25C52 105.904 52.97 104.812 54.1667 104.812H71.5C72.6966 104.812 73.6667 105.904 73.6667 107.25V110.5C73.6667 111.846 72.6966 112.938 71.5 112.938H54.1667C52.97 112.938 52 111.846 52 110.5V107.25ZM77.2778 104.812C76.0812 104.812 75.1111 105.904 75.1111 107.25V110.5C75.1111 111.846 76.0812 112.938 77.2778 112.938H94.6111C95.8077 112.938 96.7778 111.846 96.7778 110.5V107.25C96.7778 105.904 95.8077 104.812 94.6111 104.812H77.2778ZM98.2222 107.25C98.2222 105.904 99.1923 104.812 100.389 104.812H117.722C118.919 104.812 119.889 105.904 119.889 107.25V110.5C119.889 111.846 118.919 112.938 117.722 112.938H100.389C99.1923 112.938 98.2222 111.846 98.2222 110.5V107.25ZM18.7778 114.562C17.5812 114.562 16.6111 115.654 16.6111 117V120.25C16.6111 121.596 17.5812 122.688 18.7778 122.688H36.1111C37.3077 122.688 38.2778 121.596 38.2778 120.25V117C38.2778 115.654 37.3077 114.562 36.1111 114.562H18.7778ZM39.7222 117C39.7222 115.654 40.6923 114.562 41.8889 114.562H59.2222C60.4188 114.562 61.3889 115.654 61.3889 117V120.25C61.3889 121.596 60.4188 122.688 59.2222 122.688H41.8889C40.6923 122.688 39.7222 121.596 39.7222 120.25V117ZM65 114.562C63.8034 114.562 62.8333 115.654 62.8333 117V120.25C62.8333 121.596 63.8034 122.688 65 122.688H82.3333C83.5299 122.688 84.5 121.596 84.5 120.25V117C84.5 115.654 83.5299 114.562 82.3333 114.562H65ZM85.9444 117C85.9444 115.654 86.9145 114.562 88.1111 114.562H105.444C106.641 114.562 107.611 115.654 107.611 117V120.25C107.611 121.596 106.641 122.688 105.444 122.688H88.1111C86.9145 122.688 85.9444 121.596 85.9444 120.25V117ZM16.6111 97.5C16.6111 96.1538 17.5812 95.0625 18.7778 95.0625H36.1111C37.3077 95.0625 38.2778 96.1538 38.2778 97.5V100.75C38.2778 102.096 37.3077 103.188 36.1111 103.188H18.7778C17.5812 103.188 16.6111 102.096 16.6111 100.75V97.5ZM41.8889 95.0625C40.6923 95.0625 39.7222 96.1538 39.7222 97.5V100.75C39.7222 102.096 40.6923 103.188 41.8889 103.188H59.2222C60.4188 103.188 61.3889 102.096 61.3889 100.75V97.5C61.3889 96.1538 60.4188 95.0625 59.2222 95.0625H41.8889ZM62.8333 97.5C62.8333 96.1538 63.8034 95.0625 65 95.0625H82.3333C83.5299 95.0625 84.5 96.1538 84.5 97.5V100.75C84.5 102.096 83.5299 103.188 82.3333 103.188H65C63.8034 103.188 62.8333 102.096 62.8333 100.75V97.5ZM88.1111 95.0625C86.9145 95.0625 85.9444 96.1538 85.9444 97.5V100.75C85.9444 102.096 86.9145 103.188 88.1111 103.188H105.444C106.641 103.188 107.611 102.096 107.611 100.75V97.5C107.611 96.1538 106.641 95.0625 105.444 95.0625H88.1111ZM7.94444 85.3125C6.74783 85.3125 5.77778 86.4038 5.77778 87.75V91C5.77778 92.3462 6.74783 93.4375 7.94444 93.4375H25.2778C26.4744 93.4375 27.4444 92.3462 27.4444 91V87.75C27.4444 86.4038 26.4744 85.3125 25.2778 85.3125H7.94444ZM28.8889 87.75C28.8889 86.4038 29.8589 85.3125 31.0556 85.3125H48.3889C49.5855 85.3125 50.5556 86.4038 50.5556 87.75V91C50.5556 92.3462 49.5855 93.4375 48.3889 93.4375H31.0556C29.8589 93.4375 28.8889 92.3462 28.8889 91V87.75ZM54.1667 85.3125C52.97 85.3125 52 86.4038 52 87.75V91C52 92.3462 52.97 93.4375 54.1667 93.4375H71.5C72.6966 93.4375 73.6667 92.3462 73.6667 91V87.75C73.6667 86.4038 72.6966 85.3125 71.5 85.3125H54.1667ZM75.1111 87.75C75.1111 86.4038 76.0812 85.3125 77.2778 85.3125H94.6111C95.8077 85.3125 96.7778 86.4038 96.7778 87.75V91C96.7778 92.3462 95.8077 93.4375 94.6111 93.4375H77.2778C76.0812 93.4375 75.1111 92.3462 75.1111 91V87.75ZM100.389 85.3125C99.1923 85.3125 98.2222 86.4038 98.2222 87.75V91C98.2222 92.3462 99.1923 93.4375 100.389 93.4375H117.722C118.919 93.4375 119.889 92.3462 119.889 91V87.75C119.889 86.4038 118.919 85.3125 117.722 85.3125H100.389ZM5.77778 48.75C5.77778 47.4038 6.74783 46.3125 7.94444 46.3125H25.2778C26.4744 46.3125 27.4444 47.4038 27.4444 48.75V52C27.4444 53.3462 26.4744 54.4375 25.2778 54.4375H7.94444C6.74783 54.4375 5.77778 53.3462 5.77778 52V48.75ZM31.0556 46.3125C29.8589 46.3125 28.8889 47.4038 28.8889 48.75V52C28.8889 53.3462 29.8589 54.4375 31.0556 54.4375H48.3889C49.5855 54.4375 50.5556 53.3462 50.5556 52V48.75C50.5556 47.4038 49.5855 46.3125 48.3889 46.3125H31.0556ZM52 48.75C52 47.4038 52.97 46.3125 54.1667 46.3125H71.5C72.6966 46.3125 73.6667 47.4038 73.6667 48.75V52C73.6667 53.3462 72.6966 54.4375 71.5 54.4375H54.1667C52.97 54.4375 52 53.3462 52 52V48.75ZM77.2778 46.3125C76.0812 46.3125 75.1111 47.4038 75.1111 48.75V52C75.1111 53.3462 76.0812 54.4375 77.2778 54.4375H94.6111C95.8077 54.4375 96.7778 53.3462 96.7778 52V48.75C96.7778 47.4038 95.8077 46.3125 94.6111 46.3125H77.2778ZM98.2222 48.75C98.2222 47.4038 99.1923 46.3125 100.389 46.3125H117.722C118.919 46.3125 119.889 47.4038 119.889 48.75V52C119.889 53.3462 118.919 54.4375 117.722 54.4375H100.389C99.1923 54.4375 98.2222 53.3462 98.2222 52V48.75ZM7.94444 7.3125C6.74783 7.3125 5.77778 8.40381 5.77778 9.75V13C5.77778 14.3462 6.74783 15.4375 7.94444 15.4375H25.2778C26.4744 15.4375 27.4444 14.3462 27.4444 13V9.75C27.4444 8.40381 26.4744 7.3125 25.2778 7.3125H7.94444ZM28.8889 9.75C28.8889 8.40381 29.8589 7.3125 31.0556 7.3125H48.3889C49.5855 7.3125 50.5556 8.40381 50.5556 9.75V13C50.5556 14.3462 49.5855 15.4375 48.3889 15.4375H31.0556C29.8589 15.4375 28.8889 14.3462 28.8889 13V9.75ZM54.1667 7.3125C52.97 7.3125 52 8.40381 52 9.75V13C52 14.3462 52.97 15.4375 54.1667 15.4375H71.5C72.6966 15.4375 73.6667 14.3462 73.6667 13V9.75C73.6667 8.40381 72.6966 7.3125 71.5 7.3125H54.1667ZM75.1111 9.75C75.1111 8.40381 76.0812 7.3125 77.2778 7.3125H94.6111C95.8077 7.3125 96.7778 8.40381 96.7778 9.75V13C96.7778 14.3462 95.8077 15.4375 94.6111 15.4375H77.2778C76.0812 15.4375 75.1111 14.3462 75.1111 13V9.75ZM100.389 7.3125C99.1923 7.3125 98.2222 8.40381 98.2222 9.75V13C98.2222 14.3462 99.1923 15.4375 100.389 15.4375H117.722C118.919 15.4375 119.889 14.3462 119.889 13V9.75C119.889 8.40381 118.919 7.3125 117.722 7.3125H100.389ZM5.77778 68.25C5.77778 66.9038 6.74783 65.8125 7.94444 65.8125H25.2778C26.4744 65.8125 27.4444 66.9038 27.4444 68.25V71.5C27.4444 72.8462 26.4744 73.9375 25.2778 73.9375H7.94444C6.74783 73.9375 5.77778 72.8462 5.77778 71.5V68.25ZM31.0556 65.8125C29.8589 65.8125 28.8889 66.9038 28.8889 68.25V71.5C28.8889 72.8462 29.8589 73.9375 31.0556 73.9375H48.3889C49.5855 73.9375 50.5556 72.8462 50.5556 71.5V68.25C50.5556 66.9038 49.5855 65.8125 48.3889 65.8125H31.0556ZM52 68.25C52 66.9038 52.97 65.8125 54.1667 65.8125H71.5C72.6966 65.8125 73.6667 66.9038 73.6667 68.25V71.5C73.6667 72.8462 72.6966 73.9375 71.5 73.9375H54.1667C52.97 73.9375 52 72.8462 52 71.5V68.25ZM77.2778 65.8125C76.0812 65.8125 75.1111 66.9038 75.1111 68.25V71.5C75.1111 72.8462 76.0812 73.9375 77.2778 73.9375H94.6111C95.8077 73.9375 96.7778 72.8462 96.7778 71.5V68.25C96.7778 66.9038 95.8077 65.8125 94.6111 65.8125H77.2778ZM98.2222 68.25C98.2222 66.9038 99.1923 65.8125 100.389 65.8125H117.722C118.919 65.8125 119.889 66.9038 119.889 68.25V71.5C119.889 72.8462 118.919 73.9375 117.722 73.9375H100.389C99.1923 73.9375 98.2222 72.8462 98.2222 71.5V68.25ZM7.94444 26.8125C6.74783 26.8125 5.77778 27.9038 5.77778 29.25V32.5C5.77778 33.8462 6.74783 34.9375 7.94444 34.9375H25.2778C26.4744 34.9375 27.4444 33.8462 27.4444 32.5V29.25C27.4444 27.9038 26.4744 26.8125 25.2778 26.8125H7.94444ZM28.8889 29.25C28.8889 27.9038 29.8589 26.8125 31.0556 26.8125H48.3889C49.5855 26.8125 50.5556 27.9038 50.5556 29.25V32.5C50.5556 33.8462 49.5855 34.9375 48.3889 34.9375H31.0556C29.8589 34.9375 28.8889 33.8462 28.8889 32.5V29.25ZM54.1667 26.8125C52.97 26.8125 52 27.9038 52 29.25V32.5C52 33.8462 52.97 34.9375 54.1667 34.9375H71.5C72.6966 34.9375 73.6667 33.8462 73.6667 32.5V29.25C73.6667 27.9038 72.6966 26.8125 71.5 26.8125H54.1667ZM75.1111 29.25C75.1111 27.9038 76.0812 26.8125 77.2778 26.8125H94.6111C95.8077 26.8125 96.7778 27.9038 96.7778 29.25V32.5C96.7778 33.8462 95.8077 34.9375 94.6111 34.9375H77.2778C76.0812 34.9375 75.1111 33.8462 75.1111 32.5V29.25ZM100.389 26.8125C99.1923 26.8125 98.2222 27.9038 98.2222 29.25V32.5C98.2222 33.8462 99.1923 34.9375 100.389 34.9375H117.722C118.919 34.9375 119.889 33.8462 119.889 32.5V29.25C119.889 27.9038 118.919 26.8125 117.722 26.8125H100.389ZM16.6111 78C16.6111 76.6538 17.5812 75.5625 18.7778 75.5625H36.1111C37.3077 75.5625 38.2778 76.6538 38.2778 78V81.25C38.2778 82.5962 37.3077 83.6875 36.1111 83.6875H18.7778C17.5812 83.6875 16.6111 82.5962 16.6111 81.25V78ZM41.8889 75.5625C40.6923 75.5625 39.7222 76.6538 39.7222 78V81.25C39.7222 82.5962 40.6923 83.6875 41.8889 83.6875H59.2222C60.4188 83.6875 61.3889 82.5962 61.3889 81.25V78C61.3889 76.6538 60.4188 75.5625 59.2222 75.5625H41.8889ZM62.8333 78C62.8333 76.6538 63.8034 75.5625 65 75.5625H82.3333C83.5299 75.5625 84.5 76.6538 84.5 78V81.25C84.5 82.5962 83.5299 83.6875 82.3333 83.6875H65C63.8034 83.6875 62.8333 82.5962 62.8333 81.25V78ZM88.1111 75.5625C86.9145 75.5625 85.9444 76.6538 85.9444 78V81.25C85.9444 82.5962 86.9145 83.6875 88.1111 83.6875H105.444C106.641 83.6875 107.611 82.5962 107.611 81.25V78C107.611 76.6538 106.641 75.5625 105.444 75.5625H88.1111ZM18.7778 36.5625C17.5812 36.5625 16.6111 37.6538 16.6111 39V42.25C16.6111 43.5962 17.5812 44.6875 18.7778 44.6875H36.1111C37.3077 44.6875 38.2778 43.5962 38.2778 42.25V39C38.2778 37.6538 37.3077 36.5625 36.1111 36.5625H18.7778ZM39.7222 39C39.7222 37.6538 40.6923 36.5625 41.8889 36.5625H59.2222C60.4188 36.5625 61.3889 37.6538 61.3889 39V42.25C61.3889 43.5962 60.4188 44.6875 59.2222 44.6875H41.8889C40.6923 44.6875 39.7222 43.5962 39.7222 42.25V39ZM65 36.5625C63.8034 36.5625 62.8333 37.6538 62.8333 39V42.25C62.8333 43.5962 63.8034 44.6875 65 44.6875H82.3333C83.5299 44.6875 84.5 43.5962 84.5 42.25V39C84.5 37.6538 83.5299 36.5625 82.3333 36.5625H65ZM85.9444 39C85.9444 37.6538 86.9145 36.5625 88.1111 36.5625H105.444C106.641 36.5625 107.611 37.6538 107.611 39V42.25C107.611 43.5962 106.641 44.6875 105.444 44.6875H88.1111C86.9145 44.6875 85.9444 43.5962 85.9444 42.25V39ZM18.7778 56.0625C17.5812 56.0625 16.6111 57.1538 16.6111 58.5V61.75C16.6111 63.0962 17.5812 64.1875 18.7778 64.1875H36.1111C37.3077 64.1875 38.2778 63.0962 38.2778 61.75V58.5C38.2778 57.1538 37.3077 56.0625 36.1111 56.0625H18.7778ZM39.7222 58.5C39.7222 57.1538 40.6923 56.0625 41.8889 56.0625H59.2222C60.4188 56.0625 61.3889 57.1538 61.3889 58.5V61.75C61.3889 63.0962 60.4188 64.1875 59.2222 64.1875H41.8889C40.6923 64.1875 39.7222 63.0962 39.7222 61.75V58.5ZM65 56.0625C63.8034 56.0625 62.8333 57.1538 62.8333 58.5V61.75C62.8333 63.0962 63.8034 64.1875 65 64.1875H82.3333C83.5299 64.1875 84.5 63.0962 84.5 61.75V58.5C84.5 57.1538 83.5299 56.0625 82.3333 56.0625H65ZM85.9444 58.5C85.9444 57.1538 86.9145 56.0625 88.1111 56.0625H105.444C106.641 56.0625 107.611 57.1538 107.611 58.5V61.75C107.611 63.0962 106.641 64.1875 105.444 64.1875H88.1111C86.9145 64.1875 85.9444 63.0962 85.9444 61.75V58.5ZM16.6111 19.5C16.6111 18.1538 17.5812 17.0625 18.7778 17.0625H36.1111C37.3077 17.0625 38.2778 18.1538 38.2778 19.5V22.75C38.2778 24.0962 37.3077 25.1875 36.1111 25.1875H18.7778C17.5812 25.1875 16.6111 24.0962 16.6111 22.75V19.5ZM41.8889 17.0625C40.6923 17.0625 39.7222 18.1538 39.7222 19.5V22.75C39.7222 24.0962 40.6923 25.1875 41.8889 25.1875H59.2222C60.4188 25.1875 61.3889 24.0962 61.3889 22.75V19.5C61.3889 18.1538 60.4188 17.0625 59.2222 17.0625H41.8889ZM62.8333 19.5C62.8333 18.1538 63.8034 17.0625 65 17.0625H82.3333C83.5299 17.0625 84.5 18.1538 84.5 19.5V22.75C84.5 24.0962 83.5299 25.1875 82.3333 25.1875H65C63.8034 25.1875 62.8333 24.0962 62.8333 22.75V19.5ZM88.1111 17.0625C86.9145 17.0625 85.9444 18.1538 85.9444 19.5V22.75C85.9444 24.0962 86.9145 25.1875 88.1111 25.1875H105.444C106.641 25.1875 107.611 24.0962 107.611 22.75V19.5C107.611 18.1538 106.641 17.0625 105.444 17.0625H88.1111Z" fill="#EEDABB"/>
<rect y="79" width="130" height="51" fill="#C4A28F"/>
<rect width="130" height="5" transform="matrix(1 0 0 -1 0 79)" fill="#E8D5C3"/>
<path d="M-10 63.2308C-10 57.708 -5.52285 53.2308 2.37696e-07 53.2308H30.7692C36.292 53.2308 40.7691 57.708 40.7691 63.2308V84C40.7691 95.0457 31.8148 104 20.7691 104H9.99999C-1.0457 104 -10 95.0457 -10 84V63.2308Z" fill="#F0F8FF"/>
<path d="M-6.61621 55.1805C-6.61621 54.1553 -5.70246 53.3714 -4.68925 53.5273L0.17803 54.2761C10.2559 55.8265 20.5116 55.8265 30.5895 54.2761L35.4568 53.5273C36.47 53.3714 37.3837 54.1553 37.3837 55.1805V55.1805C37.3837 56.006 36.7814 56.7081 35.9654 56.8336L30.5895 57.6607C20.5116 59.2112 10.2559 59.2112 0.17803 57.6607L-5.19792 56.8336C-6.01388 56.7081 -6.61621 56.006 -6.61621 55.1805V55.1805Z" fill="#D6E2ED"/>
<path d="M35.6914 54.923C32.416 54.923 26.5994 54.923 15.3838 54.923C4.16814 54.923 1.62695 54.923 -4.92391 54.923C-4.92391 47.446 4.16814 41.3846 15.3838 41.3846C26.5994 41.3846 35.6914 47.446 35.6914 54.923Z" fill="#EEF7FF"/>
<path d="M20.4607 43.0769C19.6418 43.0769 18.1877 43.0769 15.3838 43.0769C12.5798 43.0769 11.9446 43.0769 10.3068 43.0769C10.3068 40.273 12.5798 38 15.3838 38C18.1877 38 20.4607 40.273 20.4607 43.0769Z" fill="#EEF7FF"/>
<path d="M-6.61621 54.0251C-6.61621 52.6948 -5.46587 51.6564 -4.14256 51.7921L4.80743 52.7101C11.8399 53.4314 18.9276 53.4314 25.9601 52.7101L34.9101 51.7921C36.2334 51.6564 37.3837 52.6948 37.3837 54.0251C37.3837 55.1761 36.5131 56.1405 35.3681 56.258L27.0851 57.1075C19.3046 57.9055 11.4629 57.9055 3.68235 57.1075L-4.6006 56.258C-5.7456 56.1405 -6.61621 55.1761 -6.61621 54.0251Z" fill="#EEF7FF"/>
<path d="M-1.54053 52.177C-1.54053 51.8388 -1.24268 51.578 -0.907474 51.6227L2.16615 52.0326C10.9382 53.2022 19.8268 53.2022 28.5989 52.0326L31.6725 51.6227C32.0077 51.578 32.3056 51.8388 32.3056 52.177V52.177C32.3056 52.4572 32.0981 52.6942 31.8203 52.7312L28.5989 53.1608C19.8268 54.3304 10.9382 54.3304 2.16615 53.1608L-1.05527 52.7312C-1.33306 52.6942 -1.54053 52.4572 -1.54053 52.177V52.177Z" fill="#D6E2ED"/>
<path d="M10.3059 43.8702C10.3059 43.4971 10.6934 43.2492 11.0342 43.4007V43.4007C13.7895 44.6252 16.9762 44.6252 19.7314 43.4007V43.4007C20.0723 43.2492 20.4597 43.4971 20.4597 43.8702V43.8702C20.4597 44.0739 20.3374 44.2596 20.1512 44.3423V44.3423C17.1392 45.681 13.6264 45.681 10.6145 44.3423V44.3423C10.4283 44.2596 10.3059 44.0739 10.3059 43.8702V43.8702Z" fill="#D6E2ED"/>
<ellipse cx="12.2103" cy="96.6638" rx="13.5384" ry="5.07691" transform="rotate(4.84658 12.2103 96.6638)" fill="#CB9F6C"/>
<ellipse cx="20.5703" cy="98.2219" rx="1.6923" ry="0.846152" transform="rotate(4.84658 20.5703 98.2219)" fill="#894211"/>
<ellipse cx="3.85109" cy="95.1056" rx="1.6923" ry="0.846152" transform="rotate(4.84658 3.85109 95.1056)" fill="#894211"/>
<ellipse cx="9.05251" cy="93.8482" rx="1.6923" ry="0.846152" transform="rotate(4.84658 9.05251 93.8482)" fill="#894211"/>
<ellipse cx="13.8252" cy="97.6499" rx="1.6923" ry="0.846152" transform="rotate(4.84658 13.8252 97.6499)" fill="#894211"/>
<ellipse cx="6.93849" cy="98.764" rx="1.6923" ry="0.846152" transform="rotate(4.84658 6.93849 98.764)" fill="#894211"/>
<ellipse cx="17.554" cy="93.7203" rx="1.6923" ry="0.846152" transform="rotate(4.84658 17.554 93.7203)" fill="#894211"/>
<ellipse cx="24.3639" cy="91.937" rx="13.5384" ry="6.15664" transform="rotate(-11.2088 24.3639 91.937)" fill="#CB9F6C"/>
<ellipse cx="32.8646" cy="91.2985" rx="1.6923" ry="1.02611" transform="rotate(-11.2088 32.8646 91.2985)" fill="#894211"/>
<ellipse cx="15.8651" cy="92.5753" rx="1.6923" ry="1.02611" transform="rotate(-11.2088 15.8651 92.5753)" fill="#894211"/>
<ellipse cx="20.4444" cy="89.5754" rx="1.6923" ry="1.02611" transform="rotate(-11.2088 20.4444 89.5754)" fill="#894211"/>
<ellipse cx="26.2226" cy="92.6146" rx="1.6923" ry="1.02611" transform="rotate(-11.2088 26.2226 92.6146)" fill="#894211"/>
<ellipse cx="19.9835" cy="95.9434" rx="1.6923" ry="1.02611" transform="rotate(-11.2088 19.9835 95.9434)" fill="#894211"/>
<ellipse cx="28.5463" cy="86.924" rx="1.6923" ry="1.02611" transform="rotate(-11.2088 28.5463 86.924)" fill="#894211"/>
<ellipse cx="7.35988" cy="87.6143" rx="13.5384" ry="6.29916" transform="rotate(4.34544 7.35988 87.6143)" fill="#CB9F6C"/>
<ellipse cx="15.7164" cy="89.302" rx="1.6923" ry="1.04986" transform="rotate(4.34544 15.7164 89.302)" fill="#894211"/>
<ellipse cx="-0.999285" cy="85.9261" rx="1.6923" ry="1.04986" transform="rotate(4.34544 -0.999285 85.9261)" fill="#894211"/>
<ellipse cx="4.22459" cy="84.2172" rx="1.6923" ry="1.04986" transform="rotate(4.34544 4.22459 84.2172)" fill="#894211"/>
<ellipse cx="8.96824" cy="88.7891" rx="1.6923" ry="1.04986" transform="rotate(4.34544 8.96824 88.7891)" fill="#894211"/>
<ellipse cx="2.05894" cy="90.3698" rx="1.6923" ry="1.04986" transform="rotate(4.34544 2.05894 90.3698)" fill="#894211"/>
<ellipse cx="12.7388" cy="83.8114" rx="1.6923" ry="1.04986" transform="rotate(4.34544 12.7388 83.8114)" fill="#894211"/>
<ellipse cx="22.432" cy="82.1123" rx="13.5384" ry="4.1758" transform="rotate(4.34544 22.432 82.1123)" fill="#CB9F6C"/>
<ellipse cx="30.8157" cy="83.4477" rx="1.6923" ry="0.695967" transform="rotate(4.34544 30.8157 83.4477)" fill="#894211"/>
<ellipse cx="14.0483" cy="80.7772" rx="1.6923" ry="0.695967" transform="rotate(4.34544 14.0483 80.7772)" fill="#894211"/>
<ellipse cx="19.2142" cy="79.7742" rx="1.6923" ry="0.695967" transform="rotate(4.34544 19.2142 79.7742)" fill="#894211"/>
<ellipse cx="24.0676" cy="82.9347" rx="1.6923" ry="0.695967" transform="rotate(4.34544 24.0676 82.9347)" fill="#894211"/>
<ellipse cx="17.2128" cy="83.8097" rx="1.6923" ry="0.695967" transform="rotate(4.34544 17.2128 83.8097)" fill="#894211"/>
<ellipse cx="27.7059" cy="79.7213" rx="1.6923" ry="0.695967" transform="rotate(4.34544 27.7059 79.7213)" fill="#894211"/>
<ellipse cx="5.75163" cy="76.6303" rx="13.5384" ry="4.1758" transform="rotate(-10.0606 5.75163 76.6303)" fill="#CB9F6C"/>
<ellipse cx="14.2046" cy="75.8375" rx="1.6923" ry="0.695967" transform="rotate(-10.0606 14.2046 75.8375)" fill="#894211"/>
<ellipse cx="2.0552" cy="75.1656" rx="1.6923" ry="0.695967" transform="rotate(-10.0606 2.0552 75.1656)" fill="#894211"/>
<ellipse cx="7.54018" cy="77.0195" rx="1.6923" ry="0.695967" transform="rotate(-10.0606 7.54018 77.0195)" fill="#894211"/>
<ellipse cx="1.11745" cy="79.5729" rx="1.6923" ry="0.695967" transform="rotate(-10.0606 1.11745 79.5729)" fill="#894211"/>
<ellipse cx="10.2633" cy="73.0022" rx="1.6923" ry="0.695967" transform="rotate(-10.0606 10.2633 73.0022)" fill="#894211"/>
<ellipse cx="24.4664" cy="73.4736" rx="13.5384" ry="4.1758" transform="rotate(19.2045 24.4664 73.4736)" fill="#CB9F6C"/>
<ellipse cx="32.2293" cy="76.9142" rx="1.6923" ry="0.695967" transform="rotate(19.2045 32.2293 76.9142)" fill="#894211"/>
<ellipse cx="16.7056" cy="70.0329" rx="1.6923" ry="0.695967" transform="rotate(19.2045 16.7056 70.0329)" fill="#894211"/>
<ellipse cx="21.9553" cy="70.3883" rx="1.6923" ry="0.695967" transform="rotate(19.2045 21.9553 70.3883)" fill="#894211"/>
<ellipse cx="25.8355" cy="74.6873" rx="1.6923" ry="0.695967" transform="rotate(19.2045 25.8355 74.6873)" fill="#894211"/>
<ellipse cx="18.9842" cy="73.7753" rx="1.6923" ry="0.695967" transform="rotate(19.2045 18.9842 73.7753)" fill="#894211"/>
<ellipse cx="30.1763" cy="72.5143" rx="1.6923" ry="0.695967" transform="rotate(19.2045 30.1763 72.5143)" fill="#894211"/>
<ellipse cx="7.35988" cy="67.3068" rx="13.5384" ry="6.29916" transform="rotate(4.34544 7.35988 67.3068)" fill="#CB9F6C"/>
<ellipse cx="15.7164" cy="68.9945" rx="1.6923" ry="1.04986" transform="rotate(4.34544 15.7164 68.9945)" fill="#894211"/>
<ellipse cx="-0.999285" cy="65.6185" rx="1.6923" ry="1.04986" transform="rotate(4.34544 -0.999285 65.6185)" fill="#894211"/>
<ellipse cx="4.22459" cy="63.9096" rx="1.6923" ry="1.04986" transform="rotate(4.34544 4.22459 63.9096)" fill="#894211"/>
<ellipse cx="8.96824" cy="68.4815" rx="1.6923" ry="1.04986" transform="rotate(4.34544 8.96824 68.4815)" fill="#894211"/>
<ellipse cx="2.05894" cy="70.0623" rx="1.6923" ry="1.04986" transform="rotate(4.34544 2.05894 70.0623)" fill="#894211"/>
<ellipse cx="12.7388" cy="63.5039" rx="1.6923" ry="1.04986" transform="rotate(4.34544 12.7388 63.5039)" fill="#894211"/>
<g opacity="0.45" filter="url(#filter0_b_28_841)">
<path d="M-10 63.2308C-10 57.708 -5.52285 53.2308 2.37696e-07 53.2308H30.7692C36.292 53.2308 40.7691 57.708 40.7691 63.2308V84C40.7691 95.0457 31.8148 104 20.7691 104H9.99999C-1.0457 104 -10 95.0457 -10 84V63.2308Z" fill="#BEDBF5" fill-opacity="0.1"/>
</g>
<rect x="90.9999" y="19.9592" width="34.898" height="67.0408" rx="11" fill="#3A6130"/>
<rect x="102.938" y="-3" width="11.0204" height="29.3877" rx="5" fill="#3A6130"/>
<path d="M102.938 -1C102.938 -2.10457 103.834 -3 104.938 -3H111.959C113.063 -3 113.959 -2.10457 113.959 -1V2.51021H102.938V-1Z" fill="#C79152"/>
<rect x="90.9999" y="32.8163" width="34.898" height="41.3265" fill="#F1DDB6"/>
<path d="M92.2604 76.3189C91.3735 76.9983 92.2481 79.6292 92.9351 80.526C93.622 81.4228 94.8979 81.5991 95.7847 80.9197C96.6716 80.2404 96.8336 78.9626 96.1466 78.0658C95.4596 77.169 93.1472 75.6395 92.2604 76.3189Z" fill="#77C065"/>
<path d="M109.41 84.5938C110.928 90.6916 106.88 97.6124 100.176 99.2811C93.4731 100.95 86.6529 96.7343 85.135 90.6366C83.728 84.9843 87.8399 78.8216 94.0954 80.4219C95.0038 80.6542 95.988 80.3825 96.6817 79.7518C101.021 75.8066 108.013 78.985 109.41 84.5938Z" fill="#FF7E20"/>
<path d="M114.371 84.3533C115.213 84.1761 116.833 88.4889 117.238 90.4102C117.642 92.3315 117.286 94.0326 116.443 94.2098C115.601 94.387 114.59 92.9731 114.186 91.0519C113.782 89.1306 113.528 84.5304 114.371 84.3533Z" fill="#A9CCA1"/>
<path d="M121.473 90.3557C121.755 91.2602 119.287 92.835 118.124 93.1978C116.961 93.5607 115.79 93.1217 115.507 92.2172C115.225 91.3128 115.939 90.2855 117.102 89.9226C118.265 89.5598 121.191 89.4513 121.473 90.3557Z" fill="#A9CCA1"/>
<path d="M128.191 103.743C126.804 111.359 119.598 117.232 112.269 115.898C104.941 114.564 100.266 106.528 101.652 98.9124C102.936 91.8615 109.833 86.8791 115.184 91.6605C115.958 92.3516 117.096 92.529 118.063 92.1553C124.147 89.806 129.465 96.7457 128.191 103.743Z" fill="#FF5454"/>
<rect x="93" y="35" width="31" height="37" fill="#B49D72"/>
<path d="M104.842 45.059C104.66 45.0497 104.513 45.003 104.401 44.919C104.289 44.835 104.198 44.7277 104.128 44.597C104.063 44.4617 104.004 44.317 103.953 44.163C103.906 44.009 103.855 43.8597 103.799 43.715C103.748 43.7617 103.678 43.827 103.589 43.911C103.505 43.9903 103.414 44.079 103.316 44.177C103.218 44.275 103.125 44.3683 103.036 44.457C102.947 44.5457 102.875 44.6203 102.819 44.681C102.73 44.779 102.63 44.8607 102.518 44.926C102.411 44.9913 102.315 45.024 102.231 45.024C102.166 45.024 102.11 45.0007 102.063 44.954C102.021 44.9073 102 44.8303 102 44.723C102 44.6997 102 44.6763 102 44.653C102.005 44.6297 102.009 44.604 102.014 44.576C102.056 44.3193 102.096 44.1093 102.133 43.946C102.17 43.7827 102.212 43.6403 102.259 43.519C102.31 43.393 102.369 43.2647 102.434 43.134C102.476 43.0593 102.534 43.022 102.609 43.022C102.651 43.022 102.688 43.0383 102.721 43.071C102.754 43.099 102.77 43.1433 102.77 43.204C102.77 43.2367 102.756 43.2997 102.728 43.393C102.7 43.4863 102.667 43.5633 102.63 43.624C102.583 43.6987 102.525 43.827 102.455 44.009C102.39 44.191 102.352 44.3917 102.343 44.611C102.488 44.5223 102.637 44.4033 102.791 44.254C102.945 44.1 103.101 43.9483 103.26 43.799C103.423 43.6497 103.584 43.54 103.743 43.47C103.785 43.4467 103.827 43.428 103.869 43.414C103.911 43.3953 103.948 43.386 103.981 43.386C104.023 43.386 104.056 43.4023 104.079 43.435C104.107 43.4677 104.123 43.5237 104.128 43.603C104.133 43.6917 104.149 43.8013 104.177 43.932C104.21 44.058 104.254 44.184 104.31 44.31C104.371 44.4313 104.443 44.534 104.527 44.618C104.616 44.702 104.721 44.744 104.842 44.744C104.935 44.744 105.026 44.7113 105.115 44.646C105.204 44.5807 105.283 44.499 105.353 44.401C105.423 44.2983 105.472 44.1957 105.5 44.093C105.523 44.009 105.537 43.9367 105.542 43.876C105.551 43.8153 105.556 43.7663 105.556 43.729C105.556 43.6497 105.547 43.5937 105.528 43.561C105.514 43.5283 105.507 43.491 105.507 43.449C105.507 43.379 105.528 43.3253 105.57 43.288C105.612 43.2507 105.656 43.232 105.703 43.232C105.768 43.232 105.829 43.2647 105.885 43.33C105.946 43.3907 105.976 43.491 105.976 43.631C105.976 43.7477 105.953 43.8783 105.906 44.023C105.845 44.2097 105.754 44.3847 105.633 44.548C105.512 44.7067 105.381 44.8327 105.241 44.926C105.101 45.0193 104.968 45.0637 104.842 45.059Z" fill="#8C5632"/>
<path d="M107.726 42.602C107.703 42.63 107.673 42.6323 107.635 42.609C107.603 42.5857 107.575 42.5507 107.551 42.504C107.528 42.4527 107.521 42.4037 107.53 42.357H107.537C107.556 42.287 107.579 42.2287 107.607 42.182C107.635 42.1353 107.673 42.0887 107.719 42.042C107.747 42.014 107.785 42 107.831 42C107.873 42 107.911 42.014 107.943 42.042C107.981 42.0653 107.999 42.0957 107.999 42.133C107.999 42.1517 107.992 42.1727 107.978 42.196C107.964 42.2147 107.936 42.2637 107.894 42.343C107.857 42.4223 107.801 42.5087 107.726 42.602ZM106.844 45.185C106.77 45.185 106.695 45.157 106.62 45.101C106.55 45.0403 106.522 44.9447 106.536 44.814C106.555 44.632 106.581 44.478 106.613 44.352C106.646 44.226 106.683 44.1117 106.725 44.009C106.767 43.9017 106.812 43.7873 106.858 43.666C106.91 43.5447 106.961 43.3977 107.012 43.225C107.04 43.1457 107.099 43.106 107.187 43.106C107.248 43.106 107.302 43.1247 107.348 43.162C107.395 43.1993 107.409 43.2507 107.39 43.316C107.33 43.512 107.269 43.6707 107.208 43.792C107.148 43.9133 107.092 44.0207 107.04 44.114C106.989 44.2027 106.945 44.3007 106.907 44.408C106.875 44.5107 106.854 44.6437 106.844 44.807C106.844 44.821 106.875 44.8513 106.935 44.898C106.996 44.94 107.026 44.989 107.026 45.045C107.026 45.087 107.003 45.1243 106.956 45.157C106.933 45.1757 106.896 45.185 106.844 45.185Z" fill="#8C5632"/>
<path d="M110.234 45.339C110.164 45.339 110.099 45.2993 110.038 45.22C109.977 45.136 109.947 45.031 109.947 44.905C109.947 44.8257 109.954 44.7253 109.968 44.604C109.982 44.4827 110.003 44.3613 110.031 44.24C110.059 44.114 110.092 44.0067 110.129 43.918C110.204 43.75 110.241 43.617 110.241 43.519C110.241 43.3977 110.185 43.337 110.073 43.337C110.059 43.337 110.043 43.337 110.024 43.337C110.005 43.337 109.987 43.3417 109.968 43.351C109.875 43.379 109.749 43.442 109.59 43.54C109.431 43.6333 109.263 43.743 109.086 43.869C108.913 43.995 108.75 44.121 108.596 44.247C108.442 44.373 108.323 44.4827 108.239 44.576C108.122 44.7067 108.045 44.807 108.008 44.877C107.971 44.947 107.952 44.982 107.952 44.982C107.915 45.0333 107.873 45.059 107.826 45.059C107.784 45.059 107.749 45.038 107.721 44.996C107.693 44.9493 107.686 44.8887 107.7 44.814C107.765 44.4313 107.835 44.1047 107.91 43.834C107.989 43.5633 108.08 43.33 108.183 43.134C108.225 43.0593 108.283 43.022 108.358 43.022C108.4 43.022 108.437 43.0383 108.47 43.071C108.503 43.099 108.519 43.1433 108.519 43.204C108.519 43.2367 108.505 43.2997 108.477 43.393C108.454 43.4863 108.423 43.5633 108.386 43.624C108.339 43.6987 108.3 43.785 108.267 43.883C108.239 43.9763 108.204 44.107 108.162 44.275C108.213 44.1957 108.258 44.1397 108.295 44.107C108.332 44.0697 108.381 44.0207 108.442 43.96C108.633 43.7687 108.86 43.596 109.121 43.442C109.387 43.2833 109.641 43.1503 109.884 43.043C109.935 43.0197 110.001 42.9963 110.08 42.973C110.159 42.9497 110.239 42.938 110.318 42.938C110.411 42.938 110.495 42.9637 110.57 43.015C110.645 43.0663 110.682 43.1643 110.682 43.309C110.682 43.3837 110.668 43.4747 110.64 43.582C110.617 43.6893 110.575 43.8153 110.514 43.96C110.439 44.1327 110.39 44.3123 110.367 44.499C110.348 44.6857 110.339 44.8443 110.339 44.975C110.339 45.0123 110.339 45.0497 110.339 45.087C110.344 45.1197 110.346 45.15 110.346 45.178C110.346 45.2247 110.339 45.262 110.325 45.29C110.311 45.3227 110.281 45.339 110.234 45.339Z" fill="#8C5632"/>
<path d="M111.963 45.682C111.925 45.682 111.881 45.675 111.83 45.661C111.545 45.5677 111.337 45.4137 111.207 45.199C111.076 44.9797 111.011 44.7487 111.011 44.506C111.011 44.4687 111.011 44.4337 111.011 44.401C111.015 44.3637 111.02 44.3287 111.025 44.296C111.067 44.03 111.155 43.7943 111.291 43.589C111.431 43.3837 111.587 43.2157 111.76 43.085C111.937 42.9497 112.098 42.8633 112.243 42.826C112.336 42.8027 112.429 42.784 112.523 42.77C112.616 42.7513 112.707 42.742 112.796 42.742C113.02 42.742 113.211 42.791 113.37 42.889C113.528 42.987 113.608 43.148 113.608 43.372C113.608 43.498 113.568 43.6123 113.489 43.715C113.414 43.8177 113.318 43.9063 113.202 43.981C113.09 44.051 112.98 44.107 112.873 44.149C112.709 44.2143 112.523 44.2633 112.313 44.296C112.107 44.3287 111.914 44.345 111.732 44.345C111.615 44.345 111.508 44.338 111.41 44.324V44.331C111.41 44.3497 111.407 44.3683 111.403 44.387C111.398 44.401 111.396 44.4173 111.396 44.436C111.391 44.4547 111.389 44.4733 111.389 44.492C111.389 44.506 111.389 44.52 111.389 44.534C111.389 44.6787 111.417 44.807 111.473 44.919C111.533 45.0263 111.603 45.1197 111.683 45.199C111.762 45.2737 111.827 45.3343 111.879 45.381C111.963 45.423 112.021 45.4627 112.054 45.5C112.091 45.542 112.11 45.5747 112.11 45.598C112.11 45.654 112.061 45.682 111.963 45.682ZM111.921 44.03C112.061 44.03 112.208 44.0207 112.362 44.002C112.516 43.9787 112.658 43.9367 112.789 43.876C112.891 43.8247 112.987 43.757 113.076 43.673C113.164 43.5843 113.209 43.4793 113.209 43.358C113.209 43.2647 113.171 43.1947 113.097 43.148C113.022 43.1013 112.917 43.078 112.782 43.078C112.628 43.078 112.46 43.106 112.278 43.162C112.212 43.1807 112.131 43.225 112.033 43.295C111.939 43.365 111.844 43.4607 111.746 43.582C111.648 43.6987 111.566 43.8387 111.501 44.002C111.557 44.0067 111.62 44.0137 111.69 44.023C111.764 44.0277 111.841 44.03 111.921 44.03Z" fill="#8C5632"/>
<path d="M97.9393 53.8601C97.4455 54.4349 98.6645 56.292 99.3625 56.8919C100.061 57.4917 101.027 57.512 101.521 56.9373C102.014 56.3626 101.849 55.4104 101.151 54.8106C100.453 54.2108 98.4331 53.2854 97.9393 53.8601Z" fill="#889A6B"/>
<path d="M111.13 49.034C109.954 49.7565 111.035 53.6573 111.913 55.0865C112.79 56.5157 114.456 57.0887 115.632 56.3663C116.809 55.6439 117.051 53.8996 116.174 52.4704C115.296 51.0411 112.307 48.3116 111.13 49.034Z" fill="#889A6B"/>
<path d="M102.251 51.2872C101.515 51.1055 100.407 53.0307 100.186 53.9242C99.9655 54.8177 100.383 55.6894 101.119 55.8712C101.854 56.0529 102.629 55.4759 102.85 54.5824C103.071 53.6889 102.987 51.469 102.251 51.2872Z" fill="#889A6B"/>
<path d="M119.903 47.3122C118.728 46.5875 115.733 49.3112 114.853 50.7387C113.973 52.1662 114.212 53.911 115.387 54.6357C116.562 55.3604 118.228 54.7906 119.109 53.3631C119.989 51.9356 121.078 48.0369 119.903 47.3122Z" fill="#889A6B"/>
<circle cx="108.63" cy="54.037" r="1.7" transform="rotate(12.9188 108.63 54.037)" fill="#583BC9"/>
<circle cx="111.554" cy="54.7078" r="1.7" transform="rotate(12.9188 111.554 54.7078)" fill="#583BC9"/>
<circle cx="114.479" cy="55.3785" r="1.7" transform="rotate(12.9188 114.479 55.3785)" fill="#583BC9"/>
<circle cx="117.403" cy="56.0492" r="1.7" transform="rotate(12.9188 117.403 56.0492)" fill="#583BC9"/>
<circle cx="120.327" cy="56.7199" r="1.7" transform="rotate(12.9188 120.327 56.7199)" fill="#583BC9"/>
<circle cx="108.934" cy="57.1847" r="1.7" transform="rotate(12.9188 108.934 57.1847)" fill="#583BC9"/>
<circle cx="111.858" cy="57.8554" r="1.7" transform="rotate(12.9188 111.858 57.8554)" fill="#583BC9"/>
<circle cx="114.783" cy="58.5261" r="1.7" transform="rotate(12.9188 114.783 58.5261)" fill="#583BC9"/>
<circle cx="117.707" cy="59.1968" r="1.7" transform="rotate(12.9188 117.707 59.1968)" fill="#583BC9"/>
<circle cx="110.213" cy="60.5559" r="1.7" transform="rotate(12.9188 110.213 60.5559)" fill="#583BC9"/>
<circle cx="113.137" cy="61.2266" r="1.7" transform="rotate(12.9188 113.137 61.2266)" fill="#583BC9"/>
<circle cx="116.061" cy="61.8973" r="1.7" transform="rotate(12.9188 116.061 61.8973)" fill="#583BC9"/>
<circle cx="110.517" cy="63.7035" r="1.7" transform="rotate(12.9188 110.517 63.7035)" fill="#583BC9"/>
<circle cx="113.441" cy="64.3742" r="1.7" transform="rotate(12.9188 113.441 64.3742)" fill="#583BC9"/>
<circle cx="110.821" cy="66.8511" r="1.7" transform="rotate(12.9188 110.821 66.8511)" fill="#583BC9"/>
<circle r="1.1" transform="matrix(-0.974688 0.223571 0.223571 0.974688 105.116 56.3181)" fill="#583BC9"/>
<circle r="1.1" transform="matrix(-0.974688 0.223571 0.223571 0.974688 103.166 56.7652)" fill="#583BC9"/>
<circle r="1.1" transform="matrix(-0.974688 0.223571 0.223571 0.974688 101.217 57.2124)" fill="#583BC9"/>
<circle r="1.1" transform="matrix(-0.974688 0.223571 0.223571 0.974688 99.2675 57.6595)" fill="#583BC9"/>
<circle r="1.1" transform="matrix(-0.974688 0.223571 0.223571 0.974688 97.3182 58.1067)" fill="#583BC9"/>
<circle r="1.1" transform="matrix(-0.974688 0.223571 0.223571 0.974688 104.913 58.4165)" fill="#583BC9"/>
<circle r="1.1" transform="matrix(-0.974688 0.223571 0.223571 0.974688 102.964 58.8637)" fill="#583BC9"/>
<circle r="1.1" transform="matrix(-0.974688 0.223571 0.223571 0.974688 101.014 59.3108)" fill="#583BC9"/>
<circle r="1.1" transform="matrix(-0.974688 0.223571 0.223571 0.974688 99.0649 59.758)" fill="#583BC9"/>
<circle r="1.1" transform="matrix(-0.974688 0.223571 0.223571 0.974688 104.061 60.664)" fill="#583BC9"/>
<circle r="1.1" transform="matrix(-0.974688 0.223571 0.223571 0.974688 102.111 61.1111)" fill="#583BC9"/>
<circle r="1.1" transform="matrix(-0.974688 0.223571 0.223571 0.974688 100.162 61.5583)" fill="#583BC9"/>
<circle r="1.1" transform="matrix(-0.974688 0.223571 0.223571 0.974688 103.858 62.7624)" fill="#583BC9"/>
<circle r="1.1" transform="matrix(-0.974688 0.223571 0.223571 0.974688 101.909 63.2095)" fill="#583BC9"/>
<circle r="1.1" transform="matrix(-0.974688 0.223571 0.223571 0.974688 103.655 64.8608)" fill="#583BC9"/>
</g>
</g>
<defs>
<filter id="filter0_b_28_841" x="-11" y="52.2308" width="52.7692" height="52.7692" filterUnits="userSpaceOnUse" color-interpolation-filters="sRGB">
<feFlood flood-opacity="0" result="BackgroundImageFix"/>
<feGaussianBlur in="BackgroundImageFix" stdDeviation="0.5"/>
<feComposite in2="SourceAlpha" operator="in" result="effect1_backgroundBlur_28_841"/>
<feBlend mode="normal" in="SourceGraphic" in2="effect1_backgroundBlur_28_841" result="shape"/>
</filter>
<clipPath id="clip0_28_841">
<rect width="130" height="130" rx="10" fill="white"/>
</clipPath>
</defs>
</svg>
