<svg width="130" height="130" viewBox="0 0 130 130" fill="none" xmlns="http://www.w3.org/2000/svg">
<g opacity="0.7">
<g clip-path="url(#clip0_9_12)">
<rect width="130" height="130" rx="10" fill="white"/>
<rect width="130" height="130" fill="#E2EBF8"/>
<ellipse cx="65" cy="98" rx="116" ry="38" fill="#8BAF82"/>
<path d="M17.0269 79.2274C17.3161 77.926 18.4704 77 19.8036 77H110.529C111.862 77 113.017 77.926 113.306 79.2274L126.264 137.539C126.659 139.315 125.307 141 123.487 141H6.8456C5.02587 141 3.67413 139.315 4.06889 137.539L17.0269 79.2274Z" fill="#FDE4D7"/>
<mask id="mask0_9_12" style="mask-type:alpha" maskUnits="userSpaceOnUse" x="4" y="77" width="123" height="64">
<path d="M17.0269 79.2274C17.3161 77.926 18.4704 77 19.8036 77H110.529C111.862 77 113.017 77.926 113.306 79.2274L126.264 137.539C126.659 139.315 125.307 141 123.487 141H6.8456C5.02587 141 3.67413 139.315 4.06889 137.539L17.0269 79.2274Z" fill="#E7D1CA"/>
</mask>
<g mask="url(#mask0_9_12)">
<path d="M14.0185 75.5778L21.0766 76.4444L12.8027 143.83L5.74462 142.963L14.0185 75.5778Z" fill="#FF3434" fill-opacity="0.32"/>
<path d="M28.1885 75.5778L35.2726 76.1976L29.3555 143.831L22.2714 143.211L28.1885 75.5778Z" fill="#FF3434" fill-opacity="0.32"/>
<path d="M42.4108 75.5778L49.5121 75.9499L45.959 143.748L38.8576 143.376L42.4108 75.5778Z" fill="#FF3434" fill-opacity="0.32"/>
<path d="M55.2108 75.5778L62.3208 75.7019L61.1359 143.583L54.0259 143.459L55.2108 75.5778Z" fill="#FF3434" fill-opacity="0.32"/>
<path d="M80.8108 75.5778L87.9121 75.2056L91.4653 143.004L84.3639 143.376L80.8108 75.5778Z" fill="#FF3434" fill-opacity="0.32"/>
<path d="M95.033 75.5778L102.117 74.958L108.034 142.591L100.95 143.211L95.033 75.5778Z" fill="#FF3434" fill-opacity="0.32"/>
<path d="M109.255 77L116.313 76.1334L124.587 143.519L117.529 144.385L109.255 77Z" fill="#FF3434" fill-opacity="0.32"/>
<path d="M68.0108 75.5778L75.1208 75.4537L76.3057 143.335L69.1956 143.459L68.0108 75.5778Z" fill="#FF3434" fill-opacity="0.32"/>
<path d="M1.16633 84.1111V77H127.744V84.1111H1.16633Z" fill="#FF3434" fill-opacity="0.32"/>
<path d="M1.16633 98.3333V91.2222H127.744V98.3333H1.16633Z" fill="#FF3434" fill-opacity="0.32"/>
<path d="M1.16633 112.556V105.444H127.744V112.556H1.16633Z" fill="#FF3434" fill-opacity="0.32"/>
<path d="M-3.10034 126.778L-3.10034 119.667H137.7V126.778H-3.10034Z" fill="#FF3434" fill-opacity="0.32"/>
<path d="M-3.10034 141L-3.10034 133.889H137.7V141H-3.10034Z" fill="#FF3434" fill-opacity="0.32"/>
</g>
<path fill-rule="evenodd" clip-rule="evenodd" d="M-4.441 16.9412C-4.441 17.2233 -4.41966 17.502 -4.37805 17.7765C-7.69246 19.2685 -10 22.6001 -10 26.4706C-10 31.7335 -5.73354 36 -0.470595 36H22.5588C27.8218 36 32.0882 31.7335 32.0882 26.4706C32.0882 22.0263 29.0459 18.2926 24.9302 17.2386C24.9375 17.1404 24.9412 17.0413 24.9412 16.9413C24.9412 14.7484 23.1635 12.9707 20.9706 12.9707C19.7677 12.9707 18.6898 13.5055 17.9617 14.3504C16.4042 11.2367 12.1177 9 7.07371 9C0.714313 9 -4.441 12.5554 -4.441 16.9412Z" fill="white"/>
<path fill-rule="evenodd" clip-rule="evenodd" d="M118.566 11.4118C118.566 11.5223 118.559 11.6319 118.546 11.7405C120.563 12.4882 122 14.4292 122 16.7059C122 19.6297 119.63 22 116.706 22H101.294C98.3703 22 96 19.6297 96 16.7059C96 14.081 97.9103 11.9023 100.416 11.4842C100.416 11.4602 100.415 11.436 100.415 11.4118C100.415 10.1936 101.513 9.20595 102.868 9.20595C103.611 9.20595 104.277 9.50307 104.727 9.97241C105.689 8.2426 108.337 7 111.453 7C115.381 7 118.566 8.97521 118.566 11.4118Z" fill="white"/>
<path d="M30.9149 64.5115C30.9149 65.8859 30.1721 67 29.2559 67C28.3397 67 27.8734 63.6739 27.8734 62.2996C27.5968 60.0876 25.2983 58.4286 26.2145 58.4286C27.1307 58.4286 30.9149 63.1372 30.9149 64.5115Z" fill="#A9CCA1"/>
<path d="M30.2857 63.9124C30.2857 64.8286 30.7175 65.5714 31.2501 65.5714C31.7827 65.5714 32.0538 63.354 32.0538 62.4378C32.2145 60.9631 33.5508 59.8571 33.0181 59.8571C32.4855 59.8571 30.2857 62.9962 30.2857 63.9124Z" fill="#A9CCA1"/>
<path d="M28.8572 63.0829C28.8572 64.4573 29.289 65.5714 29.8216 65.5714C30.3543 65.5714 30.6253 62.2453 30.6253 60.871C30.7861 58.659 32.1223 57 31.5897 57C31.057 57 28.8572 61.7086 28.8572 63.0829Z" fill="#A9CCA1"/>
<path d="M121.915 78.5115C121.915 79.8859 121.172 81 120.256 81C119.34 81 118.873 77.6739 118.873 76.2996C118.597 74.0876 116.298 72.4286 117.214 72.4286C118.131 72.4286 121.915 77.1372 121.915 78.5115Z" fill="#A9CCA1"/>
<path d="M121.286 77.9124C121.286 78.8286 121.717 79.5714 122.25 79.5714C122.783 79.5714 123.054 77.354 123.054 76.4378C123.215 74.9631 124.551 73.8571 124.018 73.8571C123.486 73.8571 121.286 76.9962 121.286 77.9124Z" fill="#A9CCA1"/>
<path d="M119.857 77.0829C119.857 78.4573 120.289 79.5714 120.822 79.5714C121.354 79.5714 121.625 76.2453 121.625 74.871C121.786 72.659 123.122 71 122.59 71C122.057 71 119.857 75.7086 119.857 77.0829Z" fill="#A9CCA1"/>
<path d="M126.228 119.512C126.228 120.886 126.971 122 127.887 122C128.803 122 129.269 118.674 129.269 117.3C129.546 115.088 131.845 113.429 130.928 113.429C130.012 113.429 126.228 118.137 126.228 119.512Z" fill="#A9CCA1"/>
<path d="M126.857 118.912C126.857 119.829 126.425 120.571 125.893 120.571C125.36 120.571 125.089 118.354 125.089 117.438C124.928 115.963 123.592 114.857 124.125 114.857C124.657 114.857 126.857 117.996 126.857 118.912Z" fill="#A9CCA1"/>
<path d="M128.286 118.083C128.286 119.457 127.854 120.571 127.321 120.571C126.789 120.571 126.518 117.245 126.518 115.871C126.357 113.659 125.021 112 125.553 112C126.086 112 128.286 116.709 128.286 118.083Z" fill="#A9CCA1"/>
<path d="M5.22794 88.5115C5.22794 89.8859 5.97069 91 6.88692 91C7.80316 91 8.26944 87.6739 8.26944 86.2996C8.54599 84.0876 10.8446 82.4286 9.92833 82.4286C9.0121 82.4286 5.22794 87.1372 5.22794 88.5115Z" fill="#A9CCA1"/>
<path d="M5.85714 87.9124C5.85714 88.8286 5.42536 89.5714 4.89273 89.5714C4.3601 89.5714 4.08904 87.354 4.08904 86.4378C3.92828 84.9631 2.59206 83.8571 3.12469 83.8571C3.65732 83.8571 5.85714 86.9962 5.85714 87.9124Z" fill="#A9CCA1"/>
<path d="M7.28561 87.0829C7.28561 88.4573 6.85383 89.5714 6.3212 89.5714C5.78857 89.5714 5.51751 86.2453 5.51751 84.871C5.35675 82.659 4.02053 81 4.55316 81C5.08579 81 7.28561 85.7086 7.28561 87.0829Z" fill="#A9CCA1"/>
</g>
</g>
<defs>
<clipPath id="clip0_9_12">
<rect width="130" height="130" rx="10" fill="white"/>
</clipPath>
</defs>
</svg>
