<svg width="24" height="23" viewBox="0 0 24 23" fill="none" xmlns="http://www.w3.org/2000/svg">
<path d="M7.20233 2.74744V12.0916C6.62221 11.7443 5.96976 11.5493 5.27995 11.5493C2.86698 11.5493 0.910889 13.9357 0.910889 16.8795C0.910889 19.8233 2.86698 22.2098 5.27995 22.2098C7.69291 22.2098 9.649 19.8233 9.649 16.8795C9.649 16.8503 9.64881 16.8212 9.64843 16.7921H9.649V4.00448C11.1682 3.54428 12.8832 4.06062 13.8742 5.4256C15.1811 7.2258 17.7389 7.54365 19.4467 6.1181L20.8338 4.9603V12.0916C20.2537 11.7443 19.6012 11.5493 18.9114 11.5493C16.4984 11.5493 14.5423 13.9357 14.5423 16.8795C14.5423 19.8233 16.4984 22.2098 18.9114 22.2098C21.3244 22.2098 23.2805 19.8233 23.2805 16.8795C23.2805 16.8503 23.2803 16.8212 23.2799 16.7921H23.2805V2.11211H20.8338L19.5009 3.22472C17.7851 4.65689 15.2065 4.28655 13.9631 2.42939C12.6818 0.51542 9.99691 0.191629 8.29724 1.74609L7.20233 2.74744Z" fill="#F3C10D"/>
<path d="M20.1048 19.0423C21.0227 18.1175 20.7031 16.3121 21.4567 17.06C22.2103 17.8079 22.077 19.1639 21.1591 20.0887C20.2412 21.0136 18.8863 21.157 18.1327 20.4091C17.3792 19.6611 19.1869 19.9671 20.1048 19.0423Z" fill="#F4DA81"/>
<path d="M6.47335 19.0423C7.39124 18.1175 7.07169 16.3121 7.82525 17.06C8.5788 17.8079 8.44558 19.1639 7.52768 20.0887C6.60979 21.0136 5.25482 21.157 4.50126 20.4091C3.74771 19.6611 5.55546 19.9671 6.47335 19.0423Z" fill="#F4DA81"/>
</svg>
