<svg width="100" height="87" viewBox="0 0 100 87" fill="none" xmlns="http://www.w3.org/2000/svg">
<path d="M62.4361 3.44322C61.0275 3.5098 59.7669 4.33793 59.1465 5.60425L44.4891 35.5199L30.8262 68.7045L28.5758 67.3367L55.8529 5.3259C56.1577 4.63295 55.9021 3.8214 55.2552 3.42822L54.543 2.99535C49.9529 0.205619 44.4545 -0.680273 39.2205 0.526634C37.7133 0.874187 36.5278 2.03692 36.1512 3.53717L28.4124 34.3662L25.0752 65.2092L22.9082 63.8921L26.4393 35.6532C26.667 33.8323 27.0236 32.0298 27.5063 30.2592L34.5644 4.37045C34.9278 3.03787 33.8291 1.76021 32.4572 1.91971L24.9743 2.78962C24.8327 2.80608 24.6926 2.83416 24.5556 2.87356C20.7085 3.98016 17.8374 7.19592 17.1723 11.1434L14.6939 25.8522C14.0412 29.7259 14.0628 33.6832 14.7578 37.5496L19.0741 61.5619L17.0738 60.3461L13.7393 39.7492C13.1642 36.1967 13.0834 32.5817 13.4991 29.007L15.3382 13.195C15.6194 10.7774 13.5176 8.75796 11.1132 9.13546C5.7247 9.9815 1.54263 14.2849 0.851021 19.6954L0.292707 24.063C-0.754646 32.2564 1.02704 40.5618 5.34289 47.6046L10.8227 56.5469L17.3698 64.1784L16.6792 66.0503C16.2084 67.3265 16.0943 68.707 16.3492 70.0432C16.5872 71.291 17.3425 72.3796 18.4281 73.0394L19.3902 73.6241L21.9688 80.8006C22.3078 81.7441 22.8835 82.5847 23.6407 83.2417L24.7305 84.1874C25.5693 84.9153 26.5263 85.4946 27.5602 85.9002L28.7846 86.3807C29.7364 86.7542 30.7694 86.8717 31.7808 86.7217L39.1437 85.6297L40.0948 86.2078C40.942 86.7227 41.9227 86.9753 42.9132 86.9338C44.6669 86.8603 46.353 86.2373 47.7332 85.153L49.5422 83.7318L57.4143 84.864L67.8754 85.6102C76.1145 86.1979 84.3073 83.9547 91.0979 79.2519L94.7178 76.745C99.2019 73.6395 101.096 67.9455 99.3655 62.7727C98.5934 60.4646 95.8329 59.5289 93.8165 60.8918L80.6277 69.8059C77.6461 71.8211 74.4 73.4141 70.9818 74.5395L51.1632 81.0647L49.1629 79.849L72.4652 72.6226C76.2172 71.459 79.74 69.6558 82.8779 67.2925L94.7929 58.3191C97.9906 55.9108 99.523 51.8814 98.7336 47.9569C98.7055 47.8171 98.6659 47.6799 98.6153 47.5466L95.9416 40.5037C95.4514 39.2125 93.8113 38.8257 92.7958 39.7618L73.0658 57.949C71.7164 59.1928 70.2806 60.3394 68.7691 61.3801L45.3288 77.5187L43.1618 76.2017L69.0029 59.036L92.8047 37.9696C93.963 36.9444 94.4492 35.3567 94.0636 33.8587C92.7246 28.657 89.4062 24.1842 84.8161 21.3945L84.1039 20.9616C83.4569 20.5684 82.6189 20.7153 82.1441 21.305L39.6612 74.0741L37.7441 72.909L60.8254 45.4487L80.5198 18.6585C81.3739 17.4967 81.5218 15.9601 80.9051 14.6568L80.8243 14.4859C77.486 7.43054 70.2326 3.07466 62.4361 3.44322Z" fill="#ED9898"/>
</svg>
