<svg width="1512" height="200" viewBox="0 0 1512 200" fill="none" xmlns="http://www.w3.org/2000/svg">
<path fill-rule="evenodd" clip-rule="evenodd" d="M159.746 200H1512V38.0001L1384.28 15.461C1244.37 -9.2294 1100.8 -3.82315 963.139 31.3199L817.5 68.5001L551.495 120.751C508.495 129.197 465.071 134.792 421.504 137.531C424.295 140.034 426.157 143.58 426.448 147.615C427.046 155.878 420.832 163.06 412.569 163.657C404.306 164.255 397.124 158.041 396.526 149.778C396.219 145.529 397.713 141.566 400.361 138.636C377.428 139.591 354.467 139.756 331.521 139.131C334.92 142.43 337.167 146.942 337.536 152.038C338.332 163.054 330.047 172.631 319.03 173.428C308.013 174.224 298.436 165.939 297.64 154.922C297.155 148.21 300.041 142.032 304.861 138.049C291.54 137.331 278.229 136.344 264.936 135.092C263.046 140.613 258.007 144.753 251.82 145.2C243.758 145.783 236.724 139.881 235.832 131.919C219.443 129.889 203.09 127.452 186.79 124.606L159.258 119.8C159.089 119.818 158.92 119.833 158.749 119.845C156.018 120.043 153.406 119.496 151.11 118.378L84.3199 106.719C91.7364 109.209 97.3086 115.953 97.908 124.244C98.7045 135.261 90.4191 144.837 79.4022 145.634C68.3852 146.43 58.8086 138.145 58.0121 127.128C57.2156 116.111 65.501 106.535 76.5179 105.738C77.1601 105.692 77.7974 105.676 78.4284 105.691L36.9969 98.4581C37.6884 100.007 38.1269 101.701 38.2563 103.491C38.8536 111.754 32.6396 118.937 24.3769 119.534C16.1142 120.131 8.93174 113.917 8.33438 105.654C8.01535 101.241 9.63916 97.1368 12.4803 94.1788L0 92.0001V142.002C3.33999 138.253 8.08633 135.751 13.4898 135.36C24.5067 134.564 34.0834 142.849 34.8798 153.866C35.6763 164.883 27.391 174.46 16.374 175.256C9.93587 175.721 3.98957 173.085 0 168.615V200H64.1211C60.2617 196.652 57.6769 191.834 57.2794 186.335C56.4829 175.318 64.7683 165.742 75.7852 164.945C86.8022 164.149 96.3788 172.434 97.1753 183.451C97.6476 189.984 94.9263 196.01 90.3355 200H131.269C134.557 196.664 139.025 194.462 144.065 194.098C150.14 193.658 155.777 195.981 159.746 200ZM111.403 158.359C112 166.622 119.183 172.837 127.446 172.239C135.708 171.642 141.922 164.459 141.325 156.196C140.728 147.934 133.545 141.72 125.282 142.317C117.02 142.915 110.806 150.097 111.403 158.359ZM224.494 183.27C225.091 191.533 232.274 197.747 240.536 197.15C248.799 196.552 255.013 189.369 254.416 181.107C253.818 172.844 246.636 166.63 238.373 167.227C230.11 167.825 223.896 175.007 224.494 183.27ZM188.287 167.84C177.27 168.637 167.693 160.352 166.897 149.335C166.1 138.318 174.386 128.741 185.403 127.944C196.42 127.148 205.996 135.434 206.793 146.45C207.589 157.467 199.304 167.044 188.287 167.84Z" fill="#E3F3FF"/>
</svg>
