<svg width="75" height="58" viewBox="0 0 75 58" fill="none" xmlns="http://www.w3.org/2000/svg">
<circle cx="42.9348" cy="50.4675" r="7.53248" fill="#CBBF82"/>
<circle cx="42.9319" cy="50.4675" r="6.40261" fill="#FEEFA1"/>
<rect x="42.1455" y="54.2715" width="7.53248" height="1.58182" rx="0.79091" transform="rotate(-90 42.1455 54.2715)" fill="#CBBF82"/>
<path d="M43.6017 48.0034C43.7643 47.5913 44.3672 47.6595 44.4338 48.0974C44.4509 48.2096 44.5112 48.3106 44.6019 48.3788L44.6701 48.4301C45.0616 48.7244 44.993 49.331 44.5458 49.5306L44.4679 49.5653C44.3642 49.6116 44.2829 49.6966 44.2412 49.8021C44.0786 50.2141 43.4757 50.146 43.4091 49.7081C43.392 49.5959 43.3317 49.4949 43.241 49.4267L43.1728 49.3754C42.7813 49.0811 42.8499 48.4745 43.2971 48.2749L43.375 48.2402C43.4787 48.1939 43.56 48.1089 43.6017 48.0034Z" fill="#FCFFF4"/>
<circle cx="42.2163" cy="50.2014" r="0.376624" transform="rotate(21.1501 42.2163 50.2014)" fill="#FCFFF4"/>
<circle cx="46.2154" cy="48.7269" r="0.376624" transform="rotate(21.1501 46.2154 48.7269)" fill="#FCFFF4"/>
<circle cx="45.4312" cy="47.6169" r="0.376624" transform="rotate(21.1501 45.4312 47.6169)" fill="#FCFFF4"/>
<path fill-rule="evenodd" clip-rule="evenodd" d="M32.0092 41.4286C43.4494 41.4286 52.7235 32.1545 52.7235 20.7143C52.7235 9.27411 43.4494 0 32.0092 0C20.569 0 11.2949 9.27411 11.2949 20.7143C11.2949 32.1545 20.569 41.4286 32.0092 41.4286ZM32.0113 28.9999C36.5874 28.9999 40.297 25.2903 40.297 20.7142C40.297 16.1381 36.5874 12.4285 32.0113 12.4285C27.4352 12.4285 23.7256 16.1381 23.7256 20.7142C23.7256 25.2903 27.4352 28.9999 32.0113 28.9999Z" fill="#FFEBEB"/>
<path fill-rule="evenodd" clip-rule="evenodd" d="M22.701 39.2242L28.7069 28.3138C26.7538 27.4629 25.1925 25.8812 24.3681 23.9141L13.6553 30.326C15.6643 34.1542 18.8359 37.2767 22.701 39.2242ZM13.8238 10.7877L24.514 17.186C25.3978 15.3109 26.964 13.8208 28.8925 13.0362L22.8804 2.1146C19.041 4.00259 15.8713 7.0444 13.8238 10.7877ZM39.4991 17.1576C38.6054 15.2798 37.0258 13.7913 35.0843 13.0161L41.0966 2.09424C44.9465 3.97671 48.1263 7.01806 50.1817 10.7639L39.4991 17.1576ZM35.2706 28.335C37.2369 27.4935 38.8117 25.9132 39.6462 23.9432L50.3506 30.35C48.3338 34.1809 45.1519 37.303 41.2762 39.2449L35.2706 28.335Z" fill="#FEA1A1"/>
<path d="M21.1634 27.9074C20.686 27.9299 20.2587 28.2106 20.0484 28.6399L15.0801 38.7801L10.4489 50.0284L9.6861 49.5648L18.932 28.5455C19.0353 28.3106 18.9487 28.0355 18.7294 27.9023L18.488 27.7555C16.9321 26.8099 15.0683 26.5096 13.2942 26.9187C12.7833 27.0365 12.3815 27.4307 12.2539 27.9392L9.63069 38.389L8.49953 48.8436L7.76498 48.3972L8.96191 38.8253C9.03909 38.2081 9.15995 37.5971 9.32356 36.9969L11.716 28.2216C11.8392 27.77 11.4668 27.3369 11.0017 27.3909L8.46531 27.6858C8.41731 27.6914 8.36985 27.7009 8.32341 27.7143C7.01937 28.0894 6.0462 29.1794 5.82074 30.5174L4.98066 35.5031C4.75941 36.8162 4.76674 38.1576 5.00232 39.4681L6.4654 47.6073L5.78735 47.1952L4.6571 40.2137C4.46215 39.0095 4.43476 37.7842 4.57568 36.5725L5.19906 31.2128C5.29437 30.3934 4.58196 29.7088 3.76695 29.8368C1.94045 30.1236 0.522893 31.5823 0.288463 33.4162L0.0992165 34.8967C-0.255796 37.6739 0.348128 40.4891 1.81103 42.8764L3.66847 45.9074L5.88768 48.4942L5.65361 49.1287C5.49402 49.5613 5.45535 50.0292 5.54174 50.4822C5.62242 50.9051 5.87845 51.2741 6.2464 51.4978L6.57252 51.696L7.44657 54.1285C7.56149 54.4483 7.75662 54.7332 8.01328 54.956L8.38267 55.2765C8.667 55.5232 8.9914 55.7196 9.34185 55.8571L9.75688 56.02C10.0795 56.1465 10.4296 56.1864 10.7725 56.1356L13.2682 55.7654L13.5906 55.9613C13.8778 56.1359 14.2102 56.2215 14.5459 56.2074C15.1403 56.1825 15.7119 55.9714 16.1797 55.6038L16.7929 55.1221L19.4612 55.5058L23.0071 55.7588C25.7999 55.958 28.5769 55.1976 30.8787 53.6036L32.1057 52.7538C33.6256 51.7012 34.2676 49.7711 33.6811 48.0178C33.4193 47.2354 32.4837 46.9182 31.8001 47.3802L27.3297 50.4017C26.319 51.0848 25.2187 51.6248 24.0601 52.0063L17.3423 54.218L16.6643 53.8059L24.5629 51.3565C25.8347 50.9621 27.0288 50.3509 28.0924 49.5498L32.1311 46.5081C33.215 45.6918 33.7344 44.326 33.4669 42.9958C33.4573 42.9484 33.4439 42.9019 33.4268 42.8567L32.5205 40.4694C32.3543 40.0317 31.7984 39.9006 31.4542 40.218L24.7665 46.3827C24.3091 46.8043 23.8224 47.193 23.3101 47.5457L15.3647 53.0161L14.6302 52.5697L23.3893 46.7512L31.4572 39.6104C31.8498 39.263 32.0146 38.7248 31.8839 38.217C31.4301 36.4538 30.3052 34.9378 28.7494 33.9921L28.508 33.8454C28.2887 33.7121 28.0046 33.7619 27.8437 33.9618L13.4436 51.8485L12.7938 51.4536L20.6175 42.1456L27.2931 33.0647C27.5826 32.671 27.6327 32.1501 27.4237 31.7083L27.3963 31.6504C26.2648 29.2589 23.8061 27.7824 21.1634 27.9074Z" fill="#ED9898"/>
<path fill-rule="evenodd" clip-rule="evenodd" d="M74.1667 31.1258C75.5841 28.5349 73.6038 25.395 70.655 25.5577L64.9295 25.8737C63.7617 25.9381 62.6302 25.4563 61.8672 24.5698L58.7774 20.9792C56.6452 18.5015 52.5852 19.7303 52.1848 22.9746L51.7172 26.763C51.5455 28.1547 50.6147 29.3358 49.3016 29.8281L44.8261 31.5062C41.8243 32.6317 41.5117 36.754 44.3094 38.3194L48.8656 40.8688C49.9907 41.4983 50.7156 42.6595 50.787 43.9468L51.0849 49.3141C51.2611 52.4891 55.0496 54.0303 57.3922 51.8801L61.0418 48.5301C62.0503 47.6044 63.4816 47.2988 64.7802 47.732L68.4175 48.9451C71.499 49.9729 74.3491 46.8789 73.0722 43.892L71.2081 39.5314C70.754 38.469 70.8126 37.257 71.3671 36.2434L74.1667 31.1258ZM72.121 29.4507C69.2409 30.402 66.626 32.0189 64.4887 34.1702L64.4411 34.218C64.148 34.5131 63.6709 34.5147 63.3757 34.2215C63.0805 33.9284 63.0788 33.4516 63.372 33.1565L63.4195 33.1086C65.7238 30.7893 68.543 29.0461 71.648 28.0205L72.121 29.4507ZM62.5561 40.9535C65.4827 42.3324 68.1232 44.3262 70.3144 46.8117L71.3748 45.7674C69.0458 43.1256 66.2392 41.0064 63.1285 39.5408L63.0633 39.51C62.6914 39.3348 62.2619 39.5091 62.1038 39.8992C61.9457 40.2893 62.119 40.7475 62.4908 40.9227L62.5561 40.9535ZM54.8447 37.6004C51.9048 36.3043 48.7738 35.6664 45.6733 35.7318L45.6042 35.7333C45.1957 35.7419 44.8313 35.4074 44.7904 34.9861C44.7494 34.5648 45.0474 34.2163 45.456 34.2077L45.525 34.2063C48.8423 34.1363 52.1921 34.8188 55.3376 36.2055L54.8447 37.6004ZM54.4544 49.7981C55.8748 47.0412 56.6768 43.9482 56.8035 40.7378L58.2732 40.9076C58.1376 44.3425 57.2795 47.6517 55.7598 50.6013L55.7282 50.6626C55.541 51.0259 55.0971 51.1406 54.7366 50.9188C54.3761 50.697 54.2356 50.2227 54.4227 49.8594L54.4544 49.7981ZM54.8148 22.2449C56.0854 25.3051 56.7169 28.5529 56.6704 31.7878L56.6694 31.8599C56.6635 32.2709 56.9991 32.6279 57.419 32.6572C57.8389 32.6865 58.1841 32.3771 58.19 31.9661L58.191 31.8939C58.2404 28.4556 57.5692 25.0035 56.2186 21.7508L54.8148 22.2449Z" fill="#FDBF7C"/>
</svg>
