<svg width="1512" height="460" viewBox="0 0 1512 460" fill="none" xmlns="http://www.w3.org/2000/svg">
<path d="M1512 398.441V0H0V398.441C219.502 480.671 461.396 480.399 680.712 397.674L762 367.013C1002.82 274.667 1270.91 284.683 1504.16 394.742L1512 398.441Z" fill="#E3F3FF"/>
<circle cx="15" cy="15" r="15" transform="matrix(-0.997397 0.0721067 0.0721067 0.997397 794.547 213.842)" fill="white"/>
<circle cx="15" cy="15" r="15" transform="matrix(-0.997397 0.0721067 0.0721067 0.997397 763.243 266.235)" fill="white"/>
<circle cx="15" cy="15" r="15" transform="matrix(-0.997397 0.0721067 0.0721067 0.997397 669.044 336.21)" fill="white"/>
<circle cx="15" cy="15" r="15" transform="matrix(-0.997397 0.0721067 0.0721067 0.997397 887.617 239.197)" fill="white"/>
<circle cx="15" cy="15" r="15" transform="matrix(-0.997397 0.0721067 0.0721067 0.997397 1048.37 257.654)" fill="white"/>
<circle cx="15" cy="15" r="15" transform="matrix(-0.997397 0.0721067 0.0721067 0.997397 1002.17 228.91)" fill="white"/>
<circle cx="15" cy="15" r="15" transform="matrix(-0.997397 0.0721067 0.0721067 0.997397 896.449 153.336)" fill="white"/>
<circle cx="15" cy="15" r="15" transform="matrix(-0.997397 0.0721067 0.0721067 0.997397 611.675 319.303)" fill="white"/>
<circle cx="15" cy="15" r="15" transform="matrix(-0.997397 0.0721067 0.0721067 0.997397 608.947 212.221)" fill="white"/>
<circle cx="15" cy="15" r="15" transform="matrix(-0.997397 0.0721067 0.0721067 0.997397 876.334 291.146)" fill="white"/>
<circle cx="15" cy="15" r="15" transform="matrix(-0.997397 0.0721067 0.0721067 0.997397 660.175 213.53)" fill="white"/>
<circle cx="25" cy="25" r="25" transform="matrix(-0.997397 0.0721067 0.0721067 0.997397 693.894 152.941)" fill="white"/>
<circle cx="20" cy="20" r="20" transform="matrix(-0.997397 0.0721067 0.0721067 0.997397 863.92 188.774)" fill="white"/>
<circle cx="20" cy="20" r="20" transform="matrix(-0.997397 0.0721067 0.0721067 0.997397 719.466 229.296)" fill="white"/>
<circle cx="20" cy="20" r="20" transform="matrix(-0.997397 0.0721067 0.0721067 0.997397 828.351 251.502)" fill="white"/>
<circle cx="20" cy="20" r="20" transform="matrix(-0.997397 0.0721067 0.0721067 0.997397 959.094 257.09)" fill="white"/>
<circle cx="20" cy="20" r="20" transform="matrix(-0.997397 0.0721067 0.0721067 0.997397 787.013 317.655)" fill="white"/>
<circle cx="20" cy="20" r="20" transform="matrix(-0.997397 0.0721067 0.0721067 0.997397 950.417 192.547)" fill="white"/>
<circle cx="20" cy="20" r="20" transform="matrix(-0.997397 0.0721067 0.0721067 0.997397 718.733 288.503)" fill="white"/>
<circle cx="20" cy="20" r="20" transform="matrix(-0.997397 0.0721067 0.0721067 0.997397 656.438 258.918)" fill="white"/>
<circle cx="20" cy="20" r="20" transform="matrix(-0.997397 0.0721067 0.0721067 0.997397 630.314 369.088)" fill="white"/>
<circle cx="20" cy="20" r="20" transform="matrix(-0.997397 0.0721067 0.0721067 0.997397 815.36 141.152)" fill="white"/>
<circle cx="20" cy="20" r="20" transform="matrix(-0.997397 0.0721067 0.0721067 0.997397 756.898 178.464)" fill="white"/>
</svg>
