<svg width="100" height="85" viewBox="0 0 100 85" fill="none" xmlns="http://www.w3.org/2000/svg">
<g clip-path="url(#clip0_45_58)">
<path d="M43.7933 64.7733C42.6148 71.2474 35.5978 76.0777 28.2693 74.7437C20.9409 73.4097 16.0761 66.4165 17.2546 59.9424C18.3554 53.8956 25.198 49.7994 30.6745 54.2147C31.3879 54.7898 32.3704 54.9428 33.2398 54.6535C39.2973 52.6378 44.8863 58.7691 43.7933 64.7733Z" fill="#FF5454"/>
<path d="M33.7933 72.7733C32.6148 79.2474 25.5978 84.0777 18.2693 82.7437C10.9409 81.4097 6.07614 74.4165 7.25463 67.9424C8.35536 61.8956 15.198 57.7994 20.6745 62.2147C21.3879 62.7898 22.3704 62.9428 23.2398 62.6535C29.2973 60.6378 34.8863 66.7691 33.7933 72.7733Z" fill="#DE2E2E"/>
<path d="M64.2509 58.6933C64.103 65.2721 57.9309 71.1438 50.4839 70.9764C43.0369 70.809 37.135 64.6658 37.2829 58.0871C37.421 51.9424 43.536 46.8232 49.6376 50.3243C50.4324 50.7803 51.4267 50.7773 52.24 50.3551C57.9061 47.4137 64.388 52.5919 64.2509 58.6933Z" fill="#DB6363"/>
<path d="M93.5201 61.5395C93.3266 70.1434 86.6246 77.8533 78.575 77.6724C70.5255 77.4914 64.1766 69.4881 64.37 60.8842C64.55 52.8789 71.1365 46.174 77.6898 50.618C78.5661 51.2123 79.7487 51.2085 80.6497 50.6524C86.7725 46.8735 93.6987 53.5908 93.5201 61.5395Z" fill="#DE2E2E"/>
<path d="M28.7933 46.7733C27.6148 53.2474 20.5978 58.0777 13.2693 56.7437C5.94089 55.4097 1.07614 48.4165 2.25463 41.9424C3.35536 35.8956 10.198 31.7994 15.6745 36.2147C16.3879 36.7898 17.3704 36.9428 18.2398 36.6535C24.2973 34.6378 29.8863 40.7691 28.7933 46.7733Z" fill="#DE2E2E"/>
<path d="M73.2509 43.6933C73.103 50.2721 66.9309 56.1438 59.4839 55.9764C52.0369 55.809 46.135 49.6658 46.2829 43.0871C46.421 36.9424 52.536 31.8232 58.6376 35.3243C59.4324 35.7803 60.4267 35.7773 61.24 35.3551C66.9061 32.4137 73.388 37.5919 73.2509 43.6933Z" fill="#FF5454"/>
<path d="M73.2509 69.6933C73.103 76.2721 66.9309 82.1438 59.4839 81.9764C52.0369 81.809 46.135 75.6658 46.2829 69.0871C46.421 62.9424 52.536 57.8232 58.6376 61.3243C59.4324 61.7803 60.4267 61.7773 61.24 61.3551C66.9061 58.4137 73.388 63.5919 73.2509 69.6933Z" fill="#FF5454"/>
<path d="M98.2509 41.6933C98.103 48.2721 91.9309 54.1438 84.4839 53.9764C77.0369 53.809 71.135 47.6658 71.2829 41.0871C71.421 34.9424 77.536 29.8232 83.6376 33.3243C84.4324 33.7803 85.4267 33.7773 86.24 33.3551C91.9061 30.4137 98.388 35.5919 98.2509 41.6933Z" fill="#DB6363"/>
<path d="M50.2509 40.6933C50.103 47.2721 43.9309 53.1438 36.4839 52.9764C29.0369 52.809 23.135 46.6658 23.2829 40.0871C23.421 33.9424 29.536 28.8232 35.6376 32.3243C36.4324 32.7803 37.4267 32.7773 38.24 32.3551C43.9061 29.4137 50.388 34.5919 50.2509 40.6933Z" fill="#DB6363"/>
<mask id="mask0_45_58" style="mask-type:alpha" maskUnits="userSpaceOnUse" x="0" y="45" width="101" height="40">
<path d="M0.000244141 45.0002H100L93.7211 76.3961C92.7405 81.2989 88.2387 84.6867 83.2561 84.2715V84.2715C61.1239 82.4271 38.8766 82.4271 16.7444 84.2715V84.2715C11.7618 84.6867 7.25999 81.2989 6.27942 76.3961L0.000244141 45.0002Z" fill="white"/>
</mask>
<g mask="url(#mask0_45_58)">
<path d="M0.000244141 85.0002H4.00024V45.0002H0.000244141V85.0002Z" fill="#E0CA92"/>
<path d="M8.00024 85.0002H12.0002V45.0002H8.00024V85.0002Z" fill="#B49D72"/>
<path d="M16.0002 85.0002H20.0002V45.0002H16.0002V85.0002Z" fill="#E0CA92"/>
<path d="M24.0002 85.0002H28.0002V45.0002H24.0002V85.0002Z" fill="#B49D72"/>
<path d="M32.0002 85.0002H36.0002V45.0002H32.0002V85.0002Z" fill="#E0CA92"/>
<path d="M40.0002 85.0002H44.0002V45.0002H40.0002V85.0002Z" fill="#B49D72"/>
<path d="M48.0002 85.0002H52.0002V45.0002H48.0002V85.0002Z" fill="#E0CA92"/>
<path d="M56.0002 85.0002H60.0002V45.0002H56.0002V85.0002Z" fill="#B49D72"/>
<path d="M64.0002 85.0002H68.0002V45.0002H64.0002V85.0002Z" fill="#E0CA92"/>
<path d="M72.0002 85.0002H76.0002V45.0002H72.0002V85.0002Z" fill="#B49D72"/>
<path d="M80.0002 85.0002H84.0002V45.0002H80.0002V85.0002Z" fill="#E0CA92"/>
<path d="M88.0002 85.0002H92.0002V45.0002H88.0002V85.0002Z" fill="#B49D72"/>
<path d="M96.0002 85.0002H100V45.0002H96.0002V85.0002Z" fill="#E0CA92"/>
<path d="M0.000244141 85.0002H100V80.0002H0.000244141V85.0002Z" fill="#E0CA92"/>
<path d="M0.000244141 76.0002H100V71.0002H0.000244141V76.0002Z" fill="#B49D72"/>
<path d="M0.000244141 67.0002H100V62.0002H0.000244141V67.0002Z" fill="#E0CA92"/>
<path d="M0.000244141 58.0002H100V53.0002H0.000244141V58.0002Z" fill="#B49D72"/>
<path d="M0.000244141 49.0002H100V45.0002H0.000244141V49.0002Z" fill="#E0CA92"/>
<path d="M8.00024 76.0002H12.0002V71.0002H8.00024V76.0002Z" fill="#E0CA92"/>
<path d="M24.0002 76.0002H28.0002V71.0002H24.0002V76.0002Z" fill="#E0CA92"/>
<path d="M40.0002 76.0002H44.0002V71.0002H40.0002V76.0002Z" fill="#E0CA92"/>
<path d="M56.0002 76.0002H60.0002V71.0002H56.0002V76.0002Z" fill="#E0CA92"/>
<path d="M72.0002 76.0002H76.0002V71.0002H72.0002V76.0002Z" fill="#E0CA92"/>
<path d="M88.0002 76.0002H92.0002V71.0002H88.0002V76.0002Z" fill="#E0CA92"/>
<path d="M8.00024 58.0002H12.0002V53.0002H8.00024V58.0002Z" fill="#E0CA92"/>
<path d="M24.0002 58.0002H28.0002V53.0002H24.0002V58.0002Z" fill="#E0CA92"/>
<path d="M40.0002 58.0002H44.0002V53.0002H40.0002V58.0002Z" fill="#E0CA92"/>
<path d="M56.0002 58.0002H60.0002V53.0002H56.0002V58.0002Z" fill="#E0CA92"/>
<path d="M72.0002 58.0002H76.0002V53.0002H72.0002V58.0002Z" fill="#E0CA92"/>
<path d="M88.0002 58.0002H92.0002V53.0002H88.0002V58.0002Z" fill="#E0CA92"/>
<path d="M16.0002 85.0002H20.0002V80.0002H16.0002V85.0002Z" fill="#B49D72"/>
<path d="M0.000244141 85.0002H4.00024V80.0002H0.000244141V85.0002Z" fill="#B49D72"/>
<path d="M32.0002 85.0002H36.0002V80.0002H32.0002V85.0002Z" fill="#B49D72"/>
<path d="M48.0002 85.0002H52.0002V80.0002H48.0002V85.0002Z" fill="#B49D72"/>
<path d="M64.0002 85.0002H68.0002V80.0002H64.0002V85.0002Z" fill="#B49D72"/>
<path d="M80.0002 85.0002H84.0002V80.0002H80.0002V85.0002Z" fill="#B49D72"/>
<path d="M96.0002 85.0002H100V80.0002H96.0002V85.0002Z" fill="#B49D72"/>
<path d="M16.0002 49.0002H20.0002V45.0002H16.0002V49.0002Z" fill="#B49D72"/>
<path d="M0.000244141 49.0002H4.00024V45.0002H0.000244141V49.0002Z" fill="#B49D72"/>
<path d="M32.0002 49.0002H36.0002V45.0002H32.0002V49.0002Z" fill="#B49D72"/>
<path d="M48.0002 49.0002H52.0002V45.0002H48.0002V49.0002Z" fill="#B49D72"/>
<path d="M64.0002 49.0002H68.0002V45.0002H64.0002V49.0002Z" fill="#B49D72"/>
<path d="M80.0002 49.0002H84.0002V45.0002H80.0002V49.0002Z" fill="#B49D72"/>
<path d="M96.0002 49.0002H100V45.0002H96.0002V49.0002Z" fill="#B49D72"/>
</g>
<path d="M100 45.1898C100 53.5789 77.6146 48.4454 50.0004 48.4454C22.3861 48.4454 0.000244141 53.5789 0.000244141 45.1898C0.000244141 36.8008 22.386 30.0001 50.0002 30.0001C77.6145 30.0001 100 36.8008 100 45.1898Z" fill="#EECA9B"/>
<path fill-rule="evenodd" clip-rule="evenodd" d="M0.113281 46.1602C1.85585 38.2513 23.525 32.0001 50.0002 32.0001C76.4754 32.0001 98.1446 38.2513 99.8872 46.1602C98.7075 50.9015 88.3966 50.2708 73.6447 49.3685C66.6047 48.9378 58.5533 48.4454 50.0003 48.4454C41.4474 48.4454 33.396 48.9378 26.3559 49.3685C11.604 50.2708 1.29291 50.9015 0.113281 46.1602Z" fill="#A09277"/>
<path fill-rule="evenodd" clip-rule="evenodd" d="M99.737 46.6215C98.0075 50.8586 87.8994 50.2403 73.6448 49.3684C66.6048 48.9378 58.5534 48.4453 50.0004 48.4453C41.4474 48.4453 33.396 48.9378 26.356 49.3684C12.1012 50.2403 1.99302 50.8586 0.263513 46.6215C0.0894388 47.137 0.000244141 47.6602 0.000244141 48.1898C0.000244141 53.9805 10.6665 53.3281 26.356 52.3684C33.396 51.9378 41.4474 51.4453 50.0004 51.4453C58.5534 51.4453 66.6048 51.9378 73.6448 52.3684C89.3341 53.3281 100 53.9805 100 48.1898C100 47.6602 99.911 47.137 99.737 46.6215Z" fill="#EECA9B"/>
<path fill-rule="evenodd" clip-rule="evenodd" d="M46.0224 48.4795C49.0961 45.7726 50.8555 41.8206 50.4333 37.8966C49.7803 31.8287 42.6832 27.5321 37.445 31.1815C36.6932 31.7053 35.7076 31.8369 34.8605 31.4874C28.3574 28.8047 22.9557 34.6717 23.6133 40.7826C23.9743 44.1372 25.8975 47.1725 28.6843 49.2267C34.0148 48.9052 39.8616 48.5828 46.0224 48.4795Z" fill="#DB6363"/>
<path fill-rule="evenodd" clip-rule="evenodd" d="M94.6755 49.5487C96.6673 47.6519 98.0242 45.1894 98.3748 42.4978C99.1632 36.446 93.2718 30.6048 87.3238 32.9239C86.47 33.2567 85.4811 33.1535 84.7396 32.6151C79.0471 28.482 72.42 32.9185 71.6261 39.0132C71.1287 42.8312 72.7065 46.7222 75.581 49.4865C83.7333 49.9797 90.3849 50.3123 94.6755 49.5487Z" fill="#DB6363"/>
<path fill-rule="evenodd" clip-rule="evenodd" d="M26.466 49.3617C27.1055 48.2517 27.5618 47.0442 27.7931 45.7734C28.8861 39.7691 23.2971 33.6378 17.2396 35.6536C16.3702 35.9429 15.3877 35.7899 14.6743 35.2147C9.19778 30.7995 2.35517 34.8956 1.25445 40.9425C0.768322 43.613 1.31048 46.3719 2.62968 48.7854C6.716 50.5697 15.2855 50.0455 26.3559 49.3684H26.3559C26.3926 49.3662 26.4293 49.3639 26.466 49.3617Z" fill="#DE2E2E"/>
<path fill-rule="evenodd" clip-rule="evenodd" d="M70.5609 49.1813C71.8571 47.3603 72.6564 45.238 72.7692 43.0155C73.0785 36.9204 66.7453 31.5612 60.9985 34.3415C60.1736 34.7406 59.1796 34.7155 58.398 34.2372C52.3977 30.5653 46.1406 35.5099 45.829 41.6482C45.7074 44.0446 46.3915 46.4059 47.6706 48.4572C48.4427 48.4494 49.2194 48.4453 50.0003 48.4453C57.329 48.4453 64.2894 48.8069 70.5609 49.1813Z" fill="#FF5454"/>
<path fill-rule="evenodd" clip-rule="evenodd" d="M16.4269 34.0622C16.0229 32.141 14.4027 27.8281 13.5601 28.0053C12.7175 28.1825 12.9716 32.7826 13.3756 34.7039C13.591 35.7283 13.9788 36.6084 14.4217 37.1801C14.4544 37.284 14.5024 37.3824 14.5665 37.473C15.0251 38.1207 16.1335 38.1244 17.0422 37.4811C17.9509 36.8378 19.6869 34.8206 19.2283 34.1729C18.9058 33.7172 17.5833 34.0606 16.5109 34.5282C16.4879 34.3748 16.4599 34.2193 16.4269 34.0622Z" fill="#A9CCA1"/>
<path fill-rule="evenodd" clip-rule="evenodd" d="M86.2124 31.3946C85.5532 29.5453 83.3668 25.49 82.5557 25.7791C81.7447 26.0682 82.6161 30.5922 83.2753 32.4415C83.6268 33.4275 84.1296 34.2474 84.6455 34.7541C84.6919 34.8528 84.7527 34.9438 84.8284 35.0249C85.3701 35.605 86.4688 35.4592 87.2826 34.6994C88.0963 33.9396 89.5448 31.7069 89.0032 31.1268C88.6222 30.7188 87.358 31.2372 86.3584 31.845C86.3149 31.6961 86.2663 31.5458 86.2124 31.3946Z" fill="#A9CCA1"/>
<path fill-rule="evenodd" clip-rule="evenodd" d="M35.8772 29.0622C36.2812 27.141 37.9014 22.8281 38.744 23.0053C39.5866 23.1825 39.3325 27.7826 38.9285 29.7039C38.7131 30.7283 38.3252 31.6084 37.8824 32.1801C37.8497 32.284 37.8017 32.3824 37.7375 32.473C37.279 33.1207 36.1706 33.1244 35.2619 32.4811C34.3532 31.8378 32.6172 29.8206 33.0757 29.1729C33.3983 28.7172 34.7208 29.0606 35.7932 29.5282C35.8162 29.3748 35.8441 29.2193 35.8772 29.0622Z" fill="#889A6B"/>
<path fill-rule="evenodd" clip-rule="evenodd" d="M59.8787 32.0361C61.1535 30.77 64.8098 28.3613 65.6724 29.0129C66.535 29.6644 64.2773 33.1294 63.0025 34.3955C62.3229 35.0705 61.5132 35.5272 60.7745 35.7079C60.6934 35.7699 60.5976 35.8182 60.4872 35.8505C59.6983 36.0815 58.462 35.4107 57.7258 34.3523C56.9896 33.2939 55.9216 30.6516 56.7105 30.4206C57.2654 30.2582 58.5912 31.332 59.5851 32.3517C59.6766 32.245 59.7745 32.1396 59.8787 32.0361Z" fill="#82A579"/>
</g>
<defs>
<clipPath id="clip0_45_58">
<rect width="100" height="85" fill="white"/>
</clipPath>
</defs>
</svg>
