<svg width="113" height="92" viewBox="0 0 113 92" fill="none" xmlns="http://www.w3.org/2000/svg">
<g clip-path="url(#clip0_69_2311)">
<path fill-rule="evenodd" clip-rule="evenodd" d="M81.8421 58.1253C81.1537 58.0359 80.4681 58.3099 80.0309 58.8492L65.3934 76.9068L61.2325 76.5867C60.5768 76.5363 59.9383 76.8114 59.5245 77.3225L57.4477 79.8883C56.4711 81.0947 57.1812 82.9054 58.7176 83.1262L61.7722 83.5654C61.816 83.5783 61.8614 83.5885 61.9085 83.5957L85.8524 87.2642C86.5632 87.3731 87.2777 87.092 87.7239 86.5281L106.456 62.8481C106.938 62.2385 106.571 61.3361 105.8 61.236L81.8421 58.1253Z" fill="#3A6130"/>
<path d="M78.8529 56.2767C79.2946 55.7363 79.9861 55.4653 80.6773 55.5617L104.068 58.8207C105.603 59.0346 106.322 60.837 105.356 62.0485L87.1736 84.8529C86.7231 85.4179 86.0027 85.696 85.2894 85.5802L61.8798 81.7805C60.3594 81.5337 59.6769 79.733 60.6518 78.5404L78.8529 56.2767Z" fill="#FFF6D8"/>
<path d="M77.9988 54.7041C78.4403 54.1638 79.1315 53.8927 79.8226 53.9886L104.829 57.4612C105.597 57.5678 105.957 58.469 105.474 59.075L86.2722 83.1668C85.8219 83.7318 85.1018 84.01 84.3886 83.8946L59.3901 79.8481C58.6298 79.725 58.2882 78.8246 58.7756 78.2281L77.9988 54.7041Z" fill="#3A6130"/>
<path d="M78.5828 56.7971C79.0173 56.2585 79.6994 55.9828 80.3862 56.0682L100.906 58.6204C101.679 58.7165 102.05 59.6198 101.569 60.2315L85.3005 80.888C84.8569 81.4513 84.1458 81.734 83.4365 81.629L62.9334 78.5953C62.1682 78.482 61.8157 77.5802 62.3014 76.9781L78.5828 56.7971Z" fill="#A9CCA1" fill-opacity="0.48"/>
<path d="M75.1104 66.7265C75.1395 66.5745 75.2396 66.4718 75.4107 66.4185C75.5817 66.3652 75.8223 66.3683 76.1326 66.4278C76.3616 66.4716 76.5906 66.5355 76.8196 66.6194L76.6572 67.4668C76.6014 67.7446 76.3186 67.8347 75.8089 67.7371C75.5282 67.6833 75.2964 67.594 75.1136 67.4692L75.1414 67.4636C75.3371 67.5884 75.5605 67.6749 75.8116 67.723C76.1514 67.7881 76.3471 67.6862 76.3986 67.4172L76.4319 67.2435C76.3773 67.2755 76.2928 67.2969 76.1784 67.3077C76.064 67.3185 75.9329 67.3098 75.7852 67.2815C75.284 67.1793 75.0591 66.9944 75.1104 66.7265ZM75.7916 67.2681C75.9565 67.2997 76.1022 67.3058 76.2284 67.2864C76.3547 67.2669 76.4254 67.2374 76.4407 67.1979L76.5593 66.5786C76.3888 66.5096 76.2419 66.4633 76.1188 66.4397C75.8997 66.3977 75.7269 66.407 75.6004 66.4676C75.4741 66.5271 75.397 66.6299 75.3689 66.7761C75.3183 67.0404 75.4592 67.2044 75.7916 67.2681Z" fill="#F0AE62"/>
<path d="M77.8113 67.6734C77.5527 67.6238 77.3489 67.5484 77.1999 67.4471C77.0508 67.3458 76.9903 67.222 77.0183 67.0758C77.0463 66.9296 77.1518 66.8322 77.3347 66.7836C77.5201 66.7355 77.742 66.7362 78.0006 66.7857C78.2616 66.8358 78.4666 66.9114 78.6157 67.0128C78.7647 67.1141 78.8253 67.2378 78.7972 67.384C78.7692 67.5302 78.6625 67.6274 78.4772 67.6755C78.2943 67.7241 78.0723 67.7234 77.8113 67.6734ZM78.0053 66.8012C77.8181 66.7653 77.6554 66.7754 77.517 66.8313C77.3789 66.8861 77.2962 66.9842 77.2691 67.1257C77.2422 67.2661 77.2789 67.381 77.3792 67.4705C77.4794 67.5601 77.6232 67.6228 77.8103 67.6587C77.9974 67.6945 78.1601 67.6851 78.2982 67.6303C78.4366 67.5744 78.5192 67.4762 78.5461 67.3359C78.5732 67.1944 78.5366 67.0788 78.4364 66.9893C78.3361 66.8998 78.1924 66.8371 78.0053 66.8012Z" fill="#F0AE62"/>
<path d="M79.4731 67.9846C79.2564 67.9431 79.1249 67.89 79.0786 67.8253C79.0685 67.8113 79.0644 67.7996 79.0662 67.7902L79.2965 66.5885L79.555 66.6381L79.3271 67.8275C79.3206 67.8614 79.3291 67.8903 79.3526 67.9142C79.3788 67.9374 79.4065 67.9524 79.4359 67.9593L79.4758 67.9706L79.5903 67.9925L79.5876 68.0066L79.4731 67.9846Z" fill="#F0AE62"/>
<path d="M79.872 67.6391C79.9011 67.4871 80.0012 67.3844 80.1722 67.3311C80.3433 67.2778 80.5839 67.2808 80.8942 67.3403C81.0395 67.3681 81.1826 67.4138 81.3236 67.4772L81.4161 66.9947L81.6746 67.0443L81.4467 68.2337C81.4402 68.2676 81.4487 68.2965 81.4722 68.3204C81.4984 68.3436 81.5261 68.3587 81.5554 68.3655L81.5954 68.3768L81.7099 68.3987L81.7072 68.4128L81.4819 68.3696C81.3809 68.3502 81.3054 68.3248 81.2553 68.2934C81.2076 68.2625 81.1845 68.2362 81.1861 68.2147L81.1881 68.1842L81.1935 68.1561C81.1389 68.1881 81.0544 68.2094 80.94 68.2203C80.8256 68.2311 80.6945 68.2223 80.5468 68.194C80.0456 68.0919 79.8206 67.9069 79.872 67.6391ZM80.5532 68.1807C80.7181 68.2123 80.8637 68.2184 80.99 68.1989C81.1163 68.1795 81.187 68.15 81.2022 68.1105L81.3206 67.493C81.1527 67.4232 81.006 67.3763 80.8804 67.3522C80.6613 67.3102 80.4884 67.3195 80.3619 67.3802C80.2357 67.4396 80.1585 67.5425 80.1305 67.6886C80.0799 67.953 80.2207 68.117 80.5532 68.1807Z" fill="#F0AE62"/>
<path d="M82.306 68.5275C82.2051 68.5082 82.1295 68.4828 82.0794 68.4514C82.0317 68.4204 82.0086 68.3941 82.0102 68.3726L82.0122 68.3421L82.1565 67.5895L82.415 67.639L82.2708 68.3916C82.2643 68.4256 82.2728 68.4545 82.2963 68.4784C82.3225 68.5016 82.349 68.5164 82.3759 68.5227L82.4195 68.5347L82.534 68.5567L82.5313 68.5707L82.306 68.5275ZM82.2163 67.3973C82.1894 67.3776 82.178 67.3572 82.1821 67.3361C82.1861 67.3151 82.2042 67.3004 82.2365 67.292C82.2689 67.2825 82.3073 67.2819 82.3516 67.2904C82.396 67.2989 82.4314 67.3136 82.4581 67.3345C82.4874 67.3546 82.5 67.3753 82.496 67.3963C82.492 67.4174 82.4726 67.4318 82.4379 67.4397C82.4057 67.4481 82.3674 67.448 82.3231 67.4395C82.2787 67.4311 82.2431 67.417 82.2163 67.3973Z" fill="#F0AE62"/>
<path d="M83.2965 68.7173C83.0798 68.6758 82.9483 68.6227 82.902 68.5581C82.8919 68.544 82.8877 68.5323 82.8895 68.523L83.1198 67.3213L83.3784 67.3708L83.1504 68.5602C83.1439 68.5941 83.1524 68.6231 83.1759 68.647C83.2021 68.6702 83.2299 68.6852 83.2592 68.692L83.2992 68.7033L83.4137 68.7253L83.411 68.7393L83.2965 68.7173Z" fill="#F0AE62"/>
<path d="M84.3795 68.9322C84.121 68.8826 83.9172 68.8072 83.7681 68.7059C83.619 68.6046 83.5585 68.4808 83.5865 68.3346C83.6145 68.1884 83.72 68.091 83.9029 68.0424C84.0883 67.9943 84.3102 67.995 84.5688 68.0445C84.8298 68.0946 85.0348 68.1702 85.1839 68.2715C85.3329 68.3729 85.3935 68.4966 85.3655 68.6428C85.3374 68.789 85.2307 68.8862 85.0454 68.9343C84.8625 68.9829 84.6405 68.9822 84.3795 68.9322ZM84.5735 68.06C84.3863 68.0241 84.2236 68.0342 84.0852 68.0901C83.9471 68.1449 83.8645 68.243 83.8373 68.3845C83.8104 68.5249 83.8471 68.6398 83.9474 68.7293C84.0477 68.8189 84.1914 68.8816 84.3785 68.9174C84.5656 68.9533 84.7283 68.9439 84.8664 68.8891C85.0048 68.8332 85.0874 68.735 85.1143 68.5947C85.1414 68.4532 85.1048 68.3376 85.0046 68.2481C84.9043 68.1586 84.7606 68.0958 84.5735 68.06Z" fill="#F0AE62"/>
<path d="M86.6033 68.449C86.4285 68.4155 86.2744 68.4272 86.1409 68.4841C86.0099 68.5414 85.931 68.6403 85.9041 68.7806C85.8772 68.9209 85.9102 69.0352 86.0031 69.1233C86.0984 69.2119 86.2335 69.273 86.4083 69.3065C86.6275 69.3485 86.8254 69.3682 87.002 69.3657L87.0107 69.3801C86.829 69.3828 86.6211 69.3618 86.3872 69.317C86.1533 69.2721 85.9655 69.1998 85.8238 69.0999C85.6821 69 85.6253 68.8769 85.6533 68.7307C85.6813 68.5845 85.7843 68.4866 85.9623 68.4371C86.1403 68.3875 86.3548 68.3868 86.606 68.435C86.7464 68.4619 86.8727 68.5018 86.9851 68.5549C87.0999 68.6084 87.1797 68.6716 87.2244 68.7445L86.9881 68.6992C86.9621 68.6348 86.9137 68.5812 86.8427 68.5385C86.7742 68.4963 86.6944 68.4665 86.6033 68.449Z" fill="#F0AE62"/>
<path d="M87.8981 68.2352L87.7307 69.1088L88.6266 68.8295L88.6636 68.8366L87.9997 69.044L88.6875 69.7505L88.429 69.701L87.8371 69.0929L87.727 69.1281L87.646 69.5509L87.3874 69.5014L87.6396 68.1856L87.8981 68.2352Z" fill="#F0AE62"/>
<path d="M90.1616 69.1873C90.1251 69.1646 90.0635 69.1394 89.9769 69.1119C89.8927 69.0849 89.8285 69.0671 89.7842 69.0586C89.7398 69.0501 89.714 69.0452 89.7066 69.0437C89.5734 69.0194 89.4742 69.0174 89.4091 69.0377C89.3442 69.0567 89.308 69.0856 89.3006 69.1242C89.2932 69.1628 89.3128 69.2005 89.3593 69.2373C89.4061 69.2729 89.4662 69.3056 89.5396 69.3355C89.6157 69.3646 89.6963 69.397 89.7814 69.4327C89.8689 69.4689 89.9489 69.5043 90.0214 69.5388C90.0967 69.5726 90.1565 69.6132 90.2011 69.6605C90.2458 69.7067 90.2629 69.7572 90.2524 69.8122C90.2419 69.8672 90.1923 69.9062 90.1036 69.9292C90.015 69.9522 89.9189 69.9605 89.8155 69.954C89.7145 69.948 89.6062 69.9339 89.4905 69.9117C89.2393 69.8636 89.056 69.8011 88.9405 69.7245L88.9647 69.7182C89.0097 69.7498 89.0788 69.7819 89.1722 69.8143C89.268 69.8472 89.3614 69.8724 89.4525 69.8899C89.5978 69.9177 89.7208 69.9219 89.8216 69.9024C89.925 69.8822 89.9821 69.844 89.9928 69.7879C90.0038 69.7306 89.9769 69.6781 89.912 69.6305C89.8473 69.5818 89.765 69.5381 89.6652 69.4996C89.568 69.4604 89.4695 69.4215 89.3697 69.3829C89.2701 69.3432 89.1879 69.2996 89.1229 69.252C89.0583 69.2032 89.0303 69.156 89.039 69.1104C89.0478 69.0648 89.077 69.0322 89.1267 69.0126C89.1766 68.9919 89.2396 68.9827 89.3158 68.9852C89.4451 68.9894 89.5726 69.0035 89.6982 69.0276C89.91 69.0682 90.0714 69.1185 90.1824 69.1786L90.1616 69.1873Z" fill="#F0AE62"/>
<path d="M78.6639 83.7392L82.3019 84.3073L82.1949 84.4387C81.1213 85.7574 80.8411 87.5521 81.4615 89.1353V89.1353C81.4789 89.1798 81.4267 89.219 81.3889 89.1899L80.598 88.5826C79.954 88.0882 79.075 88.0321 78.3734 88.4407L77.9546 88.6846C77.9198 88.7049 77.8751 88.6864 77.8648 88.6474V88.6474C77.4303 86.9991 77.7044 85.2442 78.6208 83.8068L78.6639 83.7392Z" fill="#EEBF19"/>
<path d="M0.563786 62.2733C1.98154 68.8948 29.0359 72.8954 59.9359 66.2793C90.8359 59.6631 113.88 44.9355 112.463 38.3141C111.045 31.6927 86.5575 39.6811 55.6575 46.2973C24.7575 52.9134 -0.853963 55.6519 0.563786 62.2733Z" fill="url(#paint0_radial_69_2311)"/>
<path d="M38.9272 55.5048L43.6473 56.3922L42.7064 58.6087C41.0146 62.5938 40.2054 66.8979 40.3344 71.2253L40.3883 73.0321C40.3956 73.2792 40.1176 73.4287 39.9155 73.2862L38.7409 72.458C38.1676 72.0538 37.4246 71.9795 36.7827 72.262L36.1176 72.5547C35.9166 72.6432 35.6918 72.4928 35.6968 72.2732L35.7771 68.7855C35.8522 65.5227 36.4592 62.2941 37.5742 59.2268L38.9272 55.5048Z" fill="#FF5454"/>
<path d="M39.9754 55.7019L41.8286 56.0503L40.1589 62.0456C39.6983 63.6994 39.3805 65.3897 39.2091 67.0979L38.6303 72.8632C38.6169 72.997 38.4399 73.0351 38.3726 72.9187L38.2802 72.759C38.0061 72.2852 37.3459 72.225 36.9906 72.6413V72.6413C36.9141 72.731 36.7678 72.6667 36.7821 72.5497L37.7989 64.2173L39.9754 55.7019Z" fill="#FAA3A3"/>
<path d="M43.9475 53.8846L40.0525 55.2869L43.4713 61.716C44.8179 64.2484 45.7945 66.9608 46.3711 69.7704L47.6964 76.2282C47.7491 76.485 48.0826 76.5554 48.2346 76.3419L48.5995 75.8295C49.1692 75.0293 50.2357 74.7612 51.1161 75.1971L51.1538 75.2158C51.3821 75.3288 51.6385 75.1238 51.5784 74.8762L49.7715 67.4242C49.2634 65.3289 48.531 63.2945 47.5869 61.3563L43.9475 53.8846Z" fill="#FF5454"/>
<path d="M43.2188 54.3124L41.7557 54.8392L46.2322 65.4367L49.4085 76.0234C49.4396 76.1271 49.5897 76.1165 49.6059 76.0095L49.6276 75.8668C49.7068 75.3449 50.3658 75.162 50.7027 75.5685V75.5685C50.7669 75.646 50.891 75.5784 50.8607 75.4825L47.5489 64.9626L43.2188 54.3124Z" fill="#FAA3A3"/>
<path d="M30.5145 52.5002C31.0682 55.0861 44.2457 61.2794 58.2242 58.2864C72.2028 55.2934 81.6891 44.2474 81.1354 41.6615C78.9949 31.6645 65.9278 25.9866 51.9492 28.9796C37.9706 31.9726 28.374 42.5032 30.5145 52.5002Z" fill="#F1DDB6"/>
<path fill-rule="evenodd" clip-rule="evenodd" d="M30.4326 47.2303C34.2425 50.0815 45.223 53.8584 56.748 51.3907C68.273 48.923 76.7442 40.9813 79.0527 36.8201C80.0476 38.2852 80.7599 39.9068 81.1356 41.6615C81.6893 44.2474 72.203 55.2934 58.2244 58.2864C44.2459 61.2795 31.0684 55.0861 30.5147 52.5002C30.139 50.7455 30.1249 48.9743 30.4326 47.2303Z" fill="#FF5454"/>
<path fill-rule="evenodd" clip-rule="evenodd" d="M30.2179 49.4322C33.5786 52.3083 44.9704 56.4908 56.9508 53.9256C69.8248 51.1691 78.8884 41.5819 79.8079 38.064C80.4135 39.1873 80.8628 40.3895 81.1352 41.6616C81.6889 44.2475 72.2026 55.2935 58.224 58.2865C44.2455 61.2796 31.068 55.0862 30.5143 52.5003C30.2959 51.4803 30.1997 50.4547 30.2179 49.4322Z" fill="#FAA3A3"/>
<path fill-rule="evenodd" clip-rule="evenodd" d="M30.4088 51.9498C33.7721 54.8207 45.2851 59.0019 57.4084 56.4061C71.4576 53.398 81.0325 42.4222 80.5817 39.7658C80.8108 40.3787 80.9964 41.011 81.1357 41.6617C81.6894 44.2476 72.2031 55.2935 58.2245 58.2866C44.246 61.2796 31.0685 55.0863 30.5148 52.5004C30.4756 52.317 30.4402 52.1335 30.4088 51.9498Z" fill="#FF5454"/>
<path d="M39.5912 51.2651C39.6017 51.0606 39.8094 50.9266 40 51.0012L43.037 52.1891C43.0736 52.2033 43.1126 52.2103 43.1518 52.2096L46.4123 52.1499C46.6169 52.1462 46.7652 52.344 46.7041 52.5393L44.748 58.8007C44.6939 58.9739 44.4996 59.0598 44.3351 58.9833L42.1399 57.9618C42.0928 57.9399 42.0408 57.9306 41.9891 57.9348L39.5758 58.1306C39.3949 58.1453 39.2426 57.9973 39.2519 57.8161L39.5912 51.2651Z" fill="url(#paint1_linear_69_2311)"/>
<path d="M33.2851 48.8667C33.3667 48.7778 33.4839 48.7304 33.6044 48.7376V48.7376C36.5772 48.9152 39.3786 50.1891 41.4665 52.3127L41.9791 52.834C42.1699 53.0282 42.1537 53.3441 41.9439 53.5176L40.7527 54.5029C40.6774 54.5651 40.6581 54.6727 40.7071 54.7572L41.4822 56.0948C41.6187 56.3303 41.5243 56.6322 41.2779 56.748L40.6162 57.059C37.9209 58.3257 34.8516 58.5478 32.0019 57.6824V57.6824C31.8865 57.6473 31.793 57.5622 31.7473 57.4505L31.6782 57.2817C30.5265 54.4672 31.1045 51.2407 33.1617 49.001L33.2851 48.8667Z" fill="#FF5454"/>
<path d="M53.2644 52.4461C53.2187 52.3345 53.1252 52.2493 53.0098 52.2143V52.2143C50.1601 51.3488 47.0908 51.5709 44.3955 52.8376L43.7338 53.1486C43.4874 53.2644 43.393 53.5663 43.5295 53.8018L44.3046 55.1394C44.3536 55.2239 44.3343 55.3315 44.259 55.3938L43.0678 56.3791C42.858 56.5526 42.8417 56.8685 43.0326 57.0626L43.5452 57.5839C45.6331 59.7076 48.4345 60.9814 51.4073 61.159V61.159C51.5277 61.1662 51.645 61.1188 51.7266 61.03L51.85 60.8956C53.9071 58.656 54.4852 55.4295 53.3335 52.6149L53.2644 52.4461Z" fill="#FF5454"/>
<path d="M33.2851 48.8667C33.3667 48.7778 33.4839 48.7304 33.6044 48.7376V48.7376C36.5772 48.9152 39.3786 50.1891 41.4665 52.3127L42.066 52.9225C42.2225 53.0816 42.2471 53.3282 42.1253 53.5151L41.9354 53.8063C41.7662 54.066 41.4761 54.2213 41.1661 54.2182L39.4527 54.2009C39.2273 54.1986 39.171 54.513 39.3832 54.5891L40.996 55.1677C41.2878 55.2724 41.5059 55.5188 41.5745 55.8211L41.6514 56.1601C41.7008 56.3777 41.5921 56.6004 41.3901 56.6953L40.6162 57.059C37.9209 58.3257 34.8516 58.5478 32.0019 57.6824V57.6824C31.8865 57.6473 31.793 57.5622 31.7473 57.4505L31.6782 57.2817C30.5265 54.4672 31.1045 51.2407 33.1617 49.001L33.2851 48.8667Z" fill="#FAA3A3"/>
<path d="M53.2644 52.4461C53.2187 52.3345 53.1252 52.2493 53.0098 52.2143V52.2143C50.1601 51.3488 47.0908 51.5709 44.3955 52.8376L43.6216 53.2014C43.4196 53.2963 43.3109 53.5189 43.3603 53.7366L43.4372 54.0756C43.5058 54.3778 43.7239 54.6242 44.0157 54.7289L45.6285 55.3075C45.8407 55.3836 45.7844 55.698 45.5589 55.6957L43.8456 55.6785C43.5356 55.6753 43.2455 55.8306 43.0762 56.0903L42.8864 56.3815C42.7646 56.5685 42.7892 56.815 42.9457 56.9742L43.5452 57.5839C45.6331 59.7076 48.4345 60.9814 51.4073 61.159V61.159C51.5277 61.1662 51.645 61.1188 51.7266 61.03L51.85 60.8956C53.9071 58.656 54.4852 55.4295 53.3335 52.6149L53.2644 52.4461Z" fill="#FAA3A3"/>
</g>
<defs>
<radialGradient id="paint0_radial_69_2311" cx="0" cy="0" r="1" gradientUnits="userSpaceOnUse" gradientTransform="translate(56.0853 48.2954) rotate(77.9146) scale(18.3914 100.412)">
<stop stop-color="#E0C192"/>
<stop offset="0.828125" stop-color="#F1DDB6"/>
</radialGradient>
<linearGradient id="paint1_linear_69_2311" x1="43.2204" y1="51.496" x2="41.94" y2="58.6431" gradientUnits="userSpaceOnUse">
<stop stop-color="#EE8B8B"/>
<stop offset="0.491528" stop-color="#FAA3A3"/>
<stop offset="1" stop-color="#EE8B8B"/>
</linearGradient>
<clipPath id="clip0_69_2311">
<rect width="113" height="92" fill="white"/>
</clipPath>
</defs>
</svg>
