<svg width="90" height="118" viewBox="0 0 90 118" fill="none" xmlns="http://www.w3.org/2000/svg">
<g clip-path="url(#clip0_25_722)">
<ellipse cx="45" cy="88.4937" rx="45" ry="29.9372" fill="#EE8B8B"/>
<ellipse cx="44.8119" cy="86.9874" rx="38.41" ry="23.9121" fill="#FFB7B7"/>
<path fill-rule="evenodd" clip-rule="evenodd" d="M70.1932 68.3103H16.1923V95.1691C16.1921 95.1858 16.1921 95.2025 16.1923 95.2193V95.2742H16.1936C16.2275 96.1768 16.8323 97.0557 17.8939 97.228C18.006 97.2462 18.1187 97.2658 18.2274 97.2989C33.405 101.924 49.3676 103.399 65.1357 101.633L65.8394 101.554C66.0424 101.532 66.247 101.523 66.4517 101.514C66.7241 101.503 66.9965 101.492 67.2648 101.447C68.3009 101.274 69.1807 100.532 69.5017 99.4919C69.9337 98.0927 70.1574 96.6752 70.1891 95.2742H70.1932V68.3103Z" fill="#FCE2AF"/>
<path d="M18.0639 70.8698C15.9562 70.6861 15.4768 67.8212 17.4102 66.9634L47.1741 53.7583C51.0234 52.0505 55.4106 52.0177 59.285 53.6677L60.7598 54.2958C68.0689 57.4084 71.8424 65.5307 69.5017 73.1125C69.1089 74.385 67.8796 75.211 66.551 75.0952H65.7001C49.7278 75.0952 33.7868 73.6812 18.0639 70.8698V70.8698Z" fill="#FFF9F4"/>
<path fill-rule="evenodd" clip-rule="evenodd" d="M70.193 79.5437L42.2425 78.6866L16.1921 74.6971V79.7856L42.2425 83.6555L70.193 84.5857V79.5437Z" fill="#FFF6EE"/>
<path fill-rule="evenodd" clip-rule="evenodd" d="M70.193 88.243L42.2498 87.7576L16.1921 84.2684V93.0449L42.2498 96.9665L70.193 97.6399V88.243Z" fill="#FFF6EE"/>
<path d="M62.8406 89.7819C66.4732 90.1177 67.4601 93.0674 67.1368 96.5636C63.3896 96.451 65.0501 96.7277 61.4175 96.3918C57.7849 96.0559 57.6924 96.2799 52.7145 95.2869C53.0378 91.7908 59.208 89.446 62.8406 89.7819Z" fill="#F76464"/>
<path d="M27.6196 87.0051C31.2521 87.341 32.239 90.2906 31.9157 93.7868C28.1685 93.6742 29.829 93.9509 26.1964 93.615C22.5638 93.2791 22.4714 93.5031 17.4935 92.5101C17.8167 89.014 23.987 86.6692 27.6196 87.0051Z" fill="#F76464"/>
<path d="M44.663 95.1164C48.2991 95.4112 49.7792 92.6756 50.063 89.176C46.3524 88.6414 48.0357 88.6549 44.3995 88.3601C40.7634 88.0653 40.7109 87.8287 35.6363 87.9495C35.3526 91.4491 41.0268 94.8216 44.663 95.1164Z" fill="#F76464"/>
<path d="M57.9901 52.7977C57.9901 54.8619 56.2398 55.3764 54.0807 55.3764C51.9216 55.3764 50.1713 54.8619 50.1713 52.7977C50.1713 51.0655 51.6985 48.6471 53.2185 46.3212C53.6198 45.7072 54.5323 45.7128 54.9298 46.3292C56.2985 48.4516 57.9901 51.1116 57.9901 52.7977Z" fill="url(#paint0_radial_25_722)"/>
<path d="M64.3471 57.9859C64.3471 60.0501 62.5968 60.5645 60.4377 60.5645C58.2786 60.5645 56.5283 60.0501 56.5283 57.9859C56.5283 56.5818 57.5317 54.7269 58.7213 52.836C59.5025 51.5943 61.359 51.6031 62.134 52.8486C63.2666 54.6687 64.3471 56.6383 64.3471 57.9859Z" fill="url(#paint1_radial_25_722)"/>
<path d="M68.2932 64.4894C68.2932 66.5536 66.5429 67.068 64.3838 67.068C62.2247 67.068 60.4744 66.5536 60.4744 64.4894C60.4744 63.0853 61.4777 61.2304 62.6674 59.3394C63.4485 58.0978 65.305 58.1066 66.0801 59.3521C67.2127 61.1721 68.2932 63.1418 68.2932 64.4894Z" fill="url(#paint2_radial_25_722)"/>
<path d="M67.8548 71.5775C67.8548 73.6417 66.1045 74.1561 63.9454 74.1561C61.7863 74.1561 60.036 73.6417 60.036 71.5775C60.036 69.8452 61.5632 67.4268 63.0833 65.101C63.4845 64.487 64.397 64.4926 64.7945 65.109C66.1632 67.2314 67.8548 69.8913 67.8548 71.5775Z" fill="url(#paint3_radial_25_722)"/>
<path d="M55.9441 62.8234C55.9441 66.4715 53.0978 67.7257 49.5867 67.7257C46.0756 67.7257 43.2294 66.4715 43.2294 62.8234C43.2294 59.1753 46.0756 53.3303 49.5867 53.3303C53.0978 53.3303 55.9441 59.1753 55.9441 62.8234Z" fill="#F76464"/>
</g>
<defs>
<radialGradient id="paint0_radial_25_722" cx="0" cy="0" r="1" gradientUnits="userSpaceOnUse" gradientTransform="translate(54.0441 47.3749) rotate(89.7384) scale(8.00157 6.02935)">
<stop stop-color="#FFF5F0"/>
<stop offset="0.0001" stop-color="#FFF5F0"/>
<stop offset="1" stop-color="#FFECE2"/>
</radialGradient>
<radialGradient id="paint1_radial_25_722" cx="0" cy="0" r="1" gradientUnits="userSpaceOnUse" gradientTransform="translate(60.4012 52.563) rotate(89.7384) scale(8.00157 6.02935)">
<stop stop-color="#FFF5F0"/>
<stop offset="0.0001" stop-color="#FFF5F0"/>
<stop offset="1" stop-color="#FFECE2"/>
</radialGradient>
<radialGradient id="paint2_radial_25_722" cx="0" cy="0" r="1" gradientUnits="userSpaceOnUse" gradientTransform="translate(64.3472 59.0665) rotate(89.7384) scale(8.00157 6.02935)">
<stop stop-color="#FFF5F0"/>
<stop offset="0.0001" stop-color="#FFF5F0"/>
<stop offset="1" stop-color="#FFECE2"/>
</radialGradient>
<radialGradient id="paint3_radial_25_722" cx="0" cy="0" r="1" gradientUnits="userSpaceOnUse" gradientTransform="translate(63.9089 66.1547) rotate(89.7384) scale(8.00157 6.02935)">
<stop stop-color="#FFF5F0"/>
<stop offset="0.0001" stop-color="#FFF5F0"/>
<stop offset="1" stop-color="#FFECE2"/>
</radialGradient>
<clipPath id="clip0_25_722">
<rect width="90" height="118" fill="white"/>
</clipPath>
</defs>
</svg>
