<svg width="57" height="100" viewBox="0 0 57 100" fill="none" xmlns="http://www.w3.org/2000/svg">
<path d="M0 16.0262C0 13.9921 1.52665 12.2819 3.54776 12.0519L5.94847 11.7787C20.5083 10.122 35.2081 10.1032 49.7721 11.7229L52.8021 12.0599C54.8277 12.2852 56.36 13.9974 56.36 16.0354V85.792C56.36 90.1744 53.3532 93.9844 49.0908 95.003V95.003C35.3438 98.2881 21.0162 98.2881 7.26914 95.003V95.003C3.00677 93.9844 0 90.1744 0 85.792V16.0262Z" fill="#EEF7FF"/>
<path d="M1.40918 76.047L28.1802 77.0983L54.9512 76.047V86.9716C54.9512 89.3352 53.4144 91.4243 51.158 92.1281V92.1281C36.195 96.7955 20.1654 96.7955 5.2023 92.1281V92.1281C2.94591 91.4243 1.40918 89.3352 1.40918 86.9716V76.047Z" fill="#FCE2AF"/>
<path d="M1.40918 57.0255L20.9992 58.4359C25.7803 58.7801 30.58 58.7801 35.3612 58.4359L54.9512 57.0255V84.3384V84.3384C37.4461 89.2816 18.9142 89.2816 1.40918 84.3384V84.3384V57.0255Z" fill="#FFF6EE"/>
<path d="M1.40918 47.867L9.91674 49.4474C21.9891 51.6899 34.3712 51.6899 46.4436 49.4474L54.9512 47.867V58.7019L50.3035 59.7562C35.7396 63.0601 20.6207 63.0601 6.05685 59.7562L1.40918 58.7019V47.867Z" fill="#FCE2AF"/>
<path d="M1.40918 42.9355L16.6477 44.7047C24.3103 45.5943 32.0501 45.5943 39.7126 44.7047L54.9512 42.9355V49.7073L42.2182 51.5126C32.9061 52.833 23.4543 52.833 14.1422 51.5126L1.40918 49.7073V42.9355Z" fill="#FFF6EE"/>
<path d="M1.40918 37.2995L16.6477 39.0687C24.3103 39.9583 32.0501 39.9583 39.7126 39.0687L54.9512 37.2995V44.0713L42.2182 45.8767C32.9061 47.197 23.4543 47.197 14.1422 45.8767L1.40918 44.0713V37.2995Z" fill="#FCE2AF"/>
<path d="M1.40918 19.687V19.687C18.8975 14.6246 37.4628 14.6246 54.9512 19.687V19.687V37.7452V37.7452C37.6998 44.2677 18.6606 44.2677 1.40918 37.7452V37.7452V19.687Z" fill="#FFF6EE"/>
<path d="M1.40918 56.321L15.1347 58.127C23.7944 59.2664 32.566 59.2664 41.2256 58.127L54.9512 56.321V63.9957L44.0455 65.7481C33.536 67.4369 22.8243 67.4369 12.3148 65.7481L1.40918 63.9957V56.321Z" fill="#F76464"/>
<path d="M20.3588 80.887C20.3588 84.1006 17.8515 85.2055 14.7586 85.2055C11.6656 85.2055 9.15833 84.1006 9.15833 80.887C9.15833 77.6734 11.6656 72.5245 14.7586 72.5245C17.8515 72.5245 20.3588 77.6734 20.3588 80.887Z" fill="#F76464"/>
<path d="M19.0213 81.6068C19.0213 84.2848 16.9711 85.2055 14.442 85.2055C11.913 85.2055 9.86279 84.2848 9.86279 81.6068C9.86279 78.9288 11.913 74.638 14.442 74.638C16.9711 74.638 19.0213 78.9288 19.0213 81.6068Z" fill="#FFC9C9"/>
<path d="M18.0821 82.8064C18.0821 84.5917 16.7153 85.2056 15.0293 85.2056C13.3432 85.2056 11.9764 84.5917 11.9764 82.8064C11.9764 81.021 13.3432 78.1606 15.0293 78.1606C16.7153 78.1606 18.0821 81.021 18.0821 82.8064Z" fill="#FFD7D7"/>
<path d="M16.9082 83.2862C16.9082 84.7145 15.9619 85.2055 14.7947 85.2055C13.6274 85.2055 12.6812 84.7145 12.6812 83.2862C12.6812 81.8579 13.6274 79.5695 14.7947 79.5695C15.9619 79.5695 16.9082 81.8579 16.9082 83.2862Z" fill="#FFE8E8"/>
<path d="M33.7444 84.4095C33.7444 87.6232 31.2371 88.728 28.1442 88.728C25.0513 88.728 22.5439 87.6232 22.5439 84.4095C22.5439 81.1959 25.0513 76.047 28.1442 76.047C31.2371 76.047 33.7444 81.1959 33.7444 84.4095Z" fill="#F76464"/>
<path d="M32.4069 85.1293C32.4069 87.8073 30.3567 88.7281 27.8277 88.7281C25.2986 88.7281 23.2484 87.8073 23.2484 85.1293C23.2484 82.4513 25.2986 78.1606 27.8277 78.1606C30.3567 78.1606 32.4069 82.4513 32.4069 85.1293Z" fill="#FFC9C9"/>
<path d="M31.4676 86.3289C31.4676 88.1142 30.1008 88.728 28.4148 88.728C26.7287 88.728 25.3619 88.1142 25.3619 86.3289C25.3619 84.5435 26.7287 81.683 28.4148 81.683C30.1008 81.683 31.4676 84.5435 31.4676 86.3289Z" fill="#FFD7D7"/>
<path d="M30.2933 86.8087C30.2933 88.237 29.347 88.728 28.1798 88.728C27.0125 88.728 26.0663 88.237 26.0663 86.8087C26.0663 85.3804 27.0125 83.092 28.1798 83.092C29.347 83.092 30.2933 85.3804 30.2933 86.8087Z" fill="#FFE8E8"/>
<path d="M47.13 80.887C47.13 84.1006 44.6227 85.2055 41.5298 85.2055C38.4369 85.2055 35.9296 84.1006 35.9296 80.887C35.9296 77.6734 38.4369 72.5245 41.5298 72.5245C44.6227 72.5245 47.13 77.6734 47.13 80.887Z" fill="#F76464"/>
<path d="M45.7924 81.6068C45.7924 84.2848 43.7422 85.2055 41.2132 85.2055C38.6841 85.2055 36.6339 84.2848 36.6339 81.6068C36.6339 78.9288 38.6841 74.638 41.2132 74.638C43.7422 74.638 45.7924 78.9288 45.7924 81.6068Z" fill="#FFC9C9"/>
<path d="M44.8531 82.8064C44.8531 84.5917 43.4863 85.2056 41.8003 85.2056C40.1142 85.2056 38.7474 84.5917 38.7474 82.8064C38.7474 81.021 40.1142 78.1606 41.8003 78.1606C43.4863 78.1606 44.8531 81.021 44.8531 82.8064Z" fill="#FFD7D7"/>
<path d="M43.679 83.2862C43.679 84.7145 42.7328 85.2055 41.5655 85.2055C40.3983 85.2055 39.452 84.7145 39.452 83.2862C39.452 81.8579 40.3983 79.5695 41.5655 79.5695C42.7328 79.5695 43.679 81.8579 43.679 83.2862Z" fill="#FFE8E8"/>
<path d="M7.72503 78.2803C7.71195 80.8542 5.69929 81.7289 3.2221 81.7163C3.07116 79.0756 2.97864 80.2597 2.99172 77.6858C3.00481 75.1119 2.84169 75.0607 3.23404 71.5009C5.71123 71.5135 7.73812 75.7065 7.72503 78.2803Z" fill="#F76464"/>
<path d="M6.25078 78.2728C6.23769 80.8467 4.84552 81.7245 3.13375 81.7158C3.03359 79.0754 2.96779 80.2596 2.98088 77.6858C2.99396 75.1119 2.88132 75.0609 3.15804 71.5005C4.86982 71.5092 6.26386 75.699 6.25078 78.2728Z" fill="#FFC9C9"/>
<path d="M4.75947 78.2652C4.74639 80.8391 3.98183 81.7201 3.04425 81.7154C2.99546 79.0752 2.9567 80.2596 2.96978 77.6857C2.98287 75.1118 2.92129 75.0611 3.08104 71.5001C4.01862 71.5049 4.77256 75.6914 4.75947 78.2652Z" fill="#FFD7D7"/>
<path d="M3.95647 79.7453C3.949 81.2147 3.52122 81.7177 2.99669 81.7151C2.96955 80.2077 2.94779 80.8839 2.95526 79.4145C2.96273 77.9451 2.92828 77.9161 3.01787 75.8831C3.5424 75.8858 3.96394 78.2758 3.95647 79.7453Z" fill="#FFE8E8"/>
<path d="M48.7629 78.9848C48.776 81.5586 50.7886 82.4333 53.2658 82.4208C53.4168 79.78 53.5093 80.9641 53.4962 78.3903C53.4831 75.8164 53.6462 75.7652 53.2539 72.2054C50.7767 72.218 48.7498 76.4109 48.7629 78.9848Z" fill="#F76464"/>
<path d="M50.2369 78.9773C50.25 81.5512 51.6421 82.429 53.3539 82.4203C53.4541 79.7798 53.5199 80.9641 53.5068 78.3902C53.4937 75.8164 53.6063 75.7654 53.3296 72.205C51.6179 72.2137 50.2238 76.4034 50.2369 78.9773Z" fill="#FFC9C9"/>
<path d="M51.7282 78.9697C51.7413 81.5436 52.5058 82.4246 53.4434 82.4198C53.4922 79.7796 53.531 80.964 53.5179 78.3902C53.5048 75.8163 53.5664 75.7656 53.4066 72.2046C52.469 72.2094 51.7151 76.3959 51.7282 78.9697Z" fill="#FFD7D7"/>
<path d="M52.5316 80.4498C52.539 81.9192 52.9668 82.4222 53.4913 82.4196C53.5185 80.9123 53.5402 81.5884 53.5328 80.119C53.5253 78.6496 53.5598 78.6206 53.4702 76.5876C52.9456 76.5903 52.5241 78.9803 52.5316 80.4498Z" fill="#FFE8E8"/>
<rect x="8.04016" y="4.07486" width="14.09" height="19.9781" transform="rotate(-16.8103 8.04016 4.07486)" fill="#E0C192"/>
<path fill-rule="evenodd" clip-rule="evenodd" d="M20.0855 1.22329L18.5437 1.68908L18.2037 3.01188L17.1882 2.09861L15.6464 2.56439L15.3064 3.88727L14.2908 2.97394L12.7493 3.43966L12.4092 4.76261L11.3936 3.84923L9.85188 4.315L9.51183 5.638L9.203 5.36027L9.82401 7.41581L9.9274 7.01354L11.4734 8.40381L10.9558 10.4174L10.6469 10.1395L11.268 12.1953L11.3714 11.7929L12.9172 13.183L12.3996 15.1966L12.0908 14.9189L12.7118 16.9744L12.8152 16.5721L14.3611 17.9623L13.8435 19.976L13.5347 19.6984L14.1557 21.7537L14.2591 21.3516L15.0305 22.0453L15.8643 21.7934L14.4682 20.5378L14.9858 18.5241L16.5319 19.9145L16.0645 21.7329L16.8984 21.481L17.1566 20.4763L17.9278 21.1699L18.7617 20.918L17.3657 19.6626L17.8833 17.649L19.429 19.0391L18.9616 20.8576L19.7955 20.6057L20.0537 19.6009L20.8251 20.2946L21.659 20.0427L20.2629 18.7872L20.7804 16.7737L22.3264 18.1639L21.859 19.9823L22.6929 19.7304L22.9511 18.7257L23.7224 19.4193L24.5563 19.1674L23.1603 17.912L23.6778 15.8983L25.2238 17.2885L24.7564 19.1069L25.5903 18.855L25.8485 17.8503L26.257 18.2177L25.5697 15.9427L25.4329 16.4748L23.887 15.0845L24.4045 13.071L24.8131 13.4385L24.1258 11.1632L23.989 11.6955L22.443 10.3052L22.9606 8.29153L23.3692 8.65904L22.6818 6.38369L22.545 6.91599L20.9992 5.52589L21.5168 3.51227L21.9253 3.87965L21.238 1.60461L21.1012 2.13673L20.0855 1.22329ZM13.0243 15.7584L14.5702 17.1486L15.0877 15.135L13.5419 13.7448L13.0243 15.7584ZM15.1949 17.7104L16.741 19.1008L17.2586 17.0872L15.7125 15.6968L15.1949 17.7104ZM20.1557 16.2118L19.6382 18.2254L18.0924 16.8353L18.61 14.8217L20.1557 16.2118ZM17.9852 14.2599L17.4677 16.2735L15.9216 14.8831L16.4391 12.8695L17.9852 14.2599ZM15.8144 12.3077L15.2969 14.3213L13.751 12.9311L14.2686 10.9175L15.8144 12.3077ZM13.6438 10.3557L13.1263 12.3693L11.5805 10.9792L12.0981 8.96562L13.6438 10.3557ZM10.1366 6.19981L11.6825 7.59008L12.2001 5.57635L10.6541 4.18607L10.1366 6.19981ZM12.3072 8.15189L13.853 9.542L14.3706 7.52826L12.8248 6.13816L12.3072 8.15189ZM14.4777 10.1038L16.0236 11.494L16.5412 9.48026L14.9953 8.09007L14.4777 10.1038ZM16.6483 12.0558L18.1944 13.4462L18.712 11.4325L17.1659 10.0421L16.6483 12.0558ZM18.8191 14.008L20.3649 15.3981L20.8824 13.3844L19.3367 11.9943L18.8191 14.008ZM20.9896 15.9599L22.5355 17.3502L23.0531 15.3365L21.5072 13.9462L20.9896 15.9599ZM23.7798 12.5092L23.2623 14.5227L21.7163 13.1325L22.2338 11.1189L23.7798 12.5092ZM21.6091 10.5571L21.0916 12.5706L19.5458 11.1805L20.0634 9.16701L21.6091 10.5571ZM19.4386 8.6052L18.9211 10.6187L17.375 9.22834L17.8926 7.21481L19.4386 8.6052ZM17.2678 6.653L16.7503 8.66653L15.2044 7.27634L15.722 5.26281L17.2678 6.653ZM15.0973 4.701L14.5797 6.71453L13.034 5.32442L13.5515 3.31089L15.0973 4.701ZM15.9311 4.44908L17.477 5.83927L17.9945 3.82561L16.4487 2.43542L15.9311 4.44908ZM18.1017 6.40108L19.6478 7.79147L20.1654 5.77782L18.6193 4.38742L18.1017 6.40108ZM20.2725 8.35328L21.8183 9.74338L22.3358 7.72972L20.7901 6.33962L20.2725 8.35328ZM20.8921 2.95046L20.3745 4.96408L18.8284 3.57369L19.346 1.56007L20.8921 2.95046Z" fill="#F6DBB3"/>
<path d="M12.1896 19.8789C12.1896 21.9811 10.4071 22.505 8.20822 22.505C6.00935 22.505 4.22681 21.9811 4.22681 19.8789C4.22681 18.1087 5.79281 15.6349 7.34609 13.2588C7.74743 12.6448 8.65957 12.6503 9.05713 13.2667C10.4538 15.4321 12.1896 18.1551 12.1896 19.8789Z" fill="url(#paint0_radial_27_840)"/>
<path d="M36.8557 16.987C36.8557 21.0933 33.6519 22.505 29.6998 22.505C25.7477 22.505 22.5439 21.0933 22.5439 16.987C22.5439 12.8807 25.7477 6.30154 29.6998 6.30154C33.6519 6.30154 36.8557 12.8807 36.8557 16.987Z" fill="#F76464"/>
<path d="M53.7552 19.8789C53.7552 21.9811 51.9726 22.505 49.7738 22.505C47.5749 22.505 45.7924 21.9811 45.7924 19.8789C45.7924 18.1087 47.3584 15.6349 48.9116 13.2588C49.313 12.6448 50.2251 12.6503 50.6227 13.2667C52.0194 15.4321 53.7552 18.1551 53.7552 19.8789Z" fill="url(#paint1_radial_27_840)"/>
<path d="M48.1192 23.4014C48.1192 25.5036 46.3367 26.0276 44.1378 26.0276C41.9389 26.0276 40.1564 25.5036 40.1564 23.4014C40.1564 21.6312 41.7224 19.1574 43.2757 16.7813C43.677 16.1674 44.5891 16.1728 44.9867 16.7892C46.3834 18.9546 48.1192 21.6777 48.1192 23.4014Z" fill="url(#paint2_radial_27_840)"/>
<path d="M18.5303 23.4014C18.5303 25.5036 16.7478 26.0276 14.5489 26.0276C12.35 26.0276 10.5675 25.5036 10.5675 23.4014C10.5675 21.6312 12.1335 19.1574 13.6868 16.7813C14.0881 16.1674 15.0003 16.1728 15.3978 16.7892C16.7945 18.9546 18.5303 21.6777 18.5303 23.4014Z" fill="url(#paint3_radial_27_840)"/>
<path d="M41.0743 25.5149C41.0743 27.6171 39.2917 28.141 37.0929 28.141C34.894 28.141 33.1115 27.6171 33.1115 25.5149C33.1115 23.7447 34.6775 21.2709 36.2307 18.8948C36.6321 18.2808 37.5442 18.2863 37.9418 18.9027C39.3385 21.0681 41.0743 23.7912 41.0743 25.5149Z" fill="url(#paint4_radial_27_840)"/>
<path d="M25.5753 25.5149C25.5753 27.6171 23.7927 28.141 21.5938 28.141C19.395 28.141 17.6124 27.6171 17.6124 25.5149C17.6124 23.7447 19.1784 21.2709 20.7317 18.8948C21.133 18.2808 22.0452 18.2863 22.4428 18.9027C23.8394 21.0681 25.5753 23.7912 25.5753 25.5149Z" fill="url(#paint5_radial_27_840)"/>
<path d="M33.3248 26.9239C33.3248 29.0261 31.5422 29.55 29.3434 29.55C27.1445 29.55 25.3619 29.0261 25.3619 26.9239C25.3619 25.1537 26.9279 22.6799 28.4812 20.3038C28.8826 19.6898 29.7947 19.6953 30.1923 20.3117C31.5889 22.4771 33.3248 25.2002 33.3248 26.9239Z" fill="url(#paint6_radial_27_840)"/>
<g filter="url(#filter0_b_27_840)">
<path d="M0 15.1666C0 14.4371 0.84643 14.0343 1.41256 14.4942V14.4942C17.0081 27.1656 39.3519 27.1656 54.9474 14.4942V14.4942C55.5135 14.0343 56.36 14.4371 56.36 15.1666V85.7946C56.36 90.2134 53.3228 94.0528 49.0227 95.0699V95.0699C35.3167 98.3119 21.0433 98.3119 7.33729 95.0699V95.0699C3.03715 94.0528 0 90.2134 0 85.7946V15.1666Z" fill="#EEF7FF" fill-opacity="0.17"/>
</g>
<defs>
<filter id="filter0_b_27_840" x="-1" y="13.2986" width="58.36" height="85.2028" filterUnits="userSpaceOnUse" color-interpolation-filters="sRGB">
<feFlood flood-opacity="0" result="BackgroundImageFix"/>
<feGaussianBlur in="BackgroundImageFix" stdDeviation="0.5"/>
<feComposite in2="SourceAlpha" operator="in" result="effect1_backgroundBlur_27_840"/>
<feBlend mode="normal" in="SourceGraphic" in2="effect1_backgroundBlur_27_840" result="shape"/>
</filter>
<radialGradient id="paint0_radial_27_840" cx="0" cy="0" r="1" gradientUnits="userSpaceOnUse" gradientTransform="translate(8.17101 14.3561) rotate(89.7384) scale(8.14896 6.14042)">
<stop offset="0.0001" stop-color="#FFF5F0"/>
<stop offset="0.648177" stop-color="#FFF5F0"/>
<stop offset="1" stop-color="#FAE3D7"/>
</radialGradient>
<radialGradient id="paint1_radial_27_840" cx="0" cy="0" r="1" gradientUnits="userSpaceOnUse" gradientTransform="translate(49.7366 14.3561) rotate(89.7384) scale(8.14896 6.14042)">
<stop offset="0.0001" stop-color="#FFF5F0"/>
<stop offset="0.648177" stop-color="#FFF5F0"/>
<stop offset="1" stop-color="#FAE3D7"/>
</radialGradient>
<radialGradient id="paint2_radial_27_840" cx="0" cy="0" r="1" gradientUnits="userSpaceOnUse" gradientTransform="translate(44.1006 17.8787) rotate(89.7384) scale(8.14896 6.14042)">
<stop offset="0.0001" stop-color="#FFF5F0"/>
<stop offset="0.648177" stop-color="#FFF5F0"/>
<stop offset="1" stop-color="#FAE3D7"/>
</radialGradient>
<radialGradient id="paint3_radial_27_840" cx="0" cy="0" r="1" gradientUnits="userSpaceOnUse" gradientTransform="translate(14.5117 17.8787) rotate(89.7384) scale(8.14896 6.14042)">
<stop offset="0.0001" stop-color="#FFF5F0"/>
<stop offset="0.648177" stop-color="#FFF5F0"/>
<stop offset="1" stop-color="#FAE3D7"/>
</radialGradient>
<radialGradient id="paint4_radial_27_840" cx="0" cy="0" r="1" gradientUnits="userSpaceOnUse" gradientTransform="translate(37.0557 19.9922) rotate(89.7384) scale(8.14896 6.14042)">
<stop offset="0.0001" stop-color="#FFF5F0"/>
<stop offset="0.648177" stop-color="#FFF5F0"/>
<stop offset="1" stop-color="#FAE3D7"/>
</radialGradient>
<radialGradient id="paint5_radial_27_840" cx="0" cy="0" r="1" gradientUnits="userSpaceOnUse" gradientTransform="translate(21.5566 19.9922) rotate(89.7384) scale(8.14896 6.14042)">
<stop offset="0.0001" stop-color="#FFF5F0"/>
<stop offset="0.648177" stop-color="#FFF5F0"/>
<stop offset="1" stop-color="#FAE3D7"/>
</radialGradient>
<radialGradient id="paint6_radial_27_840" cx="0" cy="0" r="1" gradientUnits="userSpaceOnUse" gradientTransform="translate(29.3061 21.4012) rotate(89.7384) scale(8.14896 6.14042)">
<stop offset="0.0001" stop-color="#FFF5F0"/>
<stop offset="0.648177" stop-color="#FFF5F0"/>
<stop offset="1" stop-color="#FAE3D7"/>
</radialGradient>
</defs>
</svg>
