<svg width="78" height="100" viewBox="0 0 78 100" fill="none" xmlns="http://www.w3.org/2000/svg">
<path d="M0.621094 33.0771C0.621094 27.5542 5.09825 23.0771 10.6211 23.0771H67.5442C73.067 23.0771 77.5442 27.5542 77.5442 33.0771V80.0002C77.5442 91.0459 68.5899 100 57.5442 100H20.6211C9.5754 100 0.621094 91.0459 0.621094 80.0002V33.0771Z" fill="#F0F8FF"/>
<path d="M5.74805 25.4083C5.74805 24.1825 6.84064 23.2452 8.05216 23.4316L23.8757 25.866C33.9535 27.4164 44.2092 27.4164 54.2871 25.866L70.1106 23.4316C71.3221 23.2452 72.4147 24.1825 72.4147 25.4083V26.4895C72.4147 27.4766 71.6945 28.3161 70.7188 28.4662L54.2871 30.9942C44.2092 32.5446 33.9535 32.5446 23.8757 30.9942L7.44393 28.4662C6.46827 28.3161 5.74805 27.4766 5.74805 26.4895V25.4083Z" fill="#D6E2ED"/>
<path d="M69.8506 25.641C64.8878 25.641 56.0748 25.641 39.0814 25.641C22.088 25.641 18.2377 25.641 8.31215 25.641C8.31215 14.3121 22.088 5.12821 39.0814 5.12821C56.0748 5.12821 69.8506 14.3121 69.8506 25.641Z" fill="#EEF7FF"/>
<path d="M46.7737 7.69231C45.533 7.69231 43.3297 7.69231 39.0814 7.69231C34.833 7.69231 33.8705 7.69231 31.3891 7.69231C31.3891 3.44396 34.833 0 39.0814 0C43.3297 0 46.7737 3.44396 46.7737 7.69231Z" fill="#EEF7FF"/>
<path d="M5.74805 24.2804C5.74805 22.2649 7.49099 20.6916 9.496 20.8972L23.0566 22.2881C33.7118 23.3809 44.4509 23.3809 55.1061 22.2881L68.6668 20.8972C70.6718 20.6916 72.4147 22.2649 72.4147 24.2804C72.4147 26.0244 71.0956 27.4857 69.3607 27.6637L56.8108 28.9508C45.0221 30.1599 33.1406 30.1599 21.352 28.9508L8.80201 27.6637C7.06716 27.4857 5.74805 26.0244 5.74805 24.2804Z" fill="#EEF7FF"/>
<path d="M13.4385 21.4804C13.4385 20.968 13.8898 20.5729 14.3976 20.6406L25.8631 22.1693C34.6352 23.3389 43.5238 23.3389 52.2959 22.1693L63.7614 20.6406C64.2692 20.5729 64.7205 20.968 64.7205 21.4804C64.7205 21.905 64.4062 22.264 63.9853 22.3201L52.2959 23.8787C43.5238 25.0483 34.6352 25.0483 25.8631 23.8787L14.1737 22.3201C13.7528 22.264 13.4385 21.905 13.4385 21.4804Z" fill="#D6E2ED"/>
<path d="M31.3877 8.89424C31.3877 8.32904 31.9747 7.95332 32.4912 8.18287C36.6658 10.0382 41.4942 10.0382 45.6688 8.18287C46.1853 7.95332 46.7723 8.32904 46.7723 8.89424C46.7723 9.2029 46.5869 9.48423 46.3048 9.60959C41.7412 11.6379 36.4188 11.6379 31.8552 9.60959C31.5731 9.48423 31.3877 9.2029 31.3877 8.89424Z" fill="#D6E2ED"/>
<ellipse cx="34.273" cy="88.8847" rx="20.5128" ry="7.69231" transform="rotate(4.84658 34.273 88.8847)" fill="#CB9F6C"/>
<ellipse cx="46.9398" cy="91.2455" rx="2.5641" ry="1.28205" transform="rotate(4.84658 46.9398 91.2455)" fill="#894211"/>
<ellipse cx="21.6077" cy="86.5239" rx="2.5641" ry="1.28205" transform="rotate(4.84658 21.6077 86.5239)" fill="#894211"/>
<ellipse cx="29.4886" cy="84.6186" rx="2.5641" ry="1.28205" transform="rotate(4.84658 29.4886 84.6186)" fill="#894211"/>
<ellipse cx="36.7201" cy="90.3788" rx="2.5641" ry="1.28205" transform="rotate(4.84658 36.7201 90.3788)" fill="#894211"/>
<ellipse cx="26.2855" cy="92.0669" rx="2.5641" ry="1.28205" transform="rotate(4.84658 26.2855 92.0669)" fill="#894211"/>
<ellipse cx="42.3695" cy="84.4249" rx="2.5641" ry="1.28205" transform="rotate(4.84658 42.3695 84.4249)" fill="#894211"/>
<ellipse cx="52.6877" cy="81.7229" rx="20.5128" ry="9.32826" transform="rotate(-11.2088 52.6877 81.7229)" fill="#CB9F6C"/>
<ellipse cx="65.5674" cy="80.7555" rx="2.5641" ry="1.55471" transform="rotate(-11.2088 65.5674 80.7555)" fill="#894211"/>
<ellipse cx="39.8106" cy="82.69" rx="2.5641" ry="1.55471" transform="rotate(-11.2088 39.8106 82.69)" fill="#894211"/>
<ellipse cx="46.749" cy="78.1447" rx="2.5641" ry="1.55471" transform="rotate(-11.2088 46.749 78.1447)" fill="#894211"/>
<ellipse cx="55.5039" cy="82.7497" rx="2.5641" ry="1.55471" transform="rotate(-11.2088 55.5039 82.7497)" fill="#894211"/>
<ellipse cx="46.0508" cy="87.7931" rx="2.5641" ry="1.55471" transform="rotate(-11.2088 46.0508 87.7931)" fill="#894211"/>
<ellipse cx="59.0244" cy="74.1275" rx="2.5641" ry="1.55471" transform="rotate(-11.2088 59.0244 74.1275)" fill="#894211"/>
<ellipse cx="26.9241" cy="75.1733" rx="20.5128" ry="9.54419" transform="rotate(4.34544 26.9241 75.1733)" fill="#CB9F6C"/>
<ellipse cx="39.5856" cy="77.7306" rx="2.5641" ry="1.5907" transform="rotate(4.34544 39.5856 77.7306)" fill="#894211"/>
<ellipse cx="14.2585" cy="72.6154" rx="2.5641" ry="1.5907" transform="rotate(4.34544 14.2585 72.6154)" fill="#894211"/>
<ellipse cx="22.1735" cy="70.0261" rx="2.5641" ry="1.5907" transform="rotate(4.34544 22.1735 70.0261)" fill="#894211"/>
<ellipse cx="29.361" cy="76.9533" rx="2.5641" ry="1.5907" transform="rotate(4.34544 29.361 76.9533)" fill="#894211"/>
<ellipse cx="18.8923" cy="79.3483" rx="2.5641" ry="1.5907" transform="rotate(4.34544 18.8923 79.3483)" fill="#894211"/>
<ellipse cx="35.0739" cy="69.4113" rx="2.5641" ry="1.5907" transform="rotate(4.34544 35.0739 69.4113)" fill="#894211"/>
<ellipse cx="49.7606" cy="66.8369" rx="20.5128" ry="6.32699" transform="rotate(4.34544 49.7606 66.8369)" fill="#CB9F6C"/>
<ellipse cx="62.4632" cy="68.8603" rx="2.5641" ry="1.0545" transform="rotate(4.34544 62.4632 68.8603)" fill="#894211"/>
<ellipse cx="37.0579" cy="64.814" rx="2.5641" ry="1.0545" transform="rotate(4.34544 37.0579 64.814)" fill="#894211"/>
<ellipse cx="44.885" cy="63.2944" rx="2.5641" ry="1.0545" transform="rotate(4.34544 44.885 63.2944)" fill="#894211"/>
<ellipse cx="52.2386" cy="68.0831" rx="2.5641" ry="1.0545" transform="rotate(4.34544 52.2386 68.0831)" fill="#894211"/>
<ellipse cx="41.8528" cy="69.4087" rx="2.5641" ry="1.0545" transform="rotate(4.34544 41.8528 69.4087)" fill="#894211"/>
<ellipse cx="57.7512" cy="63.2143" rx="2.5641" ry="1.0545" transform="rotate(4.34544 57.7512 63.2143)" fill="#894211"/>
<ellipse cx="24.4872" cy="58.5309" rx="20.5128" ry="6.32699" transform="rotate(-10.0606 24.4872 58.5309)" fill="#CB9F6C"/>
<ellipse cx="37.2948" cy="57.3297" rx="2.5641" ry="1.0545" transform="rotate(-10.0606 37.2948 57.3297)" fill="#894211"/>
<ellipse cx="11.6796" cy="59.7321" rx="2.5641" ry="1.0545" transform="rotate(-10.0606 11.6796 59.7321)" fill="#894211"/>
<ellipse cx="18.8866" cy="56.3116" rx="2.5641" ry="1.0545" transform="rotate(-10.0606 18.8866 56.3116)" fill="#894211"/>
<ellipse cx="27.1972" cy="59.1206" rx="2.5641" ry="1.0545" transform="rotate(-10.0606 27.1972 59.1206)" fill="#894211"/>
<ellipse cx="17.4657" cy="62.9893" rx="2.5641" ry="1.0545" transform="rotate(-10.0606 17.4657 62.9893)" fill="#894211"/>
<ellipse cx="31.3231" cy="53.0338" rx="2.5641" ry="1.0545" transform="rotate(-10.0606 31.3231 53.0338)" fill="#894211"/>
<ellipse cx="52.8428" cy="53.7481" rx="20.5128" ry="6.32699" transform="rotate(19.2045 52.8428 53.7481)" fill="#CB9F6C"/>
<ellipse cx="64.6048" cy="58.961" rx="2.5641" ry="1.0545" transform="rotate(19.2045 64.6048 58.961)" fill="#894211"/>
<ellipse cx="41.0843" cy="48.5348" rx="2.5641" ry="1.0545" transform="rotate(19.2045 41.0843 48.5348)" fill="#894211"/>
<ellipse cx="49.0384" cy="49.0733" rx="2.5641" ry="1.0545" transform="rotate(19.2045 49.0384 49.0733)" fill="#894211"/>
<ellipse cx="54.9173" cy="55.587" rx="2.5641" ry="1.0545" transform="rotate(19.2045 54.9173 55.587)" fill="#894211"/>
<ellipse cx="44.5365" cy="54.2051" rx="2.5641" ry="1.0545" transform="rotate(19.2045 44.5365 54.2051)" fill="#894211"/>
<ellipse cx="61.4945" cy="52.2946" rx="2.5641" ry="1.0545" transform="rotate(19.2045 61.4945 52.2946)" fill="#894211"/>
<ellipse cx="26.9241" cy="44.4043" rx="20.5128" ry="9.54419" transform="rotate(4.34544 26.9241 44.4043)" fill="#CB9F6C"/>
<ellipse cx="39.5856" cy="46.9615" rx="2.5641" ry="1.5907" transform="rotate(4.34544 39.5856 46.9615)" fill="#894211"/>
<ellipse cx="14.2585" cy="41.8463" rx="2.5641" ry="1.5907" transform="rotate(4.34544 14.2585 41.8463)" fill="#894211"/>
<ellipse cx="22.1735" cy="39.2571" rx="2.5641" ry="1.5907" transform="rotate(4.34544 22.1735 39.2571)" fill="#894211"/>
<ellipse cx="29.361" cy="46.1842" rx="2.5641" ry="1.5907" transform="rotate(4.34544 29.361 46.1842)" fill="#894211"/>
<ellipse cx="18.8923" cy="48.5793" rx="2.5641" ry="1.5907" transform="rotate(4.34544 18.8923 48.5793)" fill="#894211"/>
<ellipse cx="35.0739" cy="38.6423" rx="2.5641" ry="1.5907" transform="rotate(4.34544 35.0739 38.6423)" fill="#894211"/>
<g opacity="0.45" filter="url(#filter0_b_210_9083)">
<path d="M0.621094 33.0771C0.621094 27.5542 5.09825 23.0771 10.6211 23.0771H67.5442C73.067 23.0771 77.5442 27.5542 77.5442 33.0771V80.0002C77.5442 91.0459 68.5899 100 57.5442 100H20.6211C9.5754 100 0.621094 91.0459 0.621094 80.0002V33.0771Z" fill="#BEDBF5" fill-opacity="0.1"/>
</g>
<defs>
<filter id="filter0_b_210_9083" x="-0.378906" y="22.0771" width="78.9229" height="78.9231" filterUnits="userSpaceOnUse" color-interpolation-filters="sRGB">
<feFlood flood-opacity="0" result="BackgroundImageFix"/>
<feGaussianBlur in="BackgroundImageFix" stdDeviation="0.5"/>
<feComposite in2="SourceAlpha" operator="in" result="effect1_backgroundBlur_210_9083"/>
<feBlend mode="normal" in="SourceGraphic" in2="effect1_backgroundBlur_210_9083" result="shape"/>
</filter>
</defs>
</svg>
