<svg width="78" height="100" viewBox="0 0 78 100" fill="none" xmlns="http://www.w3.org/2000/svg">
<path d="M77.4668 33.077C77.4668 27.5542 72.9896 23.077 67.4668 23.077H10.5439C5.02105 23.077 0.543892 27.5542 0.543892 33.077V79.9999C0.543892 91.0456 9.4982 99.9999 20.5439 99.9999H57.4668C68.5125 99.9999 77.4668 91.0456 77.4668 79.9999V33.077Z" fill="#F0F8FF"/>
<path d="M72.3398 25.4082C72.3398 24.1825 71.2472 23.2451 70.0357 23.4315L54.2123 25.8659C44.1345 27.4163 33.8787 27.4163 23.8009 25.8659L7.97744 23.4315C6.76592 23.2451 5.67333 24.1825 5.67333 25.4082V26.4894C5.67333 27.4765 6.39355 28.316 7.36922 28.4661L23.8009 30.9941C33.8787 32.5445 44.1344 32.5445 54.2123 30.9941L70.644 28.4661C71.6196 28.316 72.3398 27.4765 72.3398 26.4894V25.4082Z" fill="#D6E2ED"/>
<path d="M8.23743 25.641C13.2002 25.641 22.0132 25.641 39.0066 25.641C55.9999 25.641 59.8502 25.641 69.7757 25.641C69.7757 14.3121 55.9999 5.12819 39.0066 5.12819C22.0132 5.12819 8.23743 14.3121 8.23743 25.641Z" fill="#EEF7FF"/>
<path d="M31.3143 7.69229C32.555 7.69229 34.7583 7.69229 39.0066 7.69229C43.2549 7.69229 44.2175 7.69229 46.6989 7.69229C46.6989 3.44396 43.2549 0 39.0066 0C34.7583 0 31.3143 3.44396 31.3143 7.69229Z" fill="#EEF7FF"/>
<path d="M72.3398 24.2804C72.3398 22.2649 70.5969 20.6915 68.5919 20.8972L55.0313 22.288C44.3761 23.3808 33.6371 23.3808 22.9819 22.288L9.42128 20.8972C7.41627 20.6915 5.67333 22.2649 5.67333 24.2804C5.67333 26.0243 6.99245 27.4857 8.72729 27.6636L21.2772 28.9508C33.0659 30.1599 44.9473 30.1599 56.736 28.9508L69.2859 27.6636C71.0207 27.4857 72.3398 26.0243 72.3398 24.2804Z" fill="#EEF7FF"/>
<path d="M64.6494 21.4803C64.6494 20.9679 64.1981 20.5728 63.6902 20.6405L52.2248 22.1692C43.4527 23.3389 34.5642 23.3389 25.7921 22.1692L14.3266 20.6405C13.8188 20.5728 13.3675 20.9679 13.3675 21.4803C13.3675 21.9049 13.6818 22.2639 14.1027 22.3201L25.7921 23.8786C34.5642 25.0483 43.4527 25.0483 52.2248 23.8786L63.9142 22.3201C64.3351 22.2639 64.6494 21.9049 64.6494 21.4803Z" fill="#D6E2ED"/>
<path d="M46.7002 8.89421C46.7002 8.32901 46.1132 7.95329 45.5967 8.18284C41.4221 10.0382 36.5937 10.0382 32.4191 8.18284C31.9027 7.95329 31.3156 8.32901 31.3156 8.89421C31.3156 9.20286 31.501 9.4842 31.7831 9.60955C36.3467 11.6378 41.6691 11.6378 46.2327 9.60955C46.5148 9.4842 46.7002 9.20286 46.7002 8.89421Z" fill="#D6E2ED"/>
<ellipse rx="20.5128" ry="7.69229" transform="matrix(-0.996424 0.0844879 0.0844879 0.996424 43.815 88.8845)" fill="#DBBD99"/>
<ellipse rx="2.5641" ry="1.28205" transform="matrix(-0.996424 0.0844879 0.0844879 0.996424 31.1481 91.2454)" fill="#F5EFEC"/>
<ellipse rx="2.5641" ry="1.28205" transform="matrix(-0.996424 0.0844879 0.0844879 0.996424 56.4801 86.5237)" fill="#F5EFEC"/>
<ellipse rx="2.5641" ry="1.28205" transform="matrix(-0.996424 0.0844879 0.0844879 0.996424 48.5993 84.6185)" fill="#F5EFEC"/>
<ellipse rx="2.5641" ry="1.28205" transform="matrix(-0.996424 0.0844879 0.0844879 0.996424 41.3678 90.3787)" fill="#F5EFEC"/>
<ellipse rx="2.5641" ry="1.28205" transform="matrix(-0.996424 0.0844879 0.0844879 0.996424 51.8024 92.0667)" fill="#F5EFEC"/>
<ellipse rx="2.5641" ry="1.28205" transform="matrix(-0.996424 0.0844879 0.0844879 0.996424 35.7184 84.4247)" fill="#F5EFEC"/>
<ellipse rx="20.5128" ry="9.32824" transform="matrix(-0.980925 -0.194384 -0.194384 0.980925 25.4002 76.7224)" fill="#DBBD99"/>
<ellipse rx="2.5641" ry="1.55471" transform="matrix(-0.980925 -0.194384 -0.194384 0.980925 12.5205 75.755)" fill="#F5EFEC"/>
<ellipse rx="2.5641" ry="1.55471" transform="matrix(-0.980925 -0.194384 -0.194384 0.980925 38.2773 77.6895)" fill="#F5EFEC"/>
<ellipse rx="2.5641" ry="1.55471" transform="matrix(-0.980925 -0.194384 -0.194384 0.980925 31.3389 73.1442)" fill="#F5EFEC"/>
<ellipse rx="2.5641" ry="1.55471" transform="matrix(-0.980925 -0.194384 -0.194384 0.980925 22.584 77.7492)" fill="#F5EFEC"/>
<ellipse rx="2.5641" ry="1.55471" transform="matrix(-0.980925 -0.194384 -0.194384 0.980925 32.0371 82.7927)" fill="#F5EFEC"/>
<ellipse rx="2.5641" ry="1.55471" transform="matrix(-0.980925 -0.194384 -0.194384 0.980925 19.0635 69.1271)" fill="#F5EFEC"/>
<ellipse rx="20.5128" ry="9.54417" transform="matrix(-0.997125 0.0757695 0.0757695 0.997125 51.1639 75.1732)" fill="#DBBD99"/>
<ellipse rx="2.5641" ry="1.5907" transform="matrix(-0.997125 0.0757695 0.0757695 0.997125 38.5023 77.7304)" fill="#F5EFEC"/>
<ellipse rx="2.5641" ry="1.5907" transform="matrix(-0.997125 0.0757695 0.0757695 0.997125 63.8294 72.6152)" fill="#F5EFEC"/>
<ellipse rx="2.5641" ry="1.5907" transform="matrix(-0.997125 0.0757695 0.0757695 0.997125 55.9144 70.026)" fill="#F5EFEC"/>
<ellipse rx="2.5641" ry="1.5907" transform="matrix(-0.997125 0.0757695 0.0757695 0.997125 48.7269 76.9531)" fill="#F5EFEC"/>
<ellipse rx="2.5641" ry="1.5907" transform="matrix(-0.997125 0.0757695 0.0757695 0.997125 59.1956 79.3481)" fill="#F5EFEC"/>
<ellipse rx="2.5641" ry="1.5907" transform="matrix(-0.997125 0.0757695 0.0757695 0.997125 43.014 69.4112)" fill="#F5EFEC"/>
<ellipse rx="20.5128" ry="6.32697" transform="matrix(-0.997125 0.0757695 0.0757695 0.997125 28.3322 61.8371)" fill="#DBBD99"/>
<ellipse rx="2.5641" ry="1.0545" transform="matrix(-0.997125 0.0757695 0.0757695 0.997125 15.6296 63.8605)" fill="#F5EFEC"/>
<ellipse rx="2.5641" ry="1.0545" transform="matrix(-0.997125 0.0757695 0.0757695 0.997125 41.0349 59.8142)" fill="#F5EFEC"/>
<ellipse rx="2.5641" ry="1.0545" transform="matrix(-0.997125 0.0757695 0.0757695 0.997125 33.2077 58.2946)" fill="#F5EFEC"/>
<ellipse rx="2.5641" ry="1.0545" transform="matrix(-0.997125 0.0757695 0.0757695 0.997125 25.8542 63.0832)" fill="#F5EFEC"/>
<ellipse rx="2.5641" ry="1.0545" transform="matrix(-0.997125 0.0757695 0.0757695 0.997125 36.24 64.4089)" fill="#F5EFEC"/>
<ellipse rx="2.5641" ry="1.0545" transform="matrix(-0.997125 0.0757695 0.0757695 0.997125 20.3415 58.2145)" fill="#F5EFEC"/>
<ellipse rx="20.5128" ry="6.32697" transform="matrix(-0.984624 -0.174689 -0.174689 0.984624 53.6007 58.5308)" fill="#DBBD99"/>
<ellipse rx="2.5641" ry="1.0545" transform="matrix(-0.984624 -0.174689 -0.174689 0.984624 40.7931 57.3296)" fill="#F5EFEC"/>
<ellipse rx="2.5641" ry="1.0545" transform="matrix(-0.984624 -0.174689 -0.174689 0.984624 66.4083 59.7319)" fill="#F5EFEC"/>
<ellipse rx="2.5641" ry="1.0545" transform="matrix(-0.984624 -0.174689 -0.174689 0.984624 59.2013 56.3115)" fill="#F5EFEC"/>
<ellipse rx="2.5641" ry="1.0545" transform="matrix(-0.984624 -0.174689 -0.174689 0.984624 50.8907 59.1205)" fill="#F5EFEC"/>
<ellipse rx="2.5641" ry="1.0545" transform="matrix(-0.984624 -0.174689 -0.174689 0.984624 60.6222 62.9892)" fill="#F5EFEC"/>
<ellipse rx="2.5641" ry="1.0545" transform="matrix(-0.984624 -0.174689 -0.174689 0.984624 46.7648 53.0336)" fill="#F5EFEC"/>
<ellipse rx="20.5128" ry="6.32697" transform="matrix(-0.94435 0.328941 0.328941 0.94435 25.2451 53.748)" fill="#DBBD99"/>
<ellipse rx="2.5641" ry="1.0545" transform="matrix(-0.94435 0.328941 0.328941 0.94435 13.4831 58.9609)" fill="#F5EFEC"/>
<ellipse rx="2.5641" ry="1.0545" transform="matrix(-0.94435 0.328941 0.328941 0.94435 37.0036 48.5347)" fill="#F5EFEC"/>
<ellipse rx="2.5641" ry="1.0545" transform="matrix(-0.94435 0.328941 0.328941 0.94435 29.0495 49.0732)" fill="#F5EFEC"/>
<ellipse rx="2.5641" ry="1.0545" transform="matrix(-0.94435 0.328941 0.328941 0.94435 23.1706 55.5869)" fill="#F5EFEC"/>
<ellipse rx="2.5641" ry="1.0545" transform="matrix(-0.94435 0.328941 0.328941 0.94435 33.5514 54.205)" fill="#F5EFEC"/>
<ellipse rx="2.5641" ry="1.0545" transform="matrix(-0.94435 0.328941 0.328941 0.94435 16.5934 52.2945)" fill="#F5EFEC"/>
<ellipse rx="20.5128" ry="9.54417" transform="matrix(-0.997125 0.0757695 0.0757695 0.997125 51.1639 44.4042)" fill="#DBBD99"/>
<ellipse rx="2.5641" ry="1.5907" transform="matrix(-0.997125 0.0757695 0.0757695 0.997125 38.5023 46.9614)" fill="#F5EFEC"/>
<ellipse rx="2.5641" ry="1.5907" transform="matrix(-0.997125 0.0757695 0.0757695 0.997125 63.8294 41.8462)" fill="#F5EFEC"/>
<ellipse rx="2.5641" ry="1.5907" transform="matrix(-0.997125 0.0757695 0.0757695 0.997125 55.9144 39.257)" fill="#F5EFEC"/>
<ellipse rx="2.5641" ry="1.5907" transform="matrix(-0.997125 0.0757695 0.0757695 0.997125 48.7269 46.1841)" fill="#F5EFEC"/>
<ellipse rx="2.5641" ry="1.5907" transform="matrix(-0.997125 0.0757695 0.0757695 0.997125 59.1956 48.5792)" fill="#F5EFEC"/>
<ellipse rx="2.5641" ry="1.5907" transform="matrix(-0.997125 0.0757695 0.0757695 0.997125 43.014 38.6422)" fill="#F5EFEC"/>
<g opacity="0.45" filter="url(#filter0_b_210_9018)">
<path d="M77.4668 33.077C77.4668 27.5542 72.9896 23.077 67.4668 23.077H10.5439C5.02105 23.077 0.543892 27.5542 0.543892 33.077V79.9999C0.543892 91.0456 9.4982 99.9999 20.5439 99.9999H57.4668C68.5125 99.9999 77.4668 91.0456 77.4668 79.9999V33.077Z" fill="#BEDBF5" fill-opacity="0.1"/>
</g>
<defs>
<filter id="filter0_b_210_9018" x="-0.456055" y="22.077" width="78.9229" height="78.9229" filterUnits="userSpaceOnUse" color-interpolation-filters="sRGB">
<feFlood flood-opacity="0" result="BackgroundImageFix"/>
<feGaussianBlur in="BackgroundImageFix" stdDeviation="0.5"/>
<feComposite in2="SourceAlpha" operator="in" result="effect1_backgroundBlur_210_9018"/>
<feBlend mode="normal" in="SourceGraphic" in2="effect1_backgroundBlur_210_9018" result="shape"/>
</filter>
</defs>
</svg>
