<svg width="101" height="100" viewBox="0 0 101 100" fill="none" xmlns="http://www.w3.org/2000/svg">
<path d="M0.621094 43.0771C0.621094 32.0315 9.5754 23.0771 20.6211 23.0771H80.6211C91.6668 23.0771 100.621 32.0315 100.621 43.0771V60.0002C100.621 82.0916 82.7125 100 60.6211 100H40.6211C18.5297 100 0.621094 82.0916 0.621094 60.0002V43.0771Z" fill="#F0F8FF"/>
<path d="M7.28418 25.3278C7.28418 24.1301 8.32979 23.2009 9.51923 23.3417L38.8652 26.8145C46.6728 27.7385 54.5622 27.7385 62.3698 26.8145L91.7158 23.3417C92.9052 23.2009 93.9508 24.1301 93.9508 25.3278V26.4281C93.9508 27.4417 93.1925 28.2951 92.1859 28.4142L62.3698 31.9428C54.5622 32.8667 46.6728 32.8667 38.8652 31.9428L9.04913 28.4142C8.04251 28.2951 7.28418 27.4417 7.28418 26.4281V25.3278Z" fill="#D6E2ED"/>
<path d="M90.6175 25.6408C84.1659 25.6408 72.7089 25.6408 50.6175 25.6408C28.5261 25.6408 23.5207 25.6408 10.6175 25.6408C10.6175 14.3119 28.5261 5.12796 50.6175 5.12796C72.7089 5.12796 90.6175 14.3119 90.6175 25.6408Z" fill="#EEF7FF"/>
<path d="M60.6175 7.69206C59.0046 7.69206 56.1404 7.69206 50.6175 7.69206C45.0947 7.69206 43.8433 7.69206 40.6175 7.69206C40.6175 3.44372 45.0947 -0.000244141 50.6175 -0.000244141C56.1404 -0.000244141 60.6175 3.44372 60.6175 7.69206Z" fill="#EEF7FF"/>
<path d="M7.28418 24.2802C7.28418 22.2647 9.55001 20.6913 12.1565 20.897L29.7853 22.2878C43.6371 23.3807 57.5979 23.3807 71.4497 22.2878L89.0785 20.897C91.685 20.6913 93.9508 22.2647 93.9508 24.2802C93.9508 26.0241 92.236 27.4855 89.9807 27.6634L73.6657 28.9506C58.3405 30.1597 42.8946 30.1597 27.5693 28.9506L11.2543 27.6634C8.99903 27.4855 7.28418 26.0241 7.28418 24.2802Z" fill="#EEF7FF"/>
<path d="M17.2832 21.4544C17.2832 20.9505 17.7189 20.5571 18.2202 20.6086L40.4137 22.8848C47.1978 23.5806 54.0353 23.5806 60.8194 22.8848L83.0129 20.6086C83.5141 20.5571 83.9499 20.9505 83.9499 21.4544V21.4544C83.9499 21.8903 83.6201 22.2557 83.1864 22.3002L60.8194 24.5942C54.0353 25.29 47.1978 25.29 40.4137 24.5942L18.0467 22.3002C17.613 22.2557 17.2832 21.8903 17.2832 21.4544V21.4544Z" fill="#D6E2ED"/>
<path d="M40.6152 8.82321C40.6152 8.26858 41.1608 7.87853 41.6856 8.05795L42.3135 8.2726C47.6951 10.1125 53.5354 10.1125 58.917 8.2726L59.5449 8.05795C60.0697 7.87853 60.6152 8.26858 60.6152 8.82321V8.82321C60.6152 9.16904 60.3953 9.47659 60.0681 9.58847L59.6686 9.72505C53.7998 11.7315 47.4307 11.7315 41.5619 9.72505L41.1624 9.58847C40.8351 9.47659 40.6152 9.16904 40.6152 8.82321V8.82321Z" fill="#D6E2ED"/>
<g opacity="0.45" filter="url(#filter0_b_266_928)">
<path d="M0.621094 43.0771C0.621094 32.0315 9.5754 23.0771 20.6211 23.0771H80.6211C91.6668 23.0771 100.621 32.0315 100.621 43.0771V60.0002C100.621 82.0916 82.7125 100 60.6211 100H40.6211C18.5297 100 0.621094 82.0916 0.621094 60.0002V43.0771Z" fill="#BEDBF5" fill-opacity="0.1"/>
</g>
<rect x="28.6191" y="52.9998" width="44" height="26" rx="4" fill="#D6E2ED"/>
<rect x="30.6191" y="54.9998" width="40" height="22" rx="4" fill="#F0F8FF"/>
<defs>
<filter id="filter0_b_266_928" x="-0.378906" y="22.0771" width="102" height="78.9231" filterUnits="userSpaceOnUse" color-interpolation-filters="sRGB">
<feFlood flood-opacity="0" result="BackgroundImageFix"/>
<feGaussianBlur in="BackgroundImageFix" stdDeviation="0.5"/>
<feComposite in2="SourceAlpha" operator="in" result="effect1_backgroundBlur_266_928"/>
<feBlend mode="normal" in="SourceGraphic" in2="effect1_backgroundBlur_266_928" result="shape"/>
</filter>
</defs>
</svg>
