<svg width="100" height="78" viewBox="0 0 100 78" fill="none" xmlns="http://www.w3.org/2000/svg">
<g clip-path="url(#clip0_107_377)">
<path d="M98.5 61.381C98.5 63.0255 97.5015 64.831 95.1423 66.6903C92.8 68.5362 89.3178 70.2641 84.881 71.743C76.0232 74.6957 63.6908 76.5476 50 76.5476C36.3092 76.5476 23.9768 74.6957 15.119 71.743C10.6822 70.2641 7.19998 68.5362 4.85771 66.6903C2.49853 64.831 1.5 63.0255 1.5 61.381C1.5 59.7364 2.49853 57.9309 4.85771 56.0717C7.19998 54.2257 10.6822 52.4978 15.119 51.0189C23.9768 48.0663 36.3092 46.2143 50 46.2143C63.6908 46.2143 76.0232 48.0663 84.881 51.0189C89.3178 52.4978 92.8 54.2257 95.1423 56.0717C97.5015 57.9309 98.5 59.7364 98.5 61.381Z" fill="url(#paint0_radial_107_377)" stroke="#D5E9EF" stroke-width="3"/>
<path d="M82.1095 43.2497C82.0885 42.7331 81.6165 42.2876 80.974 42.1782L31.0046 33.6655C30.3621 33.556 29.7215 33.8119 29.4637 34.2811L24.1578 56.3647C23.8059 57.0051 24.304 57.7542 25.181 57.9036L75.1504 66.4163C76.0274 66.5657 76.8322 66.0385 76.8036 65.3334L82.1095 43.2497Z" fill="#FFFCE4"/>
<mask id="mask0_107_377" style="mask-type:alpha" maskUnits="userSpaceOnUse" x="24" y="33" width="59" height="34">
<path d="M82.1095 43.2497C82.0885 42.7331 81.6164 42.2876 80.9739 42.1782L31.0046 33.6655C30.362 33.556 29.7215 33.8119 29.4637 34.2811L24.1577 56.3647C23.8058 57.0051 24.304 57.7542 25.181 57.9036L75.1503 66.4163C76.0273 66.5657 76.8321 66.0385 76.8035 65.3334L82.1095 43.2497Z" fill="#E7D1CA"/>
</mask>
<g mask="url(#mask0_107_377)">
<path d="M81.4499 41.715L77.9695 41.4637L75.8253 67.6633L79.3058 67.9146L81.4499 41.715Z" fill="#FFDE6A" fill-opacity="0.29"/>
<path d="M74.6208 40.5516L71.1503 40.2047L67.8478 66.3046L71.3183 66.6515L74.6208 40.5516Z" fill="#FFDE6A" fill-opacity="0.29"/>
<path d="M67.7665 39.3839L64.3102 38.9418L59.8534 64.9103L63.3097 65.3524L67.7665 39.3839Z" fill="#FFDE6A" fill-opacity="0.29"/>
<path d="M61.5976 38.333L58.1597 37.7963L52.554 63.6016L55.9919 64.1383L61.5976 38.333Z" fill="#FFDE6A" fill-opacity="0.29"/>
<path d="M49.2599 36.2312L45.8714 35.5072L37.9897 60.8922L41.3783 61.6162L49.2599 36.2312Z" fill="#FFDE6A" fill-opacity="0.29"/>
<path d="M42.4056 35.0635L39.0479 34.2472L30.042 59.3754L33.3998 60.1918L42.4056 35.0635Z" fill="#FFDE6A" fill-opacity="0.29"/>
<path d="M35.422 34.4344L32.0992 33.5268L21.98 58.3677L25.3028 59.2754L35.422 34.4344Z" fill="#FFDE6A" fill-opacity="0.29"/>
<path d="M55.4288 37.2821L52.0135 36.6514L45.2657 62.2621L48.681 62.8928L55.4288 37.2821Z" fill="#FFDE6A" fill-opacity="0.29"/>
<path d="M86.8674 46.002L87.5145 43.3088L26.5114 32.9165L25.8643 35.6096L86.8674 46.002Z" fill="#FFDE6A" fill-opacity="0.29"/>
<path d="M85.5733 51.3882L86.2204 48.6951L25.2173 38.3027L24.5702 40.9958L85.5733 51.3882Z" fill="#FFDE6A" fill-opacity="0.29"/>
<path d="M84.2792 56.7745L84.9262 54.0814L23.9231 43.689L23.2761 46.3821L84.2792 56.7745Z" fill="#FFDE6A" fill-opacity="0.29"/>
<path d="M85.0413 62.511L85.6884 59.8179L17.831 48.2578L17.1839 50.951L85.0413 62.511Z" fill="#FFDE6A" fill-opacity="0.29"/>
<path d="M83.7472 67.8973L84.3943 65.2042L16.5369 53.6441L15.8898 56.3372L83.7472 67.8973Z" fill="#FFDE6A" fill-opacity="0.29"/>
</g>
<path fill-rule="evenodd" clip-rule="evenodd" d="M50.0017 42.8095C50.0017 45.4394 52.1336 47.5714 54.7636 47.5714C57.3935 47.5714 59.5255 45.4394 59.5255 42.8095V43.7619C59.5255 46.3918 61.6574 48.5238 64.2874 48.5238C66.9173 48.5238 69.0493 46.3918 69.0493 43.7619L69.0493 45.6666C69.0493 48.2966 71.1813 50.4285 73.8112 50.4285C76.4411 50.4285 78.5731 48.2966 78.5731 45.6666V46.189C78.5731 49.2784 81.9713 51.1618 84.591 49.5245C85.1011 49.2057 85.5244 48.7788 85.8366 48.282L81.4631 60.2803C80.9691 61.6354 79.7838 62.6196 78.361 62.8562L66.403 64.8444C55.5433 66.65 44.46 66.65 33.6002 64.8444L21.6423 62.8562C20.2194 62.6196 19.0342 61.6354 18.5402 60.2803L13.7115 47.0332C13.6018 46.7323 13.5228 46.428 13.4729 46.1236C13.731 46.7327 14.1337 47.2768 14.6537 47.705C17.3564 49.9308 21.4302 48.0082 21.4302 44.507V45.6666C21.4302 48.2966 23.5622 50.4285 26.1921 50.4285C28.8221 50.4285 30.954 48.2966 30.954 45.6666V43.7619C30.954 46.3918 33.086 48.5238 35.7159 48.5238C38.3459 48.5238 40.4778 46.3918 40.4778 43.7619L40.4778 42.8095C40.4778 45.4394 42.6098 47.5714 45.2398 47.5714C47.8697 47.5714 50.0017 45.4394 50.0017 42.8095ZM21.4302 36.8577V34.2381C21.4302 31.6081 23.5622 29.4762 26.1921 29.4762C28.8221 29.4762 30.954 31.6081 30.954 34.2381V32.3333C30.954 29.7034 33.086 27.5714 35.7159 27.5714C38.3459 27.5714 40.4778 29.7034 40.4778 32.3333L40.4778 31.3809C40.4778 28.751 42.6098 26.619 45.2398 26.619C47.8697 26.619 50.0017 28.751 50.0017 31.3809C50.0017 28.751 52.1336 26.619 54.7636 26.619C57.3935 26.619 59.5255 28.751 59.5255 31.3809V32.3333C59.5255 29.7034 61.6574 27.5714 64.2874 27.5714C66.9173 27.5714 69.0493 29.7034 69.0493 32.3333L69.0493 34.2381C69.0493 31.6081 71.1813 29.4762 73.8112 29.4762C76.4411 29.4762 78.5731 31.6081 78.5731 34.2381V36.8161C78.5731 34.3403 80.5801 32.3333 83.0558 32.3333C85.7392 32.3333 87.8214 34.6749 87.5079 37.3398L86.592 45.1252C86.5108 43.068 85.1537 41.1809 83.0567 40.5395L79.2521 39.3757C79.0259 39.3066 78.7996 39.2382 78.5731 39.1707C75.4292 38.2333 72.2507 37.4541 69.0493 36.8329C65.8932 36.2205 62.7149 35.7618 59.5255 35.4567C56.3582 35.1536 53.1799 35.0021 50.0017 35.0021C46.8234 35.0021 43.6451 35.1536 40.4778 35.4566C37.2884 35.7618 34.1101 36.2205 30.954 36.8329C27.7526 37.4541 24.5741 38.2333 21.4302 39.1707C21.2037 39.2382 20.9774 39.3065 20.7512 39.3757L16.9466 40.5395C14.5132 41.2838 13.0762 43.7054 13.4729 46.1236C13.3117 45.7433 13.2069 45.3377 13.165 44.9192L12.4039 37.3079C12.1375 34.6444 14.2291 32.3333 16.9058 32.3333C19.4046 32.3333 21.4302 34.3589 21.4302 36.8577ZM86.4111 46.6625L86.4127 46.6486L86.592 45.1252C86.612 45.6327 86.5544 46.1505 86.4111 46.6625ZM86.4111 46.6625C86.3764 46.7865 86.3367 46.9101 86.2918 47.0332L85.8366 48.282C86.1414 47.797 86.3404 47.2453 86.4111 46.6625Z" fill="#E0C192"/>
<path fill-rule="evenodd" clip-rule="evenodd" d="M86.3453 43.7619C85.8558 42.2748 84.6772 41.0352 83.0567 40.5395L79.252 39.3758C60.1877 33.5443 39.8155 33.5443 20.7512 39.3758L16.9466 40.5395C15.326 41.0352 14.1474 42.2748 13.658 43.7619C14.1474 45.249 15.326 46.4886 16.9466 46.9843L20.7512 48.1481C39.8155 53.9795 60.1877 53.9795 79.252 48.1481L83.0567 46.9843C84.6772 46.4886 85.8558 45.249 86.3453 43.7619Z" fill="#FFF5F0"/>
<path d="M86.1921 41.2506C86.1921 45.876 69.9891 49.4762 50.0016 49.4762C30.0142 49.4762 13.8112 45.876 13.8112 41.2506C13.8112 38.4917 14.3796 39.7831 25.2045 35.3946C28.7931 33.9397 26.2153 31.4227 35.4286 24.994C36.5061 24.2422 37.9383 24.3435 39.051 25.0421C51.3627 32.7725 86.1921 36.8614 86.1921 41.2506Z" fill="url(#paint1_radial_107_377)"/>
<path d="M86.1921 40.9458C86.1921 45.7426 69.9891 49.4762 50.0016 49.4762C30.0142 49.4762 13.8112 45.7426 13.8112 40.9458C13.8112 38.0847 39.1768 47.678 50.0016 43.1269C53.6249 41.6036 25.4994 32.6399 36.0022 20.8416C37.009 19.7106 38.7719 19.7766 39.7999 20.8884C45.0488 26.565 47.2631 31.9062 56.0334 34.2379C68.5747 37.5721 86.1921 38.2457 86.1921 40.9458Z" fill="url(#paint2_radial_107_377)"/>
<ellipse cx="50.9524" cy="38.1905" rx="0.47619" ry="0.142857" fill="#A25A30"/>
<ellipse rx="0.47619" ry="0.142857" transform="matrix(-1 0 0 1 71.9048 42)" fill="#A25A30"/>
<ellipse cx="54.762" cy="41.0476" rx="0.47619" ry="0.142857" fill="#A25A30"/>
<ellipse rx="0.47619" ry="0.142857" transform="matrix(-1 0 0 1 34.7618 39.1429)" fill="#A25A30"/>
<ellipse cx="52.8572" cy="42" rx="0.47619" ry="0.142857" fill="#A25A30"/>
<ellipse rx="0.47619" ry="0.142857" transform="matrix(-1 0 0 1 36.6666 40.0952)" fill="#A25A30"/>
<ellipse cx="54.762" cy="44.8572" rx="0.47619" ry="0.142857" fill="#A25A30"/>
<ellipse rx="0.47619" ry="0.142857" transform="matrix(-1 0 0 1 30.9524 39.1429)" fill="#A25A30"/>
<ellipse cx="60.4762" cy="42" rx="0.47619" ry="0.142857" fill="#A25A30"/>
<ellipse rx="0.47619" ry="0.142857" transform="matrix(-1 0 0 1 29.0476 40.0952)" fill="#A25A30"/>
<ellipse cx="57.619" cy="42" rx="0.47619" ry="0.142857" fill="#A25A30"/>
<ellipse rx="0.47619" ry="0.142857" transform="matrix(-1 0 0 1 31.9048 40.0952)" fill="#A25A30"/>
<ellipse cx="53.8096" cy="39.1429" rx="0.47619" ry="0.142857" fill="#A25A30"/>
<ellipse rx="0.47619" ry="0.142857" transform="matrix(-1 0 0 1 35.7142 37.2381)" fill="#A25A30"/>
<ellipse cx="49.0476" cy="40.0952" rx="0.47619" ry="0.142857" fill="#A25A30"/>
<ellipse rx="0.47619" ry="0.142857" transform="matrix(-1 0 0 1 73.8096 41.0476)" fill="#D78759"/>
<ellipse cx="56" cy="40.0952" rx="0.47619" ry="0.142857" fill="#D78759"/>
<ellipse cx="72.8572" cy="43.9048" rx="0.47619" ry="0.142857" fill="#D78759"/>
<ellipse cx="47.1428" cy="38.1905" rx="0.47619" ry="0.142857" fill="#D78759"/>
<ellipse rx="0.47619" ry="0.142857" transform="matrix(-1 0 0 1 38.5714 41.0476)" fill="#D78759"/>
<ellipse cx="51.9048" cy="40.0952" rx="0.47619" ry="0.142857" fill="#D78759"/>
<ellipse rx="0.47619" ry="0.142857" transform="matrix(-1 0 0 1 37.619 38.1905)" fill="#D78759"/>
<ellipse cx="62.381" cy="41.0476" rx="0.47619" ry="0.142857" fill="#D78759"/>
<ellipse rx="0.47619" ry="0.142857" transform="matrix(-1 0 0 1 27.1428 39.1429)" fill="#D78759"/>
<ellipse cx="55.7142" cy="42.9524" rx="0.47619" ry="0.142857" fill="#D78759"/>
<ellipse cx="59.5238" cy="40.0952" rx="0.47619" ry="0.142857" fill="#A25A30"/>
<ellipse cx="63.3334" cy="42.9524" rx="0.47619" ry="0.142857" fill="#A25A30"/>
<ellipse cx="61.4286" cy="43.9048" rx="0.47619" ry="0.142857" fill="#A25A30"/>
<ellipse cx="67.1428" cy="42.9524" rx="0.47619" ry="0.142857" fill="#A25A30"/>
<ellipse cx="69.0476" cy="43.9048" rx="0.47619" ry="0.142857" fill="#A25A30"/>
<ellipse cx="66.1904" cy="43.9048" rx="0.47619" ry="0.142857" fill="#A25A30"/>
<ellipse cx="62.381" cy="41.0476" rx="0.47619" ry="0.142857" fill="#A25A30"/>
<ellipse cx="64.5715" cy="42" rx="0.47619" ry="0.142857" fill="#D78759"/>
<ellipse cx="69.0476" cy="41.0476" rx="0.47619" ry="0.142857" fill="#D78759"/>
<ellipse cx="70.9524" cy="42.9524" rx="0.47619" ry="0.142857" fill="#D78759"/>
<ellipse cx="64.2858" cy="44.8572" rx="0.47619" ry="0.142857" fill="#D78759"/>
<ellipse rx="0.47619" ry="0.142857" transform="matrix(-1 0 0 1 33.8096 41.0476)" fill="#A25A30"/>
<path d="M37.5303 42.0597C42.2138 42.7479 42.7245 42.8229 46.0106 43.3057C46.6988 38.6221 43.4599 34.2675 38.7763 33.5793C34.0927 32.8912 29.738 36.1301 29.0499 40.8137C33.9727 41.537 32.8467 41.3716 37.5303 42.0597Z" fill="#F69D5C"/>
<path fill-rule="evenodd" clip-rule="evenodd" d="M32.5204 36.0852C31.2987 37.3413 30.4291 39.0367 30.1437 40.9789L37.528 42.0639L44.9123 43.1489C45.1983 41.2024 44.851 39.3247 44.0385 37.7682C42.732 36.1494 40.8362 34.9989 38.6157 34.6727C36.3903 34.3457 34.2392 34.9053 32.5204 36.0852Z" fill="#FFD88D"/>
<path fill-rule="evenodd" clip-rule="evenodd" d="M31.0073 39.9004C30.8774 40.2939 31.155 40.6891 31.5649 40.7494L35.6139 41.3443C36.1613 41.4247 36.5904 40.8824 36.3864 40.3681L34.8775 36.5651C34.7245 36.1794 34.2753 36.0004 33.9221 36.2181C32.5764 37.0477 31.5237 38.3354 31.0073 39.9004ZM36.1299 35.34C35.7241 35.4239 35.5206 35.8619 35.6734 36.247L37.1455 39.9573C37.3496 40.4716 38.0338 40.5721 38.3772 40.1383L40.876 36.9809C41.1354 36.653 41.0625 36.1703 40.6919 35.9769C40.0285 35.6306 39.2966 35.3878 38.5144 35.2729C37.6979 35.1529 36.8938 35.1821 36.1299 35.34ZM41.566 37.4902C41.8212 37.1678 42.2975 37.1227 42.575 37.4262C43.6642 38.6171 44.3278 40.1828 44.3732 41.8642C44.3843 42.2784 44.0048 42.5772 43.5949 42.5169L39.4451 41.9072C38.8977 41.8268 38.6427 41.1839 38.986 40.7501L41.566 37.4902Z" fill="url(#paint3_radial_107_377)"/>
<path d="M59.8231 43.1072C64.4972 42.357 65.0068 42.2752 68.2862 41.7488C67.536 37.0747 63.1387 33.8939 58.4647 34.6441C53.7906 35.3944 50.6098 39.7916 51.36 44.4657C56.2729 43.6771 55.1491 43.8575 59.8231 43.1072Z" fill="#F69D5C"/>
<path fill-rule="evenodd" clip-rule="evenodd" d="M53.2498 38.9134C52.4618 40.4785 52.1416 42.3567 52.4527 44.2949L59.8219 43.112L67.1912 41.9292C66.8794 39.9867 65.9842 38.2999 64.7417 37.0593C63.0093 35.9076 60.8555 35.3797 58.6396 35.7354C56.4187 36.0919 54.5349 37.2717 53.2498 38.9134Z" fill="#FFD88D"/>
<path fill-rule="evenodd" clip-rule="evenodd" d="M52.9528 43.0066C52.9471 43.4209 53.3306 43.7146 53.7397 43.6489L57.7803 43.0003C58.3266 42.9127 58.5731 42.2665 58.2241 41.8373L55.6426 38.6629C55.3809 38.3411 54.8986 38.3052 54.6271 38.6189C53.5927 39.8143 52.9753 41.3588 52.9528 43.0066ZM56.4693 37.1183C56.1074 37.3201 56.0448 37.799 56.3063 38.1205L58.8248 41.2174C59.1738 41.6466 59.8567 41.537 60.0539 41.0201L61.4891 37.258C61.6381 36.8674 61.4235 36.4289 61.0119 36.3556C60.2751 36.2246 59.5042 36.2128 58.7236 36.3381C57.9087 36.4689 57.1505 36.7383 56.4693 37.1183ZM62.3002 37.5366C62.4467 37.1524 62.8875 36.9664 63.2434 37.1725C64.64 37.9813 65.7432 39.2754 66.2914 40.8656C66.4265 41.2573 66.1542 41.6562 65.7451 41.7219L61.6038 42.3866C61.0575 42.4743 60.6212 41.9378 60.8184 41.4208L62.3002 37.5366Z" fill="url(#paint4_radial_107_377)"/>
<path fill-rule="evenodd" clip-rule="evenodd" d="M42.5338 20.9907C42.8636 20.8166 43.2713 20.9143 43.4864 21.2189L46.0747 24.8849C46.3578 25.2858 46.5892 25.7207 46.7637 26.1794C46.5668 26.5706 46.4109 27.0642 46.3103 27.6747C46.0394 27.2653 45.7655 26.943 45.4928 26.6968C45.3449 26.2994 45.1412 25.9248 44.8877 25.5845L42.285 22.0903C42.013 21.7251 42.131 21.2033 42.5338 20.9907Z" fill="#B1CF7F"/>
<path d="M40.432 29.1061C41.0695 31.694 43.9639 33.2063 46.897 32.4839C49.83 31.7614 51.691 29.0778 51.0535 26.4898C50.416 23.9018 46.1551 21.4007 45.358 26.2359C42.7187 22.2471 39.7945 26.5181 40.432 29.1061Z" fill="#DE2E2E"/>
<path d="M82.6701 38.465C82.6701 41.5534 80.2606 42.6151 77.2883 42.6151C74.3159 42.6151 71.9064 41.5534 71.9064 38.465C71.9064 35.3767 74.3159 30.4286 77.2883 30.4286C80.2606 30.4286 82.6701 35.3767 82.6701 38.465Z" fill="#F76464"/>
<path d="M26.4797 38.465C26.4797 41.5534 24.0701 42.6151 21.0978 42.6151C18.1255 42.6151 15.7159 41.5534 15.7159 38.465C15.7159 35.3767 18.1255 30.4286 21.0978 30.4286C24.0701 30.4286 26.4797 35.3767 26.4797 38.465Z" fill="#F76464"/>
<path d="M13.4177 34.9484C12.7166 35.9472 12.9211 37.5479 13.4205 37.8985C13.9199 38.249 14.5251 37.2167 15.2263 36.2179C15.9274 35.2191 16.2319 33.9242 15.7325 33.5737C15.2331 33.2231 14.1189 33.9496 13.4177 34.9484Z" fill="#77C065"/>
<path d="M14.9855 37.659C14.2844 38.6578 14.4888 40.2585 14.9882 40.609C15.4876 40.9596 16.0929 39.9273 16.794 38.9285C17.4951 37.9296 17.7997 36.6348 17.3003 36.2843C16.8009 35.9337 15.6866 36.6602 14.9855 37.659Z" fill="#77C065"/>
<path d="M16.5532 40.3697C15.8521 41.3685 16.0566 42.9692 16.556 43.3197C17.0554 43.6703 17.6606 42.638 18.3618 41.6391C19.0629 40.6403 19.3674 39.3455 18.868 38.995C18.3686 38.6444 17.2544 39.3709 16.5532 40.3697Z" fill="#77C065"/>
<path d="M11.3173 35.7621C12.5341 35.8553 13.6402 37.0302 13.5936 37.6386C13.547 38.247 12.3653 38.0585 11.1486 37.9653C9.9318 37.8721 8.73841 37.2846 8.78501 36.6762C8.8316 36.0678 10.1005 35.6689 11.3173 35.7621Z" fill="#77C065"/>
<path d="M12.8852 38.4727C14.1019 38.5659 15.2081 39.7408 15.1615 40.3492C15.1149 40.9575 13.9332 40.769 12.7164 40.6758C11.4997 40.5826 10.3063 39.9952 10.3529 39.3868C10.3995 38.7784 11.6684 38.3795 12.8852 38.4727Z" fill="#77C065"/>
<path d="M14.4533 41.1832C15.67 41.2764 16.7762 42.4513 16.7296 43.0597C16.683 43.6681 15.5013 43.4795 14.2845 43.3864C13.0678 43.2932 11.8744 42.7057 11.921 42.0973C11.9676 41.4889 13.2365 41.09 14.4533 41.1832Z" fill="#77C065"/>
<path d="M14.2902 40.3695C13.3368 39.6078 13.0835 38.0141 13.4644 37.5374C13.8452 37.0607 13.7249 39.1711 14.6783 39.9329C15.6317 40.6946 16.7583 42.8331 16.3775 43.3098C15.9966 43.7865 15.2436 41.1312 14.2902 40.3695Z" fill="#77C065"/>
<path d="M86.4374 35.9007C87.1385 36.8996 86.934 38.5002 86.4346 38.8508C85.9352 39.2013 85.33 38.169 84.6288 37.1702C83.9277 36.1714 83.6232 34.8766 84.1226 34.526C84.622 34.1755 85.7362 34.9019 86.4374 35.9007Z" fill="#77C065"/>
<path d="M84.8696 38.6114C85.5707 39.6102 85.3663 41.2109 84.8669 41.5614C84.3675 41.912 83.7622 40.8797 83.0611 39.8808C82.36 38.882 82.0554 37.5872 82.5548 37.2367C83.0542 36.8861 84.1685 37.6126 84.8696 38.6114Z" fill="#77C065"/>
<path d="M83.3017 41.3221C84.0028 42.3209 83.7984 43.9216 83.299 44.2721C82.7996 44.6227 82.1943 43.5903 81.4932 42.5915C80.7921 41.5927 80.4876 40.2979 80.987 39.9474C81.4864 39.5968 82.6006 40.3233 83.3017 41.3221Z" fill="#77C065"/>
<path d="M88.5377 36.7145C87.3209 36.8077 86.2148 37.9826 86.2613 38.5909C86.3079 39.1993 87.4897 39.0108 88.7064 38.9176C89.9232 38.8244 91.1166 38.2369 91.07 37.6285C91.0234 37.0202 89.7544 36.6213 88.5377 36.7145Z" fill="#77C065"/>
<path d="M86.9698 39.4251C85.7531 39.5183 84.6469 40.6932 84.6935 41.3016C84.7401 41.9099 85.9218 41.7214 87.1386 41.6282C88.3553 41.535 89.5487 40.9476 89.5021 40.3392C89.4555 39.7308 88.1866 39.3319 86.9698 39.4251Z" fill="#77C065"/>
<path d="M85.4017 42.1356C84.1849 42.2287 83.0788 43.4036 83.1254 44.012C83.172 44.6204 84.3537 44.4319 85.5704 44.3387C86.7872 44.2455 87.9806 43.658 87.934 43.0496C87.8874 42.4412 86.6184 42.0424 85.4017 42.1356Z" fill="#77C065"/>
<path d="M85.5648 41.3218C86.5182 40.5601 86.7715 38.9664 86.3906 38.4897C86.0098 38.013 86.1301 40.1235 85.1767 40.8852C84.2233 41.6469 83.0967 43.7854 83.4775 44.2621C83.8584 44.7388 84.6114 42.0835 85.5648 41.3218Z" fill="#77C065"/>
<mask id="mask1_107_377" style="mask-type:alpha" maskUnits="userSpaceOnUse" x="18" y="36" width="20" height="12">
<path d="M27.986 46.0524C22.7874 45.2522 22.3383 45.183 18.5731 44.6034C19.3733 39.4048 24.2363 35.8392 29.435 36.6394C34.6336 37.4397 38.1992 42.3027 37.399 47.5013C33.1632 46.8493 33.1846 46.8526 27.986 46.0524Z" fill="#B1CF7F"/>
</mask>
<g mask="url(#mask1_107_377)">
<path d="M26.5371 55.4653C21.3384 54.6651 17.7728 49.8021 18.5731 44.6034C19.3733 39.4048 24.2363 35.8392 29.435 36.6394C34.6336 37.4397 38.1992 42.3027 37.399 47.5013C36.5987 52.6999 31.7357 56.2656 26.5371 55.4653Z" fill="#B1CF7F"/>
<circle cx="27.986" cy="46.0523" r="4.2328" transform="rotate(98.7509 27.986 46.0523)" fill="url(#paint5_radial_107_377)"/>
<path fill-rule="evenodd" clip-rule="evenodd" d="M32.8678 48.4319C32.945 48.3079 32.8064 48.0822 32.5582 47.9279C32.3101 47.7736 32.0464 47.749 31.9692 47.8731C31.8921 47.9972 32.0307 48.2229 32.2788 48.3772C32.527 48.5315 32.7907 48.556 32.8678 48.4319ZM32.9719 44.5479C32.9339 44.4068 32.6743 44.3541 32.3922 44.4302C32.11 44.5062 31.9121 44.6822 31.9502 44.8233C31.9882 44.9644 32.2477 45.0171 32.5299 44.941C32.812 44.865 33.0099 44.689 32.9719 44.5479ZM32.3985 46.4562C32.4261 46.3127 32.2159 46.1517 31.9289 46.0965C31.642 46.0413 31.387 46.1128 31.3594 46.2563C31.3318 46.3998 31.542 46.5608 31.829 46.616C32.1159 46.6712 32.3709 46.5997 32.3985 46.4562ZM23.6363 46.3213C23.6329 46.4673 23.8669 46.5913 24.159 46.5982C24.4512 46.6052 24.6908 46.4924 24.6942 46.3463C24.6977 46.2002 24.4637 46.0762 24.1715 46.0693C23.8794 46.0624 23.6398 46.1752 23.6363 46.3213ZM23.978 48.3182C23.7124 48.44 23.4477 48.431 23.3868 48.2982C23.3259 48.1653 23.492 47.959 23.7576 47.8372C24.0233 47.7155 24.2879 47.7245 24.3488 47.8573C24.4097 47.9901 24.2437 48.1965 23.978 48.3182ZM25.5469 48.5598C25.2813 48.6815 25.0166 48.6725 24.9557 48.5397C24.8948 48.4069 25.0608 48.2005 25.3265 48.0788C25.5921 47.957 25.8568 47.966 25.9177 48.0988C25.9786 48.2317 25.8126 48.438 25.5469 48.5598ZM31.4647 44.05C31.4267 43.9089 31.1671 43.8562 30.885 43.9322C30.6029 44.0083 30.405 44.1843 30.443 44.3254C30.481 44.4665 30.7406 44.5192 31.0227 44.4431C31.3049 44.367 31.5028 44.191 31.4647 44.05ZM24.3423 44.0846C24.1176 43.8978 24.011 43.6554 24.1044 43.543C24.1978 43.4306 24.4557 43.4909 24.6804 43.6776C24.9052 43.8644 25.0117 44.1068 24.9183 44.2192C24.825 44.3316 24.5671 44.2713 24.3423 44.0846ZM31.4767 49.1185C31.5874 49.0231 31.5225 48.7663 31.3318 48.545C31.141 48.3236 30.8967 48.2214 30.786 48.3168C30.6753 48.4121 30.7402 48.6689 30.9309 48.8903C31.1216 49.1117 31.366 49.2139 31.4767 49.1185ZM23.2351 44.8964C22.9648 44.7854 22.7908 44.5858 22.8463 44.4506C22.9018 44.3155 23.166 44.296 23.4363 44.4071C23.7065 44.5181 23.8806 44.7177 23.8251 44.8529C23.7695 44.988 23.5054 45.0075 23.2351 44.8964ZM26.0163 49.7137C25.8007 49.911 25.546 49.9835 25.4473 49.8758C25.3487 49.768 25.4435 49.5207 25.6591 49.3234C25.8747 49.1261 26.1294 49.0536 26.228 49.1614C26.3267 49.2692 26.2319 49.5165 26.0163 49.7137ZM31.2012 42.6509C31.1217 42.5283 30.8585 42.5576 30.6133 42.7165C30.368 42.8753 30.2335 43.1035 30.3129 43.2261C30.3924 43.3488 30.6556 43.3194 30.9009 43.1606C31.1461 43.0017 31.2806 42.7736 31.2012 42.6509ZM28.288 50.3713C28.3004 50.6633 28.192 50.905 28.046 50.9111C27.9001 50.9173 27.7717 50.6856 27.7594 50.3937C27.747 50.1017 27.8554 49.8601 28.0013 49.8539C28.1473 49.8477 28.2757 50.0794 28.288 50.3713ZM28.8097 41.1994C28.6647 41.1813 28.5179 41.4017 28.4817 41.6917C28.4455 41.9817 28.5337 42.2314 28.6787 42.2495C28.8237 42.2676 28.9705 42.0472 29.0067 41.7572C29.0429 41.4672 28.9547 41.2175 28.8097 41.1994ZM27.2422 50.7728C27.1885 51.06 27.0285 51.2711 26.8849 51.2443C26.7413 51.2174 26.6684 50.9628 26.7221 50.6756C26.7758 50.3883 26.9357 50.1772 27.0793 50.2041C27.223 50.2309 27.2959 50.4855 27.2422 50.7728ZM30.01 41.0634C29.8728 41.0132 29.6801 41.1949 29.5796 41.4693C29.4791 41.7436 29.5088 42.0068 29.646 42.0571C29.7832 42.1073 29.9759 41.9256 30.0764 41.6513C30.1769 41.3769 30.1472 41.1137 30.01 41.0634ZM25.5239 43.2182C25.3566 42.9787 25.318 42.7166 25.4378 42.633C25.5576 42.5493 25.7904 42.6757 25.9577 42.9152C26.125 43.1548 26.1636 43.4168 26.0438 43.5005C25.924 43.5842 25.6913 43.4578 25.5239 43.2182ZM25.6793 41.0641C25.5595 41.1478 25.5981 41.4098 25.7654 41.6494C25.9327 41.8889 26.1655 42.0153 26.2853 41.9317C26.405 41.848 26.3665 41.586 26.1992 41.3464C26.0318 41.1068 25.7991 40.9805 25.6793 41.0641ZM26.8843 41.7569C26.8219 41.4714 26.887 41.2147 27.0297 41.1834C27.1725 41.1522 27.3388 41.3583 27.4012 41.6438C27.4637 41.9293 27.3986 42.186 27.2558 42.2172C27.1131 42.2484 26.9468 42.0423 26.8843 41.7569ZM30.2684 50.652C30.4004 50.5894 30.4058 50.3246 30.2804 50.0606C30.1551 49.7966 29.9465 49.6335 29.8145 49.6961C29.6825 49.7588 29.6771 50.0236 29.8025 50.2876C29.9278 50.5515 30.1364 50.7147 30.2684 50.652Z" fill="#894211"/>
</g>
<mask id="mask2_107_377" style="mask-type:alpha" maskUnits="userSpaceOnUse" x="40" y="38" width="20" height="11">
<path d="M49.9862 48.0981C55.2375 48.3974 55.6911 48.4233 59.4946 48.6401C59.7939 43.3888 55.7796 38.8891 50.5283 38.5897C45.2769 38.2903 40.7772 42.3046 40.4778 47.556C44.7565 47.7999 44.7349 47.7987 49.9862 48.0981Z" fill="#B1CF7F"/>
</mask>
<g mask="url(#mask2_107_377)">
<path d="M49.4441 57.6064C54.6954 57.9058 59.1952 53.8915 59.4946 48.6401C59.7939 43.3888 55.7796 38.8891 50.5283 38.5897C45.2769 38.2903 40.7772 42.3046 40.4778 47.556C40.1784 52.8073 44.1928 57.307 49.4441 57.6064Z" fill="#B1CF7F"/>
<circle r="4.2328" transform="matrix(-0.0569186 0.998379 0.998379 0.0569186 49.9862 48.098)" fill="url(#paint6_radial_107_377)"/>
<path fill-rule="evenodd" clip-rule="evenodd" d="M44.716 49.4093C44.6663 49.2719 44.8489 49.08 45.1237 48.9807C45.3986 48.8815 45.6616 48.9124 45.7112 49.0498C45.7609 49.1872 45.5783 49.3791 45.3035 49.4784C45.0287 49.5776 44.7656 49.5467 44.716 49.4093ZM45.4225 45.5887C45.4891 45.4587 45.7539 45.4612 46.0141 45.5943C46.2742 45.7274 46.4311 45.9407 46.3646 46.0708C46.298 46.2009 46.0332 46.1984 45.773 46.0653C45.5129 45.9322 45.356 45.7188 45.4225 45.5887ZM45.5862 47.5746C45.589 47.4285 45.8282 47.3147 46.1204 47.3205C46.4125 47.3262 46.647 47.4493 46.6442 47.5954C46.6413 47.7414 46.4021 47.8552 46.11 47.8495C45.8178 47.8437 45.5833 47.7207 45.5862 47.5746ZM54.1846 49.2664C54.1576 49.41 53.9029 49.4826 53.6157 49.4286C53.3285 49.3745 53.1176 49.2143 53.1446 49.0707C53.1717 48.9271 53.4264 48.8545 53.7135 48.9086C54.0007 48.9626 54.2116 49.1228 54.1846 49.2664ZM53.4346 51.1485C53.6691 51.3229 53.9299 51.3692 54.0171 51.2519C54.1043 51.1347 53.9848 50.8983 53.7503 50.7239C53.5159 50.5496 53.2551 50.5033 53.1679 50.6205C53.0807 50.7378 53.2001 50.9742 53.4346 51.1485ZM51.8499 51.0582C52.0844 51.2326 52.3452 51.2789 52.4324 51.1616C52.5195 51.0444 52.4001 50.808 52.1656 50.6336C51.9311 50.4592 51.6704 50.4129 51.5832 50.5302C51.496 50.6474 51.6154 50.8838 51.8499 51.0582ZM47.0005 45.4154C47.0671 45.2853 47.3319 45.2878 47.592 45.4209C47.8522 45.5541 48.0091 45.7674 47.9425 45.8975C47.876 46.0275 47.6111 46.0251 47.351 45.8919C47.0909 45.7588 46.934 45.5455 47.0005 45.4154ZM53.9595 46.9318C54.2182 46.7959 54.3729 46.5809 54.3049 46.4516C54.237 46.3222 53.9722 46.3275 53.7135 46.4634C53.4548 46.5992 53.3001 46.8142 53.3681 46.9436C53.436 47.0729 53.7008 47.0677 53.9595 46.9318ZM45.9337 50.3705C45.8453 50.2542 45.9622 50.0165 46.1948 49.8397C46.4275 49.6628 46.6877 49.6138 46.7762 49.7301C46.8646 49.8464 46.7477 50.0841 46.515 50.2609C46.2824 50.4377 46.0221 50.4868 45.9337 50.3705ZM54.8735 47.9563C55.161 47.904 55.3728 47.745 55.3466 47.6012C55.3204 47.4575 55.0662 47.3834 54.7787 47.4358C54.4912 47.4882 54.2794 47.6472 54.3056 47.7909C54.3318 47.9347 54.5861 48.0087 54.8735 47.9563ZM51.1505 52.0892C51.3203 52.327 51.5544 52.451 51.6733 52.3661C51.7922 52.2812 51.7509 52.0196 51.5811 51.7817C51.4113 51.5439 51.1773 51.42 51.0584 51.5049C50.9395 51.5898 50.9807 51.8514 51.1505 52.0892ZM47.5494 44.1019C47.6527 43.9984 47.904 44.0819 48.1108 44.2883C48.3177 44.4948 48.4017 44.7459 48.2985 44.8493C48.1953 44.9528 47.9439 44.8693 47.7371 44.6629C47.5303 44.4565 47.4462 44.2053 47.5494 44.1019ZM48.7917 52.2596C48.7189 52.5425 48.7745 52.8015 48.916 52.8379C49.0575 52.8743 49.2313 52.6744 49.3041 52.3915C49.377 52.1085 49.3213 51.8495 49.1798 51.8131C49.0383 51.7767 48.8646 51.9766 48.7917 52.2596ZM50.1905 43.1799C50.3361 43.1924 50.4339 43.4385 50.4089 43.7297C50.3839 44.0208 50.2457 44.2467 50.1001 44.2343C49.9545 44.2218 49.8568 43.9756 49.8817 43.6845C49.9067 43.3933 50.045 43.1674 50.1905 43.1799ZM49.7311 52.8699C49.7238 53.162 49.8363 53.4018 49.9824 53.4054C50.1284 53.4091 50.2527 53.1752 50.26 52.8831C50.2673 52.591 50.1548 52.3512 50.0087 52.3476C49.8627 52.3439 49.7384 52.5778 49.7311 52.8699ZM49.0448 42.7971C49.1895 42.7765 49.3402 42.9943 49.3814 43.2836C49.4226 43.5729 49.3387 43.8241 49.1941 43.8447C49.0494 43.8653 48.8988 43.6475 48.8575 43.3582C48.8163 43.0689 48.9002 42.8177 49.0448 42.7971ZM52.9843 45.8384C53.1978 45.6389 53.29 45.3907 53.1903 45.2839C53.0905 45.1771 52.8366 45.2523 52.6231 45.4518C52.4095 45.6513 52.3173 45.8995 52.417 46.0063C52.5168 46.1131 52.7707 46.0379 52.9843 45.8384ZM53.2806 43.6992C53.3804 43.806 53.2881 44.0543 53.0746 44.2538C52.8611 44.4532 52.6071 44.5284 52.5074 44.4216C52.4076 44.3149 52.4999 44.0666 52.7134 43.8671C52.9269 43.6676 53.1809 43.5925 53.2806 43.6992ZM51.9577 44.1259C52.0782 43.8597 52.068 43.595 51.9349 43.5348C51.8018 43.4745 51.5962 43.6415 51.4757 43.9077C51.3552 44.1739 51.3654 44.4386 51.4986 44.4988C51.6317 44.5591 51.8372 44.3921 51.9577 44.1259ZM46.7963 52.1219C46.6803 52.0331 46.7301 51.773 46.9077 51.5409C47.0852 51.3088 47.3232 51.1927 47.4393 51.2814C47.5553 51.3702 47.5054 51.6303 47.3279 51.8624C47.1504 52.0945 46.9124 52.2107 46.7963 52.1219Z" fill="#894211"/>
</g>
<mask id="mask3_107_377" style="mask-type:alpha" maskUnits="userSpaceOnUse" x="62" y="36" width="20" height="12">
<path d="M72.1902 45.9505C66.9819 46.6847 66.532 46.7481 62.7597 47.2799C62.0255 42.0716 65.6525 37.2541 70.8608 36.5199C76.0692 35.7857 80.8866 39.4127 81.6208 44.6211C77.3771 45.2193 77.3986 45.2163 72.1902 45.9505Z" fill="#B1CF7F"/>
</mask>
<g mask="url(#mask3_107_377)">
<path d="M73.5197 55.381C68.3113 56.1153 63.4939 52.4883 62.7597 47.2799C62.0255 42.0716 65.6525 37.2541 70.8608 36.5199C76.0692 35.7857 80.8866 39.4127 81.6208 44.6211C82.355 49.8294 78.728 54.6468 73.5197 55.381Z" fill="#B1CF7F"/>
<circle cx="72.1901" cy="45.9504" r="4.2328" transform="rotate(81.9759 72.1901 45.9504)" fill="url(#paint7_radial_107_377)"/>
<path fill-rule="evenodd" clip-rule="evenodd" d="M77.551 46.8197C77.5891 46.6787 77.3912 46.5026 77.1091 46.4265C76.827 46.3504 76.5674 46.403 76.5294 46.5441C76.4913 46.6851 76.6892 46.8612 76.9713 46.9373C77.2534 47.0134 77.513 46.9608 77.551 46.8197ZM76.5298 43.071C76.4527 42.9469 76.189 42.9713 75.9408 43.1256C75.6926 43.2798 75.5539 43.5055 75.631 43.6296C75.7082 43.7537 75.9719 43.7292 76.2201 43.575C76.4683 43.4207 76.6069 43.1951 76.5298 43.071ZM76.5316 45.0635C76.5166 44.9182 76.2688 44.8247 75.9781 44.8546C75.6875 44.8846 75.464 45.0267 75.479 45.172C75.4939 45.3174 75.7417 45.4109 76.0324 45.3809C76.3231 45.351 76.5466 45.2089 76.5316 45.0635ZM68.1033 47.4633C68.1422 47.6041 68.402 47.6553 68.6837 47.5776C68.9654 47.4999 69.1623 47.3228 69.1234 47.1819C69.0846 47.0411 68.8247 46.9899 68.543 47.0676C68.2613 47.1453 68.0645 47.3224 68.1033 47.4633ZM69.0069 49.2766C68.7877 49.4699 68.5316 49.5376 68.435 49.428C68.3384 49.3184 68.4378 49.0729 68.657 48.8797C68.8762 48.6865 69.1322 48.6187 69.2288 48.7283C69.3255 48.8379 69.2261 49.0834 69.0069 49.2766ZM70.5787 49.055C70.3595 49.2483 70.1034 49.3161 70.0068 49.2065C69.9102 49.0969 70.0096 48.8514 70.2288 48.6581C70.448 48.4649 70.704 48.3971 70.8006 48.5067C70.8973 48.6163 70.7979 48.8618 70.5787 49.055ZM74.943 43.0292C74.8659 42.9051 74.6022 42.9296 74.354 43.0838C74.1058 43.2381 73.9671 43.4637 74.0442 43.5878C74.1214 43.7119 74.3851 43.6874 74.6333 43.5332C74.8815 43.3789 75.0201 43.1533 74.943 43.0292ZM68.1337 45.118C67.8646 45.0041 67.6926 44.8027 67.7496 44.6681C67.8066 44.5336 68.0709 44.5168 68.34 44.6308C68.6091 44.7447 68.781 44.9461 68.7241 45.0807C68.6671 45.2152 68.4028 45.2319 68.1337 45.118ZM76.4174 47.8786C76.4958 47.7554 76.3596 47.5282 76.1131 47.3713C75.8666 47.2144 75.6031 47.1871 75.5247 47.3104C75.4462 47.4336 75.5825 47.6607 75.829 47.8177C76.0755 47.9746 76.3389 48.0019 76.4174 47.8786ZM67.3079 46.2149C67.0171 46.1865 66.7928 46.0457 66.807 45.9003C66.8212 45.7548 67.0684 45.6599 67.3593 45.6883C67.6501 45.7166 67.8744 45.8575 67.8602 46.0029C67.846 46.1483 67.5988 46.2432 67.3079 46.2149ZM71.3611 50.0245C71.2117 50.2756 70.9887 50.4185 70.8632 50.3438C70.7376 50.2691 70.757 50.0049 70.9065 49.7538C71.056 49.5027 71.2789 49.3598 71.4044 49.4345C71.53 49.5092 71.5106 49.7734 71.3611 50.0245ZM74.2868 41.7658C74.1754 41.6713 73.9319 41.7753 73.7429 41.9982C73.5539 42.2211 73.491 42.4784 73.6024 42.5729C73.7139 42.6673 73.9574 42.5633 74.1464 42.3404C74.3354 42.1175 74.3983 41.8603 74.2868 41.7658ZM73.7259 49.9984C73.822 50.2744 73.788 50.5371 73.65 50.5851C73.512 50.6331 73.3223 50.4484 73.2262 50.1724C73.1301 49.8964 73.1641 49.6338 73.3021 49.5857C73.4401 49.5377 73.6298 49.7225 73.7259 49.9984ZM71.5783 41.0662C71.4343 41.0908 71.3573 41.3442 71.4063 41.6322C71.4554 41.9203 71.6119 42.1339 71.7559 42.1094C71.9 42.0849 71.977 41.8315 71.9279 41.5434C71.8789 41.2553 71.7223 41.0417 71.5783 41.0662ZM72.8404 50.6846C72.8719 50.9751 72.7797 51.2234 72.6345 51.2392C72.4892 51.2549 72.3459 51.0322 72.3144 50.7417C72.2829 50.4512 72.3751 50.2029 72.5204 50.1871C72.6657 50.1714 72.8089 50.3941 72.8404 50.6846ZM72.6883 40.5896C72.5424 40.5811 72.4104 40.8106 72.3933 41.1024C72.3763 41.3941 72.4807 41.6375 72.6265 41.646C72.7724 41.6545 72.9045 41.4249 72.9215 41.1332C72.9386 40.8415 72.8341 40.5981 72.6883 40.5896ZM69.0149 43.9474C68.7856 43.7664 68.6731 43.5266 68.7636 43.4119C68.8541 43.2973 69.1135 43.3511 69.3428 43.5322C69.5722 43.7132 69.6847 43.953 69.5942 44.0677C69.5036 44.1823 69.2443 44.1285 69.0149 43.9474ZM68.542 41.8403C68.4515 41.9549 68.564 42.1947 68.7934 42.3758C69.0227 42.5568 69.282 42.6107 69.3726 42.496C69.4631 42.3813 69.3506 42.1416 69.1212 41.9605C68.8919 41.7794 68.6326 41.7256 68.542 41.8403ZM69.8957 42.1556C69.7535 41.9004 69.7417 41.6358 69.8694 41.5647C69.997 41.4936 70.2158 41.6429 70.3579 41.8982C70.5001 42.1535 70.5119 42.4181 70.3842 42.4892C70.2566 42.5603 70.0379 42.4109 69.8957 42.1556ZM75.7031 49.6957C75.8114 49.5976 75.7401 49.3425 75.5439 49.1259C75.3477 48.9094 75.1009 48.8133 74.9926 48.9114C74.8843 49.0095 74.9556 49.2646 75.1518 49.4812C75.348 49.6977 75.5948 49.7938 75.7031 49.6957Z" fill="#894211"/>
</g>
<path fill-rule="evenodd" clip-rule="evenodd" d="M78.3609 62.8562C79.7837 62.6196 80.969 61.6354 81.463 60.2803L86.2917 47.0332C87.1485 44.6828 86.1311 42.1247 84.0353 40.9559C83.8067 40.9222 83.5728 40.9047 83.3349 40.9047C80.705 40.9047 78.573 43.0367 78.573 45.6666V48.5238C78.573 45.8938 76.441 43.7619 73.8111 43.7619C71.1811 43.7619 69.0492 45.8938 69.0492 48.5238V50.4285C69.0492 47.7986 66.9172 45.6666 64.2873 45.6666C61.6573 45.6666 59.5254 47.7986 59.5254 50.4285V51.3748C59.5221 48.7477 57.3913 46.619 54.7635 46.619C52.1335 46.619 50.0015 48.751 50.0015 51.3809C50.0015 48.751 47.8696 46.619 45.2396 46.619C42.6097 46.619 40.4777 48.751 40.4777 51.3809L40.4777 50.4285C40.4777 47.7986 38.3458 45.6666 35.7158 45.6666C33.0859 45.6666 30.9539 47.7986 30.9539 50.4285V48.5238C30.9539 45.8938 28.8219 43.7619 26.192 43.7619C23.5621 43.7619 21.4301 45.8938 21.4301 48.5238V45.6666C21.4301 43.0367 19.2981 40.9047 16.6682 40.9047C16.4303 40.9047 16.1964 40.9222 15.9678 40.9559C13.872 42.1247 12.8546 44.6828 13.7114 47.0332L18.5401 60.2803C19.0341 61.6354 20.2193 62.6196 21.6422 62.8562L33.6001 64.8444C44.4599 66.65 55.5432 66.65 66.4029 64.8444L78.3609 62.8562Z" fill="url(#paint8_radial_107_377)"/>
<path d="M20.72 58.6357C25.0031 61.5882 25.47 61.9101 28.4751 63.9816C25.5227 68.2647 19.6571 69.3433 15.3741 66.3908C11.0911 63.4383 10.0125 57.5728 12.965 53.2898C17.4668 56.3931 16.437 55.6832 20.72 58.6357Z" fill="#FFDE6A"/>
<path fill-rule="evenodd" clip-rule="evenodd" d="M12.2171 59.6914C12.1745 57.7663 12.7441 55.7514 13.9685 53.9753L20.7212 58.6303L27.474 63.2852C26.2469 65.0653 24.5618 66.316 22.7429 66.9598C20.48 67.2841 18.0938 66.7904 16.0632 65.3906C14.0282 63.9878 12.7166 61.9273 12.2171 59.6914Z" fill="#FFFCE4"/>
<path fill-rule="evenodd" clip-rule="evenodd" d="M13.856 55.4898C14.0461 55.0761 14.5653 54.9659 14.9402 55.2243L18.6428 57.7767C19.1434 58.1217 19.0827 58.8793 18.5336 59.1403L14.4727 61.0702C14.061 61.2659 13.5656 61.0737 13.4444 60.6342C12.9829 58.9595 13.1 57.1354 13.856 55.4898ZM14.5633 62.9933C14.2996 62.6221 14.4637 62.1174 14.875 61.9219L18.8368 60.0391C19.3859 59.7781 20.0116 60.2094 19.9631 60.8155L19.6097 65.2262C19.573 65.6841 19.153 66.0178 18.71 65.896C17.9171 65.678 17.1466 65.3255 16.4313 64.8324C15.6846 64.3176 15.0596 63.6922 14.5633 62.9933ZM20.5461 65.3329C20.51 65.7833 20.8595 66.1761 21.3099 66.1398C23.0777 65.9971 24.7836 65.2343 26.0788 63.9155C26.3978 63.5907 26.3162 63.0662 25.9413 62.8078L22.1464 60.1919C21.6459 59.8468 20.9595 60.173 20.9109 60.7791L20.5461 65.3329Z" fill="url(#paint9_radial_107_377)"/>
</g>
<defs>
<radialGradient id="paint0_radial_107_377" cx="0" cy="0" r="1" gradientUnits="userSpaceOnUse" gradientTransform="translate(49.5238 60.9048) rotate(88.4089) scale(17.1495 51.4484)">
<stop offset="0.661458" stop-color="#FFF6D8"/>
<stop offset="1" stop-color="#D5E9EF"/>
</radialGradient>
<radialGradient id="paint1_radial_107_377" cx="0" cy="0" r="1" gradientUnits="userSpaceOnUse" gradientTransform="translate(49.6634 29.0991) rotate(88.9193) scale(17.9327 55.8061)">
<stop offset="0.0989583" stop-color="#FFF5F0"/>
<stop offset="0.213542" stop-color="#FAE3D7"/>
<stop offset="0.651042" stop-color="#FFF5F0"/>
<stop offset="0.8125" stop-color="#FAE3D7"/>
</radialGradient>
<radialGradient id="paint2_radial_107_377" cx="0" cy="0" r="1" gradientUnits="userSpaceOnUse" gradientTransform="translate(50.0015 23.4445) rotate(89.9997) scale(23.4935 70.5032)">
<stop stop-color="#FFF5F0"/>
<stop offset="0.273778" stop-color="#FFF5F0"/>
<stop offset="0.567708" stop-color="#FAE3D7"/>
<stop offset="0.901042" stop-color="#FFF5F0"/>
<stop offset="1" stop-color="#FAE3D7"/>
</radialGradient>
<radialGradient id="paint3_radial_107_377" cx="0" cy="0" r="1" gradientUnits="userSpaceOnUse" gradientTransform="translate(37.5176 42.0572) rotate(8.35862) scale(6.76438 6.85714)">
<stop stop-color="#FCE2AF"/>
<stop offset="0.682292" stop-color="#F69D5C"/>
</radialGradient>
<radialGradient id="paint4_radial_107_377" cx="0" cy="0" r="1" gradientUnits="userSpaceOnUse" gradientTransform="translate(59.8103 43.1086) rotate(-9.11898) scale(6.76438 6.85714)">
<stop stop-color="#FCE2AF"/>
<stop offset="0.682292" stop-color="#F69D5C"/>
</radialGradient>
<radialGradient id="paint5_radial_107_377" cx="0" cy="0" r="1" gradientUnits="userSpaceOnUse" gradientTransform="translate(27.986 46.0523) rotate(90) scale(4.2328)">
<stop offset="0.890625" stop-color="#DEF3BB"/>
<stop offset="1" stop-color="#B1CF7F"/>
</radialGradient>
<radialGradient id="paint6_radial_107_377" cx="0" cy="0" r="1" gradientUnits="userSpaceOnUse" gradientTransform="translate(4.2328 4.2328) rotate(90) scale(4.2328)">
<stop offset="0.890625" stop-color="#DEF3BB"/>
<stop offset="1" stop-color="#B1CF7F"/>
</radialGradient>
<radialGradient id="paint7_radial_107_377" cx="0" cy="0" r="1" gradientUnits="userSpaceOnUse" gradientTransform="translate(72.1901 45.9504) rotate(90) scale(4.2328)">
<stop offset="0.890625" stop-color="#DEF3BB"/>
<stop offset="1" stop-color="#B1CF7F"/>
</radialGradient>
<radialGradient id="paint8_radial_107_377" cx="0" cy="0" r="1" gradientUnits="userSpaceOnUse" gradientTransform="translate(50.0015 45.6544) rotate(89.9999) scale(20.5442 59.4452)">
<stop offset="0.51826" stop-color="#F7DBB3"/>
<stop offset="1" stop-color="#E0C192"/>
</radialGradient>
<radialGradient id="paint9_radial_107_377" cx="0" cy="0" r="1" gradientUnits="userSpaceOnUse" gradientTransform="translate(20.708 58.6283) rotate(34.5803) scale(7.43338 7.53532)">
<stop stop-color="#FEFBB1"/>
<stop offset="0.682292" stop-color="#FFDE6A"/>
</radialGradient>
<clipPath id="clip0_107_377">
<rect width="100" height="78" fill="white"/>
</clipPath>
</defs>
</svg>
