<svg width="62" height="95" viewBox="0 0 62 95" fill="none" xmlns="http://www.w3.org/2000/svg">
<rect x="23.302" y="22.4057" width="34.0566" height="65.4245" rx="11" fill="#3A6130"/>
<rect x="34.9526" width="10.7547" height="28.6792" rx="5" fill="#3A6130"/>
<path d="M34.9526 2C34.9526 0.895429 35.8481 0 36.9526 0H43.7074C44.8119 0 45.7074 0.895431 45.7074 2V5.37736H34.9526V2Z" fill="#C79152"/>
<rect x="23.302" y="34.9529" width="34.0566" height="40.3302" fill="#F1DDB6"/>
<path d="M51.1807 35.3782C51.7097 35.3382 52.3502 38.1038 52.4415 39.31C52.5327 40.5163 52.1778 41.5266 51.6488 41.5666C51.1198 41.6067 50.6169 40.6612 50.5257 39.455C50.4344 38.2487 50.6516 35.4182 51.1807 35.3782Z" fill="#A9CCA1"/>
<path d="M55.0329 39.6196C55.1321 40.1949 53.4967 40.957 52.757 41.0845C52.0173 41.212 51.3373 40.849 51.2381 40.2737C51.139 39.6984 51.6582 39.1287 52.3979 39.0012C53.1376 38.8737 54.9337 39.0443 55.0329 39.6196Z" fill="#A9CCA1"/>
<path d="M58.0525 48.3408C56.5892 52.8805 51.7117 55.8845 47.3433 54.4764C42.9749 53.0683 40.7698 47.7814 42.2332 43.2416C43.5134 39.2697 47.7067 36.8321 50.5958 39.4067C51.3702 40.0967 52.4641 40.4113 53.4983 40.3321C57.0204 40.0623 59.3159 44.4215 58.0525 48.3408Z" fill="#FF5454"/>
<path d="M14.3674 8.30607C15.8676 8.43699 17.3986 9.42006 18.6622 11.0638C29.8327 25.5946 34.8496 47.7503 31.0285 65.6758C30.5962 67.7035 29.638 69.2502 28.3406 70.0146L26.1104 71.3286C24.3752 72.3509 22.1113 70.4564 21.4201 67.4036L9.24671 13.6437C8.55542 10.5908 9.78234 7.90591 11.7887 8.08101L14.3674 8.30607Z" fill="#AB8B4D"/>
<path d="M14.6533 9.41588C16.1535 9.54681 17.3986 9.42006 18.6622 11.0638C29.8327 25.5946 34.8496 47.7503 31.0285 65.6758C30.5962 67.7035 29.638 69.2502 28.3406 70.0146L26.1104 71.3286C24.3752 72.3509 23.628 70.128 22.9367 67.0752L10.7864 13.4174C10.5722 12.4713 10.4045 11.7308 10.3202 11.1492C10.1053 9.66761 12.5152 9.2148 14.6533 9.41588Z" fill="#CB9F6C"/>
<path d="M30.8877 39.0776C28.3911 39.6364 26.1724 39.2082 25.9253 38.1172C25.6783 37.0262 27.4961 35.6841 29.9899 35.1128C30.3246 36.4257 30.6241 37.7486 30.8877 39.0776Z" fill="#C79152"/>
<path d="M31.5825 43.1707C31.1691 43.2108 30.7382 43.2798 30.2988 43.3792C27.7913 43.947 25.9596 45.2949 26.2076 46.3898C26.4555 47.4846 28.6892 47.9119 31.1966 47.3442C31.4847 47.2789 31.764 47.2034 32.0321 47.1191C31.9185 45.8033 31.7683 44.486 31.5825 43.1707Z" fill="#C79152"/>
<path d="M32.2726 51.4125C31.7383 51.4407 31.1671 51.5191 30.581 51.6518C28.0736 52.2196 26.2419 53.5674 26.4898 54.6623C26.7377 55.7572 28.9714 56.1845 31.4789 55.6167C31.7459 55.5562 32.0053 55.4869 32.2553 55.41C32.3009 54.086 32.3064 52.7522 32.2726 51.4125Z" fill="#C79152"/>
<path d="M31.958 59.736C31.6029 59.7775 31.2361 59.8399 30.8633 59.9243C28.3558 60.4921 26.5241 61.8399 26.7721 62.9348C27.0067 63.9709 29.0195 64.4092 31.3598 63.9721C31.6101 62.5809 31.8091 61.1671 31.958 59.736Z" fill="#C79152"/>
<path d="M24.1883 19.7845C23.9295 19.8228 23.6656 19.8719 23.3985 19.9324C20.8911 20.5002 19.0594 21.848 19.3073 22.9429C19.5552 24.0378 21.7889 24.4651 24.2964 23.8973C24.8824 23.7646 25.4316 23.5893 25.9259 23.3845C25.3793 22.161 24.7998 20.9596 24.1883 19.7845Z" fill="#C79152"/>
<path d="M27.5585 27.3627C27.2802 27.4022 26.9957 27.4543 26.7075 27.5196C24.2001 28.0873 22.3684 29.4352 22.6163 30.5301C22.8642 31.625 25.0979 32.0523 27.6054 31.4845C28.0447 31.385 28.4633 31.2616 28.8536 31.1197C28.4548 29.8527 28.0228 28.5991 27.5585 27.3627Z" fill="#C79152"/>
<path d="M22.0564 16.0086C21.3055 14.7812 20.5168 13.591 19.6916 12.4433C17.3914 13.0571 15.7637 14.3197 15.9983 15.3558C16.2462 16.4507 18.4799 16.878 20.9873 16.3102C21.3602 16.2258 21.7181 16.1241 22.0564 16.0086Z" fill="#C79152"/>
<path d="M25.9561 37.5892C26.6508 38.327 28.5583 38.5575 30.6632 38.0864C30.5644 37.588 30.4605 37.0904 30.3516 36.5939C30.236 36.099 30.1154 35.6052 29.9899 35.1128C27.8873 35.5944 26.2652 36.6241 25.9561 37.5892Z" fill="#E0CA92"/>
<path d="M31.4924 43.1798C31.1067 43.221 30.7064 43.287 30.2988 43.3792C28.1833 43.8583 26.5488 44.8926 26.2384 45.8618C26.936 46.6027 28.8566 46.832 30.9722 46.3529C31.2603 46.2877 31.5395 46.2121 31.8077 46.1279C31.7228 45.1456 31.6176 44.1624 31.4924 43.1798Z" fill="#E0CA92"/>
<path d="M32.0661 51.4258C31.5921 51.4616 31.0923 51.536 30.581 51.6518C28.4655 52.1308 26.831 53.1651 26.5206 54.1343C27.2182 54.8752 29.1389 55.1045 31.2544 54.6255C31.5215 54.565 31.7808 54.4957 32.0309 54.4188C32.0651 53.4261 32.0767 52.4279 32.0661 51.4258Z" fill="#E0CA92"/>
<path d="M31.6165 59.7818C31.3694 59.8193 31.1178 59.8667 30.8633 59.9243C28.7478 60.4033 27.1133 61.4377 26.8029 62.4068C27.4561 63.1006 29.1816 63.3458 31.1353 62.9809C31.325 61.9268 31.4852 60.8596 31.6165 59.7818Z" fill="#E0CA92"/>
<path d="M25.5094 22.4703C25.0873 21.5614 24.6468 20.6656 24.1883 19.7845C23.9295 19.8228 23.6656 19.8719 23.3985 19.9324C21.283 20.4114 19.6485 21.4458 19.3381 22.4149C20.0357 23.1559 21.9564 23.3851 24.0719 22.9061C24.5831 22.7903 25.0663 22.6421 25.5094 22.4703Z" fill="#E0CA92"/>
<path d="M28.544 30.159C28.2337 29.2184 27.9051 28.2858 27.5585 27.3627C27.2802 27.4022 26.9957 27.4543 26.7075 27.5196C24.592 27.9986 22.9575 29.0329 22.6471 30.0021C23.3447 30.743 25.2654 30.9723 27.3809 30.4932C27.7885 30.401 28.1782 30.2881 28.544 30.159Z" fill="#E0CA92"/>
<path d="M21.504 15.1231C20.9212 14.207 20.3169 13.3129 19.6916 12.4433C17.7713 12.9557 16.3197 13.9203 16.0291 14.8278C16.7267 15.5687 18.6474 15.798 20.7629 15.3189C21.0174 15.2613 21.2649 15.1957 21.504 15.1231Z" fill="#E0CA92"/>
<path d="M6.26354 18.1051C7.81829 18.1567 9.55109 19.2181 11.1244 21.0824C25.0329 37.5639 33.9681 63.5256 33.1489 85.0758C33.0562 87.5136 32.3437 89.4166 31.15 90.4141L29.0982 92.1288C27.5019 93.4628 24.8638 91.37 23.6326 87.7927L1.95173 24.7977C0.720546 21.2205 1.51181 17.9473 3.59109 18.0164L6.26354 18.1051Z" fill="#FCCA6B"/>
<path d="M6.74647 19.4032C8.30122 19.4548 9.55109 19.2181 11.1244 21.0824C25.0329 37.5639 33.9681 63.5256 33.1489 85.0758C33.0562 87.5136 32.3437 89.4166 31.15 90.4141L29.0982 92.1288C27.5019 93.4628 26.3563 90.875 25.1251 87.2977L3.48541 24.4224C3.10386 23.3138 2.80525 22.4462 2.61905 21.7614C2.14473 20.0169 4.52816 19.3124 6.74647 19.4032Z" fill="#FFD88D"/>
<path d="M28.4298 53.5015C25.976 54.3377 23.6363 53.9829 23.1963 52.7045C22.7563 51.4261 24.3821 49.7065 26.8308 48.8555C27.3985 50.3914 27.932 51.9415 28.4298 53.5015Z" fill="#FFE99B"/>
<path d="M29.8435 58.3137C29.4282 58.3899 28.9999 58.5016 28.5683 58.6502C26.105 59.498 24.466 61.2253 24.9076 62.5083C25.3491 63.7912 27.704 64.144 30.1673 63.2962C30.4504 63.1988 30.7225 63.0897 30.9819 62.9711C30.6395 61.4166 30.2595 59.8626 29.8435 58.3137Z" fill="#FFE99B"/>
<path d="M31.966 68.0528C31.4252 68.1232 30.8553 68.2558 30.2796 68.4539C27.8163 69.3017 26.1773 71.029 26.6189 72.312C27.0604 73.595 29.4153 73.9477 31.8786 73.0999C32.1409 73.0097 32.3939 72.9094 32.6361 72.8007C32.4549 71.2255 32.231 69.6412 31.966 68.0528Z" fill="#FFE99B"/>
<path d="M33.0765 77.9582C32.721 78.0321 32.3571 78.1316 31.9909 78.2577C29.5276 79.1055 27.8886 80.8328 28.3302 82.1157C28.748 83.3298 30.8792 83.7109 33.1943 83.0299C33.2106 81.3606 33.1706 79.6679 33.0765 77.9582Z" fill="#FFE99B"/>
<path d="M18.2686 31.0554C18.0109 31.1188 17.7498 31.1954 17.4875 31.2857C15.0241 32.1335 13.3852 33.8608 13.8267 35.1438C14.2683 36.4268 16.6232 36.7795 19.0865 35.9317C19.6622 35.7336 20.193 35.4874 20.6626 35.21C19.8939 33.7949 19.0953 32.4085 18.2686 31.0554Z" fill="#FFE99B"/>
<path d="M23.0144 39.821C22.7369 39.8871 22.4553 39.9687 22.1722 40.0661C19.7089 40.9139 18.07 42.6412 18.5115 43.9242C18.9531 45.2071 21.3079 45.5599 23.7712 44.7121C24.2029 44.5636 24.6092 44.388 24.9834 44.1926C24.3581 42.7156 23.7012 41.257 23.0144 39.821Z" fill="#FFE99B"/>
<path d="M15.4417 26.7192C14.4636 25.3138 13.4534 23.9551 12.4132 22.6493C10.1694 23.5374 8.72413 25.1494 9.14198 26.3634C9.58353 27.6464 11.9384 27.9992 14.4017 27.1514C14.768 27.0253 15.116 26.8798 15.4417 26.7192Z" fill="#FFE99B"/>
<path d="M23.1369 52.0754C23.9734 52.9034 25.9612 53.0451 28.03 52.3399C27.8433 51.7549 27.6516 51.1713 27.455 50.5893C27.2518 50.0095 27.0437 49.4315 26.8308 48.8555C24.7662 49.573 23.2866 50.908 23.1369 52.0754Z" fill="#FFF6D8"/>
<path d="M29.7531 58.3308C29.3662 58.4063 28.9687 58.5124 28.5683 58.6502C26.49 59.3655 24.9985 60.7068 24.8482 61.8791C25.6882 62.7107 27.6893 62.85 29.7675 62.1347C30.0506 62.0373 30.3228 61.9282 30.5822 61.8096C30.3266 60.6491 30.05 59.4888 29.7531 58.3308Z" fill="#FFF6D8"/>
<path d="M31.7575 68.0828C31.2795 68.1581 30.7818 68.2811 30.2796 68.4539C28.2013 69.1692 26.7098 70.5105 26.5595 71.6829C27.3995 72.5144 29.4006 72.6537 31.4788 71.9384C31.7412 71.8482 31.9942 71.7479 32.2363 71.6392C32.1005 70.4581 31.9406 69.272 31.7575 68.0828Z" fill="#FFF6D8"/>
<path d="M32.7356 78.0364C32.4897 78.098 32.2409 78.1716 31.9909 78.2577C29.9126 78.9729 28.4211 80.3143 28.2708 81.4866C29.0573 82.2652 30.8618 82.4369 32.7945 81.8684C32.8069 80.6035 32.7869 79.3253 32.7356 78.0364Z" fill="#FFF6D8"/>
<path d="M20.08 34.1532C19.4925 33.1032 18.8885 32.0699 18.2686 31.0554C18.0109 31.1188 17.7498 31.1954 17.4875 31.2857C15.4092 32.001 13.9177 33.3423 13.7674 34.5147C14.6073 35.3462 16.6084 35.4855 18.6867 34.7702C19.189 34.5974 19.6569 34.388 20.08 34.1532Z" fill="#FFF6D8"/>
<path d="M24.5019 43.0732C24.0232 41.9777 23.5271 40.893 23.0144 39.821C22.7369 39.8871 22.4553 39.9687 22.1722 40.0661C20.0939 40.7814 18.6025 42.1227 18.4522 43.295C19.2921 44.1266 21.2932 44.2659 23.3715 43.5506C23.7719 43.4128 24.1505 43.2518 24.5019 43.0732Z" fill="#FFF6D8"/>
<path d="M14.7251 25.706C13.9723 24.6585 13.2014 23.6387 12.4132 22.6493C10.54 23.3907 9.22335 24.6366 9.08262 25.7343C9.92258 26.5658 11.9237 26.7052 14.0019 25.9899C14.2519 25.9038 14.4934 25.8087 14.7251 25.706Z" fill="#FFF6D8"/>
<path d="M34.565 41.0149C34.0563 41.4046 34.5579 42.9136 34.952 43.428C35.346 43.9424 36.0778 44.0435 36.5865 43.6539C37.0952 43.2642 37.1881 42.5313 36.7941 42.0169C36.4 41.5025 35.0737 40.6252 34.565 41.0149Z" fill="#77C065"/>
<path d="M44.4008 45.7613C45.2715 49.2589 42.9496 53.2286 39.1047 54.1857C35.2599 55.1428 31.3479 52.7249 30.4773 49.2273C29.7218 46.1924 31.7403 42.9009 34.9447 43.2457C35.8769 43.346 36.8517 43.072 37.6427 42.5685C40.1341 40.9826 43.6559 42.7689 44.4008 45.7613Z" fill="#FF7E20"/>
<path d="M9.7251 47.83L13.6559 50.9747L18.3729 47.83L23.0899 50.9747L27.8069 47.83L32.5239 50.9747L37.2409 47.83L41.9578 50.9747L45.8887 47.83V94.9999H16.0144C12.5409 94.9999 9.7251 92.1841 9.7251 88.7106V47.83Z" fill="#F0AE62"/>
<path d="M58.4673 47.83L55.1859 50.9747L51.9045 47.83L48.6231 50.9747L45.8887 47.83V94.9999H52.178C55.6515 94.9999 58.4673 92.1841 58.4673 88.7106V47.83Z" fill="#E6994E"/>
</svg>
