<svg width="54" height="113" viewBox="0 0 54 113" fill="none" xmlns="http://www.w3.org/2000/svg">
<path d="M48 108.729C48 110.939 38.3741 112.729 26.5 112.729C14.6259 112.729 5 110.939 5 108.729C5 106.52 14.6259 104.729 26.5 104.729C38.3741 104.729 48 106.52 48 108.729Z" fill="#EEF7FF"/>
<rect x="5" y="105.729" width="43" height="3" fill="#EEF7FF"/>
<path d="M48 105.729C48 107.939 38.3741 109.729 26.5 109.729C14.6259 109.729 5 107.939 5 105.729C5 103.52 14.6259 101.729 26.5 101.729C38.3741 101.729 48 103.52 48 105.729Z" fill="url(#paint0_radial_35_1875)"/>
<path d="M34.5021 104.821C34.5582 104.971 34.4978 105.139 34.3594 105.218V105.218C29.4857 108.016 23.4994 108.041 18.6016 105.286L18.4972 105.227C18.3491 105.144 18.2885 104.962 18.3575 104.806L19.3115 102.656L20.4647 99.7753C20.7646 99.0265 20.5478 98.1697 19.9279 97.6536L19.7649 97.5179C17.674 95.7769 17.3798 92.6597 19.0803 90.5357V90.5357C19.2316 90.3467 19.4243 90.1917 19.6419 90.0852V90.0852C23.9687 87.9679 29.031 87.968 33.3579 90.0853V90.0853C33.5754 90.1917 33.7681 90.3467 33.9195 90.5357V90.5357C35.6201 92.6596 35.3259 95.777 33.2349 97.518L33.072 97.6537C32.4521 98.1698 32.2354 99.0265 32.5351 99.7753L33.6882 102.656L34.5021 104.821Z" fill="#EEF7FF"/>
<path d="M3.07332 25.5261C2.58677 23.5215 3.95558 21.5404 6.00272 21.2865C19.694 19.5881 33.5416 19.5713 47.237 21.2364L47.5025 21.2686C49.6371 21.5282 51.0337 23.635 50.4414 25.7022L48.3222 33.0988L44.5508 47.6807C43.7754 50.6789 44.4328 53.8672 46.3311 56.3142L47.3563 57.6357C54.0423 66.2543 55.1146 77.9711 50.1041 87.6601L48.7036 90.3683C48.4525 90.8538 48.0961 91.2771 47.6603 91.6072C35.2153 101.035 18.0182 101.035 5.57313 91.6072C5.13744 91.2771 4.78103 90.8539 4.52993 90.3683L3.12946 87.6604C-1.88156 77.9713 -0.809415 66.254 5.8768 57.6352L6.90178 56.3139C8.79992 53.8672 9.45739 50.679 8.68211 47.6809L4.91134 33.0988L3.07332 25.5261Z" fill="url(#paint1_linear_35_1875)"/>
<path d="M5.71346 28.057C5.28388 26.2226 6.49242 24.4097 8.29985 24.1773C20.388 22.6231 32.6142 22.6077 44.706 24.1314L44.9404 24.161C46.8251 24.3985 48.0581 26.3264 47.5352 28.2182L45.6641 34.987L42.3343 48.3311C41.6497 51.0749 42.2302 53.9926 43.9061 56.2318L44.8113 57.4412C50.7144 65.3282 51.6612 76.0505 47.2374 84.9171V84.9171C45.8111 87.3048 44.0044 89.4917 41.6034 90.8953C32.241 96.3683 20.759 96.3682 11.3967 90.8951C8.9958 89.4916 7.18923 87.3049 5.76303 84.9174V84.9174C1.33876 76.0507 2.28536 65.3279 8.18868 57.4407L9.09364 56.2316C10.7695 53.9925 11.35 51.075 10.6655 48.3313L7.33626 34.987L5.71346 28.057Z" fill="url(#paint2_radial_35_1875)"/>
<rect x="11.5503" y="30.4009" width="10.0775" height="10.0775" rx="2" transform="rotate(-25.8937 11.5503 30.4009)" fill="#FFFFFB" fill-opacity="0.7"/>
<rect x="33" y="27.5817" width="10.0775" height="10.0775" rx="2" transform="rotate(-3.30875 33 27.5817)" fill="#FFFFFB" fill-opacity="0.7"/>
<rect x="34.3668" y="49" width="10.0775" height="10.0775" rx="2" transform="rotate(32.178 34.3668 49)" fill="#FFFFFB" fill-opacity="0.7"/>
<rect width="3.10077" height="80.1152" transform="matrix(-0.993425 -0.114487 -0.114487 0.993425 38.2526 0.35498)" fill="#FFE8E8"/>
<path fill-rule="evenodd" clip-rule="evenodd" d="M36.8781 12.2815L37.3306 8.35465L34.3687 6.97164L33.9162 10.8985L36.8781 12.2815ZM35.997 19.9267L36.4496 15.9998L33.4877 14.6168L33.0351 18.5437L35.997 19.9267ZM35.116 27.5715L35.5686 23.6447L32.6066 22.2617L32.1541 26.1885L35.116 27.5715ZM34.235 35.2166L34.6875 31.2897L31.7256 29.9067L31.273 33.8336L34.235 35.2166ZM33.3539 42.8616L33.8065 38.9347L30.8446 37.5517L30.392 41.4785L33.3539 42.8616ZM32.4729 50.5066L32.9254 46.5797L29.9635 45.1967L29.511 49.1236L32.4729 50.5066ZM31.5918 58.1516L32.0444 54.2247L29.0825 52.8417L28.6299 56.7685L31.5918 58.1516ZM30.7108 65.7965L31.1633 61.8697L28.2014 60.4867L27.7489 64.4135L30.7108 65.7965ZM29.8297 73.4416L30.2823 69.5147L27.3204 68.1317L26.8678 72.0586L29.8297 73.4416ZM26.4394 75.7766L26.0001 79.5884L29.0804 79.9434L29.4013 77.1596L26.4394 75.7766ZM34.7972 3.25358L37.7591 4.63659L38.2117 0.709716L37.1896 0.232482L35.1722 -1.67257e-05L34.7972 3.25358Z" fill="#F76464"/>
<rect x="13.8837" y="50.515" width="10.0775" height="10.0775" rx="2" transform="rotate(19.5289 13.8837 50.515)" fill="#FFFFFB" fill-opacity="0.7"/>
<rect x="31.421" y="36.0775" width="10.0775" height="10.0775" rx="2" transform="rotate(32.178 31.421 36.0775)" fill="#FFFFFB" fill-opacity="0.7"/>
<rect x="22.7485" y="30" width="10.0775" height="10.0775" rx="2" transform="rotate(4.2599 22.7485 30)" fill="#FFFFFB" fill-opacity="0.7"/>
<rect x="12.7485" y="38" width="10.0775" height="10.0775" rx="2" transform="rotate(4.2599 12.7485 38)" fill="#FFFFFB" fill-opacity="0.7"/>
<rect x="20" y="47.4933" width="10.0775" height="10.0775" rx="2" transform="rotate(-14.3244 20 47.4933)" fill="#FFFFFB" fill-opacity="0.7"/>
<g filter="url(#filter0_b_35_1875)">
<path d="M3.07332 25.5261C2.58677 23.5215 3.95558 21.5404 6.00272 21.2865C19.694 19.5881 33.5416 19.5713 47.237 21.2364L47.5025 21.2686C49.6371 21.5282 51.0337 23.635 50.4414 25.7022L48.3222 33.0988L44.5508 47.6807C43.7754 50.6789 44.4328 53.8672 46.3311 56.3142L47.3563 57.6357C54.0423 66.2543 55.1146 77.9711 50.1041 87.6601L48.7036 90.3683C48.4525 90.8538 48.0961 91.2771 47.6603 91.6072C35.2153 101.035 18.0182 101.035 5.57313 91.6072C5.13744 91.2771 4.78103 90.8539 4.52993 90.3683L3.12946 87.6604C-1.88156 77.9713 -0.809415 66.254 5.8768 57.6352L6.90178 56.3139C8.79992 53.8672 9.45739 50.679 8.68211 47.6809L4.91134 33.0988L3.07332 25.5261Z" fill="url(#paint3_linear_35_1875)" fill-opacity="0.15"/>
</g>
<defs>
<filter id="filter0_b_35_1875" x="-0.3" y="19.7" width="53.833" height="79.2782" filterUnits="userSpaceOnUse" color-interpolation-filters="sRGB">
<feFlood flood-opacity="0" result="BackgroundImageFix"/>
<feGaussianBlur in="BackgroundImageFix" stdDeviation="0.15"/>
<feComposite in2="SourceAlpha" operator="in" result="effect1_backgroundBlur_35_1875"/>
<feBlend mode="normal" in="SourceGraphic" in2="effect1_backgroundBlur_35_1875" result="shape"/>
</filter>
<radialGradient id="paint0_radial_35_1875" cx="0" cy="0" r="1" gradientUnits="userSpaceOnUse" gradientTransform="translate(26.5 105.729) rotate(90) scale(4 21.5)">
<stop stop-color="#D5E9EF"/>
<stop offset="0.916667" stop-color="#EEF7FF"/>
</radialGradient>
<linearGradient id="paint1_linear_35_1875" x1="26.6165" y1="20" x2="26.6165" y2="98.6783" gradientUnits="userSpaceOnUse">
<stop offset="0.848958" stop-color="#EEF7FF"/>
<stop offset="1" stop-color="#DEEEF5"/>
</linearGradient>
<radialGradient id="paint2_radial_35_1875" cx="0" cy="0" r="1" gradientUnits="userSpaceOnUse" gradientTransform="translate(26.8386 7.44297) rotate(90.4825) scale(97.1605 63.4243)">
<stop offset="0.229167" stop-color="#B8682D"/>
<stop offset="0.473958" stop-color="#CB9F6C"/>
<stop offset="0.78125" stop-color="#FFECE2"/>
<stop offset="0.933696" stop-color="#FFF6D8"/>
</radialGradient>
<linearGradient id="paint3_linear_35_1875" x1="26.6165" y1="20" x2="26.6165" y2="98.6783" gradientUnits="userSpaceOnUse">
<stop offset="0.848958" stop-color="#EEF7FF"/>
<stop offset="1" stop-color="#DEEEF5"/>
</linearGradient>
</defs>
</svg>
