<svg width="66" height="111" viewBox="0 0 66 111" fill="none" xmlns="http://www.w3.org/2000/svg">
<path d="M53.0001 106.729C53.0001 108.938 43.5981 110.729 32.0001 110.729C20.4021 110.729 11.0001 108.938 11.0001 106.729C11.0001 104.52 20.4021 102.729 32.0001 102.729C43.5981 102.729 53.0001 104.52 53.0001 106.729Z" fill="#EEF7FF"/>
<rect x="11.0001" y="98.9999" width="42" height="8" fill="#EEF7FF"/>
<path d="M60.6239 33.1334C60.8285 31.4291 59.5641 29.9009 57.8517 29.7828L32.0001 27.9997L6.14856 29.7828C4.43612 29.9009 3.17174 31.4291 3.37639 33.1333L11.2118 98.3834C11.254 98.7352 11.5525 98.9999 11.9068 98.9999H52.0934C52.4478 98.9999 52.7462 98.7352 52.7884 98.3834L60.6239 33.1334Z" fill="#EEF7FF"/>
<path d="M53.0001 98.9999C53.0001 101.209 43.5981 103 32.0001 103C20.4021 103 11.0001 101.209 11.0001 98.9999C11.0001 96.7908 20.4021 94.9999 32.0001 94.9999C43.5981 94.9999 53.0001 96.7908 53.0001 98.9999Z" fill="url(#paint0_radial_83_1233)"/>
<circle cx="28" cy="108" r="1" fill="#FFFEF6"/>
<path d="M58.6367 35.062C58.8358 33.3846 57.6114 31.8737 55.9293 31.7207L51.3344 31.303C38.1398 30.1034 24.8625 30.1259 11.6721 31.3705L8.05959 31.7113C6.38193 31.8696 5.1637 33.3782 5.36229 35.0516L12.5284 95.4326C12.6411 96.3819 13.3129 97.1706 14.2322 97.4328V97.4328C25.846 100.745 38.1543 100.745 49.7681 97.4328V97.4328C50.6873 97.1706 51.3592 96.3819 51.4718 95.4326L58.6367 35.062Z" fill="url(#paint1_diamond_83_1233)"/>
<path d="M58.6367 35.062C58.8358 33.3846 57.6114 31.8737 55.9293 31.7207L51.3344 31.303C38.1398 30.1034 24.8625 30.1259 11.6721 31.3705L8.05959 31.7113C6.38193 31.8696 5.1637 33.3782 5.36229 35.0516L12.5284 95.4326C12.6411 96.3819 13.3129 97.1706 14.2322 97.4328V97.4328C25.846 100.745 38.1543 100.745 49.7681 97.4328V97.4328C50.6873 97.1706 51.3592 96.3819 51.4718 95.4326L58.6367 35.062Z" fill="url(#paint2_diamond_83_1233)" fill-opacity="0.33"/>
<path d="M58.6367 35.062C58.8358 33.3846 57.6114 31.8737 55.9293 31.7207L51.3344 31.303C38.1398 30.1034 24.8625 30.1259 11.6721 31.3705L8.05959 31.7113C6.38193 31.8696 5.1637 33.3782 5.36229 35.0516L12.5284 95.4326C12.6411 96.3819 13.3129 97.1706 14.2322 97.4328V97.4328C25.846 100.745 38.1543 100.745 49.7681 97.4328V97.4328C50.6873 97.1706 51.3592 96.3819 51.4718 95.4326L58.6367 35.062Z" fill="url(#paint3_diamond_83_1233)" fill-opacity="0.33"/>
<rect width="3.10077" height="80.1152" transform="matrix(-0.963611 0.267308 0.267308 0.963611 10.9879 5.99994)" fill="#FFE8E8"/>
<path fill-rule="evenodd" clip-rule="evenodd" d="M14.1971 17.5686L13.1404 13.7595L9.87588 13.5912L10.9325 17.4003L14.1971 17.5686ZM16.2542 24.9843L15.1976 21.1752L11.933 21.0069L12.9897 24.816L16.2542 24.9843ZM18.3113 32.3997L17.2546 28.5907L13.9901 28.4224L15.0467 32.2314L18.3113 32.3997ZM20.3684 39.8153L19.3117 36.0063L16.0472 35.838L17.1038 39.647L20.3684 39.8153ZM22.4255 47.2309L21.3688 43.4218L18.1043 43.2535L19.1609 47.0626L22.4255 47.2309ZM24.4826 54.6464L23.4259 50.8374L20.1614 50.6691L21.218 54.4781L24.4826 54.6464ZM26.5396 62.062L25.483 58.253L22.2185 58.0847L23.2751 61.8937L26.5396 62.062ZM28.5967 69.4775L27.5401 65.6685L24.2755 65.5002L25.3322 69.3092L28.5967 69.4775ZM30.6538 76.8931L29.5972 73.0841L26.3326 72.9158L27.3893 76.7248L30.6538 76.8931ZM28.3897 80.3313L29.4154 84.0287L32.4033 83.1999L31.6543 80.4996L28.3897 80.3313ZM8.87544 9.98475L12.14 10.1531L11.0834 6.34403L9.95687 6.28595L7.99997 6.8288L8.87544 9.98475Z" fill="#F76464"/>
<rect x="11.0001" y="37.4009" width="10.0775" height="10.0775" rx="2" transform="rotate(-25.8937 11.0001 37.4009)" fill="#FFFFFB" fill-opacity="0.7"/>
<rect x="44.0001" y="35.5816" width="10.0775" height="10.0775" rx="2" transform="rotate(-3.30875 44.0001 35.5816)" fill="#FFFFFB" fill-opacity="0.7"/>
<rect x="39.3668" y="47" width="10.0775" height="10.0775" rx="2" transform="rotate(32.178 39.3668 47)" fill="#FFFFFB" fill-opacity="0.7"/>
<rect x="19.3689" y="47.9999" width="10.0775" height="10.0775" rx="2" transform="rotate(19.5289 19.3689 47.9999)" fill="#FFFFFB" fill-opacity="0.7"/>
<rect x="36.421" y="34.0775" width="10.0775" height="10.0775" rx="2" transform="rotate(32.178 36.421 34.0775)" fill="#FFFFFB" fill-opacity="0.7"/>
<rect x="20.7487" y="35.9999" width="10.0775" height="10.0775" rx="2" transform="rotate(4.2599 20.7487 35.9999)" fill="#FFFFFB" fill-opacity="0.7"/>
<rect x="25" y="45.4933" width="10.0775" height="10.0775" rx="2" transform="rotate(-14.3244 25 45.4933)" fill="#FFFFFB" fill-opacity="0.7"/>
<path d="M60.0632 36.2318C60.287 34.3199 58.6779 32.6949 56.7639 32.9L54.4863 33.144C39.8692 34.7101 25.1282 34.7371 10.5055 33.2244L7.22378 32.8849C5.31355 32.6873 3.71212 34.3104 3.93543 36.2178L11.2134 98.3813C11.2547 98.734 11.5536 98.9999 11.9087 98.9999H52.0916C52.4467 98.9999 52.7455 98.734 52.7868 98.3813L60.0632 36.2318Z" fill="#EEF7FF" fill-opacity="0.12"/>
<path d="M59.0001 32.2821C59.0001 36.0595 46.9118 38.9997 32.0001 38.9997C17.0884 38.9997 5.00012 36.0595 5.00012 32.2821C5.00012 30.029 5.4242 31.0837 13.5001 27.4997C16.1009 26.3455 14.3605 24.3729 20.5594 19.4486C21.6639 18.5712 23.2341 18.6885 24.4292 19.438C34.0925 25.4983 59.0001 28.7727 59.0001 32.2821Z" fill="url(#paint4_radial_83_1233)"/>
<path d="M59.0001 32.2821C59.0001 36.0595 46.9118 38.9997 32.0001 38.9997C17.0884 38.9997 5.00012 36.0595 5.00012 32.2821C5.00012 30.029 23.9242 37.5837 32.0001 33.9997C34.5778 32.8558 17.6738 25.5612 20.8468 19.7375C21.5216 18.4988 23.235 18.6856 24.2621 19.6525C27.1339 22.3559 30.4941 25.3143 36.5001 26.9997C45.8566 29.6254 59.0001 30.1558 59.0001 32.2821Z" fill="url(#paint5_radial_83_1233)"/>
<mask id="mask0_83_1233" style="mask-type:alpha" maskUnits="userSpaceOnUse" x="0" y="0" width="28" height="30">
<ellipse cx="14" cy="15" rx="14" ry="15" fill="#D9D9D9"/>
</mask>
<g mask="url(#mask0_83_1233)">
<rect width="3.10077" height="80.1152" transform="matrix(-0.963611 0.267308 0.267308 0.963611 10.9879 5.99994)" fill="#FFE8E8"/>
<path fill-rule="evenodd" clip-rule="evenodd" d="M14.1971 17.5686L13.1404 13.7595L9.87588 13.5912L10.9325 17.4003L14.1971 17.5686ZM16.2542 24.9843L15.1976 21.1752L11.933 21.0069L12.9897 24.816L16.2542 24.9843ZM18.3113 32.3997L17.2546 28.5907L13.9901 28.4224L15.0467 32.2314L18.3113 32.3997ZM20.3684 39.8153L19.3117 36.0063L16.0472 35.838L17.1038 39.647L20.3684 39.8153ZM22.4255 47.2309L21.3688 43.4218L18.1043 43.2535L19.1609 47.0626L22.4255 47.2309ZM24.4826 54.6464L23.4259 50.8374L20.1614 50.6691L21.218 54.4781L24.4826 54.6464ZM26.5396 62.062L25.483 58.253L22.2185 58.0847L23.2751 61.8937L26.5396 62.062ZM28.5967 69.4775L27.5401 65.6685L24.2755 65.5002L25.3322 69.3092L28.5967 69.4775ZM30.6538 76.8931L29.5972 73.0841L26.3326 72.9158L27.3893 76.7248L30.6538 76.8931ZM28.3897 80.3313L29.4154 84.0287L32.4033 83.1999L31.6543 80.4996L28.3897 80.3313ZM8.87544 9.98475L12.14 10.1531L11.0834 6.34403L9.95687 6.28595L7.99997 6.8288L8.87544 9.98475Z" fill="#F76464"/>
</g>
<mask id="mask1_83_1233" style="mask-type:alpha" maskUnits="userSpaceOnUse" x="26" y="5" width="36" height="27">
<ellipse cx="44.0001" cy="18.5" rx="18" ry="12.5" transform="rotate(20.8294 44.0001 18.5)" fill="#D9D9D9"/>
</mask>
<g mask="url(#mask1_83_1233)">
<rect width="19.1306" height="37.139" transform="matrix(-0.957268 -0.289204 -0.289204 0.957268 58.0538 13.5326)" fill="#E0C192"/>
<path fill-rule="evenodd" clip-rule="evenodd" d="M41.59 10.0226L43.6836 10.6551L43.9759 13.0114L45.524 11.2111L47.6172 11.8435L47.9095 14.1997L49.4575 12.3994L51.551 13.0319L51.8433 15.3884L53.3915 13.588L55.4847 14.2203L55.777 16.5771L56.2479 16.0295L55.0934 19.8509L55.0045 19.1342L52.6479 21.8748L53.0929 25.4618L53.5637 24.9142L52.4092 28.7356L52.3203 28.0189L49.9637 30.7595L50.4087 34.3465L50.8795 33.7989L49.725 37.6203L49.6361 36.9036L47.2797 39.644L47.7247 43.2313L48.1952 42.6842L47.041 46.5045L46.9522 45.7884L45.7761 47.1561L44.6439 46.8141L46.7723 44.3388L46.3273 40.7515L43.9702 43.4927L44.372 46.7319L43.2398 46.3899L43.0178 44.6003L41.8421 45.9676L40.7099 45.6255L42.838 43.1507L42.393 39.5637L40.0367 42.3039L40.4386 45.5436L39.3064 45.2015L39.0844 43.4115L37.9083 44.7791L36.7761 44.4371L38.9046 41.9619L38.4596 38.3749L36.1029 41.1156L36.5047 44.3551L35.3725 44.0131L35.1505 42.2232L33.9746 43.5907L32.8424 43.2487L34.9707 40.7736L34.5257 37.1864L32.169 39.9271L32.5708 43.1666L31.4387 42.8246L31.2166 41.0347L30.5937 41.7591L31.8715 37.5294L31.9892 38.4775L34.3459 35.7368L33.9009 32.1496L33.278 32.8739L34.5558 28.6444L34.6734 29.5924L37.0302 26.8517L36.5852 23.265L35.9621 23.9896L37.2401 19.7594L37.3578 20.7079L39.7141 17.9676L39.2691 14.3804L38.6464 15.1045L39.924 10.8756L40.0416 11.8233L41.59 10.0226ZM49.4563 35.454L47.0999 38.1944L46.6549 34.6074L49.0113 31.867L49.4563 35.454ZM46.1475 39.3019L43.7904 42.0431L43.3454 38.4562L45.7025 35.7149L46.1475 39.3019ZM39.412 37.2674L39.8569 40.8543L42.2132 38.1141L41.7683 34.5271L39.412 37.2674ZM42.7206 33.4196L43.1656 37.0066L45.5227 34.2654L45.0778 30.6784L42.7206 33.4196ZM46.0301 29.5709L46.4751 33.1578L48.8315 30.4174L48.3866 26.8305L46.0301 29.5709ZM49.3389 25.7229L49.7839 29.3099L52.1405 26.5693L51.6956 22.9823L49.3389 25.7229ZM54.8247 17.6846L52.4681 20.4252L52.0231 16.838L54.3797 14.0975L54.8247 17.6846ZM51.5157 21.5327L49.1591 24.2734L48.7141 20.6862L51.0707 17.9456L51.5157 21.5327ZM48.2067 25.3809L45.8503 28.1213L45.4053 24.5341L47.7618 21.7937L48.2067 25.3809ZM44.8979 29.2288L42.5408 31.97L42.0958 28.3828L44.453 25.6416L44.8979 29.2288ZM41.5884 33.0776L39.2321 35.8178L38.7872 32.2306L41.1434 29.4904L41.5884 33.0776ZM38.2798 36.9253L35.9231 39.666L35.4781 36.0789L37.8348 33.3381L38.2798 36.9253ZM34.8532 31.042L35.2982 34.6293L37.655 31.8886L37.21 28.3013L34.8532 31.042ZM38.1623 27.1938L38.6073 30.781L40.9636 28.0408L40.5186 24.4535L38.1623 27.1938ZM41.471 23.346L41.916 26.9333L44.2731 24.192L43.8281 20.6048L41.471 23.346ZM44.7805 19.4972L45.2255 23.0845L47.5819 20.3441L47.1369 16.7569L44.7805 19.4972ZM48.0893 15.6493L48.5343 19.2366L50.8909 16.496L50.4459 12.9087L48.0893 15.6493ZM46.9571 15.3073L44.6007 18.0477L44.1557 14.4609L46.5122 11.7206L46.9571 15.3073ZM43.6483 19.1552L41.2912 21.8964L40.8462 18.3097L43.2034 15.5685L43.6483 19.1552ZM40.3388 23.0039L37.9825 25.7442L37.5376 22.1575L39.8939 19.4172L40.3388 23.0039ZM40.2214 13.2728L40.6664 16.8601L43.0236 14.1189L42.5786 10.5316L40.2214 13.2728Z" fill="#F6DBB3"/>
</g>
<ellipse cx="34.5" cy="29.15" rx="0.5" ry="0.15" fill="#A25A30"/>
<ellipse rx="0.5" ry="0.15" transform="matrix(-1 0 0 1 21.5 27.15)" fill="#A25A30"/>
<ellipse cx="38.5" cy="32.15" rx="0.5" ry="0.15" fill="#A25A30"/>
<ellipse rx="0.5" ry="0.15" transform="matrix(-1 0 0 1 17.5 30.15)" fill="#A25A30"/>
<ellipse cx="36.5" cy="33.15" rx="0.5" ry="0.15" fill="#A25A30"/>
<ellipse rx="0.5" ry="0.15" transform="matrix(-1 0 0 1 19.5 31.15)" fill="#A25A30"/>
<ellipse cx="42.5" cy="32.15" rx="0.5" ry="0.15" fill="#A25A30"/>
<ellipse rx="0.5" ry="0.15" transform="matrix(-1 0 0 1 13.5 30.15)" fill="#A25A30"/>
<ellipse cx="44.5" cy="33.15" rx="0.5" ry="0.15" fill="#A25A30"/>
<ellipse rx="0.5" ry="0.15" transform="matrix(-1 0 0 1 11.5 31.15)" fill="#A25A30"/>
<ellipse cx="41.5" cy="33.15" rx="0.5" ry="0.15" fill="#A25A30"/>
<ellipse rx="0.5" ry="0.15" transform="matrix(-1 0 0 1 14.5 31.15)" fill="#A25A30"/>
<ellipse cx="37.5" cy="30.15" rx="0.5" ry="0.15" fill="#A25A30"/>
<ellipse rx="0.5" ry="0.15" transform="matrix(-1 0 0 1 18.5 28.15)" fill="#A25A30"/>
<ellipse cx="32.5" cy="31.15" rx="0.5" ry="0.15" fill="#A25A30"/>
<ellipse rx="0.5" ry="0.15" transform="matrix(-1 0 0 1 23.5 29.15)" fill="#A25A30"/>
<ellipse cx="39.8" cy="31.15" rx="0.5" ry="0.15" fill="#A25A30"/>
<ellipse cx="24.5" cy="31.15" rx="0.5" ry="0.15" fill="#A25A30"/>
<ellipse cx="30.5" cy="29.15" rx="0.5" ry="0.15" fill="#A25A30"/>
<ellipse rx="0.5" ry="0.15" transform="matrix(-1 0 0 1 21.5 32.15)" fill="#A25A30"/>
<ellipse cx="35.5" cy="31.15" rx="0.5" ry="0.15" fill="#A25A30"/>
<ellipse rx="0.5" ry="0.15" transform="matrix(-1 0 0 1 20.5 29.15)" fill="#A25A30"/>
<ellipse cx="46.5" cy="32.15" rx="0.5" ry="0.15" fill="#A25A30"/>
<ellipse rx="0.5" ry="0.15" transform="matrix(-1 0 0 1 9.5 30.15)" fill="#A25A30"/>
<ellipse cx="39.5" cy="34.15" rx="0.5" ry="0.15" fill="#A25A30"/>
<ellipse rx="0.5" ry="0.15" transform="matrix(-1 0 0 1 16.5 32.15)" fill="#A25A30"/>
<defs>
<radialGradient id="paint0_radial_83_1233" cx="0" cy="0" r="1" gradientUnits="userSpaceOnUse" gradientTransform="translate(32.0001 91.9997) rotate(90) scale(11.0002 57.7513)">
<stop offset="0.308532" stop-color="#C1D1E1"/>
<stop offset="1" stop-color="#EEF7FF"/>
</radialGradient>
<radialGradient id="paint1_diamond_83_1233" cx="0" cy="0" r="1" gradientUnits="userSpaceOnUse" gradientTransform="translate(5.00012 31.9997) rotate(78.1113) scale(58.2494 48.4742)">
<stop stop-color="#894211"/>
<stop offset="1" stop-color="#FFF6EE"/>
</radialGradient>
<radialGradient id="paint2_diamond_83_1233" cx="0" cy="0" r="1" gradientUnits="userSpaceOnUse" gradientTransform="translate(62.0001 22.4997) rotate(96.5663) scale(69.9589 58.2186)">
<stop stop-color="#894211"/>
<stop offset="1" stop-color="#FFF6EE"/>
</radialGradient>
<radialGradient id="paint3_diamond_83_1233" cx="0" cy="0" r="1" gradientUnits="userSpaceOnUse" gradientTransform="translate(35.0001 20.4997) rotate(89.5145) scale(59.0021 49.1006)">
<stop offset="0.526585" stop-color="#A25A30"/>
<stop offset="1" stop-color="#FFF6EE"/>
</radialGradient>
<radialGradient id="paint4_radial_83_1233" cx="0" cy="0" r="1" gradientUnits="userSpaceOnUse" gradientTransform="translate(31.7478 22.3584) rotate(89.0127) scale(14.6446 41.6355)">
<stop offset="0.0989583" stop-color="#FFF5F0"/>
<stop offset="0.213542" stop-color="#FAE3D7"/>
<stop offset="0.651042" stop-color="#FFF5F0"/>
<stop offset="0.8125" stop-color="#FAE3D7"/>
</radialGradient>
<radialGradient id="paint5_radial_83_1233" cx="0" cy="0" r="1" gradientUnits="userSpaceOnUse" gradientTransform="translate(31.7478 22.3584) rotate(89.0127) scale(14.6446 41.6355)">
<stop offset="0.0001" stop-color="#FFF5F0"/>
<stop offset="0.273778" stop-color="#FFF5F0"/>
<stop offset="0.567708" stop-color="#FAE3D7"/>
<stop offset="0.901042" stop-color="#FFF5F0"/>
<stop offset="1" stop-color="#FAE3D7"/>
</radialGradient>
</defs>
</svg>
