<svg width="101" height="88" viewBox="0 0 101 88" fill="none" xmlns="http://www.w3.org/2000/svg">
<path d="M0.621094 30.5887C0.621094 25.0659 5.09825 20.5887 10.6211 20.5887H90.6211C96.1439 20.5887 100.621 25.0659 100.621 30.5887V67.4784C100.621 78.5241 91.6668 87.4784 80.6211 87.4784H20.6211C9.5754 87.4784 0.621094 78.5241 0.621094 67.4784V30.5887Z" fill="#F0F8FF"/>
<path d="M7.28711 22.8051C7.28711 21.6196 8.31253 20.6943 9.49184 20.8156L40.3838 23.9946C47.1902 24.6951 54.0506 24.6951 60.8571 23.9946L91.749 20.8156C92.9284 20.6943 93.9538 21.6196 93.9538 22.8051V23.2433C93.9538 24.2686 93.1784 25.1278 92.1585 25.2328L60.8571 28.4539C54.0506 29.1544 47.1903 29.1544 40.3838 28.4539L9.08238 25.2328C8.06246 25.1278 7.28711 24.2686 7.28711 23.2433V22.8051Z" fill="#D6E2ED"/>
<path d="M90.6204 22.8183C84.1688 22.8183 72.7118 22.8183 50.6204 22.8183C28.5291 22.8183 23.5237 22.8183 10.6204 22.8183C10.6204 12.967 28.5291 4.98104 50.6204 4.98104C72.7118 4.98104 90.6204 12.967 90.6204 22.8183Z" fill="#EEF7FF"/>
<path d="M60.6204 7.21069C59.0075 7.21069 56.1433 7.21069 50.6204 7.21069C45.0976 7.21069 43.8462 7.21069 40.6204 7.21069C40.6204 3.51648 45.0976 0.521729 50.6204 0.521729C56.1433 0.521729 60.6204 3.51648 60.6204 7.21069Z" fill="#EEF7FF"/>
<path d="M7.28711 21.6352C7.28711 19.8825 9.55294 18.5144 12.1595 18.6932L29.7883 19.9027C43.64 20.8529 57.6008 20.8529 71.4526 19.9026L89.0814 18.6932C91.6879 18.5144 93.9538 19.8825 93.9538 21.6352C93.9538 23.1516 92.2389 24.4224 89.9836 24.5771L73.6687 25.6964C58.3434 26.7478 42.8975 26.7477 27.5722 25.6964L11.2573 24.5771C9.00196 24.4224 7.28711 23.1516 7.28711 21.6352Z" fill="#EEF7FF"/>
<path d="M17.2861 19.1681C17.2861 18.7333 17.6591 18.3921 18.0922 18.4307L41.7361 20.5395C47.6466 21.0666 53.5923 21.0666 59.5028 20.5395L83.1468 18.4307C83.5798 18.3921 83.9528 18.7333 83.9528 19.1681C83.9528 19.5515 83.6601 19.8714 83.2783 19.9055L59.5028 22.0259C53.5923 22.553 47.6466 22.553 41.7361 22.0259L17.9607 19.9055C17.5788 19.8714 17.2861 19.5515 17.2861 19.1681Z" fill="#D6E2ED"/>
<path d="M40.6182 8.16567C40.6182 7.6892 41.0769 7.34703 41.5336 7.4828L42.458 7.75762C47.7829 9.34066 53.4534 9.34066 58.7784 7.75762L59.7028 7.4828C60.1595 7.34703 60.6182 7.6892 60.6182 8.16567C60.6182 8.48093 60.411 8.7587 60.1088 8.84854L59.5034 9.0285C53.7053 10.7522 47.531 10.7522 41.7329 9.0285L41.1276 8.84854C40.8254 8.7587 40.6182 8.48093 40.6182 8.16567Z" fill="#D6E2ED"/>
<path d="M70.1861 76.6089C70.1861 79.0102 68.4669 78.7828 63.6644 78.7828C58.8619 78.7828 52.7948 79.0102 52.7948 76.6089C52.7948 74.2077 56.688 72.2611 61.4905 72.2611C66.293 72.2611 70.1861 74.2077 70.1861 76.6089Z" fill="#DC81A7"/>
<path d="M35.4035 64.6524C35.4035 67.0536 33.6843 66.8263 28.8818 66.8263C24.0793 66.8263 18.0122 67.0536 18.0122 64.6524C18.0122 62.2512 21.9054 60.3046 26.7079 60.3046C31.5104 60.3046 35.4035 62.2512 35.4035 64.6524Z" fill="#DC81A7"/>
<path d="M22.3601 67.9133C22.3601 70.3145 20.6408 70.0872 15.8383 70.0872C11.0358 70.0872 4.96875 70.3145 4.96875 67.9133C4.96875 65.512 8.86193 63.5655 13.6644 63.5655C18.4669 63.5655 22.3601 65.512 22.3601 67.9133Z" fill="#589EDD"/>
<path d="M83.2296 80.9568C83.2296 83.358 79.3364 85.3046 74.534 85.3046C69.7315 85.3046 65.8383 83.358 65.8383 80.9568C65.8383 78.5555 67.5576 76.609 72.3601 76.609C77.1625 76.609 83.2296 78.5555 83.2296 80.9568Z" fill="#4DA855"/>
<path d="M26.7079 57.0437C26.7079 59.445 22.8147 61.3915 18.0122 61.3915C13.2098 61.3915 9.31658 59.445 9.31658 57.0437C9.31658 54.6425 11.0358 52.696 15.8383 52.696C20.6408 52.696 26.7079 54.6425 26.7079 57.0437Z" fill="#4DA855"/>
<path d="M57.1427 70.0872C57.1427 72.4884 53.2495 74.435 48.447 74.435C43.6445 74.435 39.7514 72.4884 39.7514 70.0872C39.7514 67.686 41.4706 65.7394 46.2731 65.7394C51.0756 65.7394 57.1427 67.686 57.1427 70.0872Z" fill="#4DA855"/>
<path d="M61.4905 80.9619C61.4905 83.3631 57.5973 85.3097 52.7948 85.3097C47.9924 85.3097 44.0992 83.3631 44.0992 80.9619C44.0992 78.5606 47.9924 78.7881 52.7948 78.7881C57.5973 78.7881 61.4905 78.5606 61.4905 80.9619Z" fill="#91D8F2"/>
<path d="M93.69 71.8518C93.7772 71.9388 94.0605 72.3383 94.0054 72.4484C93.6709 73.1172 93.3886 73.6795 93.1325 74.162C90.8172 78.5238 84.4006 79.9985 80.407 77.094C79.4451 76.3944 78.8821 75.547 78.8821 74.6338C78.8821 72.6646 84.4244 70.9978 89.0675 70.4618C90.6393 70.2803 92.5709 70.7332 93.69 71.8518Z" fill="#E9565A"/>
<path d="M96.2734 65.7393C96.2734 68.1405 92.3802 70.0871 87.5777 70.0871C82.7752 70.0871 78.8821 68.1405 78.8821 65.7393C78.8821 63.3381 85.4038 61.3864 91.9255 61.3864C96.728 61.3864 96.2734 63.3381 96.2734 65.7393Z" fill="#B4C2C0"/>
<path d="M70.1861 61.5952C70.1861 63.9964 66.293 65.943 61.4905 65.943C56.688 65.943 52.7948 63.9964 52.7948 61.5952C52.7948 59.194 61.0358 57.2424 65.8383 57.2424C70.6408 57.2424 70.1861 59.194 70.1861 61.5952Z" fill="#875387"/>
<path d="M70.1861 52.7007C70.1861 55.1019 66.293 57.0485 61.4905 57.0485C56.688 57.0485 52.7948 55.1019 52.7948 52.7007C52.7948 50.2994 59.3166 48.3478 65.8383 48.3478C70.6408 48.3478 70.1861 50.2994 70.1861 52.7007Z" fill="#91D8F2"/>
<path d="M26.7079 74.0053C26.7079 76.4066 22.8147 78.3532 18.0122 78.3532C13.2098 78.3532 9.31658 76.4066 9.31658 74.0053C9.31658 71.6041 13.2098 71.8316 18.0122 71.8316C22.8147 71.8316 26.7079 71.6041 26.7079 74.0053Z" fill="#ECC300"/>
<path d="M78.8818 67.9184C78.8818 70.3196 74.9886 72.2662 70.1861 72.2662C65.3837 72.2662 61.4905 70.3196 61.4905 67.9184C61.4905 65.5172 65.3837 65.7447 70.1861 65.7447C74.9886 65.7447 78.8818 65.5172 78.8818 67.9184Z" fill="#ECC300"/>
<path d="M44.0992 54.8749C44.0992 57.2762 40.206 59.2227 35.4035 59.2227C30.6011 59.2227 26.7079 57.2762 26.7079 54.8749C26.7079 52.4737 30.6011 52.7012 35.4035 52.7012C40.206 52.7012 44.0992 52.4737 44.0992 54.8749Z" fill="#ECC300"/>
<path d="M48.447 76.6145C48.447 79.0158 44.5538 80.9624 39.7514 80.9624C34.9489 80.9624 31.0557 79.0158 31.0557 76.6145C31.0557 74.2133 32.775 74.4409 37.5774 74.4409C42.3799 74.4409 48.447 74.2133 48.447 76.6145Z" fill="#DA730A"/>
<path d="M87.5774 59.2232C87.5774 61.6245 83.6843 63.5711 78.8818 63.5711C74.0793 63.5711 70.1861 61.6245 70.1861 59.2232C70.1861 56.822 71.9054 57.0496 76.7079 57.0496C81.5104 57.0496 87.5774 56.822 87.5774 59.2232Z" fill="#DA730A"/>
<path d="M39.7514 70.0928C39.7514 72.494 35.8582 74.4406 31.0557 74.4406C26.2532 74.4406 22.3601 72.494 22.3601 70.0928C22.3601 67.6916 24.0793 67.9191 28.8818 67.9191C33.6843 67.9191 39.7514 67.6916 39.7514 70.0928Z" fill="#8CCC24"/>
<path d="M91.9253 52.7015C91.9253 55.1027 88.0321 57.0493 83.2296 57.0493C78.4271 57.0493 74.534 55.1027 74.534 52.7015C74.534 50.3003 76.2532 50.5278 81.0557 50.5278C85.8582 50.5278 91.9253 50.3003 91.9253 52.7015Z" fill="#8CCC24"/>
<path d="M35.4035 81.5003C35.4035 83.9015 31.5104 85.8481 26.7079 85.8481C21.9054 85.8481 18.0122 83.9015 18.0122 81.5003C18.0122 77.1525 24.534 79.3263 26.7079 79.3264C28.8818 79.3265 35.4035 79.099 35.4035 81.5003Z" fill="#E9565A"/>
<path d="M52.7948 60.3882C52.7948 63.3436 48.9017 65.7394 44.0992 65.7394C39.2967 65.7394 35.4035 63.3436 35.4035 60.3882C35.4035 55.0372 41.9253 57.7126 44.0992 57.7127C46.2731 57.7129 52.7948 57.4329 52.7948 60.3882Z" fill="#E9565A"/>
<g opacity="0.45" filter="url(#filter0_b_210_9148)">
<path d="M0.621094 30.5887C0.621094 25.0659 5.09825 20.5887 10.6211 20.5887H90.6211C96.1439 20.5887 100.621 25.0659 100.621 30.5887V67.4784C100.621 78.5241 91.6668 87.4784 80.6211 87.4784H20.6211C9.5754 87.4784 0.621094 78.5241 0.621094 67.4784V30.5887Z" fill="#BEDBF5" fill-opacity="0.1"/>
</g>
<defs>
<filter id="filter0_b_210_9148" x="-0.378906" y="19.5887" width="102" height="68.8896" filterUnits="userSpaceOnUse" color-interpolation-filters="sRGB">
<feFlood flood-opacity="0" result="BackgroundImageFix"/>
<feGaussianBlur in="BackgroundImageFix" stdDeviation="0.5"/>
<feComposite in2="SourceAlpha" operator="in" result="effect1_backgroundBlur_210_9148"/>
<feBlend mode="normal" in="SourceGraphic" in2="effect1_backgroundBlur_210_9148" result="shape"/>
</filter>
</defs>
</svg>
