<svg width="59" height="100" viewBox="0 0 59 100" fill="none" xmlns="http://www.w3.org/2000/svg">
<path d="M0 18.6507C0 17.2519 1.02959 16.0665 2.41457 15.8707V15.8707C15.0479 14.0844 27.8684 14.0643 40.5073 15.8109L40.9333 15.8697C42.3533 16.066 43.4108 17.2797 43.4108 18.7131V88.8182C43.4108 91.6279 41.5637 94.1032 38.8703 94.903V94.903C27.6687 98.2292 15.7421 98.2292 4.54058 94.903V94.903C1.84715 94.1032 0 91.6279 0 88.8182V18.6507Z" fill="#EEF7FF"/>
<path d="M2.32556 20.4294C2.32556 19.2487 3.18945 18.2457 4.35714 18.0707V18.0707C15.7126 16.3687 27.257 16.3496 38.6181 18.0137L39.0003 18.0697C40.1977 18.2451 41.0852 19.2722 41.0852 20.4823V87.5718C41.0852 89.9541 39.5397 92.0609 37.2673 92.7762V92.7762C27.1377 95.9645 16.2731 95.9645 6.1435 92.7762V92.7762C3.87115 92.0609 2.32556 89.9541 2.32556 87.5718V20.4294Z" fill="url(#paint0_linear_29_1178)"/>
<circle cx="43.4109" cy="15.5039" r="14.5039" fill="#FFFCE4" stroke="#FFDE6A" stroke-width="2"/>
<path fill-rule="evenodd" clip-rule="evenodd" d="M42.6357 4.48337C42.6357 3.73392 42.0013 3.13331 41.263 3.2622C38.3266 3.77485 35.7452 5.32024 33.9068 7.51029C33.4244 8.08504 33.6267 8.936 34.2766 9.3112L40.6857 13.0115C41.5524 13.5119 42.6357 12.8864 42.6357 11.8857V4.48337ZM33.4981 10.652C32.849 10.2772 32.0117 10.5263 31.7549 11.2305C31.2715 12.556 31.0078 13.9872 31.0078 15.48C31.0078 16.91 31.2498 18.2836 31.6951 19.5618C31.9439 20.2759 32.7885 20.5334 33.4434 20.1553L39.7509 16.5137C40.6175 16.0133 40.6175 14.7624 39.7509 14.262L33.4981 10.652ZM34.1735 21.524C33.5294 21.8959 33.3236 22.7364 33.7936 23.3129C35.6385 25.5753 38.2658 27.1745 41.263 27.6978C42.0013 27.8267 42.6357 27.2261 42.6357 26.4766V18.89C42.6357 17.8893 41.5524 17.2638 40.6857 17.7642L34.1735 21.524ZM44.1861 26.4766C44.1861 27.2261 44.8205 27.8267 45.5588 27.6978C48.4951 27.1852 51.0766 25.6398 52.915 23.4497C53.3974 22.875 53.1951 22.024 52.5452 21.6488L46.1361 17.9485C45.2694 17.4482 44.1861 18.0736 44.1861 19.0744V26.4766ZM53.3237 20.308C53.9728 20.6828 54.8101 20.4337 55.0669 19.7296C55.5503 18.404 55.814 16.9728 55.814 15.48C55.814 13.9245 55.5277 12.4359 55.0048 11.0639C54.7402 10.3698 53.9103 10.129 53.2669 10.5004L46.7516 14.262C45.885 14.7624 45.885 16.0133 46.7516 16.5137L53.3237 20.308ZM52.4402 9.18752C53.0958 8.80901 53.2945 7.94757 52.7996 7.37475C50.9693 5.25651 48.4342 3.76419 45.5587 3.26219C44.8205 3.1333 44.1861 3.73392 44.1861 4.48336V11.7013C44.1861 12.7021 45.2694 13.3275 46.1361 12.8272L52.4402 9.18752Z" fill="url(#paint1_radial_29_1178)"/>
<path d="M33.1952 16.362C34.3583 17.5591 34.4286 19.7651 33.8301 20.3466C33.2315 20.9281 32.1907 19.665 31.0276 18.4679C29.8646 17.2707 29.173 15.588 29.7716 15.0065C30.3701 14.4249 32.0322 15.1648 33.1952 16.362Z" fill="#77C065"/>
<path d="M36.2076 17.0062C34.5846 17.3955 33.345 19.2216 33.5396 20.0331C33.7342 20.8446 35.2893 20.3343 36.9124 19.945C38.5355 19.5558 40.02 18.5041 39.8254 17.6926C39.6307 16.881 37.8307 16.617 36.2076 17.0062Z" fill="#77C065"/>
<path d="M33.1903 23.8719C34.313 22.6368 34.3101 20.4297 33.6926 19.8684C33.0751 19.3071 33.6944 22.1312 32.5717 23.3662C31.449 24.6013 30.3903 27.7332 31.0079 28.2946C31.6254 28.8559 32.0676 25.107 33.1903 23.8719Z" fill="#77C065"/>
<path d="M5.65096 14.2089C4.60226 14.7212 4.06652 16.0566 4.34113 16.5252C4.61573 16.9937 5.5967 16.418 6.6454 15.9057C7.6941 15.3935 8.53261 14.4953 8.25801 14.0267C7.9834 13.5581 6.69967 13.6966 5.65096 14.2089Z" fill="#77C065"/>
<path d="M2.85281 14.802C3.96574 14.9362 4.9099 15.9896 4.82932 16.5073C4.74873 17.0249 3.67392 16.8108 2.56098 16.6766C1.44805 16.5424 0.387253 15.9869 0.467838 15.4693C0.548424 14.9516 1.73987 14.6678 2.85281 14.802Z" fill="#77C065"/>
<path d="M4.926 20.8424C4.09667 20.1488 4.22381 16.7171 4.60356 16.3269C4.9833 15.9368 4.4843 19.3736 5.31362 20.0672C6.14295 20.7607 8.40657 20.8398 8.02683 21.23C7.64709 21.6201 5.75532 21.5359 4.926 20.8424Z" fill="#77C065"/>
<rect x="9.45642" y="3.646" width="3.10077" height="80.1152" transform="rotate(-14.1413 9.45642 3.646)" fill="#FFE8E8"/>
<path fill-rule="evenodd" clip-rule="evenodd" d="M12.3895 15.2877L11.4238 11.4546L14.1778 9.69356L15.1435 13.5266L12.3895 15.2877ZM14.2697 22.7502L13.304 18.9171L16.058 17.1561L17.0237 20.9892L14.2697 22.7502ZM16.1498 30.2125L15.1841 26.3794L17.9381 24.6184L18.9038 28.4514L16.1498 30.2125ZM18.03 37.6749L17.0642 33.8418L19.8182 32.0808L20.784 35.9139L18.03 37.6749ZM19.9101 45.1373L18.9444 41.3042L21.6984 39.5432L22.6641 43.3762L19.9101 45.1373ZM21.7903 52.5997L20.8245 48.7666L23.5785 47.0056L24.5443 50.8387L21.7903 52.5997ZM23.6704 60.0621L22.7047 56.229L25.4587 54.468L26.4244 58.301L23.6704 60.0621ZM25.5506 67.5244L24.5848 63.6913L27.3388 61.9303L28.3046 65.7634L25.5506 67.5244ZM27.4307 74.9869L26.465 71.1538L29.219 69.3928L30.1847 73.2258L27.4307 74.9869ZM31.0991 76.855L32.0366 80.5759L29.0297 81.3334L28.3451 78.616L31.0991 76.855ZM13.2634 6.06431L10.5094 7.82534L9.54366 3.99226L10.494 3.38458L12.4632 2.88843L13.2634 6.06431Z" fill="#F76464"/>
<rect x="5.42639" y="29.9822" width="10.0775" height="10.0775" rx="2" transform="rotate(-25.8937 5.42639 29.9822)" fill="#FFFFFB" fill-opacity="0.7"/>
<rect x="27.907" y="32.2173" width="10.0775" height="10.0775" rx="2" transform="rotate(-15.8949 27.907 32.2173)" fill="#FFFFFB" fill-opacity="0.7"/>
<rect x="30.1731" y="46.5116" width="10.0775" height="10.0775" rx="2" transform="rotate(32.178 30.1731 46.5116)" fill="#FFFFFB" fill-opacity="0.7"/>
<rect x="11.5685" y="48.8372" width="10.0775" height="10.0775" rx="2" transform="rotate(32.178 11.5685 48.8372)" fill="#FFFFFB" fill-opacity="0.7"/>
<rect x="26.2971" y="35.6589" width="10.0775" height="10.0775" rx="2" transform="rotate(32.178 26.2971 35.6589)" fill="#FFFFFB" fill-opacity="0.7"/>
<rect x="19.3533" y="27.1318" width="10.0775" height="10.0775" rx="2" transform="rotate(4.2599 19.3533 27.1318)" fill="#FFFFFB" fill-opacity="0.7"/>
<rect x="4.62463" y="37.9845" width="10.0775" height="10.0775" rx="2" transform="rotate(4.2599 4.62463 37.9845)" fill="#FFFFFB" fill-opacity="0.7"/>
<rect x="13.1782" y="44.3538" width="10.0775" height="10.0775" rx="2" transform="rotate(-14.3244 13.1782 44.3538)" fill="#FFFFFB" fill-opacity="0.7"/>
<g filter="url(#filter0_b_29_1178)">
<path d="M0 18.5272C0 17.8607 0.71089 17.4351 1.29841 17.7498V17.7498C14.0461 24.5789 29.3648 24.5789 42.1124 17.7498V17.7498C42.7 17.4351 43.4108 17.8607 43.4108 18.5272V88.8381C43.4108 91.6728 41.5431 94.1686 38.8235 94.968V94.968C27.6479 98.2532 15.763 98.2532 4.5873 94.968V94.968C1.86771 94.1686 0 91.6728 0 88.8381V18.5272Z" fill="#EEF7FF" fill-opacity="0.2"/>
</g>
<defs>
<filter id="filter0_b_29_1178" x="-1" y="16.6441" width="45.4109" height="81.7878" filterUnits="userSpaceOnUse" color-interpolation-filters="sRGB">
<feFlood flood-opacity="0" result="BackgroundImageFix"/>
<feGaussianBlur in="BackgroundImageFix" stdDeviation="0.5"/>
<feComposite in2="SourceAlpha" operator="in" result="effect1_backgroundBlur_29_1178"/>
<feBlend mode="normal" in="SourceGraphic" in2="effect1_backgroundBlur_29_1178" result="shape"/>
</filter>
<linearGradient id="paint0_linear_29_1178" x1="21.7054" y1="15.5038" x2="21.7054" y2="97.6744" gradientUnits="userSpaceOnUse">
<stop offset="0.296875" stop-color="#FEFBB1"/>
<stop offset="1" stop-color="#EEBF19"/>
</linearGradient>
<radialGradient id="paint1_radial_29_1178" cx="0" cy="0" r="1" gradientUnits="userSpaceOnUse" gradientTransform="translate(43.4109 15.48) rotate(90) scale(12.2353 12.4031)">
<stop stop-color="#FEFBB1"/>
<stop offset="0.682292" stop-color="#FFDE6A"/>
</radialGradient>
</defs>
</svg>
