<svg width="51" height="80" viewBox="0 0 51 80" fill="none" xmlns="http://www.w3.org/2000/svg">
<path fill-rule="evenodd" clip-rule="evenodd" d="M43.8893 21.5872C44.9061 21.5872 45.761 22.35 45.8764 23.3601L50.6997 65.5638C50.7349 65.8715 50.6981 66.1832 50.5922 66.4743L46.1525 78.6835C45.8651 79.4738 45.114 80 44.2729 80H6.43968C5.59867 80 4.8475 79.4738 4.56009 78.6835L0.120414 66.4743C0.0145562 66.1832 -0.0222369 65.8715 0.012935 65.5638L4.83621 23.3601C4.95165 22.35 5.80657 21.5872 6.82327 21.5872H43.8893Z" fill="#EEF7FF"/>
<path fill-rule="evenodd" clip-rule="evenodd" d="M41.8546 24.127C42.8725 24.127 43.7281 24.8915 43.842 25.9031L48.1614 64.2452C48.1956 64.5488 48.1598 64.8563 48.0567 65.1439L44.1169 76.1352C43.832 76.93 43.0786 77.4603 42.2342 77.4603H8.47818C7.6338 77.4603 6.88038 76.93 6.59547 76.1352L2.65574 65.1439C2.55264 64.8563 2.51682 64.5488 2.55102 64.2452L6.87038 25.9031C6.98433 24.8915 7.83988 24.127 8.85781 24.127H41.8546Z" fill="url(#paint0_linear_81_793)"/>
<rect width="6.86379" height="6.86379" rx="0.75" transform="matrix(-0.997237 0.0742808 0.0742808 0.997237 27.1219 43.1746)" fill="#FFFFFB" fill-opacity="0.7"/>
<rect width="6.86379" height="6.86379" rx="0.75" transform="matrix(-0.946551 -0.322553 -0.322553 0.946551 35.3374 27.6107)" fill="#FFFFFB" fill-opacity="0.7"/>
<rect width="2.65656" height="68.6379" transform="matrix(-0.995273 -0.0971141 -0.0971141 0.995273 32.7649 0.257996)" fill="#FFE8E8"/>
<path fill-rule="evenodd" clip-rule="evenodd" d="M31.766 10.4948L32.0949 7.12424L29.537 5.98387L29.2081 9.35445L31.766 10.4948ZM31.1258 17.0563L31.4547 13.6857L28.8968 12.5453L28.5679 15.9159L31.1258 17.0563ZM30.4855 23.6185L30.8144 20.248L28.2565 19.1076L27.9276 22.4782L30.4855 23.6185ZM29.8452 30.1807L30.1741 26.8102L27.6162 25.6698L27.2873 29.0404L29.8452 30.1807ZM29.2049 36.7424L29.5338 33.3718L26.9759 32.2315L26.647 35.602L29.2049 36.7424ZM28.5646 43.3044L28.8935 39.9338L26.3356 38.7934L26.0067 42.164L28.5646 43.3044ZM27.9243 49.8665L28.2532 46.4959L25.6953 45.3555L25.3664 48.7261L27.9243 49.8665ZM27.2841 56.4279L27.613 53.0574L25.0551 51.917L24.7262 55.2876L27.2841 56.4279ZM26.6438 62.9903L26.9727 59.6197L24.4148 58.4793L24.0859 61.8499L26.6438 62.9903ZM23.7745 65.0411L23.4552 68.3134L26.0992 68.5714L26.3324 66.1814L23.7745 65.0411ZM29.8485 2.79197L32.4064 3.93234L32.7353 0.561769L31.8547 0.169179L30.1209 6.5417e-06L29.8485 2.79197Z" fill="#F66464"/>
<rect width="6.86379" height="6.86379" rx="0.75" transform="matrix(-0.946551 -0.322553 -0.322553 0.946551 26.3281 31.279)" fill="#FFFFFB" fill-opacity="0.7"/>
<rect width="6.86379" height="6.86379" rx="0.75" transform="matrix(-0.998058 -0.0622981 -0.0622981 0.998058 41.5234 32.1736)" fill="#FFFFFB" fill-opacity="0.7"/>
<rect width="6.86379" height="6.86379" rx="0.75" transform="matrix(-0.998337 0.0576396 0.0576396 0.998337 32.1038 34.3343)" fill="#FFFFFB" fill-opacity="0.7"/>
<rect width="6.86379" height="6.86379" rx="0.75" transform="matrix(-0.660164 -0.751122 -0.751122 0.660164 22.3448 40.7111)" fill="#FFFFFB" fill-opacity="0.7"/>
<rect width="6.86379" height="6.86379" rx="0.75" transform="matrix(-0.950162 -0.311758 -0.311758 0.950162 17.5186 42.5655)" fill="#FFFFFB" fill-opacity="0.7"/>
<rect x="30.4359" y="44.0446" width="6.86379" height="6.86379" rx="0.75" transform="rotate(-18.1652 30.4359 44.0446)" fill="#FFFFFB" fill-opacity="0.7"/>
<rect x="11.3882" y="28.1193" width="6.86379" height="6.86379" rx="0.75" transform="rotate(-1.52629 11.3882 28.1193)" fill="#FFFFFB" fill-opacity="0.7"/>
<path d="M23.0651 25.0779C24.7819 33.3167 24.9691 34.215 26.1736 39.9956C17.9348 41.7124 9.86422 36.4253 8.1474 28.1865C6.43058 19.9477 11.7177 11.8771 19.9565 10.1603C21.761 18.82 21.3482 16.8391 23.0651 25.0779Z" fill="#F69D5C"/>
<path fill-rule="evenodd" clip-rule="evenodd" d="M11.9332 16.8179C14.033 14.5175 16.9493 12.7953 20.3653 12.0835L23.0721 25.073L25.7789 38.0626C22.3542 38.7762 18.9844 38.3583 16.1359 37.0805C13.1257 34.9332 10.8843 31.6911 10.0705 27.7858C9.25465 23.8706 10.0205 19.9934 11.9332 16.8179Z" fill="#FFD88D"/>
<path fill-rule="evenodd" clip-rule="evenodd" d="M18.5433 13.7305C19.2278 13.4585 19.9587 13.9092 20.1089 14.6303L21.5931 21.7527C21.7938 22.7156 20.8768 23.5346 19.9426 23.227L13.0339 20.9516C12.3334 20.7209 11.968 19.9427 12.317 19.2929C13.6468 16.8171 15.8208 14.8126 18.5433 13.7305ZM10.9924 23.3039C11.0983 22.5749 11.854 22.1674 12.5537 22.3978L19.2938 24.6176C20.2281 24.9253 20.4789 26.1289 19.7453 26.7842L14.4065 31.5527C13.8522 32.0478 12.9879 31.9695 12.6053 31.3323C11.9206 30.1916 11.4123 28.9185 11.1256 27.5426C10.8263 26.1062 10.7931 24.6763 10.9924 23.3039ZM15.3834 32.7233C14.8382 33.2103 14.8087 34.0603 15.3765 34.5207C17.6053 36.3277 20.454 37.3397 23.4427 37.2422C24.1789 37.2182 24.6689 36.5131 24.5187 35.792L22.9975 28.4922C22.7969 27.5293 21.6291 27.1447 20.8955 27.7999L15.3834 32.7233Z" fill="url(#paint1_radial_81_793)"/>
<path d="M9.79172 17.1715C9.05555 18.2202 9.27023 19.9009 9.7946 20.269C10.319 20.6371 10.9545 19.5532 11.6906 18.5044C12.4268 17.4557 12.7466 16.0961 12.2222 15.728C11.6979 15.3599 10.5279 16.1227 9.79172 17.1715Z" fill="#77C065"/>
<path d="M11.4378 20.0176C10.7017 21.0663 10.9163 22.7471 11.4407 23.1151C11.9651 23.4832 12.6006 22.3993 13.3368 21.3505C14.0729 20.3018 14.3927 18.9422 13.8683 18.5741C13.344 18.2061 12.174 18.9688 11.4378 20.0176Z" fill="#77C065"/>
<path d="M13.0841 22.8638C12.3479 23.9126 12.5626 25.5933 13.087 25.9614C13.6113 26.3295 14.2468 25.2455 14.983 24.1968C15.7192 23.148 16.039 21.7885 15.5146 21.4204C14.9902 21.0523 13.8202 21.8151 13.0841 22.8638Z" fill="#77C065"/>
<path d="M7.58634 18.0259C8.86393 18.1237 10.0254 19.3574 9.97649 19.9962C9.92756 20.635 8.68675 20.437 7.40916 20.3392C6.13156 20.2413 4.8785 19.6244 4.92743 18.9857C4.97636 18.3469 6.30875 17.928 7.58634 18.0259Z" fill="#77C065"/>
<path d="M9.23258 20.872C10.5102 20.9699 11.6717 22.2035 11.6227 22.8423C11.5738 23.4811 10.333 23.2831 9.0554 23.1853C7.7778 23.0874 6.52474 22.4706 6.57367 21.8318C6.6226 21.193 7.95499 20.7742 9.23258 20.872Z" fill="#77C065"/>
<path d="M10.8791 23.718C12.1567 23.8159 13.3181 25.0495 13.2692 25.6883C13.2203 26.3271 11.9795 26.1292 10.7019 26.0313C9.42429 25.9335 8.17123 25.3166 8.22016 24.6778C8.26908 24.039 9.60147 23.6202 10.8791 23.718Z" fill="#77C065"/>
<path d="M10.7079 22.8636C9.7068 22.0638 9.44083 20.3904 9.84073 19.8899C10.2406 19.3894 10.1143 21.6053 11.1153 22.4051C12.1164 23.2049 13.2994 25.4504 12.8995 25.9509C12.4996 26.4515 11.7089 23.6634 10.7079 22.8636Z" fill="#77C065"/>
<path d="M13.1655 23.0632C12.4293 24.1119 12.644 25.7927 13.1684 26.1607C13.6928 26.5288 14.3283 25.4449 15.0644 24.3961C15.8006 23.3474 16.1204 21.9878 15.596 21.6197C15.0716 21.2517 13.9017 22.0144 13.1655 23.0632Z" fill="#77C065"/>
<path d="M14.8116 25.9093C14.0755 26.9581 14.2901 28.6388 14.8145 29.0069C15.3389 29.3749 15.9744 28.291 16.7105 27.2423C17.4467 26.1935 17.7665 24.8339 17.2421 24.4659C16.7177 24.0978 15.5478 24.8606 14.8116 25.9093Z" fill="#77C065"/>
<path d="M16.4579 28.7555C15.7217 29.8043 15.9364 31.485 16.4607 31.8531C16.9851 32.2212 17.6206 31.1372 18.3568 30.0885C19.0929 29.0397 19.4127 27.6802 18.8884 27.3121C18.364 26.944 17.194 27.7068 16.4579 28.7555Z" fill="#77C065"/>
<path d="M10.9601 23.9177C12.2377 24.0155 13.3992 25.2491 13.3503 25.8879C13.3013 26.5267 12.0605 26.3288 10.7829 26.2309C9.50534 26.1331 8.25228 25.5162 8.30121 24.8774C8.35014 24.2386 9.68252 23.8198 10.9601 23.9177Z" fill="#77C065"/>
<path d="M12.6064 26.7637C13.8839 26.8616 15.0454 28.0952 14.9965 28.734C14.9476 29.3728 13.7068 29.1748 12.4292 29.077C11.1516 28.9791 9.89852 28.3623 9.94745 27.7235C9.99638 27.0847 11.3288 26.6658 12.6064 26.7637Z" fill="#77C065"/>
<path d="M14.2528 29.6097C15.5304 29.7076 16.6919 30.9412 16.643 31.58C16.5941 32.2188 15.3533 32.0209 14.0757 31.923C12.7981 31.8252 11.545 31.2083 11.5939 30.5695C11.6429 29.9307 12.9752 29.5119 14.2528 29.6097Z" fill="#77C065"/>
<path d="M14.0816 28.7553C13.0806 27.9555 12.8146 26.2821 13.2145 25.7816C13.6144 25.2811 13.4881 27.497 14.4891 28.2968C15.4902 29.0966 16.6732 31.3421 16.2733 31.8426C15.8734 32.3432 15.0827 29.5551 14.0816 28.7553Z" fill="#77C065"/>
<g filter="url(#filter0_b_81_793)">
<path fill-rule="evenodd" clip-rule="evenodd" d="M43.8893 21.5872C44.9061 21.5872 45.761 22.35 45.8764 23.3601L50.6997 65.5638C50.7349 65.8715 50.6981 66.1832 50.5922 66.4743L46.1525 78.6835C45.8651 79.4738 45.114 80 44.2729 80H6.43968C5.59867 80 4.8475 79.4738 4.56009 78.6835L0.120414 66.4743C0.0145562 66.1832 -0.0222369 65.8715 0.012935 65.5638L4.83621 23.3601C4.95165 22.35 5.80657 21.5872 6.82327 21.5872H43.8893Z" fill="#EEF7FF" fill-opacity="0.15"/>
</g>
<defs>
<filter id="filter0_b_81_793" x="-0.2" y="21.3872" width="51.1126" height="58.8128" filterUnits="userSpaceOnUse" color-interpolation-filters="sRGB">
<feFlood flood-opacity="0" result="BackgroundImageFix"/>
<feGaussianBlur in="BackgroundImageFix" stdDeviation="0.1"/>
<feComposite in2="SourceAlpha" operator="in" result="effect1_backgroundBlur_81_793"/>
<feBlend mode="normal" in="SourceGraphic" in2="effect1_backgroundBlur_81_793" result="shape"/>
</filter>
<linearGradient id="paint0_linear_81_793" x1="25.3562" y1="24.127" x2="25.3562" y2="72.381" gradientUnits="userSpaceOnUse">
<stop offset="0.161458" stop-color="#FCE2AF"/>
<stop offset="0.84375" stop-color="#FC4545"/>
</linearGradient>
<radialGradient id="paint1_radial_81_793" cx="0" cy="0" r="1" gradientUnits="userSpaceOnUse" gradientTransform="translate(23.0597 25.0557) rotate(78.229) scale(12.0256 12.1905)">
<stop stop-color="#FCE2AF"/>
<stop offset="0.682292" stop-color="#F69D5C"/>
</radialGradient>
</defs>
</svg>
