<svg width="50" height="104" viewBox="0 0 50 104" fill="none" xmlns="http://www.w3.org/2000/svg">
<path d="M49.9198 36.0223C49.9627 35.6094 49.6387 35.25 49.2235 35.25H0.776543C0.36133 35.25 0.0373821 35.6093 0.0802901 36.0223L7.07769 103.372C7.11474 103.729 7.41535 104 7.77394 104H42.2261C42.5847 104 42.8853 103.729 42.9224 103.372L49.9198 36.0223Z" fill="#EEF7FF"/>
<path d="M46.798 39.1447C46.8392 38.7326 46.5156 38.375 46.1015 38.375H3.89853C3.4844 38.375 3.1608 38.7326 3.20201 39.1447L9.312 100.245C9.34779 100.602 9.6489 100.875 10.0085 100.875H39.9915C40.3511 100.875 40.6523 100.602 40.688 100.245L46.798 39.1447Z" fill="url(#paint0_linear_71_2396)"/>
<rect width="9.37499" height="9.37499" rx="0.75" transform="matrix(-0.997237 0.0742808 0.0742808 0.997237 30.5536 57.125)" fill="#FFFFFB" fill-opacity="0.7"/>
<rect width="9.37499" height="9.37499" rx="0.75" transform="matrix(-0.946551 -0.322553 -0.322553 0.946551 37.5 43.0625)" fill="#FFFFFB" fill-opacity="0.7"/>
<rect width="3.62849" height="93.7499" transform="matrix(-0.995273 -0.0971141 -0.0971141 0.995273 31.25 4.35229)" fill="#FFE8E8"/>
<path fill-rule="evenodd" clip-rule="evenodd" d="M29.8857 18.3345L30.3349 13.7308L26.8412 12.1732L26.3919 16.7769L29.8857 18.3345ZM29.0111 27.2974L29.4603 22.6937L25.9666 21.1361L25.5174 25.7399L29.0111 27.2974ZM28.1366 36.2602L28.5858 31.6565L25.092 30.0989L24.6428 34.7026L28.1366 36.2602ZM27.262 45.223L27.7112 40.6192L24.2175 39.0616L23.7683 43.6654L27.262 45.223ZM26.3875 54.1856L26.8367 49.5819L23.343 48.0243L22.8938 52.628L26.3875 54.1856ZM25.513 63.1484L25.9622 58.5446L22.4684 56.987L22.0192 61.5908L25.513 63.1484ZM24.6384 72.1111L25.0876 67.5074L21.5939 65.9498L21.1447 70.5535L24.6384 72.1111ZM23.7639 81.0739L24.2131 76.4702L20.7193 74.9126L20.2701 79.5163L23.7639 81.0739ZM22.8893 90.0365L23.3385 85.4328L19.8448 83.8752L19.3956 88.4789L22.8893 90.0365ZM18.9703 92.8377L18.5342 97.3067L22.1456 97.659L22.464 94.3953L18.9703 92.8377ZM27.2665 7.81446L30.7602 9.37205L31.2094 4.76831L30.0034 4.23066L27.6387 3.99992L27.2665 7.81446Z" fill="#F66464"/>
<rect width="9.37499" height="9.37499" rx="0.75" transform="matrix(-0.946551 -0.322553 -0.322553 0.946551 25.9259 46.7227)" fill="#FFFFFB" fill-opacity="0.7"/>
<rect width="9.37499" height="9.37499" rx="0.75" transform="matrix(-0.998058 -0.0622981 -0.0622981 0.998058 43.6978 45.2613)" fill="#FFFFFB" fill-opacity="0.7"/>
<rect width="9.37499" height="9.37499" rx="0.75" transform="matrix(-0.998337 0.0576396 0.0576396 0.998337 33.8145 50.8956)" fill="#FFFFFB" fill-opacity="0.7"/>
<rect width="9.37499" height="9.37499" rx="0.75" transform="matrix(-0.660164 -0.751122 -0.751122 0.660164 18.75 56.2511)" fill="#FFFFFB" fill-opacity="0.7"/>
<rect width="9.37499" height="9.37499" rx="0.75" transform="matrix(-0.950162 -0.311758 -0.311758 0.950162 24.2999 63.8727)" fill="#FFFFFB" fill-opacity="0.7"/>
<rect x="30.3125" y="63.1729" width="9.37499" height="9.37499" rx="0.75" transform="rotate(-18.1652 30.3125 63.1729)" fill="#FFFFFB" fill-opacity="0.7"/>
<rect x="8.02429" y="40.875" width="9.37499" height="9.37499" rx="0.75" transform="rotate(-1.52629 8.02429 40.875)" fill="#FFFFFB" fill-opacity="0.7"/>
<g filter="url(#filter0_b_71_2396)">
<path d="M49.9198 36.0223C49.9627 35.6094 49.6387 35.25 49.2235 35.25H0.776543C0.361331 35.25 0.0373826 35.6093 0.0802906 36.0223L7.07768 103.372C7.11474 103.729 7.41534 104 7.77394 104H42.2261C42.5847 104 42.8853 103.729 42.9224 103.372L49.9198 36.0223Z" fill="#EEF7FF" fill-opacity="0.14"/>
</g>
<path d="M3 37.1586C3 40.4433 12.8497 43 25 43C37.1503 43 47 40.4433 47 37.1586C47 35.1994 32.7383 31.7774 26.1579 28.6609C24.1778 27.7231 26.8538 26.4829 26.2233 24.2416C25.9839 23.3906 25.0702 22.9664 24.1889 23.0365C15.4914 23.7274 3 34.0442 3 37.1586Z" fill="url(#paint1_radial_71_2396)"/>
<mask id="mask0_71_2396" style="mask-type:alpha" maskUnits="userSpaceOnUse" x="8" y="0" width="36" height="33">
<ellipse cx="26" cy="16.5" rx="18" ry="16.5" fill="#D9D9D9"/>
</mask>
<g mask="url(#mask0_71_2396)">
<rect width="3.62849" height="93.7499" transform="matrix(-0.995273 -0.0971141 -0.0971141 0.995273 31.25 4.35229)" fill="#FFE8E8"/>
<path fill-rule="evenodd" clip-rule="evenodd" d="M29.8857 18.3345L30.3349 13.7308L26.8412 12.1732L26.3919 16.7769L29.8857 18.3345ZM29.0111 27.2974L29.4603 22.6937L25.9666 21.1361L25.5174 25.7399L29.0111 27.2974ZM28.1366 36.2602L28.5858 31.6565L25.092 30.0989L24.6428 34.7026L28.1366 36.2602ZM27.262 45.223L27.7112 40.6192L24.2175 39.0616L23.7683 43.6654L27.262 45.223ZM26.3875 54.1856L26.8367 49.5819L23.343 48.0243L22.8938 52.628L26.3875 54.1856ZM25.513 63.1484L25.9622 58.5446L22.4684 56.987L22.0192 61.5908L25.513 63.1484ZM24.6384 72.1111L25.0876 67.5074L21.5939 65.9498L21.1447 70.5535L24.6384 72.1111ZM23.7639 81.0739L24.2131 76.4702L20.7193 74.9126L20.2701 79.5163L23.7639 81.0739ZM22.8893 90.0365L23.3385 85.4328L19.8448 83.8752L19.3956 88.4789L22.8893 90.0365ZM18.9703 92.8377L18.5342 97.3067L22.1456 97.659L22.464 94.3953L18.9703 92.8377ZM27.2665 7.81446L30.7602 9.37205L31.2094 4.76831L30.0034 4.23066L27.6387 3.99992L27.2665 7.81446Z" fill="#F66464"/>
</g>
<defs>
<filter id="filter0_b_71_2396" x="-0.073584" y="35.1" width="50.1472" height="69.0499" filterUnits="userSpaceOnUse" color-interpolation-filters="sRGB">
<feFlood flood-opacity="0" result="BackgroundImageFix"/>
<feGaussianBlur in="BackgroundImageFix" stdDeviation="0.075"/>
<feComposite in2="SourceAlpha" operator="in" result="effect1_backgroundBlur_71_2396"/>
<feBlend mode="normal" in="SourceGraphic" in2="effect1_backgroundBlur_71_2396" result="shape"/>
</filter>
<linearGradient id="paint0_linear_71_2396" x1="17.1875" y1="52.4375" x2="25" y2="101.5" gradientUnits="userSpaceOnUse">
<stop stop-color="#77C065"/>
<stop offset="0.698158" stop-color="#FFF9F4"/>
</linearGradient>
<radialGradient id="paint1_radial_71_2396" cx="0" cy="0" r="1" gradientUnits="userSpaceOnUse" gradientTransform="translate(25.2056 28.5293) rotate(90.9251) scale(12.7342 33.9259)">
<stop offset="0.0001" stop-color="#FFF5F0"/>
<stop offset="0.648177" stop-color="#FFF5F0"/>
<stop offset="1" stop-color="#FAE3D7"/>
</radialGradient>
</defs>
</svg>
