<svg width="88" height="120" viewBox="0 0 88 120" fill="none" xmlns="http://www.w3.org/2000/svg">
<rect width="87.1875" height="120" fill="#FFF9F0"/>
<rect x="4.71875" y="4.71875" width="78.2188" height="110.562" stroke="#E0CA92"/>
<path d="M40.0854 13.2938C40.0854 13.0088 40.0404 12.7663 39.9504 12.5663C39.8654 12.3613 39.7404 12.2063 39.5754 12.1013C39.4104 11.9963 39.2104 11.9438 38.9754 11.9438C38.7454 11.9438 38.5404 11.9988 38.3604 12.1088C38.1804 12.2138 38.0304 12.3738 37.9104 12.5888C37.8304 12.3838 37.7029 12.2263 37.5279 12.1163C37.3579 12.0013 37.1529 11.9438 36.9129 11.9438C36.6979 11.9438 36.5104 11.9913 36.3504 12.0863C36.1954 12.1813 36.0654 12.3263 35.9604 12.5213V12.0188H35.3604V15.4688H35.9604V13.3688C35.9604 13.1888 35.9929 13.0338 36.0579 12.9038C36.1229 12.7738 36.2154 12.6763 36.3354 12.6113C36.4554 12.5413 36.5979 12.5063 36.7629 12.5063C36.9879 12.5063 37.1529 12.5763 37.2579 12.7163C37.3679 12.8563 37.4229 13.0738 37.4229 13.3688V15.4688H38.0229V13.3688C38.0229 13.1888 38.0554 13.0338 38.1204 12.9038C38.1854 12.7738 38.2779 12.6763 38.3979 12.6113C38.5179 12.5413 38.6604 12.5063 38.8254 12.5063C39.0504 12.5063 39.2154 12.5763 39.3204 12.7163C39.4304 12.8563 39.4854 13.0738 39.4854 13.3688V15.4688H40.0854V13.2938Z" fill="#BBA380"/>
<path d="M42.5474 15.5438C42.9174 15.5438 43.2374 15.4713 43.5074 15.3263C43.7824 15.1763 44.0099 14.9563 44.1899 14.6663L43.7024 14.3588C43.5774 14.5688 43.4249 14.7263 43.2449 14.8313C43.0649 14.9313 42.8574 14.9813 42.6224 14.9813C42.3874 14.9813 42.1874 14.9313 42.0224 14.8313C41.8574 14.7313 41.7324 14.5863 41.6474 14.3963C41.5624 14.2063 41.5199 13.9763 41.5199 13.7063C41.5249 13.4413 41.5699 13.2188 41.6549 13.0388C41.7449 12.8538 41.8699 12.7138 42.0299 12.6188C42.1949 12.5188 42.3924 12.4688 42.6224 12.4688C42.8174 12.4688 42.9874 12.5113 43.1324 12.5963C43.2774 12.6813 43.3899 12.7988 43.4699 12.9488C43.5549 13.0988 43.5974 13.2763 43.5974 13.4813C43.5974 13.5163 43.5899 13.5613 43.5749 13.6163C43.5599 13.6663 43.5449 13.7038 43.5299 13.7288L43.7699 13.3838H41.2949V13.8938H44.2424C44.2424 13.8838 44.2424 13.8613 44.2424 13.8263C44.2474 13.7863 44.2499 13.7488 44.2499 13.7138C44.2499 13.3488 44.1849 13.0338 44.0549 12.7688C43.9249 12.5038 43.7374 12.3013 43.4924 12.1613C43.2524 12.0163 42.9624 11.9438 42.6224 11.9438C42.2824 11.9438 41.9824 12.0188 41.7224 12.1688C41.4674 12.3188 41.2674 12.5288 41.1224 12.7988C40.9824 13.0688 40.9124 13.3838 40.9124 13.7438C40.9124 14.0988 40.9799 14.4113 41.1149 14.6813C41.2549 14.9513 41.4474 15.1638 41.6924 15.3188C41.9424 15.4688 42.2274 15.5438 42.5474 15.5438Z" fill="#BBA380"/>
<path d="M47.2848 13.3688V15.4688H47.8848V13.2938C47.8848 12.8788 47.7773 12.5513 47.5623 12.3113C47.3523 12.0663 47.0648 11.9438 46.6998 11.9438C46.4748 11.9438 46.2748 11.9938 46.0998 12.0938C45.9298 12.1938 45.7873 12.3488 45.6723 12.5588V12.0188H45.0723V15.4688H45.6723V13.3688C45.6723 13.1988 45.7073 13.0488 45.7773 12.9188C45.8523 12.7888 45.9548 12.6888 46.0848 12.6188C46.2198 12.5438 46.3748 12.5063 46.5498 12.5063C46.7898 12.5063 46.9723 12.5788 47.0973 12.7238C47.2223 12.8688 47.2848 13.0838 47.2848 13.3688Z" fill="#BBA380"/>
<path d="M49.6127 14.1188V12.0188H49.0127V14.1938C49.0127 14.6038 49.1202 14.9313 49.3352 15.1763C49.5502 15.4213 49.8377 15.5438 50.1977 15.5438C50.4277 15.5438 50.6277 15.4938 50.7977 15.3938C50.9677 15.2888 51.1102 15.1338 51.2252 14.9288V15.4688H51.8252V12.0188H51.2252V14.1188C51.2252 14.2888 51.1877 14.4388 51.1127 14.5688C51.0427 14.6988 50.9402 14.8013 50.8052 14.8763C50.6752 14.9463 50.5227 14.9813 50.3477 14.9813C50.1077 14.9813 49.9252 14.9063 49.8002 14.7563C49.6752 14.6063 49.6127 14.3938 49.6127 14.1188Z" fill="#BBA380"/>
<path d="M59.6747 60.8775L59.4385 61.0238C59.471 61.0913 59.5185 61.1575 59.581 61.2225C59.646 61.2875 59.7247 61.3413 59.8172 61.3838C59.9097 61.4238 60.0135 61.4438 60.1285 61.4438C60.306 61.4438 60.4485 61.3938 60.556 61.2938C60.666 61.1938 60.721 61.0688 60.721 60.9188C60.721 60.8163 60.696 60.7325 60.646 60.6675C60.5985 60.6025 60.5335 60.5475 60.451 60.5025C60.3685 60.455 60.2772 60.4113 60.1772 60.3713C60.1172 60.3463 60.0597 60.32 60.0047 60.2925C59.9497 60.265 59.9047 60.2338 59.8697 60.1988C59.8347 60.1638 59.8172 60.1238 59.8172 60.0788C59.8172 60.0213 59.8397 59.9788 59.8847 59.9513C59.9297 59.9238 59.9835 59.91 60.046 59.91C60.136 59.91 60.216 59.9313 60.286 59.9738C60.3585 60.0163 60.4185 60.07 60.466 60.135L60.706 59.9813C60.671 59.9163 60.6222 59.8588 60.5597 59.8088C60.4972 59.7588 60.4247 59.7188 60.3422 59.6888C60.2622 59.6588 60.176 59.6438 60.0835 59.6438C59.991 59.6438 59.901 59.66 59.8135 59.6925C59.7285 59.725 59.6585 59.775 59.6035 59.8425C59.551 59.91 59.5247 59.995 59.5247 60.0975C59.5247 60.1975 59.5497 60.2813 59.5997 60.3488C59.6522 60.4138 59.716 60.4675 59.791 60.51C59.8685 60.55 59.9447 60.585 60.0197 60.615C60.0872 60.64 60.151 60.6675 60.211 60.6975C60.271 60.725 60.3197 60.76 60.3572 60.8025C60.3972 60.8425 60.4172 60.8925 60.4172 60.9525C60.4172 61.02 60.3922 61.0738 60.3422 61.1138C60.2947 61.1513 60.2285 61.17 60.1435 61.17C60.0735 61.17 60.0085 61.1575 59.9485 61.1325C59.891 61.105 59.8397 61.0688 59.7947 61.0238C59.7497 60.9788 59.7097 60.93 59.6747 60.8775Z" fill="#BBA380"/>
<path d="M60.8351 59.6813L61.5851 61.5375L62.0764 60.2813L62.5976 61.5375L63.3476 59.6813H63.0101L62.5751 60.81L62.0726 59.55L61.6039 60.8025L61.1726 59.6813H60.8351Z" fill="#BBA380"/>
<path d="M64.259 61.4438C64.444 61.4438 64.604 61.4075 64.739 61.335C64.8765 61.26 64.9903 61.15 65.0803 61.005L64.8365 60.8513C64.774 60.9563 64.6978 61.035 64.6078 61.0875C64.5178 61.1375 64.414 61.1625 64.2965 61.1625C64.179 61.1625 64.079 61.1375 63.9965 61.0875C63.914 61.0375 63.8515 60.965 63.809 60.87C63.7665 60.775 63.7453 60.66 63.7453 60.525C63.7478 60.3925 63.7703 60.2813 63.8128 60.1913C63.8578 60.0988 63.9203 60.0288 64.0003 59.9813C64.0828 59.9313 64.1815 59.9063 64.2965 59.9063C64.394 59.9063 64.479 59.9275 64.5515 59.97C64.624 60.0125 64.6803 60.0713 64.7203 60.1463C64.7628 60.2213 64.784 60.31 64.784 60.4125C64.784 60.43 64.7803 60.4525 64.7728 60.48C64.7653 60.505 64.7578 60.5238 64.7503 60.5363L64.8703 60.3638H63.6328V60.6188H65.1065C65.1065 60.6138 65.1065 60.6025 65.1065 60.585C65.109 60.565 65.1103 60.5463 65.1103 60.5288C65.1103 60.3463 65.0778 60.1888 65.0128 60.0563C64.9478 59.9238 64.854 59.8225 64.7315 59.7525C64.6115 59.68 64.4665 59.6438 64.2965 59.6438C64.1265 59.6438 63.9765 59.6813 63.8465 59.7563C63.719 59.8313 63.619 59.9363 63.5465 60.0713C63.4765 60.2063 63.4415 60.3638 63.4415 60.5438C63.4415 60.7213 63.4753 60.8775 63.5428 61.0125C63.6128 61.1475 63.709 61.2538 63.8315 61.3313C63.9565 61.4063 64.099 61.4438 64.259 61.4438Z" fill="#BBA380"/>
<path d="M66.1889 61.4438C66.3739 61.4438 66.5339 61.4075 66.6689 61.335C66.8064 61.26 66.9202 61.15 67.0102 61.005L66.7664 60.8513C66.7039 60.9563 66.6277 61.035 66.5377 61.0875C66.4477 61.1375 66.3439 61.1625 66.2264 61.1625C66.1089 61.1625 66.0089 61.1375 65.9264 61.0875C65.8439 61.0375 65.7814 60.965 65.7389 60.87C65.6964 60.775 65.6752 60.66 65.6752 60.525C65.6777 60.3925 65.7002 60.2813 65.7427 60.1913C65.7877 60.0988 65.8502 60.0288 65.9302 59.9813C66.0127 59.9313 66.1114 59.9063 66.2264 59.9063C66.3239 59.9063 66.4089 59.9275 66.4814 59.97C66.5539 60.0125 66.6102 60.0713 66.6502 60.1463C66.6927 60.2213 66.7139 60.31 66.7139 60.4125C66.7139 60.43 66.7102 60.4525 66.7027 60.48C66.6952 60.505 66.6877 60.5238 66.6802 60.5363L66.8002 60.3638H65.5627V60.6188H67.0364C67.0364 60.6138 67.0364 60.6025 67.0364 60.585C67.0389 60.565 67.0402 60.5463 67.0402 60.5288C67.0402 60.3463 67.0077 60.1888 66.9427 60.0563C66.8777 59.9238 66.7839 59.8225 66.6614 59.7525C66.5414 59.68 66.3964 59.6438 66.2264 59.6438C66.0564 59.6438 65.9064 59.6813 65.7764 59.7563C65.6489 59.8313 65.5489 59.9363 65.4764 60.0713C65.4064 60.2063 65.3714 60.3638 65.3714 60.5438C65.3714 60.7213 65.4052 60.8775 65.4727 61.0125C65.5427 61.1475 65.6389 61.2538 65.7614 61.3313C65.8864 61.4063 66.0289 61.4438 66.1889 61.4438Z" fill="#BBA380"/>
<path d="M67.1889 59.6813V59.9625H68.0514V59.6813H67.1889ZM67.4701 59.0813V61.4063H67.7701V59.0813H67.4701Z" fill="#BBA380"/>
<path d="M68.4235 60.8775L68.1873 61.0238C68.2198 61.0913 68.2673 61.1575 68.3298 61.2225C68.3948 61.2875 68.4735 61.3413 68.566 61.3838C68.6585 61.4238 68.7623 61.4438 68.8773 61.4438C69.0548 61.4438 69.1973 61.3938 69.3048 61.2938C69.4148 61.1938 69.4698 61.0688 69.4698 60.9188C69.4698 60.8163 69.4448 60.7325 69.3948 60.6675C69.3473 60.6025 69.2823 60.5475 69.1998 60.5025C69.1173 60.455 69.026 60.4113 68.926 60.3713C68.866 60.3463 68.8085 60.32 68.7535 60.2925C68.6985 60.265 68.6535 60.2338 68.6185 60.1988C68.5835 60.1638 68.566 60.1238 68.566 60.0788C68.566 60.0213 68.5885 59.9788 68.6335 59.9513C68.6785 59.9238 68.7323 59.91 68.7948 59.91C68.8848 59.91 68.9648 59.9313 69.0348 59.9738C69.1073 60.0163 69.1673 60.07 69.2148 60.135L69.4548 59.9813C69.4198 59.9163 69.371 59.8588 69.3085 59.8088C69.246 59.7588 69.1735 59.7188 69.091 59.6888C69.011 59.6588 68.9248 59.6438 68.8323 59.6438C68.7398 59.6438 68.6498 59.66 68.5623 59.6925C68.4773 59.725 68.4073 59.775 68.3523 59.8425C68.2998 59.91 68.2735 59.995 68.2735 60.0975C68.2735 60.1975 68.2985 60.2813 68.3485 60.3488C68.401 60.4138 68.4648 60.4675 68.5398 60.51C68.6173 60.55 68.6935 60.585 68.7685 60.615C68.836 60.64 68.8998 60.6675 68.9598 60.6975C69.0198 60.725 69.0685 60.76 69.106 60.8025C69.146 60.8425 69.166 60.8925 69.166 60.9525C69.166 61.02 69.141 61.0738 69.091 61.1138C69.0435 61.1513 68.9773 61.17 68.8923 61.17C68.8223 61.17 68.7573 61.1575 68.6973 61.1325C68.6398 61.105 68.5885 61.0688 68.5435 61.0238C68.4985 60.9788 68.4585 60.93 68.4235 60.8775Z" fill="#BBA380"/>
<path d="M20.4809 24.7313V27.6563H20.7809V24.7313H20.4809ZM19.0371 26.7938C19.0371 26.9788 19.0759 27.1388 19.1534 27.2738C19.2309 27.4088 19.3346 27.5125 19.4646 27.585C19.5946 27.6575 19.7371 27.6938 19.8921 27.6938C20.0371 27.6938 20.1634 27.6575 20.2709 27.585C20.3784 27.5125 20.4621 27.4088 20.5221 27.2738C20.5846 27.1388 20.6159 26.9788 20.6159 26.7938C20.6159 26.6063 20.5846 26.4463 20.5221 26.3138C20.4621 26.1788 20.3784 26.075 20.2709 26.0025C20.1634 25.93 20.0371 25.8938 19.8921 25.8938C19.7371 25.8938 19.5946 25.93 19.4646 26.0025C19.3346 26.075 19.2309 26.1788 19.1534 26.3138C19.0759 26.4463 19.0371 26.6063 19.0371 26.7938ZM19.3409 26.7938C19.3409 26.6613 19.3671 26.5488 19.4196 26.4563C19.4746 26.3638 19.5471 26.2938 19.6371 26.2463C19.7271 26.1988 19.8246 26.175 19.9296 26.175C20.0171 26.175 20.1034 26.1988 20.1884 26.2463C20.2734 26.2938 20.3434 26.3638 20.3984 26.4563C20.4534 26.5488 20.4809 26.6613 20.4809 26.7938C20.4809 26.9263 20.4534 27.0388 20.3984 27.1313C20.3434 27.2238 20.2734 27.2938 20.1884 27.3413C20.1034 27.3888 20.0171 27.4125 19.9296 27.4125C19.8246 27.4125 19.7271 27.3888 19.6371 27.3413C19.5471 27.2938 19.4746 27.2238 19.4196 27.1313C19.3671 27.0388 19.3409 26.9263 19.3409 26.7938Z" fill="#BBA380"/>
<path d="M21.6258 25.9313H21.3258V27.6563H21.6258V25.9313ZM22.147 26.2613L22.312 26.0138C22.267 25.9663 22.217 25.935 22.162 25.92C22.1095 25.9025 22.052 25.8938 21.9895 25.8938C21.9095 25.8938 21.8308 25.925 21.7533 25.9875C21.6758 26.05 21.612 26.135 21.562 26.2425C21.5145 26.3475 21.4908 26.4688 21.4908 26.6063H21.6258C21.6258 26.5238 21.6333 26.45 21.6483 26.385C21.6658 26.32 21.6958 26.2688 21.7383 26.2313C21.7808 26.1938 21.8395 26.175 21.9145 26.175C21.9645 26.175 22.0058 26.1825 22.0383 26.1975C22.0708 26.21 22.107 26.2313 22.147 26.2613Z" fill="#BBA380"/>
<path d="M22.6112 25.2188C22.6112 25.2738 22.6312 25.3225 22.6712 25.365C22.7137 25.405 22.7624 25.425 22.8174 25.425C22.8749 25.425 22.9237 25.405 22.9637 25.365C23.0037 25.3225 23.0237 25.2738 23.0237 25.2188C23.0237 25.1613 23.0037 25.1125 22.9637 25.0725C22.9237 25.0325 22.8749 25.0125 22.8174 25.0125C22.7624 25.0125 22.7137 25.0325 22.6712 25.0725C22.6312 25.1125 22.6112 25.1613 22.6112 25.2188ZM22.6674 25.9313V27.6563H22.9674V25.9313H22.6674Z" fill="#BBA380"/>
<path d="M24.6916 26.6063V27.6563H24.9916V26.5688C24.9916 26.3613 24.9378 26.1975 24.8303 26.0775C24.7253 25.955 24.5816 25.8938 24.3991 25.8938C24.2866 25.8938 24.1866 25.9188 24.0991 25.9688C24.0141 26.0188 23.9428 26.0963 23.8853 26.2013V25.9313H23.5853V27.6563H23.8853V26.6063C23.8853 26.5213 23.9028 26.4463 23.9378 26.3813C23.9753 26.3163 24.0266 26.2663 24.0916 26.2313C24.1591 26.1938 24.2366 26.175 24.3241 26.175C24.4441 26.175 24.5353 26.2113 24.5978 26.2838C24.6603 26.3563 24.6916 26.4638 24.6916 26.6063Z" fill="#BBA380"/>
<path d="M25.5368 24.7313V27.6563H25.8368V24.7313H25.5368ZM26.4743 25.9313L25.7243 26.6438L26.5493 27.6563H26.9243L26.0993 26.6438L26.8493 25.9313H26.4743Z" fill="#BBA380"/>
<path d="M27.2784 27.1275L27.0421 27.2738C27.0746 27.3413 27.1221 27.4075 27.1846 27.4725C27.2496 27.5375 27.3284 27.5913 27.4209 27.6338C27.5134 27.6738 27.6171 27.6938 27.7321 27.6938C27.9096 27.6938 28.0521 27.6438 28.1596 27.5438C28.2696 27.4438 28.3246 27.3188 28.3246 27.1688C28.3246 27.0663 28.2996 26.9825 28.2496 26.9175C28.2021 26.8525 28.1371 26.7975 28.0546 26.7525C27.9721 26.705 27.8809 26.6613 27.7809 26.6213C27.7209 26.5963 27.6634 26.57 27.6084 26.5425C27.5534 26.515 27.5084 26.4838 27.4734 26.4488C27.4384 26.4138 27.4209 26.3738 27.4209 26.3288C27.4209 26.2713 27.4434 26.2288 27.4884 26.2013C27.5334 26.1738 27.5871 26.16 27.6496 26.16C27.7396 26.16 27.8196 26.1813 27.8896 26.2238C27.9621 26.2663 28.0221 26.32 28.0696 26.385L28.3096 26.2313C28.2746 26.1663 28.2259 26.1088 28.1634 26.0588C28.1009 26.0088 28.0284 25.9688 27.9459 25.9388C27.8659 25.9088 27.7796 25.8938 27.6871 25.8938C27.5946 25.8938 27.5046 25.91 27.4171 25.9425C27.3321 25.975 27.2621 26.025 27.2071 26.0925C27.1546 26.16 27.1284 26.245 27.1284 26.3475C27.1284 26.4475 27.1534 26.5313 27.2034 26.5988C27.2559 26.6638 27.3196 26.7175 27.3946 26.76C27.4721 26.8 27.5484 26.835 27.6234 26.865C27.6909 26.89 27.7546 26.9175 27.8146 26.9475C27.8746 26.975 27.9234 27.01 27.9609 27.0525C28.0009 27.0925 28.0209 27.1425 28.0209 27.2025C28.0209 27.27 27.9959 27.3238 27.9459 27.3638C27.8984 27.4013 27.8321 27.42 27.7471 27.42C27.6771 27.42 27.6121 27.4075 27.5521 27.3825C27.4946 27.355 27.4434 27.3188 27.3984 27.2738C27.3534 27.2288 27.3134 27.18 27.2784 27.1275Z" fill="#BBA380"/>
<path d="M45.5989 72.6797C45.6442 73.2333 45.3578 73.8675 44.6172 74.5563C43.8819 75.2402 42.7611 75.9156 41.3136 76.5335C38.4237 77.7673 34.3384 78.7272 29.7469 79.1034C25.1553 79.4796 20.9683 79.1974 17.9161 78.4504C16.3873 78.0763 15.1715 77.5923 14.3347 77.0372C13.4919 76.4782 13.1061 75.899 13.0607 75.3455C13.0154 74.7919 13.3018 74.1577 14.0423 73.4689C14.7776 72.7851 15.8985 72.1097 17.346 71.4917C20.2359 70.2579 24.3212 69.298 28.9127 68.9218C33.5042 68.5456 37.6913 68.8279 40.7435 69.5748C42.2723 69.9489 43.4881 70.4329 44.3249 70.988C45.1677 71.547 45.5535 72.1262 45.5989 72.6797Z" fill="#FFF6D8" stroke="#EEBF19"/>
<path d="M23.5481 66.3209C23.409 65.9628 23.5718 65.5582 23.9201 65.3961L25.9065 64.472C27.4843 63.7379 29.2727 63.5926 30.9484 64.0623L33.2536 64.7085C33.6242 64.8124 33.8502 65.1866 33.7696 65.563L31.9668 73.9784C31.899 74.2947 31.6309 74.5285 31.3082 74.5526L27.4117 74.843C27.0919 74.8668 26.7942 74.6789 26.6781 74.38L23.5481 66.3209Z" fill="#F4A86C"/>
<path d="M19.7709 69.3863C19.5854 69.0333 19.7179 68.5968 20.0684 68.4066L23.6512 66.4621L26.7184 74.2734L23.345 75.0282C23.0236 75.1002 22.6939 74.9476 22.5407 74.6561L19.7709 69.3863Z" fill="#D78759"/>
<path d="M37.9527 68.0312C38.0839 67.6547 37.8881 67.2426 37.5133 67.1065L33.6819 65.7145L31.8064 73.8942L35.2544 74.1406C35.5829 74.1641 35.8864 73.9644 35.9947 73.6534L37.9527 68.0312Z" fill="#D78759"/>
<path d="M17.2809 72.6274C17.3216 72.5585 17.3701 72.4945 17.4256 72.4368L19.9873 69.7684L22.6306 74.8339L18.9888 75.7601C18.9779 75.7629 18.9667 75.7647 18.9555 75.7656C17.3981 75.8816 16.3528 74.199 17.1469 72.8543L17.2809 72.6274Z" fill="#F4A86C"/>
<path d="M40.8957 70.8674C40.8452 70.8053 40.7877 70.7492 40.7243 70.7004L37.7954 68.4412L35.9321 73.8425L39.671 74.2187C39.6823 74.2199 39.6935 74.22 39.7048 74.2192C41.2621 74.1031 42.0464 72.2841 41.0618 71.072L40.8957 70.8674Z" fill="#F4A86C"/>
<path d="M48.776 95.0907C49.2286 94.4785 50.0522 94.0791 51.0865 93.9702C60.2293 93.0075 70.9914 96.7207 77.6141 103.123C78.3633 103.847 78.7685 104.67 78.7508 105.433L78.7204 106.743C78.6968 107.762 77.2912 108.236 75.8083 107.724L49.6945 98.7144C48.2116 98.2028 47.3928 96.9616 47.998 96.1429L48.776 95.0907Z" fill="#AB8B4D"/>
<path d="M49.3243 95.2617C49.7769 94.6496 50.0522 94.0791 51.0865 93.9702C60.2293 93.0075 70.9914 96.7207 77.6141 103.123C78.3633 103.847 78.7685 104.67 78.7508 105.433L78.7204 106.743C78.6968 107.762 77.5525 107.495 76.0696 106.983L50.0054 97.9904C49.5459 97.8319 49.1862 97.7078 48.9162 97.5899C48.2284 97.2896 48.6731 96.1303 49.3243 95.2617Z" fill="#CB9F6C"/>
<path d="M66.2501 96.1288C65.8276 97.3535 65.0584 98.1967 64.5285 98.0138C63.9985 97.831 63.9078 96.6911 64.3242 95.4643C64.9718 95.6682 65.6144 95.8899 66.2501 96.1288Z" fill="#E0CA92"/>
<path d="M68.1769 96.9148C68.0847 97.1037 68 97.3078 67.9262 97.5237C67.5047 98.7555 67.5941 99.9028 68.126 100.086C68.6578 100.27 69.4306 99.42 69.8521 98.1882C69.9006 98.0466 69.9422 97.9062 69.9773 97.7682C69.3869 97.4682 68.7862 97.1835 68.1769 96.9148Z" fill="#E0CA92"/>
<path d="M71.8693 98.8033C71.7399 99.0411 71.6222 99.3082 71.5237 99.5961C71.1022 100.828 71.1916 101.975 71.7235 102.159C72.2553 102.342 73.0281 101.492 73.4496 100.261C73.4945 100.129 73.5336 99.9992 73.567 99.871C73.0153 99.5002 72.4487 99.144 71.8693 98.8033Z" fill="#E0CA92"/>
<path d="M75.3306 101.147C75.2543 101.311 75.1839 101.485 75.1212 101.669C74.6997 102.9 74.7891 104.048 75.321 104.231C75.8243 104.405 76.5433 103.653 76.9763 102.528C76.45 102.051 75.9006 101.59 75.3306 101.147Z" fill="#E0CA92"/>
<path d="M56.262 93.9004C56.2098 94.0221 56.161 94.1489 56.1161 94.2801C55.6946 95.5119 55.784 96.6593 56.3159 96.8428C56.8477 97.0263 57.6205 96.1764 58.042 94.9446C58.1405 94.6567 58.2111 94.3734 58.2547 94.106C57.5891 94.0171 56.9242 93.9484 56.262 93.9004Z" fill="#E0CA92"/>
<path d="M60.3807 94.4571C60.3239 94.5876 60.2708 94.7241 60.2224 94.8657C59.8009 96.0975 59.8903 97.2448 60.4222 97.4283C60.954 97.6118 61.7268 96.762 62.1483 95.5302C62.2222 95.3143 62.2803 95.1011 62.3232 94.8952C61.6781 94.7311 61.03 94.5849 60.3807 94.4571Z" fill="#E0CA92"/>
<path d="M54.0901 93.8181C53.3688 93.8164 52.6533 93.8408 51.9463 93.8922C51.5992 95.0469 51.7063 96.0836 52.2096 96.2572C52.7414 96.4407 53.5142 95.5909 53.9357 94.3591C53.9984 94.1759 54.0498 93.9947 54.0901 93.8181Z" fill="#E0CA92"/>
<path d="M64.3118 97.8605C64.8097 97.7567 65.4124 96.9953 65.7686 95.9627C65.5302 95.8731 65.2909 95.7859 65.0506 95.7012C64.8092 95.6198 64.5671 95.5408 64.3242 95.4643C63.9731 96.4987 63.9825 97.4713 64.3118 97.8605Z" fill="#E0CA92"/>
<path d="M68.157 96.9561C68.0725 97.1333 67.9947 97.3234 67.9262 97.5237C67.5706 98.5629 67.5786 99.5421 67.9093 99.933C68.4093 99.8287 69.015 99.0613 69.3706 98.022C69.4191 97.8805 69.4608 97.74 69.4958 97.6021C69.0551 97.3781 68.6085 97.1627 68.157 96.9561Z" fill="#E0CA92"/>
<path d="M71.8203 98.8958C71.7102 99.1097 71.6096 99.345 71.5237 99.5961C71.1681 100.635 71.1762 101.615 71.5068 102.005C72.0068 101.901 72.6125 101.134 72.9681 100.094C73.013 99.9633 73.0521 99.8331 73.0855 99.7049C72.6718 99.4268 72.2498 99.157 71.8203 98.8958Z" fill="#E0CA92"/>
<path d="M75.2598 101.306C75.2104 101.422 75.164 101.544 75.1212 101.669C74.7656 102.708 74.7737 103.687 75.1043 104.078C75.5725 103.98 76.1334 103.301 76.4948 102.362C76.0961 102.001 75.684 101.648 75.2598 101.306Z" fill="#E0CA92"/>
<path d="M57.7552 94.0431C57.2565 93.984 56.7585 93.9363 56.262 93.9004C56.2098 94.0221 56.161 94.1489 56.1161 94.2801C55.7604 95.3194 55.7685 96.2985 56.0992 96.6894C56.5992 96.5851 57.2049 95.8178 57.5605 94.7785C57.6465 94.5274 57.7112 94.2797 57.7552 94.0431Z" fill="#E0CA92"/>
<path d="M61.8322 94.7739C61.3495 94.6582 60.8654 94.5525 60.3807 94.4571C60.3239 94.5876 60.2708 94.7241 60.2224 94.8657C59.8667 95.9049 59.8748 96.8841 60.2055 97.275C60.7055 97.1707 61.3112 96.4033 61.6668 95.364C61.7353 95.1638 61.7903 94.9658 61.8322 94.7739Z" fill="#E0CA92"/>
<path d="M53.5668 93.8215C53.0226 93.8298 52.482 93.8532 51.9463 93.8922C51.6565 94.8561 51.6833 95.7379 51.9929 96.1039C52.4929 95.9996 53.0986 95.2322 53.4542 94.193C53.497 94.068 53.5345 93.9438 53.5668 93.8215Z" fill="#E0CA92"/>
<path d="M41.5188 106.07C41.8431 105.353 42.6686 104.75 43.8346 104.377C54.1423 101.085 67.872 101.965 77.6772 106.545C78.7863 107.064 79.5285 107.767 79.759 108.52L80.1553 109.813C80.4636 110.819 78.9862 111.645 77.0944 111.524L43.7798 109.389C41.888 109.268 40.5276 108.261 40.9613 107.302L41.5188 106.07Z" fill="#FCCA6B"/>
<path d="M42.2122 106.097C42.5365 105.38 42.6686 104.75 43.8346 104.377C54.1423 101.085 67.872 101.965 77.6772 106.545C78.7863 107.064 79.5285 107.767 79.759 108.52L80.1553 109.813C80.4636 110.819 79.0458 110.851 77.154 110.729L43.9027 108.599C43.3164 108.562 42.8575 108.532 42.505 108.486C41.6068 108.368 41.7416 107.116 42.2122 106.097Z" fill="#FFD88D"/>
<path d="M62.1672 102.602C62.0797 103.912 61.4635 104.936 60.7875 104.893C60.1114 104.85 59.6305 103.755 59.7102 102.444C60.53 102.478 61.3498 102.53 62.1672 102.602Z" fill="#FFF6D8"/>
<path d="M64.6653 102.878C64.6203 103.087 64.5892 103.309 64.5744 103.54C64.4904 104.856 64.9723 105.959 65.6508 106.003C66.3293 106.046 66.9474 105.014 67.0315 103.697C67.0411 103.546 67.0433 103.397 67.0386 103.253C66.2537 103.11 65.4618 102.985 64.6653 102.878Z" fill="#FFF6D8"/>
<path d="M69.5782 103.783C69.5062 104.049 69.4574 104.341 69.4378 104.649C69.3537 105.966 69.8356 107.069 70.5141 107.112C71.1926 107.156 71.8108 106.123 71.8948 104.807C71.9037 104.666 71.9063 104.529 71.9028 104.394C71.1395 104.172 70.3638 103.968 69.5782 103.783Z" fill="#FFF6D8"/>
<path d="M74.3725 105.193C74.3379 105.373 74.3136 105.563 74.3011 105.759C74.2171 107.076 74.699 108.178 75.3775 108.222C76.0195 108.263 76.6075 107.341 76.74 106.126C75.9714 105.793 75.1811 105.482 74.3725 105.193Z" fill="#FFF6D8"/>
<path d="M49.826 102.98C49.8055 103.113 49.7905 103.25 49.7815 103.39C49.6975 104.707 50.1794 105.809 50.8579 105.853C51.5364 105.896 52.1545 104.864 52.2386 103.547C52.2582 103.24 52.2469 102.944 52.2095 102.67C51.4067 102.754 50.6113 102.857 49.826 102.98Z" fill="#FFF6D8"/>
<path d="M54.7957 102.469C54.7727 102.611 54.756 102.759 54.7463 102.91C54.6623 104.227 55.1442 105.33 55.8227 105.373C56.5012 105.416 57.1193 104.384 57.2033 103.068C57.2181 102.837 57.2154 102.613 57.1974 102.4C56.3937 102.404 55.5924 102.427 54.7957 102.469Z" fill="#FFF6D8"/>
<path d="M47.275 103.457C46.4362 103.641 45.6128 103.848 44.8081 104.08C44.7851 105.302 45.2511 106.292 45.8931 106.333C46.5716 106.376 47.1898 105.344 47.2738 104.027C47.2863 103.832 47.2863 103.641 47.275 103.457Z" fill="#FFF6D8"/>
<path d="M60.4851 104.798C61.0296 104.569 61.4792 103.667 61.553 102.562C61.2464 102.536 60.9395 102.512 60.6324 102.49C60.3251 102.472 60.0177 102.457 59.7102 102.444C59.643 103.549 59.9743 104.501 60.4851 104.798Z" fill="#FFF6D8"/>
<path d="M64.6557 102.924C64.6159 103.119 64.5881 103.326 64.5744 103.54C64.5035 104.651 64.8355 105.609 65.3485 105.908C65.8952 105.677 66.3463 104.769 66.4172 103.658C66.4269 103.506 66.429 103.358 66.4243 103.214C65.8383 103.107 65.2485 103.01 64.6557 102.924Z" fill="#FFF6D8"/>
<path d="M69.5518 103.886C69.4942 104.124 69.4549 104.381 69.4378 104.649C69.3669 105.76 69.6988 106.719 70.2118 107.017C70.7585 106.787 71.2096 105.878 71.2805 104.767C71.2895 104.627 71.292 104.489 71.2886 104.355C70.7163 104.188 70.137 104.032 69.5518 103.886Z" fill="#FFF6D8"/>
<path d="M74.3427 105.367C74.3237 105.494 74.3096 105.625 74.3011 105.759C74.2302 106.87 74.5622 107.828 75.0751 108.127C75.5871 107.911 76.0152 107.101 76.1258 106.086C75.5434 105.834 74.9485 105.595 74.3427 105.367Z" fill="#FFF6D8"/>
<path d="M51.6083 102.737C51.0093 102.807 50.4148 102.888 49.826 102.98C49.8055 103.113 49.7905 103.25 49.7815 103.39C49.7106 104.501 50.0426 105.46 50.5556 105.758C51.1023 105.527 51.5534 104.619 51.6243 103.508C51.6415 103.24 51.6351 102.98 51.6083 102.737Z" fill="#FFF6D8"/>
<path d="M56.5868 102.407C55.9878 102.417 55.3905 102.438 54.7957 102.469C54.7727 102.611 54.756 102.759 54.7463 102.91C54.6754 104.021 55.0074 104.98 55.5203 105.278C56.0671 105.047 56.5182 104.139 56.5891 103.028C56.6028 102.814 56.6015 102.606 56.5868 102.407Z" fill="#FFF6D8"/>
<path d="M46.668 103.595C46.0383 103.743 45.4178 103.904 44.8081 104.08C44.7889 105.1 45.1105 105.958 45.5908 106.238C46.1376 106.007 46.5886 105.099 46.6595 103.988C46.6681 103.854 46.6708 103.723 46.668 103.595Z" fill="#FFF6D8"/>
<ellipse cx="59.0325" cy="39.6712" rx="18.75" ry="12.4738" transform="rotate(4.42484 59.0325 39.6712)" fill="#BBA380"/>
<ellipse cx="59.0022" cy="39.0394" rx="16.0042" ry="9.96339" transform="rotate(4.42484 59.0022 39.0394)" fill="#E0CA92"/>
<path fill-rule="evenodd" clip-rule="evenodd" d="M70.1462 32.0963L47.7129 30.3604L46.8461 41.5619L46.8469 41.5619C46.8319 41.938 47.055 42.3225 47.4904 42.4282C47.5364 42.4394 47.5826 42.4512 47.6267 42.4684C53.7831 44.8777 60.367 46.0035 66.9742 45.7769L67.2691 45.7668C67.3541 45.7638 67.4394 45.7669 67.5247 45.7699C67.6383 45.7739 67.7518 45.7779 67.8647 45.7679C68.3007 45.7293 68.69 45.4494 68.8568 45.0277C69.0812 44.4604 69.2197 43.8787 69.278 43.2977L69.2794 43.2978L69.2869 43.2007C69.2896 43.169 69.2921 43.1373 69.2943 43.1057L70.1462 32.0963Z" fill="#FCE2AF"/>
<path d="M48.4092 31.4838C47.5395 31.3398 47.4325 30.1342 48.2632 29.84L61.0524 25.3111C62.7063 24.7254 64.5299 24.8528 66.0865 25.6628L66.6789 25.9711C69.6152 27.4992 70.9217 30.9946 69.7056 34.0691C69.5015 34.5851 68.9643 34.8887 68.4161 34.7979L68.0626 34.7705C61.4273 34.2571 54.8505 33.1572 48.4092 31.4838V31.4838Z" fill="#FFF9F4"/>
<path fill-rule="evenodd" clip-rule="evenodd" d="M69.7843 36.763L58.2008 35.5084L47.5068 33.0136L47.3433 35.1275L58.0411 37.5727L69.6223 38.8575L69.7843 36.763Z" fill="#FFF6EE"/>
<path fill-rule="evenodd" clip-rule="evenodd" d="M69.5057 40.3769L57.9134 39.277L47.2002 36.9898L46.9181 40.6357L57.6174 43.1026L69.2037 44.2806L69.5057 40.3769Z" fill="#FFF6EE"/>
<path d="M66.4023 40.7798C67.9005 41.0361 68.2157 42.2932 67.969 43.7352C66.4159 43.568 67.0969 43.7363 65.5986 43.48C64.1003 43.2237 64.0547 43.3138 62.0187 42.7412C62.2654 41.2992 64.904 40.5235 66.4023 40.7798Z" fill="#F76464"/>
<path d="M51.8593 38.494C53.3576 38.7503 53.6727 40.0074 53.426 41.4494C51.873 41.2822 52.5539 41.4505 51.0556 41.1942C49.5573 40.9379 49.5117 41.028 47.4757 40.4554C47.7224 39.0135 50.361 38.2377 51.8593 38.494Z" fill="#F76464"/>
<path d="M58.6782 42.4115C60.1793 42.6509 60.8821 41.562 61.1125 40.1173C59.5882 39.776 60.2871 39.8357 58.786 39.5963C57.2849 39.357 57.2707 39.257 55.1587 39.1441C54.9284 40.5888 57.1772 42.1722 58.6782 42.4115Z" fill="#F76464"/>
<path d="M65.5756 25.2598C65.5092 26.1173 64.7656 26.2747 63.8686 26.2053C62.9717 26.1359 62.2611 25.8659 62.3275 25.0084C62.3683 24.4804 62.7626 23.8254 63.2486 23.1517C63.6777 22.5568 64.6115 22.6333 64.9412 23.2885C65.3047 24.0111 65.6147 24.7547 65.5756 25.2598Z" fill="url(#paint0_radial_257_819)"/>
<path d="M68.0502 27.6194C67.9838 28.4769 67.2402 28.6344 66.3432 28.565C65.4463 28.4956 64.7357 28.2256 64.8021 27.3681C64.8142 27.2114 64.8574 27.0436 64.9249 26.8674C65.4498 25.4976 67.6725 25.6805 67.9998 27.1105C68.0424 27.2968 68.0619 27.4687 68.0502 27.6194Z" fill="url(#paint1_radial_257_819)"/>
<path d="M69.4799 30.448C69.4135 31.3055 68.6699 31.4629 67.7729 31.3935C66.876 31.3241 66.1654 31.0541 66.2318 30.1966C66.2439 30.04 66.2871 29.8722 66.3546 29.696C66.8795 28.3261 69.1021 28.5091 69.4295 29.939C69.4721 30.1253 69.4915 30.2973 69.4799 30.448Z" fill="url(#paint2_radial_257_819)"/>
<path d="M69.0697 33.3785C69.0034 34.236 68.2597 34.3934 67.3628 34.324C66.4658 34.2546 65.7552 33.9846 65.8216 33.1271C65.8625 32.5991 66.2567 31.9441 66.7428 31.2704C67.1719 30.6755 68.1057 30.752 68.4353 31.4073C68.7989 32.1298 69.1088 32.8734 69.0697 33.3785Z" fill="url(#paint3_radial_257_819)"/>
<path d="M64.4036 29.3589C64.2863 30.8744 63.0636 31.3039 61.605 31.1911C60.1464 31.0782 59.0043 30.4657 59.1216 28.9502C59.2389 27.4346 60.6092 25.098 62.0678 25.2109C63.5263 25.3237 64.5209 27.8434 64.4036 29.3589Z" fill="#F76464"/>
<path d="M11.25 32.3438L11.9671 32.6575C13.9193 33.5116 16.119 33.6114 18.1406 32.9375V32.9375C19.3143 32.5463 20.5586 32.4126 21.7886 32.5456L27.3937 33.1515C28.1908 33.2377 28.9954 33.2277 29.7902 33.1217L35.625 32.3438" stroke="#E0CA92" stroke-width="2" stroke-linecap="round"/>
<path d="M35.625 39.6094L34.9079 39.2957C32.9557 38.4415 30.756 38.3418 28.7344 39.0156V39.0156C27.5607 39.4069 26.3164 39.5405 25.0864 39.4076L19.4813 38.8016C18.6842 38.7154 17.8796 38.7254 17.0848 38.8314L11.25 39.6094" stroke="#E0CA92" stroke-width="2" stroke-linecap="round"/>
<path d="M35.625 49.2188L34.9079 49.5325C32.9557 50.3866 30.756 50.4864 28.7344 49.8125V49.8125C27.5607 49.4213 26.3164 49.2876 25.0864 49.4206L19.4813 50.0265C18.6842 50.1127 17.8796 50.1027 17.0848 49.9967L11.25 49.2188" stroke="#E0CA92" stroke-width="2" stroke-linecap="round"/>
<path d="M11.25 43.5938L11.9671 43.9075C13.9193 44.7616 16.119 44.8614 18.1406 44.1875V44.1875C19.3143 43.7963 20.5586 43.6626 21.7886 43.7956L27.3937 44.4015C28.1908 44.4877 28.9954 44.4777 29.7902 44.3717L35.625 43.5938" stroke="#E0CA92" stroke-width="2" stroke-linecap="round"/>
<path d="M13.125 86.7188L13.8421 87.0325C15.7943 87.8866 17.994 87.9864 20.0156 87.3125V87.3125C21.1893 86.9213 22.4336 86.7876 23.6636 86.9206L29.2687 87.5265C30.0658 87.6127 30.8704 87.6027 31.6652 87.4967L37.5 86.7188" stroke="#E0CA92" stroke-width="2" stroke-linecap="round"/>
<path d="M37.5 93.9844L36.7829 93.6707C34.8307 92.8165 32.631 92.7168 30.6094 93.3906V93.3906C29.4357 93.7819 28.1914 93.9155 26.9614 93.7826L21.3563 93.1766C20.5592 93.0904 19.7546 93.1004 18.9598 93.2064L13.125 93.9844" stroke="#E0CA92" stroke-width="2" stroke-linecap="round"/>
<path d="M37.5 103.594L36.7829 103.907C34.8307 104.762 32.631 104.861 30.6094 104.188V104.188C29.4357 103.796 28.1914 103.663 26.9614 103.796L21.3563 104.402C20.5592 104.488 19.7546 104.478 18.9598 104.372L13.125 103.594" stroke="#E0CA92" stroke-width="2" stroke-linecap="round"/>
<path d="M13.125 97.9688L13.8421 98.2825C15.7943 99.1366 17.994 99.2364 20.0156 98.5625V98.5625C21.1893 98.1713 22.4336 98.0376 23.6636 98.1706L29.2687 98.7765C30.0658 98.8627 30.8704 98.8527 31.6652 98.7467L37.5 97.9688" stroke="#E0CA92" stroke-width="2" stroke-linecap="round"/>
<path d="M52.0312 65.625L52.7483 65.9387C54.7006 66.7928 56.9003 66.8926 58.9219 66.2188V66.2188C60.0956 65.8275 61.3398 65.6938 62.5699 65.8268L68.175 66.4328C68.9721 66.5189 69.7767 66.5089 70.5714 66.403L76.4062 65.625" stroke="#E0CA92" stroke-width="2" stroke-linecap="round"/>
<path d="M76.4062 72.8906L75.6892 72.5769C73.7369 71.7228 71.5372 71.623 69.5156 72.2969V72.2969C68.3419 72.6881 67.0977 72.8218 65.8676 72.6888L60.2625 72.0829C59.4654 71.9967 58.6608 72.0067 57.8661 72.1126L52.0312 72.8906" stroke="#E0CA92" stroke-width="2" stroke-linecap="round"/>
<path d="M76.4062 82.5L75.6892 82.8137C73.7369 83.6678 71.5372 83.7676 69.5156 83.0938V83.0938C68.3419 82.7025 67.0977 82.5688 65.8676 82.7018L60.2625 83.3078C59.4654 83.3939 58.6608 83.3839 57.8661 83.278L52.0312 82.5" stroke="#E0CA92" stroke-width="2" stroke-linecap="round"/>
<path d="M52.0312 76.875L52.7483 77.1887C54.7006 78.0428 56.9003 78.1426 58.9219 77.4688V77.4688C60.0956 77.0775 61.3398 76.9438 62.5699 77.0768L68.175 77.6828C68.9721 77.7689 69.7767 77.7589 70.5714 77.653L76.4062 76.875" stroke="#E0CA92" stroke-width="2" stroke-linecap="round"/>
<defs>
<radialGradient id="paint0_radial_257_819" cx="0" cy="0" r="1" gradientUnits="userSpaceOnUse" gradientTransform="translate(64.1107 22.8801) rotate(94.1632) scale(3.33399 2.51223)">
<stop stop-color="#FFF5F0"/>
<stop offset="0.0001" stop-color="#FFF5F0"/>
<stop offset="1" stop-color="#FFECE2"/>
</radialGradient>
<radialGradient id="paint1_radial_257_819" cx="0" cy="0" r="1" gradientUnits="userSpaceOnUse" gradientTransform="translate(66.5853 25.2398) rotate(94.1632) scale(3.33399 2.51223)">
<stop stop-color="#FFF5F0"/>
<stop offset="0.0001" stop-color="#FFF5F0"/>
<stop offset="1" stop-color="#FFECE2"/>
</radialGradient>
<radialGradient id="paint2_radial_257_819" cx="0" cy="0" r="1" gradientUnits="userSpaceOnUse" gradientTransform="translate(68.015 28.0683) rotate(94.1632) scale(3.33399 2.51223)">
<stop stop-color="#FFF5F0"/>
<stop offset="0.0001" stop-color="#FFF5F0"/>
<stop offset="1" stop-color="#FFECE2"/>
</radialGradient>
<radialGradient id="paint3_radial_257_819" cx="0" cy="0" r="1" gradientUnits="userSpaceOnUse" gradientTransform="translate(67.6048 30.9988) rotate(94.1632) scale(3.33399 2.51223)">
<stop stop-color="#FFF5F0"/>
<stop offset="0.0001" stop-color="#FFF5F0"/>
<stop offset="1" stop-color="#FFECE2"/>
</radialGradient>
</defs>
</svg>
