<svg width="120" height="98" viewBox="0 0 120 98" fill="none" xmlns="http://www.w3.org/2000/svg">
<rect x="28.834" y="35.5822" width="34.3303" height="65.9504" rx="11" transform="rotate(-19.7777 28.834 35.5822)" fill="#3A6130"/>
<rect x="32.2432" y="10.3548" width="10.8412" height="28.9097" rx="5" transform="rotate(-19.7777 32.2432 10.3548)" fill="#3A6130"/>
<path d="M32.9199 12.2368C32.5462 11.1974 33.0858 10.0518 34.1252 9.67802L40.5628 7.36317C41.6022 6.98941 42.7478 7.52903 43.1216 8.56845L44.279 11.7873L34.0773 15.4556L32.9199 12.2368Z" fill="#C79152"/>
<rect x="33.1133" y="47.4842" width="34.3303" height="40.6543" transform="rotate(-19.7777 33.1133 47.4842)" fill="#F1DDB6"/>
<path d="M6.79829 30.9337C8.54904 29.9256 10.7079 29.674 12.8542 30.228C31.8287 35.1249 47.1973 51.6247 50.7365 70.8987C51.1369 73.0789 50.7329 75.2145 49.6032 76.8893L47.6614 79.7683C46.1506 82.0082 42.7653 81.9769 40.6476 79.7034L3.35638 39.6672C1.23873 37.3937 1.4475 34.0147 3.78892 32.6665L6.79829 30.9337Z" fill="#FCCA6B"/>
<path d="M7.6072 31.7342C9.35795 30.7261 10.7079 29.674 12.8542 30.228C31.8287 35.1249 47.1973 51.6247 50.7365 70.8987C51.1369 73.0789 50.7329 75.2145 49.6032 76.8893L47.6614 79.7683C46.1506 82.0082 44.3334 80.5362 42.2157 78.2627L4.99526 38.3025C4.33901 37.598 3.82539 37.0465 3.4754 36.5778C2.58381 35.3837 5.10568 33.1576 7.6072 31.7342Z" fill="#FFD88D"/>
<path d="M38.926 46.6683C36.3527 49.0565 33.6607 50.3328 32.9039 49.5203C32.1471 48.7078 33.6111 46.1131 36.1757 43.7155C37.1287 44.6652 38.0463 45.6504 38.926 46.6683Z" fill="#FFE99B"/>
<path d="M41.5033 49.8909C41.0543 50.2384 40.598 50.6254 40.1457 51.0468C37.564 53.4514 36.0869 56.0618 36.8463 56.8772C37.6058 57.6925 40.3143 56.4042 42.896 53.9996C43.1926 53.7232 43.4747 53.4442 43.7405 53.1655C43.0358 52.047 42.2892 50.9546 41.5033 49.8909Z" fill="#FFE99B"/>
<path d="M45.8927 56.9131C45.3019 57.3405 44.6916 57.8416 44.0881 58.4036C41.5065 60.8083 40.0293 63.4186 40.7888 64.234C41.5483 65.0494 44.2568 63.761 46.8385 61.3564C47.1134 61.1003 47.3758 60.8419 47.6244 60.5835C47.0959 59.3379 46.5177 58.1134 45.8927 56.9131Z" fill="#FFE99B"/>
<path d="M49.1838 64.7651C48.8011 65.0701 48.4145 65.403 48.0306 65.7605C45.449 68.1651 43.9718 70.7755 44.7313 71.5909C45.45 72.3625 47.914 71.2502 50.3643 69.0908C50.0373 67.6298 49.6426 66.1865 49.1838 64.7651Z" fill="#FFE99B"/>
<path d="M22.9123 34.0524C22.6369 34.282 22.3606 34.5254 22.0856 34.7816C19.504 37.1862 18.0268 39.7965 18.7863 40.6119C19.5458 41.4273 22.2543 40.139 24.8359 37.7343C25.4393 37.1723 25.9824 36.599 26.4507 36.04C25.2977 35.3314 24.1173 34.6679 22.9123 34.0524Z" fill="#FFE99B"/>
<path d="M30.0363 38.4525C29.7394 38.6978 29.4411 38.9594 29.1444 39.2357C26.5627 41.6404 25.0856 44.2507 25.8451 45.0661C26.6046 45.8815 29.3131 44.5931 31.8947 42.1885C32.3471 41.7672 32.7655 41.3395 33.144 40.9163C32.1387 40.0569 31.1019 39.2347 30.0363 38.4525Z" fill="#FFE99B"/>
<path d="M18.8517 32.2004C17.4664 31.642 16.0549 31.1459 14.6206 30.7162C12.293 33.0072 11.0088 35.3861 11.7275 36.1577C12.487 36.9731 15.1955 35.6848 17.7771 33.2801C18.161 32.9226 18.5204 32.5605 18.8517 32.2004Z" fill="#FFE99B"/>
<path d="M32.7073 49.014C33.8147 49.1668 36.0687 47.9436 38.2384 45.9301C37.9085 45.5483 37.5733 45.1712 37.2328 44.7988C36.8855 44.4328 36.5331 44.0717 36.1757 43.7155C34.0134 45.737 32.6335 47.8986 32.7073 49.014Z" fill="#FFF6D8"/>
<path d="M41.4057 49.967C40.9883 50.2946 40.5653 50.6559 40.1457 51.0468C37.9675 53.0756 36.5756 55.2508 36.6498 56.3709C37.7619 56.5243 40.0303 55.2901 42.2084 53.2614C42.5051 52.985 42.7871 52.706 43.0529 52.4273C42.5269 51.5923 41.9774 50.7718 41.4057 49.967Z" fill="#FFF6D8"/>
<path d="M45.6655 57.0804C45.1461 57.4695 44.6145 57.9134 44.0881 58.4036C41.91 60.4324 40.5181 62.6076 40.5923 63.7277C41.7043 63.8812 43.9728 62.647 46.1509 60.6182C46.4258 60.3621 46.6883 60.1037 46.9368 59.8453C46.5405 58.9114 46.1164 57.9893 45.6655 57.0804Z" fill="#FFF6D8"/>
<path d="M48.8184 65.0639C48.5559 65.2839 48.2926 65.5165 48.0306 65.7605C45.8525 67.7893 44.4606 69.9645 44.5348 71.0846C45.576 71.2283 47.6312 70.1553 49.6767 68.3526C49.429 67.2456 49.1423 66.1488 48.8184 65.0639Z" fill="#FFF6D8"/>
<path d="M25.5801 35.5166C24.7054 35.0024 23.8158 34.5139 22.9123 34.0524C22.6369 34.282 22.3606 34.5254 22.0856 34.7816C19.9075 36.8103 18.5156 38.9855 18.5898 40.1057C19.7018 40.2591 21.9702 39.0249 24.1483 36.9961C24.6747 36.5058 25.1552 36.007 25.5801 35.5166Z" fill="#FFF6D8"/>
<path d="M32.3736 40.2701C31.6113 39.6427 30.8318 39.0364 30.0363 38.4525C29.7394 38.6978 29.4411 38.9594 29.1444 39.2357C26.9663 41.2645 25.5744 43.4397 25.6486 44.5599C26.7606 44.7133 29.029 43.4791 31.2071 41.4503C31.6267 41.0595 32.0172 40.6632 32.3736 40.2701Z" fill="#FFF6D8"/>
<path d="M17.8402 31.8056C16.7811 31.4055 15.7074 31.0418 14.6206 30.7162C12.6774 32.6288 11.4615 34.6026 11.531 35.6515C12.643 35.8049 14.9114 34.5707 17.0895 32.5419C17.3515 32.2979 17.6022 32.0517 17.8402 31.8056Z" fill="#FFF6D8"/>
<path d="M63.667 14.4451C65.1836 14.0776 67.7903 19.4624 68.384 21.9124C68.9777 24.3624 68.2296 26.6464 66.7129 27.014C65.1963 27.3815 63.4855 25.6934 62.8917 23.2434C62.298 20.7935 62.1503 14.8127 63.667 14.4451Z" fill="#A9CCA1"/>
<path d="M84.5239 18.5403C86.0824 18.6185 87.0529 24.5218 86.9266 27.0395C86.8003 29.5572 85.4344 31.5348 83.8758 31.4566C82.3172 31.3784 81.1561 29.274 81.2824 26.7563C81.4088 24.2386 82.9653 18.462 84.5239 18.5403Z" fill="#A9CCA1"/>
<path d="M106.645 43.3981C106.612 44.9583 100.74 46.0994 98.2193 46.0461C95.699 45.9928 93.6826 44.6847 93.7156 43.1245C93.7486 41.5644 95.8185 40.3428 98.3388 40.3961C100.859 40.4494 106.678 41.8379 106.645 43.3981Z" fill="#A9CCA1"/>
<path d="M102.007 62.6634C101.544 64.1534 95.5845 63.6234 93.1776 62.8741C90.7706 62.1249 89.1954 60.3096 89.6592 58.8196C90.123 57.3295 92.4503 56.729 94.8572 57.4783C97.2642 58.2275 102.471 61.1733 102.007 62.6634Z" fill="#A9CCA1"/>
<path d="M108.015 55.4937C107.192 58.0014 100.969 58.2109 98.5741 57.4248C96.1789 56.6387 94.9045 53.9685 95.7275 51.4608C96.5506 48.953 99.1594 47.5574 101.555 48.3435C103.95 49.1296 108.838 52.986 108.015 55.4937Z" fill="#8BAF82"/>
<path d="M77.0173 14.5254C79.2503 14.765 80.5736 19.4956 80.3637 21.4513C80.1538 23.407 78.1735 24.7982 75.9406 24.5585C73.7076 24.3189 72.0676 22.5392 72.2775 20.5835C72.4874 18.6278 74.7844 14.2858 77.0173 14.5254Z" fill="#8BAF82"/>
<path d="M84.8847 37.7769C85.2008 39.0814 82.2356 40.9195 80.8468 41.256C79.458 41.5925 78.0759 40.8077 77.7598 39.5032C77.4437 38.1987 78.3134 36.8683 79.7022 36.5318C81.091 36.1953 84.5686 36.4723 84.8847 37.7769Z" fill="#A9CCA1"/>
<rect x="84.7988" y="39.227" width="2.82562" height="22.134" rx="1.41281" transform="rotate(46.2196 84.7988 39.227)" fill="#82A579"/>
<path d="M102.111 39.5956C96.2897 45.1742 88.2153 46.1953 84.0763 41.8763C79.9373 37.5572 81.3011 29.5336 87.1224 23.9549C89.5025 21.674 96.2957 23.3175 99.717 26.8877C103.79 31.1378 104.491 37.3147 102.111 39.5956Z" fill="#D68F8F"/>
<path d="M93.9344 27.2116C92.6841 28.4097 92.8377 30.5988 94.2773 32.1011C95.717 33.6033 97.8975 33.8499 99.1478 32.6518C101.339 30.5524 98.215 30.3654 96.5411 29.9317C95.1434 29.5695 94.2264 26.9317 93.9344 27.2116Z" fill="#FAA3A3"/>
<path d="M99.1473 32.6518C97.8971 33.8499 95.7165 33.6033 94.2769 32.1011C92.8372 30.5988 92.6837 28.4097 93.9339 27.2116C96.1246 25.1122 96.1786 28.2409 96.5406 29.9317C96.843 31.3435 99.4394 32.3719 99.1473 32.6518Z" fill="#FAA3A3"/>
<path d="M87.1224 23.9549C81.3011 29.5335 79.9373 37.5572 84.0763 41.8763C88.2153 46.1953 96.2897 45.1742 102.111 39.5956C112.311 29.8204 100.597 31.9025 94.6167 31.7752C89.6228 31.6689 88.4825 22.6515 87.1224 23.9549Z" fill="#E6A2A2"/>
<path d="M102.111 39.5956C96.29 45.1742 88.2156 46.1953 84.0766 41.8763C79.9376 37.5572 81.3014 29.5335 87.1228 23.9549C97.3232 14.1797 94.7444 25.7945 94.6171 31.7752C94.5107 36.7691 103.471 38.2922 102.111 39.5956Z" fill="#FDC2C2"/>
<rect width="2.82562" height="22.134" rx="1.41281" transform="matrix(-0.864855 -0.502021 -0.502021 0.864855 71.5322 39.1348)" fill="#82A579"/>
<path d="M67.0903 22.3983C63.0426 29.3715 63.9554 37.4589 69.129 40.462C74.3027 43.4652 81.7781 40.2468 85.8258 33.2737C87.4807 30.4226 84.2809 24.209 80.0044 21.7266C74.9132 18.7714 68.7453 19.5473 67.0903 22.3983Z" fill="#D1BF92"/>
<path d="M81.0537 27.423C80.1843 28.9206 78.0208 29.2878 76.2213 28.2433C74.4218 27.1987 73.6677 25.1379 74.537 23.6402C76.0602 21.0161 76.9789 24.0073 77.7953 25.5316C78.477 26.8044 81.2568 27.0731 81.0537 27.423Z" fill="#FAE7A3"/>
<path d="M74.5369 23.6403C73.6676 25.1379 74.4217 27.1987 76.2212 28.2433C78.0207 29.2879 80.1843 28.9206 81.0536 27.423C82.5768 24.7988 79.5238 25.4846 77.7952 25.5316C76.3519 25.5709 74.74 23.2904 74.5369 23.6403Z" fill="#FAE7A3"/>
<path d="M85.8258 33.2737C81.7781 40.2468 74.3027 43.4652 69.129 40.4621C63.9554 37.4589 63.0427 29.3715 67.0904 22.3983C74.183 10.1796 74.9233 22.0541 76.4581 27.836C77.7396 32.6638 86.7715 31.6445 85.8258 33.2737Z" fill="#FBCD89"/>
<path d="M67.0903 22.3983C63.0426 29.3715 63.9553 37.4589 69.129 40.4621C74.3026 43.4652 81.778 40.2468 85.8257 33.2737C92.9183 21.0549 82.2399 26.3012 76.458 27.836C71.6302 29.1175 68.036 20.7692 67.0903 22.3983Z" fill="#FFDAB8"/>
<path d="M83.4457 39.2309C85.5825 39.4602 86.8279 44.1824 86.618 46.1381C86.4081 48.0938 84.5057 49.4933 82.369 49.264C80.2322 49.0347 78.6701 47.2634 78.88 45.3077C79.0899 43.352 81.3089 39.0015 83.4457 39.2309Z" fill="#8BAF82"/>
<path d="M82.4605 42.3147C82.9357 44.2762 78.8869 46.9406 76.9753 47.4038C75.0637 47.8669 73.1287 46.6523 72.6535 44.6908C72.1782 42.7294 73.3426 40.7638 75.2543 40.3006C77.1659 39.8375 81.9852 40.3532 82.4605 42.3147Z" fill="#A9CCA1"/>
<rect width="2.82562" height="22.134" rx="1.41281" transform="matrix(-0.447294 -0.894387 -0.894387 0.447294 84.8506 55.9444)" fill="#82A579"/>
<path d="M90.3243 39.5164C83.113 43.1229 79.4362 50.3837 82.112 55.734C84.7877 61.0844 92.8027 62.498 100.014 58.8916C102.962 57.417 103.699 50.4669 101.487 46.0443C98.8541 40.7793 93.2727 38.0419 90.3243 39.5164Z" fill="#A35656"/>
<path d="M99.238 51.3818C97.6893 52.1563 95.6793 51.2756 94.7486 49.4146C93.8179 47.5537 94.3189 45.4171 95.8677 44.6426C98.5815 43.2854 97.7072 46.2899 97.5528 48.0122C97.4239 49.4503 99.5998 51.2008 99.238 51.3818Z" fill="#FAA3A3"/>
<path d="M95.8674 44.6426C94.3187 45.4171 93.8176 47.5537 94.7483 49.4146C95.679 51.2756 97.689 52.1563 99.2378 51.3818C101.952 50.0246 99.0232 48.9218 97.5526 48.0122C96.3246 47.2527 96.2293 44.4616 95.8674 44.6426Z" fill="#FAA3A3"/>
<path d="M100.015 58.8916C92.8037 62.498 84.7886 61.0844 82.1129 55.734C79.4371 50.3837 83.1139 43.1228 90.3252 39.5164C102.961 33.197 97.0613 43.5287 95.1701 49.204C93.5909 53.9428 101.7 58.049 100.015 58.8916Z" fill="#DB6363"/>
<path d="M90.3249 39.5164C83.1136 43.1228 79.4368 50.3837 82.1126 55.734C84.7883 61.0844 92.8034 62.498 100.015 58.8916C112.651 52.5722 100.845 51.0952 95.1698 49.204C90.4309 47.6248 92.0097 38.6738 90.3249 39.5164Z" fill="#FF6B6B"/>
<path d="M63.4668 74.9214C72.196 67.4494 70.8722 57.3252 70.9536 51.6737C64.8053 52.1381 56.2714 48.8455 47.5423 56.3175C38.8131 63.7894 49.8641 63.7523 53.5975 66.5301C55.6096 70.7813 54.7376 82.3933 63.4668 74.9214Z" fill="#E7FCFD"/>
<mask id="mask0_246_2" style="mask-type:alpha" maskUnits="userSpaceOnUse" x="44" y="51" width="27" height="27">
<path d="M63.4668 74.9214C72.196 67.4494 70.8722 57.3252 70.9536 51.6737C64.8053 52.1381 56.2714 48.8455 47.5423 56.3175C38.8131 63.7894 49.8641 63.7523 53.5975 66.5301C55.6096 70.7813 54.7377 82.3934 63.4668 74.9214Z" fill="#E7FCFD"/>
</mask>
<g mask="url(#mask0_246_2)">
<path d="M56.0928 45.8993L74.161 67.0075L70.9411 69.7637L70.5816 69.4721C63.4461 63.6839 57.4423 56.6264 52.8729 48.6554L56.0928 45.8993Z" fill="#FF8787"/>
</g>
<path d="M97.0729 64.1329C90.9855 69.3436 83.6178 69.1903 76.079 66.5941C66.3039 63.2278 59.603 53.9421 57.6998 43.7802C56.2588 36.0865 56.5119 28.8031 62.4676 23.7052C72.4459 15.164 69.5606 33.7512 78.0066 45.4287C88.4202 55.4219 107.051 55.5917 97.0729 64.1329Z" fill="#E7FCFD"/>
<mask id="mask1_246_2" style="mask-type:alpha" maskUnits="userSpaceOnUse" x="56" y="21" width="44" height="48">
<path d="M97.0729 64.1329C90.9855 69.3436 83.6178 69.1903 76.079 66.5941C66.3039 63.2278 59.603 53.9421 57.6998 43.7802C56.2588 36.0865 56.5119 28.8031 62.4676 23.7052C72.4459 15.164 69.5606 33.7512 78.0066 45.4287C88.4202 55.4219 107.051 55.5917 97.0729 64.1329Z" fill="#E7FCFD"/>
</mask>
<g mask="url(#mask1_246_2)">
<path d="M97.0723 64.1329C88.1622 71.7598 76.5089 67.8947 65.5912 61.6977C62.9762 60.2134 60.2615 58.9196 57.4972 57.7364C50.5548 54.765 38.1628 48.2286 45.5469 41.9079C55.5252 33.3667 78.006 45.4287 78.006 45.4287C88.4197 55.4219 107.051 55.5917 97.0723 64.1329Z" fill="#D5F2F4"/>
</g>
<path d="M27.0222 88.2385L25.5852 66.1088H89.3228L87.8858 88.2385C87.7348 90.5629 85.8056 92.3709 83.4763 92.3709H31.4316C29.1024 92.3709 27.1731 90.5629 27.0222 88.2385Z" fill="#C6A668" stroke="#C6A668" stroke-width="10"/>
<rect x="14.5986" y="56.3995" width="85.7105" height="9.41873" rx="4.70937" fill="#E0CA92"/>
<mask id="mask2_246_2" style="mask-type:alpha" maskUnits="userSpaceOnUse" x="20" y="31" width="75" height="67">
<mask id="path-41-inside-1_246_2" fill="white">
<path d="M20.251 61.1088H94.659L92.8762 88.5625C92.5545 93.517 88.4422 97.3709 83.4773 97.3709H31.4326C26.4677 97.3709 22.3554 93.517 22.0337 88.5625L20.251 61.1088Z"/>
<path d="M93.2278 60.1652C93.248 60.685 92.8078 61.1118 92.2884 61.0821C77.1246 60.2143 85.608 38.5039 57.455 38.5039C28.8851 38.5039 36.6119 60.1465 22.619 61.0779C22.1 61.1124 21.6619 60.685 21.6821 60.1652C22.2927 44.4763 38.0751 31.9108 57.455 31.9108C76.8349 31.9108 92.6172 44.4763 93.2278 60.1652Z"/>
</mask>
<path d="M20.251 61.1088H94.659L92.8762 88.5625C92.5545 93.517 88.4422 97.3709 83.4773 97.3709H31.4326C26.4677 97.3709 22.3554 93.517 22.0337 88.5625L20.251 61.1088Z" fill="#C6A668"/>
<path d="M93.2278 60.1652C93.248 60.685 92.8078 61.1118 92.2884 61.0821C77.1246 60.2143 85.608 38.5039 57.455 38.5039C28.8851 38.5039 36.6119 60.1465 22.619 61.0779C22.1 61.1124 21.6619 60.685 21.6821 60.1652C22.2927 44.4763 38.0751 31.9108 57.455 31.9108C76.8349 31.9108 92.6172 44.4763 93.2278 60.1652Z" fill="#C6A668"/>
<path d="M20.251 61.1088V51.1088H9.58057L10.272 61.7568L20.251 61.1088ZM94.659 61.1088L104.638 61.7568L105.329 51.1088H94.659V61.1088ZM22.0337 88.5625L32.0127 87.9146L22.0337 88.5625ZM92.8762 88.5625L102.855 89.2105L92.8762 88.5625ZM22.619 61.0779L21.9549 51.1L22.619 61.0779ZM21.6821 60.1652L31.6746 60.5541L21.6821 60.1652ZM92.2884 61.0821L91.7171 71.0658L92.2884 61.0821ZM93.2278 60.1652L83.2354 60.5541L93.2278 60.1652ZM20.251 71.1088H94.659V51.1088H20.251V71.1088ZM84.68 60.4608L82.8973 87.9145L102.855 89.2105L104.638 61.7568L84.68 60.4608ZM83.4773 87.3709H31.4326V107.371H83.4773V87.3709ZM32.0127 87.9146L30.23 60.4608L10.272 61.7568L12.0547 89.2105L32.0127 87.9146ZM31.4326 87.3709C31.739 87.3709 31.9928 87.6088 32.0127 87.9146L12.0547 89.2105C12.718 99.4252 21.1965 107.371 31.4326 107.371V87.3709ZM82.8973 87.9145C82.9171 87.6088 83.1709 87.3709 83.4773 87.3709V107.371C93.7135 107.371 102.192 99.4252 102.855 89.2105L82.8973 87.9145ZM92.8598 51.0984C92.1186 51.056 92.3072 51.0502 92.1262 50.8304C91.8159 50.4537 91.4085 49.841 90.7453 48.6601C90.2465 47.7719 89.2176 45.8353 88.3366 44.3545C86.285 40.9062 83.2011 36.5966 77.8031 33.3443C72.4392 30.1125 65.7718 28.5039 57.455 28.5039V48.5039C63.2146 48.5039 66.0442 49.6091 67.4816 50.4751C68.8849 51.3206 69.9065 52.4929 71.1487 54.5807C71.9145 55.8679 72.3296 56.7129 73.3072 58.4536C74.1204 59.9016 75.2221 61.7653 76.6887 63.5459C80.0617 67.6409 84.8764 70.6743 91.7171 71.0658L92.8598 51.0984ZM57.455 28.5039C49.0572 28.5039 42.3249 30.0986 36.8973 33.2569C31.4165 36.4461 28.2061 40.6905 26.0454 44.2148C25.0548 45.8305 24.111 47.6027 23.5242 48.6547C22.8281 49.9026 22.4087 50.5652 22.0715 50.9962C21.8034 51.3389 22.1214 51.0889 21.9549 51.1L23.2831 71.0558C30.113 70.6012 34.7125 67.2966 37.8239 63.3194C39.1765 61.5904 40.2214 59.7767 40.9907 58.3974C41.8693 56.8222 42.3921 55.8163 43.0959 54.6685C44.3238 52.6657 45.4131 51.4412 46.9561 50.5433C48.5522 49.6145 51.5678 48.5039 57.455 48.5039V28.5039ZM31.6746 60.5541C32.0106 51.9201 41.5798 41.9108 57.455 41.9108V21.9108C34.5703 21.9108 12.5749 37.0324 11.6897 59.7763L31.6746 60.5541ZM57.455 41.9108C73.3301 41.9108 82.8993 51.9201 83.2354 60.5541L103.22 59.7763C102.335 37.0324 80.3396 21.9108 57.455 21.9108V41.9108ZM21.9549 51.1C27.3806 50.7388 31.8846 55.1584 31.6746 60.5541L11.6897 59.7763C11.4392 66.2116 16.8194 71.486 23.2831 71.0558L21.9549 51.1ZM91.7171 71.0658C98.0483 71.4281 103.473 66.2736 103.22 59.7763L83.2354 60.5541C83.023 55.0964 87.5672 50.7956 92.8598 51.0984L91.7171 71.0658Z" fill="#C6A668" mask="url(#path-41-inside-1_246_2)"/>
</mask>
<g mask="url(#mask2_246_2)">
<path fill-rule="evenodd" clip-rule="evenodd" d="M23.0754 97.3709V95.4872H25.901V97.3709H23.0754ZM25.901 90.3069V95.4872H36.2616V97.3709H39.0872V95.4872H49.4478V97.3709H52.2735V95.4872H62.6341V97.3709H65.4597V95.4872H75.8203V97.3709H78.6459V95.4872H89.0065V97.3709H91.8321V95.4872H94.6577L95.1287 90.3069H91.8321V75.7079H93.7159L94.1868 70.5276H91.8321V65.8182H89.0065V70.5276H78.6459V65.8182H75.8203V70.5276H65.4597V65.8182H62.6341V70.5276H52.2735V65.8182H49.4478V70.5276H39.0872V65.8182H36.2616V70.5276H25.901V65.8182H23.0754V70.5276H20.7207L21.1916 75.7079H23.0754V90.3069H21.6626L22.1335 95.4872H23.0754V90.3069H25.901ZM25.901 75.7079V90.3069H36.2616V95.4872H39.0872V90.3069H49.4478V95.4872H52.2735V90.3069H62.6341V95.4872H65.4597V90.3069H75.8203V95.4872H78.6459V90.3069H89.0065V95.4872H91.8321V90.3069H89.0065V75.7079H91.8321V70.5276H89.0065V75.7079H78.6459V70.5276H75.8203V75.7079H65.4597V70.5276H62.6341V75.7079H52.2735V70.5276H49.4478V75.7079H39.0872V70.5276H36.2616V75.7079H25.901ZM25.901 75.7079H23.0754V70.5276H25.901V75.7079ZM36.2616 75.7079V90.3069H39.0872V75.7079H36.2616ZM49.4478 75.7079H52.2735V90.3069H49.4478V75.7079ZM62.6341 75.7079V90.3069H65.4597V75.7079H62.6341ZM75.8203 75.7079H78.6459V90.3069H75.8203V75.7079Z" fill="#B49D72"/>
<path fill-rule="evenodd" clip-rule="evenodd" d="M29.6692 85.5975V97.3709H32.4949V85.5975H42.8555V97.3709H45.6811V85.5975H56.0417V97.3709H58.8673V85.5975H69.2279V97.3709H72.0535V85.5975H82.4141V97.3709H85.2398V85.5975H94.1876L94.6585 80.4172H85.2398V65.8182H82.4141V80.4172H72.0535V65.8182H69.2279V80.4172H58.8673V65.8182H56.0417V80.4172H45.6811V65.8182H42.8555V80.4172H32.4949V65.8182H29.6692V80.4172H21.1924L21.6633 85.5975H29.6692ZM29.6692 85.5975H32.4949V80.4172H29.6692V85.5975ZM42.8555 80.4172V85.5975H45.6811V80.4172H42.8555ZM56.0417 80.4172V85.5975H58.8673V80.4172H56.0417ZM69.2279 80.4172V85.5975H72.0535V80.4172H69.2279ZM82.4141 80.4172V85.5975H85.2398V80.4172H82.4141Z" fill="#E0CA92"/>
<path d="M23.0762 70.5276H25.9018V75.7079H23.0762V70.5276Z" fill="#E0CA92"/>
<path d="M23.0762 90.3069H25.9018V95.4872H23.0762V90.3069Z" fill="#E0CA92"/>
<path d="M29.6693 80.4172H32.4949V85.5975H29.6693V80.4172Z" fill="#B49D72"/>
<path d="M42.8555 80.4172H45.6811V85.5975H42.8555V80.4172Z" fill="#B49D72"/>
<path d="M56.0417 80.4172H58.8673V85.5975H56.0417V80.4172Z" fill="#B49D72"/>
<path d="M69.228 80.4172H72.0536V85.5975H69.228V80.4172Z" fill="#B49D72"/>
<path d="M82.4142 80.4172H85.2398V85.5975H82.4142V80.4172Z" fill="#B49D72"/>
<path d="M36.2624 70.5276H39.088V75.7079H36.2624V70.5276Z" fill="#E0CA92"/>
<path d="M36.2624 90.3069H39.088V95.4872H36.2624V90.3069Z" fill="#E0CA92"/>
<path d="M49.4486 70.5276H52.2742V75.7079H49.4486V70.5276Z" fill="#E0CA92"/>
<path d="M49.4486 90.3069H52.2742V95.4872H49.4486V90.3069Z" fill="#E0CA92"/>
<path d="M62.6348 70.5276H65.4605V75.7079H62.6348V70.5276Z" fill="#E0CA92"/>
<path d="M62.6348 90.3069H65.4605V95.4872H62.6348V90.3069Z" fill="#E0CA92"/>
<path d="M89.0073 70.5276H91.8329V75.7079H89.0073V70.5276Z" fill="#E0CA92"/>
<path d="M89.0073 90.3069H91.8329V95.4872H89.0073V90.3069Z" fill="#E0CA92"/>
<path d="M75.8211 70.5276H78.6467V75.7079H75.8211V70.5276Z" fill="#E0CA92"/>
<path d="M75.8211 90.3069H78.6467V95.4872H75.8211V90.3069Z" fill="#E0CA92"/>
</g>
</svg>
