<svg width="102" height="90" viewBox="0 0 102 90" fill="none" xmlns="http://www.w3.org/2000/svg">
<ellipse cx="51" cy="59.7241" rx="51" ry="28" fill="#F6DBB3"/>
<ellipse cx="51" cy="59.7241" rx="51" ry="28" fill="#F7DBB3"/>
<ellipse cx="51" cy="64.7241" rx="50" ry="25" fill="#F6DBB3"/>
<ellipse cx="51" cy="64.7241" rx="50" ry="25" fill="#F7DBB3"/>
<ellipse cx="51" cy="60.7241" rx="50" ry="25" fill="#E0C192"/>
<ellipse cx="74.7781" cy="42.6687" rx="6.25" ry="5" transform="rotate(6.52988 74.7781 42.6687)" fill="#F76464"/>
<path d="M74.807 37.9341C75.2464 37.3059 76.2075 37.4159 76.4936 38.1272L76.5583 38.2883C76.6506 38.5177 76.8611 38.6781 77.1068 38.7063L77.7214 38.7766C78.3081 38.8438 78.3836 39.6658 77.8189 39.8387V39.8387C77.5138 39.9321 77.3539 40.2667 77.473 40.5628L77.4916 40.609C77.7011 41.1299 77.1337 41.6216 76.6478 41.3402L75.7192 40.8022C75.4883 40.6685 75.2121 40.6368 74.9569 40.715L73.9307 41.0292C73.3938 41.1936 72.9522 40.5863 73.274 40.1262L73.3025 40.0854C73.4854 39.8239 73.4053 39.4618 73.1292 39.3019V39.3019C72.6182 39.0059 72.8775 38.2222 73.4642 38.2893L74.0788 38.3597C74.3245 38.3878 74.5658 38.2791 74.7075 38.0764L74.807 37.9341Z" fill="#3A6130"/>
<ellipse cx="61.2658" cy="42.0096" rx="6.25" ry="5" transform="rotate(-10.2382 61.2658 42.0096)" fill="#F76464"/>
<path d="M59.9276 37.4679C60.167 36.7397 61.119 36.5677 61.5981 37.1662L61.7066 37.3018C61.8611 37.4948 62.109 37.5877 62.3523 37.5438L62.9611 37.4338C63.5422 37.3289 63.8516 38.0942 63.3609 38.4226V38.4226C63.0956 38.6001 63.0391 38.9665 63.2386 39.2157L63.2697 39.2546C63.6206 39.6929 63.2191 40.3274 62.6727 40.1981L61.6284 39.951C61.3687 39.8895 61.0951 39.9389 60.8733 40.0873L59.9814 40.6842C59.5148 40.9965 58.9168 40.5425 59.0921 40.0091L59.1077 39.9618C59.2073 39.6586 59.0262 39.3351 58.7156 39.2616V39.2616C58.141 39.1256 58.1632 38.3004 58.7443 38.1954L59.3531 38.0855C59.5964 38.0415 59.7961 37.8678 59.8733 37.6329L59.9276 37.4679Z" fill="#3A6130"/>
<path d="M22.6267 42.4256C22.1853 41.735 22.3557 40.8204 23.0161 40.3351L26.7823 37.5675C29.774 35.3691 33.4534 34.3136 37.1555 34.5919L42.2485 34.9747C43.0673 35.0362 43.6972 35.7239 43.6867 36.5451L43.4525 54.9038C43.4437 55.5939 42.9811 56.1956 42.3165 56.3814L34.2887 58.6263C33.63 58.8105 32.9282 58.5426 32.5598 57.9662L22.6267 42.4256Z" fill="#F4A86C"/>
<path d="M16.0147 50.4243C15.4784 49.764 15.5722 48.7953 16.2253 48.2502L22.9016 42.6776L32.5993 57.7263L25.861 60.7227C25.219 61.0081 24.4653 60.8276 24.0223 60.2822L16.0147 50.4243Z" fill="#D78759"/>
<path d="M53.4732 39.9496C53.5893 39.1069 53.0066 38.3273 52.1655 38.2001L43.567 36.8989L43.0818 54.795L50.3969 53.8616C51.0939 53.7726 51.6447 53.2273 51.7405 52.5313L53.4732 39.9496Z" fill="#D78759"/>
<path d="M12.1688 58.2495C12.2249 58.0883 12.2996 57.9341 12.3912 57.7901L16.6279 51.1325L24.2851 60.6163L17.0573 64.0841C17.0357 64.0945 17.0131 64.1029 16.99 64.1094C13.7815 65.0066 10.8882 61.9266 11.9839 58.7804L12.1688 58.2495Z" fill="#F4A86C"/>
<path d="M60.8203 44.6449C60.6887 44.5362 60.5449 44.4431 60.3918 44.3675L53.3164 40.8732L51.6891 52.9532L59.6673 52.1689C59.6912 52.1665 59.7148 52.1621 59.738 52.1556C62.9464 51.2584 63.8225 47.1244 61.2538 45.0029L60.8203 44.6449Z" fill="#F4A86C"/>
<path fill-rule="evenodd" clip-rule="evenodd" d="M79.6447 59.9032L39.7605 62.9449L40.4449 71.9188C40.4449 71.9188 40.4449 71.9188 40.4449 71.9188C40.8649 77.4257 50.1337 81.2089 61.1474 80.369C72.1611 79.5291 80.749 74.384 80.3291 68.8771L79.6447 59.9032Z" fill="#FFF6D8"/>
<rect x="58.3054" y="56.2552" width="18" height="6" transform="rotate(-4.3611 58.3054 56.2552)" fill="#FEE9C2"/>
<path fill-rule="evenodd" clip-rule="evenodd" d="M88.9702 62.6148C91.991 60.5589 93.5537 58.1013 93.3702 55.6952C93.572 58.3409 91.6945 60.9031 88.4676 62.9446C88.6388 62.8363 88.8063 62.7263 88.9702 62.6148ZM87.7295 63.389C84.8294 65.0511 81.0578 66.2766 76.9336 66.8817C76.1216 67.0009 75.3053 67.0946 74.4892 67.163C74.3892 67.1714 74.289 67.1794 74.1885 67.1871C74.0837 67.1951 73.9791 67.2026 73.8746 67.2098C70.1331 67.4655 66.4207 67.1903 63.1747 66.3995C59.0432 65.3929 55.9458 63.619 54.4537 61.4049C53.8974 60.5795 53.5782 59.7137 53.4941 58.8313C53.4911 58.7999 53.4884 58.7684 53.486 58.7369C53.484 58.7108 53.4823 58.6848 53.4807 58.6588C53.3941 57.2285 53.922 55.7593 55.0557 54.3522C56.936 52.0185 60.3561 50.0133 64.685 48.7066C67.1637 47.9583 69.8448 47.468 72.5569 47.2536C72.5938 47.2507 72.6307 47.2478 72.6677 47.245C72.7137 47.2415 72.7597 47.238 72.8056 47.2347C74.7482 47.0933 76.704 47.0935 78.6101 47.242C83.2606 47.6044 87.3021 48.8248 89.9891 50.6782L73.4281 57.216L93.3702 55.6952C92.952 50.2113 83.7587 46.4367 72.8056 47.2347C72.7227 47.2407 72.6398 47.247 72.5569 47.2536C61.6484 48.1153 53.1484 53.1999 53.4807 58.6588C53.4842 58.7164 53.4886 58.7739 53.4941 58.8313C54.0073 64.2347 63.0621 67.9505 73.8746 67.2098C74.0794 67.1958 74.2843 67.1802 74.4892 67.163C79.6982 66.727 84.3466 65.3282 87.7295 63.389Z" fill="#FFFEF6"/>
<rect x="73.4281" y="57.216" width="20" height="7" transform="rotate(-4.3611 73.4281 57.216)" fill="#FFF6D8"/>
<path d="M79.6446 59.9031C79.8281 62.3092 78.2653 64.7668 75.2446 66.8227C72.2238 68.8786 67.9488 70.3941 63.208 71.0897C58.4672 71.7852 53.5805 71.6139 49.4491 70.6074C45.3176 69.6009 42.2202 67.827 40.7281 65.6129C39.2359 63.3988 39.4498 60.8939 41.3301 58.5602C43.2104 56.2264 46.6305 54.2213 50.9594 52.9145C55.2883 51.6078 60.234 51.0877 64.8845 51.45C69.535 51.8123 73.5765 53.0327 76.2635 54.8861L59.7025 61.424L79.6446 59.9031Z" fill="#FFFEF6"/>
<path fill-rule="evenodd" clip-rule="evenodd" d="M34.842 66.0034L21.0515 66.6607L21.1994 69.7636C21.1994 69.7636 21.1994 69.7636 21.1994 69.7636C21.2902 71.6676 24.4508 73.0641 28.259 72.8826C32.0671 72.7011 35.0807 71.0104 34.9899 69.1063L34.842 66.0034Z" fill="#589EDD"/>
<ellipse cx="27.9473" cy="66.3415" rx="6.90308" ry="3.45154" transform="rotate(-2.7287 27.9473 66.3415)" fill="#324F7A"/>
<path fill-rule="evenodd" clip-rule="evenodd" d="M21.2708 67.4501C22.0406 65.9784 24.6368 64.8065 27.7713 64.6571C31.0367 64.5015 33.8261 65.5061 34.612 66.9961C33.8422 68.4679 31.2461 69.6397 28.1116 69.7891C24.8461 69.9448 22.0567 68.9401 21.2708 67.4501Z" fill="#FEFBB1"/>
</svg>
