<svg width="95" height="88" viewBox="0 0 95 88" fill="none" xmlns="http://www.w3.org/2000/svg">
<g clip-path="url(#clip0_107_377)">
<path d="M92.9 61.2692C92.9 62.9965 91.9979 64.8776 89.8544 66.8268C87.7102 68.7765 84.4905 70.6288 80.3337 72.2275C72.0342 75.4196 60.4264 77.4385 47.5 77.4385C34.5736 77.4385 22.9658 75.4196 14.6663 72.2275C10.5095 70.6288 7.28976 68.7765 5.1456 66.8268C3.00205 64.8776 2.1 62.9965 2.1 61.2692C2.1 59.542 3.00205 57.6609 5.1456 55.7117C7.28976 53.762 10.5095 51.9097 14.6663 50.311C22.9658 47.1189 34.5736 45.1 47.5 45.1C60.4264 45.1 72.0342 47.1189 80.3337 50.311C84.4905 51.9097 87.7102 53.762 89.8544 55.7117C91.9979 57.6609 92.9 59.542 92.9 61.2692Z" fill="#EEF7FF" stroke="#324F7A" stroke-width="4.2"/>
<path d="M21.7413 42.3777C21.8046 42.2486 21.8502 42.1117 21.8988 41.9764C22.2761 40.9235 23.4565 40.3177 24.6407 40.6078L84.1075 50.3991C85.3013 50.6916 86.0706 51.7898 85.9022 52.9072C85.8835 53.0315 85.8393 53.1503 85.787 53.2646L72.835 81.599C72.7828 81.7133 72.744 81.8334 72.7032 81.9523C72.3359 83.021 71.146 83.6391 69.9522 83.3465L10.2812 72.0366C9.09699 71.7464 8.33045 70.6635 8.48259 69.5554C8.50215 69.4129 8.55504 69.2778 8.61833 69.1487L21.7413 42.3777Z" fill="#FFFCE4"/>
<path fill-rule="evenodd" clip-rule="evenodd" d="M79.2602 49.2113L80.6859 49.5607L79.9961 52.3759L81.4218 52.7253L82.1116 49.9101L83.5373 50.2594L82.8475 53.0747L85.6988 53.7733L85.3537 55.1816L82.5024 54.4829L82.1575 55.8903L85.0088 56.589L84.6637 57.9973L81.8124 57.2986L71.1071 76.1673L73.9585 76.866L73.6134 78.2743L70.762 77.5755L70.4171 78.9829L73.2684 79.6816L72.9233 81.0898L70.072 80.3911L69.3821 83.2069L67.9564 82.8575L68.6463 80.0418L67.2206 79.6924L66.5307 82.5081L65.1049 82.1588L65.7949 79.3431L15.8187 70.4087L15.1287 73.2245L13.703 72.8751L14.393 70.0594L12.9674 69.7101L12.2774 72.5258L10.8517 72.1765L11.5417 69.3607L8.69001 68.6619L9.03509 67.2536L11.8868 67.9524L12.2316 66.5451L9.38008 65.8464L9.72517 64.4381L12.5767 65.1368L23.4864 47.7869L20.6347 47.0881L20.9797 45.6798L23.8314 46.3786L24.1763 44.9712L21.3246 44.2724L21.6697 42.8641L24.5214 43.5629L25.2112 40.7477L26.637 41.0971L25.9471 43.9123L27.3727 44.2616L28.0625 41.4464L29.4882 41.7957L28.7984 44.611L78.5703 52.0266L79.2602 49.2113ZM78.2253 53.4349L28.4533 46.0192L28.1084 47.4266L77.8804 54.8422L78.2253 53.4349ZM27.0276 45.6699L25.602 45.3206L25.2572 46.728L26.6827 47.0773L27.0276 45.6699ZM81.0767 54.1336L79.651 53.7842L79.3061 55.1916L80.7318 55.541L81.0767 54.1336ZM80.3867 56.9492L69.6814 75.8179L68.2556 75.4686L78.961 56.5999L80.3867 56.9492ZM77.5353 56.2505L66.8299 75.1192L16.8537 66.1849L27.7633 48.8349L77.5353 56.2505ZM66.4848 76.5275L16.5086 67.5931L16.1638 69.0005L66.14 77.9348L66.4848 76.5275ZM26.3376 48.4856L15.428 65.8355L14.0024 65.4862L24.9121 48.1362L26.3376 48.4856ZM15.0829 67.2438L13.6574 66.8945L13.3125 68.3018L14.7381 68.6511L15.0829 67.2438ZM69.3363 77.2262L67.9106 76.8768L67.5657 78.2842L68.9914 78.6335L69.3363 77.2262Z" fill="#9BC4E9"/>
<path fill-rule="evenodd" clip-rule="evenodd" d="M25.5925 34.0671C24.1427 35.0461 23.2749 36.6742 23.2749 38.4153V61.1674C23.2749 62.0703 23.731 62.8674 24.4269 63.3438L25.4812 64.4162C25.6364 64.6298 25.823 64.8196 26.0342 64.9786L27.2948 66.2608C27.3883 66.373 27.491 66.4774 27.6016 66.5729L29.2091 68.2079L29.2187 68.1985C29.6957 68.6484 30.3406 68.9246 31.0505 68.9246H70.0653C71.5344 68.9246 72.7254 67.7419 72.7254 66.283V43.5308C72.7254 41.7898 71.8576 40.1616 70.4078 39.1826C70.349 39.1429 70.2901 39.1034 70.2311 39.0641C69.8452 38.4431 69.328 37.8999 68.7025 37.4775C68.6439 37.4379 68.5851 37.3985 68.5263 37.3593C68.1404 36.7381 67.6231 36.1947 66.9975 35.7722C66.9387 35.7326 66.8798 35.6931 66.8209 35.6538C66.435 35.0328 65.9178 34.4895 65.2923 34.0671C53.3127 25.9776 37.5721 25.9776 25.5925 34.0671Z" fill="url(#paint0_linear_107_377)"/>
<path d="M30.9843 45.3582C30.9843 43.7424 31.8014 42.2314 33.1664 41.3229C44.4451 33.8155 59.2648 33.8155 70.5435 41.3229C71.9085 42.2314 72.7255 43.7424 72.7255 45.3582V66.4733C72.7255 67.8272 71.6042 68.9248 70.2211 68.9248H33.4888C30.5972 68.9248 30.9843 69.2018 30.9843 66.4733V45.3582Z" fill="url(#paint1_radial_107_377)"/>
<path fill-rule="evenodd" clip-rule="evenodd" d="M72.6963 42.9789C69.7257 39.9745 64.2439 35.1429 49.0989 35.1429C34.6914 35.1429 30.2452 45.1042 28.5045 49.004C28.121 49.8633 27.8688 50.4283 27.6704 50.5275C26.3521 51.1866 26.1145 49.3402 25.8693 47.4353C25.6471 45.7087 25.4187 43.9341 24.3738 43.9341C23.9588 43.9341 23.5787 43.673 23.275 43.2165V38.4153C23.275 36.6743 24.1428 35.0461 25.5926 34.0671C37.5722 25.9777 53.3128 25.9777 65.2924 34.0671C65.9179 34.4896 66.4352 35.0328 66.821 35.6539C66.88 35.6932 66.9388 35.7326 66.9976 35.7723C67.6232 36.1948 68.1405 36.7382 68.5264 37.3594C68.5853 37.3986 68.644 37.438 68.7027 37.4776C69.3282 37.9 69.8453 38.4432 70.2312 39.0642C70.2902 39.1035 70.3491 39.143 70.4079 39.1827C71.7032 40.0574 72.534 41.4503 72.6963 42.9789Z" fill="url(#paint2_linear_107_377)"/>
</g>
<defs>
<linearGradient id="paint0_linear_107_377" x1="46.2341" y1="28" x2="26.022" y2="67.5604" gradientUnits="userSpaceOnUse">
<stop offset="0.721561" stop-color="#D08539"/>
<stop offset="1" stop-color="#A25A30"/>
</linearGradient>
<radialGradient id="paint1_radial_107_377" cx="0" cy="0" r="1" gradientUnits="userSpaceOnUse" gradientTransform="translate(51.7439 38.6832) rotate(89.3383) scale(46.584 58.511)">
<stop offset="0.561288" stop-color="#FEECAA"/>
<stop offset="0.988898" stop-color="#F4A86C"/>
</radialGradient>
<linearGradient id="paint2_linear_107_377" x1="47.9857" y1="28.0001" x2="23.8288" y2="49.4334" gradientUnits="userSpaceOnUse">
<stop offset="0.593793" stop-color="#FFFCE4"/>
<stop offset="1" stop-color="#FEECAA"/>
</linearGradient>
<clipPath id="clip0_107_377">
<rect width="95" height="88" fill="white"/>
</clipPath>
</defs>
</svg>
