<svg width="83" height="80" viewBox="0 0 83 80" fill="none" xmlns="http://www.w3.org/2000/svg">
<ellipse cx="41.4545" cy="62.5455" rx="41.4545" ry="17.4545" fill="#F69D9D"/>
<ellipse cx="41.4545" cy="61.8182" rx="35.6364" ry="13.8182" fill="#FFE8E8"/>
<mask id="mask0_76_599" style="mask-type:alpha" maskUnits="userSpaceOnUse" x="5" y="48" width="73" height="28">
<ellipse cx="41.4545" cy="61.8182" rx="35.6364" ry="13.8182" fill="black"/>
</mask>
<g mask="url(#mask0_76_599)">
<path d="M11.8482 41.3303L15.9086 41.7921L11.1488 77.7039L7.08837 77.2421L11.8482 41.3303Z" fill="#F69D9D" fill-opacity="0.32"/>
<path d="M20 41.3303L24.0753 41.6606L20.6713 77.7044L16.596 77.3741L20 41.3303Z" fill="#F69D9D" fill-opacity="0.32"/>
<path d="M28.1818 41.3303L32.2671 41.5286L30.223 77.6605L26.1377 77.4622L28.1818 41.3303Z" fill="#F69D9D" fill-opacity="0.32"/>
<path d="M35.5455 41.3303L39.6357 41.3964L38.9541 77.5724L34.8638 77.5062L35.5455 41.3303Z" fill="#F69D9D" fill-opacity="0.32"/>
<path d="M50.2727 41.3303L54.358 41.132L56.4021 77.2638L52.3168 77.4622L50.2727 41.3303Z" fill="#F69D9D" fill-opacity="0.32"/>
<path d="M58.4545 41.3303L62.5299 41L65.9339 77.0438L61.8586 77.3741L58.4545 41.3303Z" fill="#F69D9D" fill-opacity="0.32"/>
<path d="M66.6364 42.0882L70.6968 41.6264L75.4566 77.5381L71.3962 78L66.6364 42.0882Z" fill="#F69D9D" fill-opacity="0.32"/>
<path d="M42.9091 41.3303L46.9994 41.2642L47.681 77.4401L43.5907 77.5062L42.9091 41.3303Z" fill="#F69D9D" fill-opacity="0.32"/>
<path d="M4.45455 45.878V42.0882H77.2727V45.878H4.45455Z" fill="#F69D9D" fill-opacity="0.32"/>
<path d="M4.45455 53.4574V49.6677H77.2727V53.4574H4.45455Z" fill="#F69D9D" fill-opacity="0.32"/>
<path d="M4.45455 61.0369V57.2472H77.2727V61.0369H4.45455Z" fill="#F69D9D" fill-opacity="0.32"/>
<path d="M2 68.6163V64.8266H83V68.6163H2Z" fill="#F69D9D" fill-opacity="0.32"/>
<path d="M2 76.1958V72.4061H83V76.1958H2Z" fill="#F69D9D" fill-opacity="0.32"/>
</g>
<path d="M65.4546 62.5455C65.4546 65.7588 54.7094 68.3637 41.4546 68.3637C28.1998 68.3637 17.4546 65.7588 17.4546 62.5455C17.4546 59.3322 28.1998 56.7273 41.4546 56.7273C54.7094 56.7273 65.4546 59.3322 65.4546 62.5455Z" fill="#EEF4FA"/>
<rect x="17.4546" y="59.0769" width="48.1119" height="3.35664" fill="#EEF4FA"/>
<path d="M65.5665 59.0769C65.5665 61.5487 54.7963 63.5524 41.5105 63.5524C28.2248 63.5524 17.4546 61.5487 17.4546 59.0769C17.4546 56.6051 28.2248 54.6014 41.5105 54.6014C54.7963 54.6014 65.5665 56.6051 65.5665 59.0769Z" fill="url(#paint0_radial_76_599)"/>
<path d="M50.4637 58.0611C50.5264 58.2282 50.4589 58.4161 50.3041 58.505V58.505C44.8509 61.635 38.1529 61.6639 32.673 58.5811L32.5561 58.5154C32.3904 58.4221 32.3226 58.2181 32.3998 58.0442L33.4672 55.6377L34.7576 52.4152C35.0931 51.5773 34.8505 50.6187 34.1569 50.0412L33.9745 49.8893C31.6351 47.9414 31.3059 44.4536 33.2085 42.0772V42.0772C33.3778 41.8656 33.5934 41.6922 33.8369 41.5731V41.5731C38.6781 39.2041 44.3422 39.2041 49.1835 41.5731V41.5731C49.4268 41.6922 49.6424 41.8656 49.8118 42.0771V42.0771C51.7145 44.4535 51.3854 47.9415 49.0459 49.8895L48.8636 50.0413C48.17 50.6187 47.9275 51.5773 48.2629 52.4151L49.5531 55.6377L50.4637 58.0611Z" fill="#E3EAF0"/>
<ellipse cx="41.4546" cy="32" rx="32.7273" ry="13.0909" fill="#E3EAF0"/>
<path fill-rule="evenodd" clip-rule="evenodd" d="M13.8072 28.8266C12.3507 27.9092 12.3507 25.9092 13.8072 24.9918C19.6119 21.3355 29.8248 18.9091 41.4545 18.9091C53.0841 18.9091 63.2969 21.3355 69.1017 24.9916C70.5582 25.909 70.5582 27.909 69.1017 28.8264C63.297 32.4827 53.0841 34.9091 41.4543 34.9091C29.8248 34.9091 19.612 32.4828 13.8072 28.8266Z" fill="#C1D1E1"/>
<path fill-rule="evenodd" clip-rule="evenodd" d="M61.2781 32.2351C55.7766 33.9128 48.9063 34.9091 41.4542 34.9091C33.3303 34.9091 25.8977 33.7251 20.1761 31.7649C25.6777 30.0872 32.548 29.0909 40 29.0909C48.124 29.0909 55.5566 30.2749 61.2781 32.2351Z" fill="#C9D3DB"/>
<path fill-rule="evenodd" clip-rule="evenodd" d="M66.9091 32.2351C60.2895 33.9128 52.023 34.9091 43.0566 34.9091C33.2817 34.9091 24.3387 33.7251 17.4545 31.7649C24.074 30.0872 32.3405 29.0909 41.307 29.0909C51.0818 29.0909 60.0248 30.2749 66.9091 32.2351Z" fill="#B8682D"/>
<path d="M27.0905 15.7284C27.4328 14.5305 28.3355 13.5735 29.5114 13.1619V13.1619C37.7143 10.2909 46.6492 10.2909 54.8521 13.1619V13.1619C56.028 13.5735 56.9307 14.5305 57.273 15.7284L62.5454 34.1818V34.1818C49.9271 41.3923 34.4365 41.3923 21.8181 34.1818V34.1818L27.0905 15.7284Z" fill="#FCE2AF"/>
<path fill-rule="evenodd" clip-rule="evenodd" d="M58.8415 21.218C57.659 21.6107 56.2859 21.4651 55.12 20.5324L54.3293 19.8999C51.7082 17.803 47.8535 18.4014 45.9916 21.1944C44.1792 23.913 40.1843 23.913 38.3719 21.1944L37.8278 20.3782C36.2856 18.0648 33.0543 17.6487 30.9762 19.4958L28.3636 21.8182C27.4555 22.9532 25.6458 22.3161 25.6135 20.8983L27.0906 15.7284C27.4328 14.5305 28.3356 13.5735 29.5114 13.1619C37.7144 10.2909 46.6492 10.2909 54.8522 13.1619C56.028 13.5735 56.9308 14.5305 57.273 15.7284L58.8415 21.218Z" fill="#D08439"/>
<path fill-rule="evenodd" clip-rule="evenodd" d="M41.4547 45.0909C59.5295 45.0909 74.182 39.2299 74.182 32C74.182 29.1104 71.8414 26.4394 67.8772 24.274C70.0573 25.4784 70.0512 28.3589 67.8591 29.554C61.9033 32.8011 52.2944 34.9091 41.4546 34.9091C30.6149 34.9091 21.0061 32.8012 15.0504 29.5542C12.8521 28.3557 12.8521 25.4626 15.0503 24.2641C21.006 21.0171 30.615 18.9091 41.4548 18.9091C41.4548 18.9091 41.4547 18.9091 41.4547 18.9091C23.3799 18.9091 8.72742 24.7701 8.72742 32C8.72742 39.2299 23.3799 45.0909 41.4547 45.0909Z" fill="#EEF4FA"/>
<path d="M55.2728 11.3269C55.2728 13.9547 49.4118 16 42.1819 16C34.9519 16 29.0909 13.9547 29.0909 11.3269C29.0909 9.75952 37.5773 7.02193 41.4929 4.52874C42.5439 3.85949 41.3903 2.99774 41.3953 1.54669C41.3987 0.537731 42.4577 -0.0687421 43.4395 0.16409C48.5496 1.37604 55.2728 8.95733 55.2728 11.3269Z" fill="url(#paint1_radial_76_599)"/>
<path fill-rule="evenodd" clip-rule="evenodd" d="M34.5448 1.07167C34.7942 0.930712 35.099 1.00318 35.2556 1.2407L37.2248 4.22659C37.4338 4.54352 37.6038 4.8875 37.7311 5.25073C37.5828 5.56603 37.4654 5.96389 37.3896 6.45611C37.186 6.12671 36.9802 5.86722 36.7752 5.669C36.6667 5.35271 36.5162 5.05503 36.3281 4.78456L34.3441 1.93311C34.1474 1.6504 34.2424 1.24253 34.5448 1.07167Z" fill="#77C065"/>
<path d="M33.6824 8.76881C34.1622 10.8542 36.3408 12.0727 38.5484 11.4906C40.756 10.9084 42.1566 8.74602 41.6768 6.66069C41.197 4.57535 37.99 2.55999 37.39 6.45612C35.4035 3.24203 33.2026 6.68348 33.6824 8.76881Z" fill="#DE2E2E"/>
<defs>
<radialGradient id="paint0_radial_76_599" cx="0" cy="0" r="1" gradientUnits="userSpaceOnUse" gradientTransform="translate(41.5105 59.0769) rotate(90) scale(4.47552 24.0559)">
<stop stop-color="#C1D1E1"/>
<stop offset="0.916667" stop-color="#E3EAF0"/>
</radialGradient>
<radialGradient id="paint1_radial_76_599" cx="0" cy="0" r="1" gradientUnits="userSpaceOnUse" gradientTransform="translate(42.0595 4.42348) rotate(89.3119) scale(10.1868 20.1885)">
<stop offset="0.0001" stop-color="#FFF5F0"/>
<stop offset="0.648177" stop-color="#FFF5F0"/>
<stop offset="1" stop-color="#FAE3D7"/>
</radialGradient>
</defs>
</svg>
