<svg width="105" height="90" viewBox="0 0 105 90" fill="none" xmlns="http://www.w3.org/2000/svg">
<g clip-path="url(#clip0_38_2042)">
<path d="M103.5 72.5C103.5 74.2596 102.432 76.1747 99.9458 78.1337C97.4771 80.0793 93.8117 81.897 89.1488 83.4513C79.8385 86.5548 66.8811 88.5 52.5 88.5C38.1189 88.5 25.1615 86.5548 15.8512 83.4513C11.1883 81.897 7.52295 80.0793 5.05417 78.1337C2.56849 76.1747 1.5 74.2596 1.5 72.5C1.5 70.7404 2.56849 68.8253 5.05417 66.8663C7.52295 64.9207 11.1883 63.103 15.8512 61.5487C25.1615 58.4452 38.1189 56.5 52.5 56.5C66.8811 56.5 79.8385 58.4452 89.1488 61.5487C93.8117 63.103 97.4771 64.9207 99.9458 66.8663C102.432 68.8253 103.5 70.7404 103.5 72.5Z" fill="#FFF6D8" stroke="#EEBF19" stroke-width="3"/>
<path d="M20.9293 64.4706C21.0085 63.9004 21.5999 63.4123 22.3519 63.2964L80.8356 54.2871C81.5876 54.1713 82.2984 54.4588 82.5455 54.9787L86.3075 79.3999C86.6448 80.1096 85.9911 80.9328 84.9646 81.0909L26.481 90.1003C25.4545 90.2584 24.5833 89.6701 24.6914 88.8918L20.9293 64.4706Z" fill="#EEF7FF"/>
<mask id="mask0_38_2042" style="mask-type:alpha" maskUnits="userSpaceOnUse" x="20" y="54" width="67" height="37">
<path d="M20.9294 64.4706C21.0086 63.9004 21.5999 63.4123 22.3519 63.2964L80.8356 54.2871C81.5876 54.1713 82.2984 54.4588 82.5455 54.9787L86.3076 79.3999C86.6449 80.1096 85.9911 80.9328 84.9647 81.0909L26.481 90.1002C25.4546 90.2584 24.5834 89.6701 24.6914 88.8918L20.9294 64.4706Z" fill="#E7D1CA"/>
</mask>
<g mask="url(#mask0_38_2042)">
<path d="M21.8529 62.7814L25.89 62.531L25.5706 91.4716L21.5334 91.722L21.8529 62.7814Z" fill="#589EDD" fill-opacity="0.31"/>
<path d="M29.8457 61.5501L33.8815 61.1941L34.9073 90.0337L30.8715 90.3897L29.8457 61.5501Z" fill="#589EDD" fill-opacity="0.31"/>
<path d="M37.8679 60.3143L41.8975 59.8531L44.2674 88.5565L40.2378 89.0177L37.8679 60.3143Z" fill="#589EDD" fill-opacity="0.31"/>
<path d="M45.0878 59.2021L49.1063 58.6363L52.8175 87.1685L48.799 87.7343L45.0878 59.2021Z" fill="#589EDD" fill-opacity="0.31"/>
<path d="M59.5278 56.9776L63.5094 56.2047L69.8877 84.2906L65.9061 85.0635L59.5278 56.9776Z" fill="#589EDD" fill-opacity="0.31"/>
<path d="M67.55 55.7418L71.5058 54.8667L79.2069 82.678L75.2511 83.5531L67.55 55.7418Z" fill="#589EDD" fill-opacity="0.31"/>
<path d="M75.6639 55.1017L79.5892 54.1254L88.6037 81.6281L84.6784 82.6044L75.6639 55.1017Z" fill="#589EDD" fill-opacity="0.31"/>
<path d="M52.3078 58.0899L56.3103 57.4201L61.3581 85.7464L57.3556 86.4162L52.3078 58.0899Z" fill="#589EDD" fill-opacity="0.31"/>
<path d="M15.154 67.472L14.6953 64.4938L86.0928 53.4951L86.5515 56.4733L15.154 67.472Z" fill="#589EDD" fill-opacity="0.31"/>
<path d="M16.0716 73.4284L15.6128 70.4502L87.0103 59.4515L87.4691 62.4297L16.0716 73.4284Z" fill="#589EDD" fill-opacity="0.31"/>
<path d="M16.9892 79.3848L16.5304 76.4066L87.9279 65.4079L88.3867 68.3861L16.9892 79.3848Z" fill="#589EDD" fill-opacity="0.31"/>
<path d="M15.5001 85.712L15.0413 82.7338L94.461 70.4993L94.9198 73.4775L15.5001 85.712Z" fill="#589EDD" fill-opacity="0.31"/>
<path d="M16.4177 91.6684L15.9589 88.6902L95.3786 76.4557L95.8374 79.4339L16.4177 91.6684Z" fill="#589EDD" fill-opacity="0.31"/>
</g>
<path d="M28.8383 30.2955C29.1355 28.2115 32.0363 27.9421 32.7123 29.9357L45.5398 67.766C45.8353 68.6375 45.498 69.5982 44.7225 70.0936L24.6721 82.9039C23.2309 83.8247 21.3738 82.6292 21.6153 80.9361L28.8383 30.2955Z" fill="#FCE2AF"/>
<path d="M33.8383 30.2955C34.1355 28.2115 37.0363 27.9421 37.7123 29.9357L50.5398 67.766C50.8353 68.6375 50.498 69.5982 49.7225 70.0936L29.6721 82.9039C28.2309 83.8247 26.3738 82.6292 26.6153 80.9361L33.8383 30.2955Z" fill="#F7DBB3"/>
<path d="M31 28.6L36 28.6L28.5 83.2H23.5L31 28.6Z" fill="#FCE2AF"/>
<path d="M44.2939 57.1098C43.5035 64.396 41.9669 70.8925 40.1281 75.5037C39.2079 77.8113 38.2184 79.6303 37.2205 80.8395C36.2134 82.0599 35.2547 82.5938 34.3934 82.5004C33.5322 82.4069 32.7103 81.6799 31.9883 80.2719C31.2729 78.8768 30.6966 76.8879 30.2926 74.4366C29.4855 69.5384 29.3778 62.8636 30.1683 55.5773C30.9588 48.291 32.4953 41.7946 34.3342 37.1834C35.2544 34.8758 36.2439 33.0567 37.2418 31.8475C38.2489 30.6271 39.2076 30.0932 40.0688 30.1867C40.9301 30.2801 41.752 31.0071 42.474 32.4151C43.1893 33.8102 43.7657 35.7991 44.1696 38.2504C44.9768 43.1487 45.0844 49.8235 44.2939 57.1098Z" fill="#DB6363" stroke="#894211" stroke-width="0.6"/>
<path d="M37.831 52.875C37.6124 51.1037 35.0961 50.9672 34.6872 52.7045V52.7045C34.5696 53.2041 34.2194 53.6169 33.7456 53.8143L30.216 55.285C29.2487 55.6881 28.7565 56.7694 29.0879 57.7636L30.6321 62.3962C30.8688 63.1063 30.8314 63.8792 30.5274 64.5633L27.7871 70.7289C27.3485 71.7159 27.7727 72.8729 28.7455 73.3424L31.0493 74.4543C31.7406 74.788 32.18 75.4879 32.18 76.2555V78.1159C32.18 79.8891 34.548 80.4878 35.3908 78.9277V78.9277C36.0519 77.704 37.8204 77.7413 38.4292 78.9919L38.4808 79.0978C39.2671 80.7129 41.6815 80.2627 41.833 78.4728L42.1585 74.6261C42.2076 74.0459 42.5071 73.5159 42.9788 73.1746L45.4312 71.3997C46.2946 70.7748 46.5164 69.5827 45.9353 68.6892L42.7098 63.7288C42.4075 63.2639 42.3117 62.6944 42.4454 62.1563L43.6002 57.5082C43.9984 55.9054 42.0677 54.7663 40.8573 55.8901V55.8901C39.864 56.8123 38.244 56.2212 38.078 54.876L37.831 52.875Z" fill="#77C065"/>
<path d="M42.831 54.9959C42.6124 56.7672 40.0961 56.9036 39.6872 55.1663V55.1663C39.5696 54.6667 39.2194 54.2539 38.7456 54.0565L35.216 52.5859C34.2487 52.1828 33.7565 51.1014 34.0879 50.1072L35.6321 45.4747C35.8688 44.7646 35.8314 43.9916 35.5274 43.3076L32.7871 37.1419C32.3485 36.1549 32.7727 34.9979 33.7455 34.5284L36.0493 33.4166C36.7406 33.0829 37.18 32.383 37.18 31.6154V29.755C37.18 27.9818 39.548 27.383 40.3908 28.9431V28.9431C41.0519 30.1669 42.8204 30.1295 43.4292 28.8789L43.4808 28.7731C44.2671 27.158 46.6815 27.6082 46.833 29.3981L47.1585 33.2447C47.2076 33.8249 47.5071 34.3549 47.9788 34.6963L50.4312 36.4712C51.2946 37.096 51.5164 38.2882 50.9353 39.1817L47.7098 44.142C47.4075 44.6069 47.3117 45.1764 47.4454 45.7145L48.6002 50.3626C48.9984 51.9655 47.0677 53.1045 45.8573 51.9808V51.9808C44.864 51.0586 43.244 51.6497 43.078 52.9949L42.831 54.9959Z" fill="#77C065"/>
<ellipse cx="35.4386" cy="68.7448" rx="3" ry="13.5" transform="rotate(6.1917 35.4386 68.7448)" fill="#F76464"/>
<ellipse cx="39.4386" cy="42.7448" rx="3" ry="13.5" transform="rotate(6.1917 39.4386 42.7448)" fill="#F76464"/>
<path d="M40.8383 30.2955C41.1355 28.2115 44.0363 27.9421 44.7123 29.9357L57.5398 67.766C57.8353 68.6375 57.498 69.5982 56.7225 70.0936L36.6721 82.9039C35.2309 83.8247 33.3738 82.6292 33.6153 80.9361L40.8383 30.2955Z" fill="#FCE2AF"/>
<path d="M45.8383 30.2955C46.1355 28.2115 49.0363 27.9421 49.7123 29.9357L62.5398 67.766C62.8353 68.6375 62.498 69.5982 61.7225 70.0936L41.6721 82.9039C40.2309 83.8247 38.3738 82.6292 38.6153 80.9361L45.8383 30.2955Z" fill="#FFEBC5"/>
<path d="M43 28.6L48 28.6L40.5 83.2H35.5L43 28.6Z" fill="#FCE2AF"/>
<path d="M52.8383 30.2955C53.1355 28.2115 56.0363 27.9421 56.7123 29.9357L69.5398 67.766C69.8353 68.6375 69.498 69.5982 68.7225 70.0936L48.6721 82.9039C47.2309 83.8247 45.3738 82.6292 45.6153 80.9361L52.8383 30.2955Z" fill="#FCE2AF"/>
<path d="M57.8383 30.2955C58.1355 28.2115 61.0363 27.9421 61.7123 29.9357L74.5398 67.766C74.8353 68.6375 74.498 69.5982 73.7225 70.0936L53.6721 82.9039C52.2309 83.8247 50.3738 82.6292 50.6153 80.9361L57.8383 30.2955Z" fill="#F7DBB3"/>
<path d="M55 28.6L60 28.6L52.5 83.2H47.5L55 28.6Z" fill="#FCE2AF"/>
<path d="M68.2939 57.1098C67.5035 64.396 65.9669 70.8925 64.1281 75.5037C63.2079 77.8113 62.2184 79.6303 61.2205 80.8395C60.2134 82.0599 59.2547 82.5938 58.3934 82.5004C57.5322 82.4069 56.7103 81.6799 55.9883 80.2719C55.2729 78.8768 54.6966 76.8879 54.2926 74.4366C53.4855 69.5384 53.3778 62.8636 54.1683 55.5773C54.9588 48.291 56.4953 41.7946 58.3342 37.1834C59.2544 34.8758 60.2439 33.0567 61.2418 31.8475C62.2489 30.6271 63.2076 30.0932 64.0688 30.1867C64.9301 30.2801 65.752 31.0071 66.474 32.4151C67.1893 33.8102 67.7657 35.7991 68.1696 38.2504C68.9768 43.1487 69.0844 49.8235 68.2939 57.1098Z" fill="#DB6363" stroke="#894211" stroke-width="0.6"/>
<path d="M59.1415 52.875C59.3601 51.1037 61.8765 50.9672 62.2853 52.7045V52.7045C62.4029 53.2041 62.7531 53.6169 63.2269 53.8143L66.7565 55.285C67.7239 55.6881 68.2161 56.7694 67.8847 57.7636L66.3405 62.3962C66.1038 63.1063 66.1411 63.8792 66.4451 64.5633L69.1854 70.7289C69.6241 71.7159 69.1998 72.8729 68.2271 73.3424L65.9232 74.4543C65.2319 74.788 64.7925 75.4879 64.7925 76.2555V78.1159C64.7925 79.8891 62.4246 80.4878 61.5817 78.9277V78.9277C60.9206 77.704 59.1522 77.7413 58.5433 78.9919L58.4917 79.0978C57.7054 80.7129 55.291 80.2627 55.1395 78.4728L54.814 74.6261C54.7649 74.0459 54.4654 73.5159 53.9937 73.1746L51.5413 71.3997C50.6779 70.7748 50.4562 69.5827 51.0372 68.6892L54.2628 63.7288C54.5651 63.2639 54.6608 62.6944 54.5271 62.1563L53.3724 57.5082C52.9741 55.9054 54.9048 54.7663 56.1152 55.8901V55.8901C57.1085 56.8123 58.7286 56.2212 58.8946 54.876L59.1415 52.875Z" fill="#77C065"/>
<path d="M65.831 30.875C65.6124 29.1037 63.0961 28.9672 62.6872 30.7045V30.7045C62.5696 31.2041 62.2194 31.6169 61.7456 31.8143L58.216 33.285C57.2487 33.6881 56.7565 34.7694 57.0879 35.7636L58.6321 40.3962C58.8688 41.1063 58.8314 41.8792 58.5274 42.5633L55.7871 48.7289C55.3485 49.7159 55.7727 50.8729 56.7455 51.3424L59.0493 52.4543C59.7406 52.788 60.18 53.4879 60.18 54.2555V56.1159C60.18 57.8891 62.548 58.4878 63.3908 56.9277V56.9277C64.0519 55.704 65.8204 55.7413 66.4292 56.9919L66.4808 57.0978C67.2671 58.7129 69.6815 58.2627 69.833 56.4728L70.1585 52.6261C70.2076 52.0459 70.5071 51.5159 70.9788 51.1746L73.4312 49.3997C74.2946 48.7748 74.5164 47.5827 73.9353 46.6892L70.7098 41.7288C70.4075 41.2639 70.3117 40.6944 70.4454 40.1563L71.6002 35.5082C71.9984 33.9054 70.0677 32.7663 68.8573 33.8901V33.8901C67.864 34.8123 66.244 34.2212 66.078 32.876L65.831 30.875Z" fill="#77C065"/>
<ellipse cx="59.4386" cy="68.7448" rx="3" ry="13.5" transform="rotate(6.1917 59.4386 68.7448)" fill="#F76464"/>
<ellipse cx="63.4386" cy="42.7448" rx="3" ry="13.5" transform="rotate(6.1917 63.4386 42.7448)" fill="#F76464"/>
<path d="M64.8383 30.2955C65.1355 28.2115 68.0363 27.9421 68.7123 29.9357L81.5398 67.766C81.8353 68.6375 81.498 69.5982 80.7225 70.0936L60.6721 82.9039C59.2309 83.8247 57.3738 82.6292 57.6153 80.9361L64.8383 30.2955Z" fill="#FCE2AF"/>
<path d="M69.8383 30.2955C70.1355 28.2115 73.0363 27.9421 73.7123 29.9357L86.5398 67.766C86.8353 68.6375 86.498 69.5982 85.7225 70.0936L65.6721 82.9039C64.2309 83.8247 62.3738 82.6292 62.6153 80.9361L69.8383 30.2955Z" fill="#FFEBC5"/>
<path d="M67 28.6L72 28.6L64.5 83.2H59.5L67 28.6Z" fill="#FCE2AF"/>
</g>
<defs>
<clipPath id="clip0_38_2042">
<rect width="105" height="90" fill="white"/>
</clipPath>
</defs>
</svg>
