<svg width="70" height="88" viewBox="0 0 70 88" fill="none" xmlns="http://www.w3.org/2000/svg">
<path d="M1.11087 41.3999C0.857865 40.1602 1.80519 39 3.07048 39H67.1717C68.437 39 69.3843 40.1602 69.1313 41.3999L59.9476 86.3999C59.7576 87.3311 58.9384 88 57.988 88H12.2542C11.3037 88 10.4846 87.3311 10.2945 86.3999L1.11087 41.3999Z" fill="#F0F8FF"/>
<path d="M60.8823 81.8219L59.9288 86.4938C59.7506 87.3674 58.925 88 57.9635 88H12.2794C11.3179 88 10.4923 87.3674 10.3141 86.4938L8.02344 75.2696C9.30774 73.6156 11.2284 72.5565 13.9139 72.4054C16.4302 72.2638 14.8245 73.8661 12.8785 75.8079C10.042 78.6384 6.48279 82.1901 13.9139 82.113C14.241 82.1204 14.5657 82.1365 14.8876 82.1609C15.3035 74.6815 18.5417 68.2886 25.6456 69.2838C28.1381 69.633 26.2047 70.8885 23.8618 72.4101C20.4465 74.628 16.1611 77.411 23.4447 78.7757C23.8303 78.8613 24.2094 78.9587 24.5819 79.0672C25.7887 75.7439 28.2651 73.5045 32.401 73.5104C34.9219 73.514 33.2113 75.0207 31.1383 76.8467C29.8478 77.9834 28.416 79.2445 27.7784 80.343C29.2952 81.1243 30.6613 82.0999 31.8591 83.2085C32.9216 83.3006 33.9514 83.4835 34.9429 83.7453C34.6786 77.7344 36.8396 72.7474 42.9142 72.4055C45.4304 72.2639 43.8247 73.8662 41.8788 75.808C39.0422 78.6385 35.483 82.1902 42.9142 82.113C43.5947 82.1284 44.2646 82.1815 44.9221 82.2693C45.3579 74.7233 48.6411 68.2521 55.7883 69.3013C58.2781 69.6667 56.3351 70.9096 53.9806 72.4158C50.5485 74.6113 46.2418 77.3662 53.5148 78.7785C54.4481 78.9922 55.3431 79.275 56.1971 79.618C56.8868 75.9402 58.9154 73.1752 62.7786 72.53L61.9103 76.7849C59.8982 78.8583 58.1827 81.0472 60.8823 81.8219Z" fill="#589EDD"/>
<ellipse cx="45.1211" cy="73.6698" rx="0.5" ry="0.462264" fill="#589EDD"/>
<ellipse cx="32.1211" cy="78.2924" rx="0.5" ry="0.462264" fill="#589EDD"/>
<ellipse cx="12.1211" cy="70.8962" rx="0.5" ry="0.462264" fill="#589EDD"/>
<ellipse cx="55.1211" cy="68.1226" rx="0.5" ry="0.462264" fill="#589EDD"/>
<ellipse cx="53.1211" cy="76.4434" rx="0.5" ry="0.462264" fill="#589EDD"/>
<ellipse cx="40.1211" cy="80.1415" rx="0.5" ry="0.462264" fill="#589EDD"/>
<ellipse cx="23.1211" cy="74.5943" rx="0.5" ry="0.462264" fill="#589EDD"/>
<ellipse cx="11.1211" cy="79.2169" rx="0.5" ry="0.462264" fill="#589EDD"/>
<ellipse cx="29.1211" cy="76.4434" rx="0.5" ry="0.462264" fill="#F0F8FF"/>
<ellipse cx="51.1211" cy="70.8962" rx="0.5" ry="0.462264" fill="#F0F8FF"/>
<ellipse cx="61.1211" cy="75.5188" rx="0.5" ry="0.462264" fill="#F0F8FF"/>
<ellipse cx="54.1211" cy="80.1415" rx="0.5" ry="0.462264" fill="#F0F8FF"/>
<ellipse cx="41.1211" cy="74.5943" rx="0.5" ry="0.462264" fill="#F0F8FF"/>
<ellipse cx="37.1211" cy="82.9151" rx="0.5" ry="0.462264" fill="#F0F8FF"/>
<ellipse cx="19.1211" cy="72.7453" rx="0.5" ry="0.462264" fill="#F0F8FF"/>
<ellipse cx="47.1211" cy="78.2924" rx="0.5" ry="0.462264" fill="#F0F8FF"/>
<ellipse cx="9.12109" cy="75.5188" rx="0.5" ry="0.462264" fill="#F0F8FF"/>
<ellipse cx="17.1211" cy="80.1415" rx="0.5" ry="0.462264" fill="#F0F8FF"/>
<path d="M34.5277 57.4141C34.1684 58.5859 33.7387 59.6719 33.2387 60.6719C32.7543 61.6562 32.1918 62.5703 31.5512 63.4141C30.9574 64.2109 30.3246 64.8828 29.6527 65.4297C28.9965 65.9766 28.3402 66.3672 27.684 66.6016C27.184 66.8359 26.8402 66.8359 26.6527 66.6016C26.4652 66.3516 26.5902 66.0469 27.0277 65.6875C27.4652 65.375 27.9262 64.9375 28.4105 64.375C28.8949 63.7969 29.3559 63.1328 29.7934 62.3828C30.2465 61.6328 30.6605 60.7891 31.0355 59.8516C31.4105 58.9141 31.723 57.9219 31.973 56.875H28.6449L27.6137 57.0625L26.9809 55.5156L28.3871 55.75H32.1605L32.3949 54.8125C32.4418 54.5156 32.6762 54.4375 33.098 54.5781C33.5199 54.7031 33.9496 54.9844 34.3871 55.4219C34.7621 55.7969 34.9887 56.0859 35.0668 56.2891C35.0824 56.3203 35.0902 56.3438 35.0902 56.3594V47.7344C35.1059 47.7344 35.3402 47.7578 35.7934 47.8047C36.2621 47.8516 36.7387 47.9531 37.223 48.1094C37.7074 48.2656 37.9887 48.4297 38.0668 48.6016C38.1449 48.7578 38.1605 48.9375 38.1137 49.1406C38.0355 49.3125 37.934 49.4766 37.809 49.6328C37.6996 49.7891 37.6449 49.9297 37.6449 50.0547V54.0625C37.7699 54.5938 37.934 55.125 38.1371 55.6562C38.3402 56.1875 38.4965 56.5391 38.6059 56.7109L41.9574 52.6797L43.5512 54.5547C43.8012 54.8203 43.934 55.0547 43.9496 55.2578C43.9809 55.4453 43.9418 55.6016 43.8324 55.7266C43.7543 55.8203 43.6059 55.8984 43.3871 55.9609C43.1684 56.0234 42.9496 56.0547 42.7309 56.0547C42.6684 56.0703 42.5121 56.1562 42.2621 56.3125C42.0121 56.4531 41.723 56.625 41.3949 56.8281C41.0355 57.0469 40.6605 57.2812 40.2699 57.5312C39.8949 57.7656 39.5512 57.9922 39.2387 58.2109C39.5824 58.9141 39.9809 59.6016 40.434 60.2734C40.9027 60.9453 41.4027 61.5625 41.934 62.125C42.4652 62.6719 43.0043 63.1406 43.5512 63.5312C44.098 63.9219 44.6137 64.1875 45.098 64.3281C45.4418 64.4375 45.6605 64.5391 45.7543 64.6328C45.848 64.7266 45.8402 64.8594 45.7309 65.0312C45.6684 65.1406 45.5277 65.2578 45.309 65.3828C45.0902 65.5078 44.848 65.6641 44.5824 65.8516C44.3012 66.0547 44.0824 66.2109 43.9262 66.3203C43.7855 66.4297 43.6762 66.5156 43.598 66.5781C43.4887 66.6406 43.3871 66.6875 43.2934 66.7188C43.1996 66.7344 43.1137 66.7031 43.0355 66.625C42.7074 66.5 42.3246 66.2734 41.8871 65.9453C41.4652 65.6016 41.0277 65.1484 40.5746 64.5859C40.1215 64.0391 39.6684 63.4062 39.2152 62.6875C38.7621 61.9531 38.3715 61.1484 38.0434 60.2734C37.9652 60.0391 37.8793 59.7578 37.7855 59.4297C37.7387 59.3047 37.6918 59.1641 37.6449 59.0078V67.0469C37.6449 67.3438 37.5824 67.6016 37.4574 67.8203C37.3324 68.0391 37.1684 68.2578 36.9652 68.4766C36.809 68.6328 36.6137 68.7656 36.3793 68.875C36.1449 69 35.9262 69.0625 35.723 69.0625C35.6605 69.0625 35.6059 69.0469 35.559 69.0156C35.5121 69 35.473 68.9844 35.4418 68.9688C35.3949 68.9375 35.3559 68.9062 35.3246 68.875C35.2934 68.8594 35.2699 68.8438 35.2543 68.8281C35.0512 68.6406 34.8168 68.4844 34.5512 68.3594C34.3012 68.25 34.0434 68.1562 33.7777 68.0781C33.5277 68 33.2934 67.9375 33.0746 67.8906C32.8715 67.8594 32.7621 67.8359 32.7465 67.8203C32.3871 67.7891 32.1996 67.625 32.184 67.3281C32.184 67.0312 32.4105 66.8828 32.8637 66.8828H35.0902V56.8281C35.0277 56.9688 34.934 57.0625 34.809 57.1094C34.6684 57.1875 34.5746 57.2891 34.5277 57.4141ZM33.1684 53.4531C32.7934 53.7969 32.4418 53.8438 32.1137 53.5938C31.7855 53.3281 31.5355 52.9922 31.3637 52.5859C31.1137 52.1016 30.8402 51.7109 30.5434 51.4141C30.2621 51.1172 30.0121 50.8672 29.7934 50.6641C29.5902 50.4609 29.4262 50.2891 29.3012 50.1484C29.1918 50.0078 29.2699 49.875 29.5355 49.75C29.848 49.6562 30.3168 49.6719 30.9418 49.7969C31.5824 49.9219 32.1918 50.1562 32.7699 50.5C33.4262 50.9375 33.7855 51.4375 33.848 52C33.9105 52.5625 33.684 53.0469 33.1684 53.4531Z" fill="#DE2E2E"/>
<path fill-rule="evenodd" clip-rule="evenodd" d="M7.96181 25.2641C10.0433 10.9458 21.4104 0 35.1211 0C48.8318 0 60.1989 10.9458 62.2804 25.2641C65.6564 29.206 67.6211 33.9265 67.6211 39H35.1211H2.62109C2.62109 33.9265 4.58577 29.206 7.96181 25.2641Z" fill="#FFFEF6"/>
<path fill-rule="evenodd" clip-rule="evenodd" d="M61.9031 23.1597C59.0658 9.8871 48.1519 0 35.1212 0C21.4105 0 10.0433 10.9458 7.9619 25.2641C6.64409 26.8028 5.54133 28.4601 4.68652 30.2107C9.93794 29.3789 14.7383 26.3597 17.1536 21.0562C17.3427 20.6411 17.5119 20.212 17.6622 19.7685C19.6274 22.2928 21.8844 21.2542 23.502 16.4715C25.179 25.2252 28.5141 29.0835 31.5302 27.7386C36.4554 35.6239 44.2751 37.7386 50.5546 33.7986C53.1083 34.5896 55.7943 33.0564 57.5893 29.0892C59.1702 29.2793 60.7492 27.3303 61.9031 23.1597Z" fill="#D8F2AC"/>
<ellipse cx="45.5125" cy="6.33493" rx="2.11433" ry="1" transform="rotate(-61.3475 45.5125 6.33493)" fill="#FEFBB1"/>
<ellipse cx="50.7556" cy="10.2564" rx="2.11433" ry="1" transform="rotate(-130.57 50.7556 10.2564)" fill="#FEFBB1"/>
<ellipse cx="36.7089" cy="4.88577" rx="2.11433" ry="1" transform="rotate(-87.5962 36.7089 4.88577)" fill="#FEFBB1"/>
<path d="M23.6283 6.5074C24.1042 6.78761 24.0098 7.8305 23.4173 8.83675C22.8248 9.843 21.9587 10.4316 21.4828 10.1514C21.0069 9.87114 21.1014 8.82826 21.6938 7.82201C22.2863 6.81576 23.1524 6.22719 23.6283 6.5074Z" fill="#FEFBB1"/>
<ellipse cx="28.5124" cy="4.06655" rx="2.11433" ry="1" transform="rotate(-61.3475 28.5124 4.06655)" fill="#FEFBB1"/>
<ellipse cx="31.2915" cy="11.3297" rx="2.11433" ry="1" transform="rotate(-110.27 31.2915 11.3297)" fill="#FEFBB1"/>
<ellipse cx="41.6693" cy="14.1365" rx="2.11433" ry="1" transform="rotate(-91.3078 41.6693 14.1365)" fill="#FEFBB1"/>
<path d="M33.6211 39.2314C27.6222 39.2314 28.0247 39.2314 21.1211 39.2314C14.2175 39.2314 15.2305 39.2534 8.62109 39.2314C8.62109 32.3279 14.2175 26.7314 21.1211 26.7314C28.0247 26.7314 33.6211 32.3279 33.6211 39.2314Z" fill="#B1CF7F"/>
<path d="M32.6211 39.2314C28.1211 39.2314 27.4724 39.2314 21.1211 39.2314C14.7698 39.2314 19.6211 39.2814 9.62109 39.2314C9.62109 32.8802 14.7698 27.7314 21.1211 27.7314C27.4724 27.7314 32.6211 32.8802 32.6211 39.2314Z" fill="#DEF3BB"/>
<path d="M21.5933 38.2594C21.479 38.4651 21.1831 38.4651 21.0689 38.2594L16.4965 30.0292C16.4087 29.8712 16.4795 29.6721 16.6473 29.6049L17.6172 29.217C20.0012 28.2634 22.6609 28.2634 25.0449 29.217L26.0148 29.6049C26.1826 29.6721 26.2534 29.8712 26.1657 30.0292L21.5933 38.2594Z" fill="#B1CF7F"/>
<path d="M20.3688 38.2841C20.4815 38.4841 20.3369 38.7314 20.1074 38.7314L11.1842 38.7314C10.9992 38.7314 10.8582 38.5654 10.8882 38.3827L11.0747 37.2501C11.5042 34.6418 12.9489 32.3096 15.093 30.7635L15.5586 30.4277C15.7037 30.3231 15.9076 30.3679 15.9954 30.5238L20.3688 38.2841Z" fill="#B1CF7F"/>
<path d="M22.3722 38.2888C22.2594 38.4876 22.4015 38.7344 22.63 38.7368L31.5272 38.83C31.7136 38.8319 31.8567 38.6652 31.8264 38.4812L31.6405 37.3523C31.2111 34.744 29.7664 32.4118 27.6222 30.8657L27.1559 30.5294C27.011 30.425 26.8076 30.4694 26.7195 30.6248L22.3722 38.2888Z" fill="#B1CF7F"/>
</svg>
