<svg width="70" height="98" viewBox="0 0 70 98" fill="none" xmlns="http://www.w3.org/2000/svg">
<path d="M1.11087 51.0342C0.857865 49.7945 1.80519 48.6343 3.07048 48.6343H67.1717C68.437 48.6343 69.3843 49.7945 69.1313 51.0342L59.9476 96.0342C59.7576 96.9654 58.9384 97.6343 57.988 97.6343H12.2542C11.3037 97.6343 10.4846 96.9654 10.2945 96.0342L1.11087 51.0342Z" fill="#F0F8FF"/>
<path d="M60.8823 91.4562L59.9288 96.1281C59.7506 97.0016 58.925 97.6343 57.9635 97.6343H12.2794C11.3179 97.6343 10.4923 97.0016 10.3141 96.1281L8.02344 84.9039C9.30774 83.2499 11.2284 82.1908 13.9139 82.0397C16.4302 81.8981 14.8245 83.5004 12.8785 85.4422C10.042 88.2727 6.48279 91.8244 13.9139 91.7472C14.241 91.7546 14.5657 91.7707 14.8876 91.7952C15.3035 84.3158 18.5417 77.9229 25.6456 78.9181C28.1381 79.2672 26.2047 80.5228 23.8618 82.0444C20.4465 84.2622 16.1611 87.0453 23.4447 88.41C23.8303 88.4956 24.2094 88.5929 24.5819 88.7015C25.7887 85.3781 28.2651 83.1388 32.401 83.1447C34.9219 83.1483 33.2113 84.655 31.1383 86.4809C29.8478 87.6177 28.416 88.8788 27.7784 89.9773C29.2952 90.7586 30.6613 91.7342 31.8591 92.8428C32.9216 92.9348 33.9514 93.1177 34.9429 93.3796C34.6786 87.3687 36.8396 82.3816 42.9142 82.0398C45.4304 81.8981 43.8247 83.5005 41.8788 85.4423C39.0422 88.2727 35.483 91.8245 42.9142 91.7473C43.5947 91.7627 44.2646 91.8158 44.9221 91.9036C45.3579 84.3576 48.6411 77.8864 55.7883 78.9356C58.2781 79.301 56.3351 80.5439 53.9806 82.0501C50.5485 84.2455 46.2418 87.0005 53.5148 88.4128C54.4481 88.6265 55.3431 88.9093 56.1971 89.2522C56.8868 85.5745 58.9154 82.8095 62.7786 82.1643L61.9103 86.4191C59.8982 88.4926 58.1827 90.6814 60.8823 91.4562Z" fill="#589EDD"/>
<ellipse cx="45.1211" cy="83.3041" rx="0.5" ry="0.462264" fill="#589EDD"/>
<ellipse cx="32.1211" cy="87.9267" rx="0.5" ry="0.462264" fill="#589EDD"/>
<ellipse cx="12.1211" cy="80.5305" rx="0.5" ry="0.462264" fill="#589EDD"/>
<ellipse cx="55.1211" cy="77.7569" rx="0.5" ry="0.462264" fill="#589EDD"/>
<ellipse cx="53.1211" cy="86.0777" rx="0.5" ry="0.462264" fill="#589EDD"/>
<ellipse cx="40.1211" cy="89.7758" rx="0.5" ry="0.462264" fill="#589EDD"/>
<ellipse cx="23.1211" cy="84.2286" rx="0.5" ry="0.462264" fill="#589EDD"/>
<ellipse cx="11.1211" cy="88.8512" rx="0.5" ry="0.462264" fill="#589EDD"/>
<ellipse cx="29.1211" cy="86.0777" rx="0.5" ry="0.462264" fill="#F0F8FF"/>
<ellipse cx="51.1211" cy="80.5305" rx="0.5" ry="0.462264" fill="#F0F8FF"/>
<ellipse cx="61.1211" cy="85.1531" rx="0.5" ry="0.462264" fill="#F0F8FF"/>
<ellipse cx="54.1211" cy="89.7758" rx="0.5" ry="0.462264" fill="#F0F8FF"/>
<ellipse cx="41.1211" cy="84.2286" rx="0.5" ry="0.462264" fill="#F0F8FF"/>
<ellipse cx="37.1211" cy="92.5493" rx="0.5" ry="0.462264" fill="#F0F8FF"/>
<ellipse cx="19.1211" cy="82.3795" rx="0.5" ry="0.462264" fill="#F0F8FF"/>
<ellipse cx="47.1211" cy="87.9267" rx="0.5" ry="0.462264" fill="#F0F8FF"/>
<ellipse cx="9.12109" cy="85.1531" rx="0.5" ry="0.462264" fill="#F0F8FF"/>
<ellipse cx="17.1211" cy="89.7758" rx="0.5" ry="0.462264" fill="#F0F8FF"/>
<path d="M34.5277 67.0483C34.1684 68.2202 33.7387 69.3062 33.2387 70.3062C32.7543 71.2905 32.1918 72.2046 31.5512 73.0483C30.9574 73.8452 30.3246 74.5171 29.6527 75.064C28.9965 75.6108 28.3402 76.0015 27.684 76.2358C27.184 76.4702 26.8402 76.4702 26.6527 76.2358C26.4652 75.9858 26.5902 75.6812 27.0277 75.3218C27.4652 75.0093 27.9262 74.5718 28.4105 74.0093C28.8949 73.4312 29.3559 72.7671 29.7934 72.0171C30.2465 71.2671 30.6605 70.4233 31.0355 69.4858C31.4105 68.5483 31.723 67.5562 31.973 66.5093H28.6449L27.6137 66.6968L26.9809 65.1499L28.3871 65.3843H32.1605L32.3949 64.4468C32.4418 64.1499 32.6762 64.0718 33.098 64.2124C33.5199 64.3374 33.9496 64.6187 34.3871 65.0562C34.7621 65.4312 34.9887 65.7202 35.0668 65.9233C35.0824 65.9546 35.0902 65.978 35.0902 65.9937V57.3687C35.1059 57.3687 35.3402 57.3921 35.7934 57.439C36.2621 57.4858 36.7387 57.5874 37.223 57.7437C37.7074 57.8999 37.9887 58.064 38.0668 58.2358C38.1449 58.3921 38.1605 58.5718 38.1137 58.7749C38.0355 58.9468 37.934 59.1108 37.809 59.2671C37.6996 59.4233 37.6449 59.564 37.6449 59.689V63.6968C37.7699 64.228 37.934 64.7593 38.1371 65.2905C38.3402 65.8218 38.4965 66.1733 38.6059 66.3452L41.9574 62.314L43.5512 64.189C43.8012 64.4546 43.934 64.689 43.9496 64.8921C43.9809 65.0796 43.9418 65.2358 43.8324 65.3608C43.7543 65.4546 43.6059 65.5327 43.3871 65.5952C43.1684 65.6577 42.9496 65.689 42.7309 65.689C42.6684 65.7046 42.5121 65.7905 42.2621 65.9468C42.0121 66.0874 41.723 66.2593 41.3949 66.4624C41.0355 66.6812 40.6605 66.9155 40.2699 67.1655C39.8949 67.3999 39.5512 67.6265 39.2387 67.8452C39.5824 68.5483 39.9809 69.2358 40.434 69.9077C40.9027 70.5796 41.4027 71.1968 41.934 71.7593C42.4652 72.3062 43.0043 72.7749 43.5512 73.1655C44.098 73.5562 44.6137 73.8218 45.098 73.9624C45.4418 74.0718 45.6605 74.1733 45.7543 74.2671C45.848 74.3608 45.8402 74.4937 45.7309 74.6655C45.6684 74.7749 45.5277 74.8921 45.309 75.0171C45.0902 75.1421 44.848 75.2983 44.5824 75.4858C44.3012 75.689 44.0824 75.8452 43.9262 75.9546C43.7855 76.064 43.6762 76.1499 43.598 76.2124C43.4887 76.2749 43.3871 76.3218 43.2934 76.353C43.1996 76.3687 43.1137 76.3374 43.0355 76.2593C42.7074 76.1343 42.3246 75.9077 41.8871 75.5796C41.4652 75.2358 41.0277 74.7827 40.5746 74.2202C40.1215 73.6733 39.6684 73.0405 39.2152 72.3218C38.7621 71.5874 38.3715 70.7827 38.0434 69.9077C37.9652 69.6733 37.8793 69.3921 37.7855 69.064C37.7387 68.939 37.6918 68.7983 37.6449 68.6421V76.6812C37.6449 76.978 37.5824 77.2358 37.4574 77.4546C37.3324 77.6733 37.1684 77.8921 36.9652 78.1108C36.809 78.2671 36.6137 78.3999 36.3793 78.5093C36.1449 78.6343 35.9262 78.6968 35.723 78.6968C35.6605 78.6968 35.6059 78.6812 35.559 78.6499C35.5121 78.6343 35.473 78.6187 35.4418 78.603C35.3949 78.5718 35.3559 78.5405 35.3246 78.5093C35.2934 78.4937 35.2699 78.478 35.2543 78.4624C35.0512 78.2749 34.8168 78.1187 34.5512 77.9937C34.3012 77.8843 34.0434 77.7905 33.7777 77.7124C33.5277 77.6343 33.2934 77.5718 33.0746 77.5249C32.8715 77.4937 32.7621 77.4702 32.7465 77.4546C32.3871 77.4233 32.1996 77.2593 32.184 76.9624C32.184 76.6655 32.4105 76.5171 32.8637 76.5171H35.0902V66.4624C35.0277 66.603 34.934 66.6968 34.809 66.7437C34.6684 66.8218 34.5746 66.9233 34.5277 67.0483ZM33.1684 63.0874C32.7934 63.4312 32.4418 63.478 32.1137 63.228C31.7855 62.9624 31.5355 62.6265 31.3637 62.2202C31.1137 61.7358 30.8402 61.3452 30.5434 61.0483C30.2621 60.7515 30.0121 60.5015 29.7934 60.2983C29.5902 60.0952 29.4262 59.9233 29.3012 59.7827C29.1918 59.6421 29.2699 59.5093 29.5355 59.3843C29.848 59.2905 30.3168 59.3062 30.9418 59.4312C31.5824 59.5562 32.1918 59.7905 32.7699 60.1343C33.4262 60.5718 33.7855 61.0718 33.848 61.6343C33.9105 62.1968 33.684 62.6812 33.1684 63.0874Z" fill="#DE2E2E"/>
<path fill-rule="evenodd" clip-rule="evenodd" d="M7.96181 34.8984C10.0433 20.5801 21.4104 9.63428 35.1211 9.63428C48.8318 9.63428 60.1989 20.5801 62.2804 34.8984C65.6564 38.8403 67.6211 43.5608 67.6211 48.6343H35.1211H2.62109C2.62109 43.5608 4.58577 38.8403 7.96181 34.8984Z" fill="#FFFEF6"/>
<path fill-rule="evenodd" clip-rule="evenodd" d="M38.314 9.83431C37.2665 9.70219 36.2011 9.63428 35.1212 9.63428C21.4105 9.63428 10.0433 20.5801 7.9619 34.8984C6.64409 36.4371 5.54133 38.0944 4.68652 39.845C9.93794 39.0132 14.7383 35.9939 17.1536 30.6905C17.3427 30.2753 17.5119 29.8463 17.6622 29.4028C19.6274 31.9271 21.8844 30.8885 23.502 26.1057C25.1546 34.7323 28.4176 38.6047 31.3985 37.4282C36.391 45.6127 44.4634 47.7429 50.8466 43.5131C53.3115 44.1037 55.8626 42.5397 57.5893 38.7235C59.1702 38.9136 60.7492 36.9645 61.9031 32.794C59.4761 21.4409 51.1398 12.5649 40.624 10.235C39.8139 10.16 39.0444 10.02 38.314 9.83431Z" fill="#F69D9D"/>
<path fill-rule="evenodd" clip-rule="evenodd" d="M39.1873 0.475377C38.7662 0.253127 38.2456 0.377863 37.971 0.766795L34.6667 5.44691C34.3053 5.9588 34.0098 6.51408 33.7871 7.09964C34.0384 7.59906 34.2374 8.22917 34.3659 9.00861C34.7117 8.48589 35.0614 8.07428 35.4097 7.76005C35.5984 7.25271 35.8584 6.77455 36.1821 6.34004L39.5048 1.87919C39.8521 1.41294 39.7014 0.746772 39.1873 0.475377Z" fill="#B1CF7F"/>
<path d="M40.6546 12.6728C39.8407 15.9767 36.1455 17.9074 32.4011 16.9851C28.6566 16.0627 26.2808 12.6367 27.0946 9.33272C27.9085 6.02877 33.3482 2.8357 34.3658 9.00861C37.7352 3.9163 41.4684 9.36882 40.6546 12.6728Z" fill="#DE2E2E"/>
</svg>
