<svg width="50" height="104" viewBox="0 0 50 104" fill="none" xmlns="http://www.w3.org/2000/svg">
<path d="M49.9198 36.0223C49.9627 35.6094 49.6387 35.25 49.2235 35.25H0.776543C0.36133 35.25 0.0373821 35.6093 0.0802901 36.0223L7.07769 103.372C7.11474 103.729 7.41535 104 7.77394 104H42.2261C42.5847 104 42.8853 103.729 42.9224 103.372L49.9198 36.0223Z" fill="#EEF7FF"/>
<path d="M46.798 39.1447C46.8392 38.7326 46.5156 38.375 46.1015 38.375H3.89853C3.4844 38.375 3.1608 38.7326 3.20201 39.1447L9.312 100.245C9.34779 100.602 9.6489 100.875 10.0085 100.875H39.9915C40.3511 100.875 40.6523 100.602 40.688 100.245L46.798 39.1447Z" fill="url(#paint0_diamond_82_795)"/>
<path d="M46.798 39.1447C46.8392 38.7326 46.5156 38.375 46.1015 38.375H3.89853C3.4844 38.375 3.1608 38.7326 3.20201 39.1447L9.312 100.245C9.34779 100.602 9.6489 100.875 10.0085 100.875H39.9915C40.3511 100.875 40.6523 100.602 40.688 100.245L46.798 39.1447Z" fill="url(#paint1_linear_82_795)"/>
<rect width="9.37499" height="9.37499" rx="0.75" transform="matrix(-0.997237 0.0742808 0.0742808 0.997237 30.5536 57.125)" fill="#FFFFFB" fill-opacity="0.7"/>
<rect width="9.37499" height="9.37499" rx="0.75" transform="matrix(-0.946551 -0.322553 -0.322553 0.946551 37.5 43.0625)" fill="#FFFFFB" fill-opacity="0.7"/>
<rect width="9.37499" height="9.37499" rx="0.75" transform="matrix(-0.946551 -0.322553 -0.322553 0.946551 25.9259 46.7227)" fill="#FFFFFB" fill-opacity="0.7"/>
<rect width="9.37499" height="9.37499" rx="0.75" transform="matrix(-0.998058 -0.0622981 -0.0622981 0.998058 43.6978 45.2613)" fill="#FFFFFB" fill-opacity="0.7"/>
<rect width="9.37499" height="9.37499" rx="0.75" transform="matrix(-0.998337 0.0576396 0.0576396 0.998337 33.8145 50.8956)" fill="#FFFFFB" fill-opacity="0.7"/>
<rect width="9.37499" height="9.37499" rx="0.75" transform="matrix(-0.660164 -0.751122 -0.751122 0.660164 18.75 56.2512)" fill="#FFFFFB" fill-opacity="0.7"/>
<rect width="9.37499" height="9.37499" rx="0.75" transform="matrix(-0.950162 -0.311758 -0.311758 0.950162 24.2999 63.8727)" fill="#FFFFFB" fill-opacity="0.7"/>
<rect x="30.3125" y="63.1729" width="9.37499" height="9.37499" rx="0.75" transform="rotate(-18.1652 30.3125 63.1729)" fill="#FFFFFB" fill-opacity="0.7"/>
<rect x="8.02429" y="40.875" width="9.37499" height="9.37499" rx="0.75" transform="rotate(-1.52629 8.02429 40.875)" fill="#FFFFFB" fill-opacity="0.7"/>
<path d="M33.0122 99.1722C29.8889 100.044 28.1346 97.9075 27.2952 94.9016C30.4428 93.8075 28.9761 94.104 32.0993 93.2318C35.2226 92.3595 35.2284 92.1442 39.6771 91.3914C40.5166 94.3973 36.1354 98.3 33.0122 99.1722Z" fill="#F76464"/>
<path d="M19.5081 93.8081C22.737 94.1067 23.6142 96.7286 23.3269 99.8363C19.996 99.7362 21.472 99.9822 18.2431 99.6836C15.0141 99.385 14.9319 99.5841 10.5071 98.7015C10.7944 95.5938 16.2791 93.5095 19.5081 93.8081Z" fill="#F76464"/>
<path d="M26.4847 96.6799C29.7168 96.942 31.0325 94.5103 31.2847 91.3996C27.9864 90.9244 29.4827 90.9364 26.2505 90.6743C23.0184 90.4123 22.9717 90.202 18.461 90.3094C18.2088 93.4201 23.2525 96.4179 26.4847 96.6799Z" fill="#F76464"/>
<path d="M13.829 93.6799C10.5969 93.942 9.28125 91.5103 9.02906 88.3996C12.3274 87.9244 10.8311 87.9364 14.0632 87.6743C17.2953 87.4123 17.342 87.202 21.8527 87.3094C22.1049 90.4201 17.0612 93.4179 13.829 93.6799Z" fill="#F76464"/>
<path d="M33.4847 86.3521C36.7168 86.0901 38.0325 88.5218 38.2847 91.6325C34.9864 92.1076 36.4827 92.0957 33.2505 92.3577C30.0184 92.6197 29.9717 92.83 25.461 92.7227C25.2088 89.6119 30.2525 86.6142 33.4847 86.3521Z" fill="#F76464"/>
<g filter="url(#filter0_b_82_795)">
<path d="M49.9198 36.0223C49.9627 35.6094 49.6387 35.25 49.2235 35.25H0.776542C0.361329 35.25 0.0373807 35.6093 0.0802887 36.0223L7.07769 103.372C7.11474 103.729 7.41535 104 7.77394 104H42.2261C42.5847 104 42.8853 103.729 42.9224 103.372L49.9198 36.0223Z" fill="#EEF7FF" fill-opacity="0.1"/>
</g>
<rect width="3.62849" height="93.7499" transform="matrix(-0.995273 -0.0971141 -0.0971141 0.995273 31.2501 4.35229)" fill="#FFE8E8"/>
<path fill-rule="evenodd" clip-rule="evenodd" d="M29.8858 18.3345L30.335 13.7308L26.8413 12.1732L26.3921 16.7769L29.8858 18.3345ZM29.0112 27.2974L29.4605 22.6937L25.9667 21.1361L25.5175 25.7399L29.0112 27.2974ZM28.1367 36.2602L28.5859 31.6565L25.0922 30.0989L24.643 34.7026L28.1367 36.2602ZM27.2622 45.223L27.7114 40.6192L24.2176 39.0616L23.7684 43.6654L27.2622 45.223ZM26.3876 54.1856L26.8368 49.5819L23.3431 48.0243L22.8939 52.628L26.3876 54.1856ZM25.5131 63.1484L25.9623 58.5446L22.4685 56.987L22.0193 61.5908L25.5131 63.1484ZM24.6385 72.1111L25.0877 67.5074L21.594 65.9498L21.1448 70.5535L24.6385 72.1111ZM23.764 81.0739L24.2132 76.4702L20.7195 74.9126L20.2702 79.5163L23.764 81.0739ZM22.8895 90.0365L23.3387 85.4328L19.8449 83.8752L19.3957 88.4789L22.8895 90.0365ZM18.9704 92.8377L18.5344 97.3067L22.1457 97.659L22.4642 94.3953L18.9704 92.8377ZM27.2666 7.81446L30.7603 9.37205L31.2095 4.76831L30.0035 4.23066L27.6388 3.99992L27.2666 7.81446Z" fill="#F66464"/>
<path d="M3.00012 37.2824C3.00012 41.0598 12.8499 44 25.0001 44C37.1504 44 47.0001 41.0598 47.0001 37.2824C47.0001 35.0293 32.7384 31.094 26.158 27.5101C24.1638 26.4239 26.8922 24.9851 26.2095 22.3727C25.9704 21.4578 25.0217 20.9569 24.081 21.0523C15.3884 21.9345 3.00012 33.7157 3.00012 37.2824Z" fill="url(#paint2_radial_82_795)"/>
<mask id="mask0_82_795" style="mask-type:alpha" maskUnits="userSpaceOnUse" x="8" y="0" width="37" height="33">
<ellipse cx="26.0001" cy="16.5" rx="18" ry="16.5" fill="#D9D9D9"/>
</mask>
<g mask="url(#mask0_82_795)">
<rect width="3.62849" height="93.7499" transform="matrix(-0.995273 -0.0971141 -0.0971141 0.995273 31.2501 4.35229)" fill="#FFE8E8"/>
<path fill-rule="evenodd" clip-rule="evenodd" d="M29.8858 18.3345L30.335 13.7308L26.8413 12.1732L26.3921 16.7769L29.8858 18.3345ZM29.0112 27.2974L29.4605 22.6937L25.9667 21.1361L25.5175 25.7399L29.0112 27.2974ZM28.1367 36.2602L28.5859 31.6565L25.0922 30.0989L24.643 34.7026L28.1367 36.2602ZM27.2622 45.223L27.7114 40.6192L24.2176 39.0616L23.7684 43.6654L27.2622 45.223ZM26.3876 54.1856L26.8368 49.5819L23.3431 48.0243L22.8939 52.628L26.3876 54.1856ZM25.5131 63.1484L25.9623 58.5446L22.4685 56.987L22.0193 61.5908L25.5131 63.1484ZM24.6385 72.1111L25.0877 67.5074L21.594 65.9498L21.1448 70.5535L24.6385 72.1111ZM23.764 81.0739L24.2132 76.4702L20.7195 74.9126L20.2702 79.5163L23.764 81.0739ZM22.8895 90.0365L23.3387 85.4328L19.8449 83.8752L19.3957 88.4789L22.8895 90.0365ZM18.9704 92.8377L18.5344 97.3067L22.1457 97.659L22.4642 94.3953L18.9704 92.8377ZM27.2666 7.81446L30.7603 9.37205L31.2095 4.76831L30.0035 4.23066L27.6388 3.99992L27.2666 7.81446Z" fill="#F66464"/>
</g>
<path d="M8.79652 34.56C6.98322 30.9333 9.16295 28.2849 12.6208 26.556C16.0787 24.8271 19.5052 24.6724 21.3185 28.2991C23.1318 31.9257 23.234 39.138 19.7761 40.8669C16.3183 42.5958 10.6098 38.1866 8.79652 34.56Z" fill="#F76464" fill-opacity="0.1"/>
<path d="M13.6119 29.067C13.7888 29.1539 14.0001 29.0495 14.0385 28.8561L14.3374 27.3495C14.3976 27.0463 14.5946 26.7879 14.8711 26.6497L15.7035 26.2335C15.9766 26.0969 15.8948 25.6871 15.5901 25.6659L14.939 25.6206C14.586 25.596 14.2722 25.3867 14.114 25.0702L13.7502 24.3426C13.6464 24.1349 13.3561 24.1189 13.23 24.3139L12.5747 25.3273C12.377 25.633 12.0287 25.8071 11.6655 25.7818L10.4617 25.698C10.23 25.6819 10.0687 25.9238 10.1725 26.1315L10.5363 26.859C10.6945 27.1755 10.6737 27.5521 10.4816 27.8492L10.1271 28.3974C9.9613 28.6538 10.2401 28.9652 10.5132 28.8286L11.3654 28.4025C11.6448 28.2628 11.9734 28.2617 12.2537 28.3995L13.6119 29.067Z" fill="#B1CF7F"/>
<mask id="mask1_82_795" style="mask-type:alpha" maskUnits="userSpaceOnUse" x="2" y="17" width="22" height="22">
<ellipse cx="12.5001" cy="28" rx="10.5" ry="11" fill="#D9D9D9"/>
</mask>
<g mask="url(#mask1_82_795)">
<path d="M8.79652 34.56C6.98322 30.9333 9.16295 28.2849 12.6208 26.556C16.0787 24.8271 19.5052 24.6724 21.3185 28.2991C23.1318 31.9257 23.234 39.138 19.7761 40.8669C16.3183 42.5958 10.6098 38.1866 8.79652 34.56Z" fill="#F76464"/>
<path d="M13.6119 29.067C13.7888 29.1539 14.0001 29.0495 14.0385 28.8561L14.3374 27.3495C14.3976 27.0463 14.5946 26.7879 14.8711 26.6497L15.7035 26.2335C15.9766 26.0969 15.8948 25.6871 15.5901 25.6659L14.939 25.6206C14.586 25.596 14.2722 25.3867 14.114 25.0702L13.7502 24.3426C13.6464 24.1349 13.3561 24.1189 13.23 24.3139L12.5747 25.3273C12.377 25.633 12.0287 25.8071 11.6655 25.7818L10.4617 25.698C10.23 25.6819 10.0687 25.9238 10.1725 26.1315L10.5363 26.859C10.6945 27.1755 10.6737 27.5521 10.4816 27.8492L10.1271 28.3974C9.9613 28.6538 10.2401 28.9652 10.5132 28.8286L11.3654 28.4025C11.6448 28.2628 11.9734 28.2617 12.2537 28.3995L13.6119 29.067Z" fill="#B1CF7F"/>
</g>
<defs>
<filter id="filter0_b_82_795" x="-0.073584" y="35.1" width="50.1472" height="69.0499" filterUnits="userSpaceOnUse" color-interpolation-filters="sRGB">
<feFlood flood-opacity="0" result="BackgroundImageFix"/>
<feGaussianBlur in="BackgroundImageFix" stdDeviation="0.075"/>
<feComposite in2="SourceAlpha" operator="in" result="effect1_backgroundBlur_82_795"/>
<feBlend mode="normal" in="SourceGraphic" in2="effect1_backgroundBlur_82_795" result="shape"/>
</filter>
<radialGradient id="paint0_diamond_82_795" cx="0" cy="0" r="1" gradientUnits="userSpaceOnUse" gradientTransform="translate(17.0001 13.5) rotate(84.2176) scale(79.404 61.6793)">
<stop offset="0.16445" stop-color="#FF5454"/>
<stop offset="0.911807" stop-color="#FFF5F0"/>
</radialGradient>
<linearGradient id="paint1_linear_82_795" x1="25" y1="38.375" x2="25" y2="100.875" gradientUnits="userSpaceOnUse">
<stop offset="0.557292" stop-color="#FFE8E8" stop-opacity="0"/>
<stop offset="1" stop-color="#FC4545"/>
</linearGradient>
<radialGradient id="paint2_radial_82_795" cx="0" cy="0" r="1" gradientUnits="userSpaceOnUse" gradientTransform="translate(25.2057 27.3587) rotate(90.8045) scale(14.6439 33.9269)">
<stop offset="0.0001" stop-color="#FFF5F0"/>
<stop offset="0.648177" stop-color="#FFF5F0"/>
<stop offset="1" stop-color="#FAE3D7"/>
</radialGradient>
</defs>
</svg>
